G04 #@! TF.GenerationSoftware,KiCad,Pcbnew,(5.1.2-1)-1*
G04 #@! TF.CreationDate,2019-08-02T10:30:20+09:00*
G04 #@! TF.ProjectId,split-ask_left,73706c69-742d-4617-936b-5f6c6566742e,rev?*
G04 #@! TF.SameCoordinates,Original*
G04 #@! TF.FileFunction,Legend,Top*
G04 #@! TF.FilePolarity,Positive*
%FSLAX46Y46*%
G04 Gerber Fmt 4.6, Leading zero omitted, Abs format (unit mm)*
G04 Created by KiCad (PCBNEW (5.1.2-1)-1) date 2019-08-02 10:30:20*
%MOMM*%
%LPD*%
G04 APERTURE LIST*
%ADD10C,0.150000*%
G04 APERTURE END LIST*
D10*
X42862500Y-33737500D02*
X42362500Y-32837500D01*
X42362500Y-32837500D02*
X43362500Y-32837500D01*
X43362500Y-32837500D02*
X42862500Y-33737500D01*
X42362500Y-33837500D02*
X43362500Y-33837500D01*
X42112500Y-30637500D02*
X42112500Y-36037500D01*
X42112500Y-36037500D02*
X43612500Y-36037500D01*
X43612500Y-36037500D02*
X43612500Y-30637500D01*
X43612500Y-30637500D02*
X42112500Y-30637500D01*
X62662500Y-30637500D02*
X61162500Y-30637500D01*
X62662500Y-36037500D02*
X62662500Y-30637500D01*
X61162500Y-36037500D02*
X62662500Y-36037500D01*
X61162500Y-30637500D02*
X61162500Y-36037500D01*
X61412500Y-33837500D02*
X62412500Y-33837500D01*
X62412500Y-32837500D02*
X61912500Y-33737500D01*
X61412500Y-32837500D02*
X62412500Y-32837500D01*
X61912500Y-33737500D02*
X61412500Y-32837500D01*
X79771900Y-33737500D02*
X79271900Y-32837500D01*
X79271900Y-32837500D02*
X80271900Y-32837500D01*
X80271900Y-32837500D02*
X79771900Y-33737500D01*
X79271900Y-33837500D02*
X80271900Y-33837500D01*
X79021900Y-30637500D02*
X79021900Y-36037500D01*
X79021900Y-36037500D02*
X80521900Y-36037500D01*
X80521900Y-36037500D02*
X80521900Y-30637500D01*
X80521900Y-30637500D02*
X79021900Y-30637500D01*
X82903100Y-30637500D02*
X81403100Y-30637500D01*
X82903100Y-36037500D02*
X82903100Y-30637500D01*
X81403100Y-36037500D02*
X82903100Y-36037500D01*
X81403100Y-30637500D02*
X81403100Y-36037500D01*
X81653100Y-33837500D02*
X82653100Y-33837500D01*
X82653100Y-32837500D02*
X82153100Y-33737500D01*
X81653100Y-32837500D02*
X82653100Y-32837500D01*
X82153100Y-33737500D02*
X81653100Y-32837500D01*
X98821900Y-33737500D02*
X98321900Y-32837500D01*
X98321900Y-32837500D02*
X99321900Y-32837500D01*
X99321900Y-32837500D02*
X98821900Y-33737500D01*
X98321900Y-33837500D02*
X99321900Y-33837500D01*
X98071900Y-30637500D02*
X98071900Y-36037500D01*
X98071900Y-36037500D02*
X99571900Y-36037500D01*
X99571900Y-36037500D02*
X99571900Y-30637500D01*
X99571900Y-30637500D02*
X98071900Y-30637500D01*
X101953000Y-30637500D02*
X100453000Y-30637500D01*
X101953000Y-36037500D02*
X101953000Y-30637500D01*
X100453000Y-36037500D02*
X101953000Y-36037500D01*
X100453000Y-30637500D02*
X100453000Y-36037500D01*
X100703000Y-33837500D02*
X101703000Y-33837500D01*
X101703000Y-32837500D02*
X101203000Y-33737500D01*
X100703000Y-32837500D02*
X101703000Y-32837500D01*
X101203000Y-33737500D02*
X100703000Y-32837500D01*
X52387500Y-52787500D02*
X51887500Y-51887500D01*
X51887500Y-51887500D02*
X52887500Y-51887500D01*
X52887500Y-51887500D02*
X52387500Y-52787500D01*
X51887500Y-52887500D02*
X52887500Y-52887500D01*
X51637500Y-49687500D02*
X51637500Y-55087500D01*
X51637500Y-55087500D02*
X53137500Y-55087500D01*
X53137500Y-55087500D02*
X53137500Y-49687500D01*
X53137500Y-49687500D02*
X51637500Y-49687500D01*
X72187500Y-49687500D02*
X70687500Y-49687500D01*
X72187500Y-55087500D02*
X72187500Y-49687500D01*
X70687500Y-55087500D02*
X72187500Y-55087500D01*
X70687500Y-49687500D02*
X70687500Y-55087500D01*
X70937500Y-52887500D02*
X71937500Y-52887500D01*
X71937500Y-51887500D02*
X71437500Y-52787500D01*
X70937500Y-51887500D02*
X71937500Y-51887500D01*
X71437500Y-52787500D02*
X70937500Y-51887500D01*
X90487500Y-52787500D02*
X89987500Y-51887500D01*
X89987500Y-51887500D02*
X90987500Y-51887500D01*
X90987500Y-51887500D02*
X90487500Y-52787500D01*
X89987500Y-52887500D02*
X90987500Y-52887500D01*
X89737500Y-49687500D02*
X89737500Y-55087500D01*
X89737500Y-55087500D02*
X91237500Y-55087500D01*
X91237500Y-55087500D02*
X91237500Y-49687500D01*
X91237500Y-49687500D02*
X89737500Y-49687500D01*
X110288000Y-49687500D02*
X108788000Y-49687500D01*
X110288000Y-55087500D02*
X110288000Y-49687500D01*
X108788000Y-55087500D02*
X110288000Y-55087500D01*
X108788000Y-49687500D02*
X108788000Y-55087500D01*
X109038000Y-52887500D02*
X110038000Y-52887500D01*
X110038000Y-51887500D02*
X109538000Y-52787500D01*
X109038000Y-51887500D02*
X110038000Y-51887500D01*
X109538000Y-52787500D02*
X109038000Y-51887500D01*
X127397000Y-52787500D02*
X126897000Y-51887500D01*
X126897000Y-51887500D02*
X127897000Y-51887500D01*
X127897000Y-51887500D02*
X127397000Y-52787500D01*
X126897000Y-52887500D02*
X127897000Y-52887500D01*
X126647000Y-49687500D02*
X126647000Y-55087500D01*
X126647000Y-55087500D02*
X128147000Y-55087500D01*
X128147000Y-55087500D02*
X128147000Y-49687500D01*
X128147000Y-49687500D02*
X126647000Y-49687500D01*
X130528000Y-49687500D02*
X129028000Y-49687500D01*
X130528000Y-55087500D02*
X130528000Y-49687500D01*
X129028000Y-55087500D02*
X130528000Y-55087500D01*
X129028000Y-49687500D02*
X129028000Y-55087500D01*
X129278000Y-52887500D02*
X130278000Y-52887500D01*
X130278000Y-51887500D02*
X129778000Y-52787500D01*
X129278000Y-51887500D02*
X130278000Y-51887500D01*
X129778000Y-52787500D02*
X129278000Y-51887500D01*
X75009400Y-71837500D02*
X74509400Y-70937500D01*
X74509400Y-70937500D02*
X75509400Y-70937500D01*
X75509400Y-70937500D02*
X75009400Y-71837500D01*
X74509400Y-71937500D02*
X75509400Y-71937500D01*
X74259400Y-68737500D02*
X74259400Y-74137500D01*
X74259400Y-74137500D02*
X75759400Y-74137500D01*
X75759400Y-74137500D02*
X75759400Y-68737500D01*
X75759400Y-68737500D02*
X74259400Y-68737500D01*
X78140600Y-68737500D02*
X76640600Y-68737500D01*
X78140600Y-74137500D02*
X78140600Y-68737500D01*
X76640600Y-74137500D02*
X78140600Y-74137500D01*
X76640600Y-68737500D02*
X76640600Y-74137500D01*
X76890600Y-71937500D02*
X77890600Y-71937500D01*
X77890600Y-70937500D02*
X77390600Y-71837500D01*
X76890600Y-70937500D02*
X77890600Y-70937500D01*
X77390600Y-71837500D02*
X76890600Y-70937500D01*
X95250000Y-71837500D02*
X94750000Y-70937500D01*
X94750000Y-70937500D02*
X95750000Y-70937500D01*
X95750000Y-70937500D02*
X95250000Y-71837500D01*
X94750000Y-71937500D02*
X95750000Y-71937500D01*
X94500000Y-68737500D02*
X94500000Y-74137500D01*
X94500000Y-74137500D02*
X96000000Y-74137500D01*
X96000000Y-74137500D02*
X96000000Y-68737500D01*
X96000000Y-68737500D02*
X94500000Y-68737500D01*
X115050000Y-68737500D02*
X113550000Y-68737500D01*
X115050000Y-74137500D02*
X115050000Y-68737500D01*
X113550000Y-74137500D02*
X115050000Y-74137500D01*
X113550000Y-68737500D02*
X113550000Y-74137500D01*
X113800000Y-71937500D02*
X114800000Y-71937500D01*
X114800000Y-70937500D02*
X114300000Y-71837500D01*
X113800000Y-70937500D02*
X114800000Y-70937500D01*
X114300000Y-71837500D02*
X113800000Y-70937500D01*
X132159000Y-71837500D02*
X131659000Y-70937500D01*
X131659000Y-70937500D02*
X132659000Y-70937500D01*
X132659000Y-70937500D02*
X132159000Y-71837500D01*
X131659000Y-71937500D02*
X132659000Y-71937500D01*
X131409000Y-68737500D02*
X131409000Y-74137500D01*
X131409000Y-74137500D02*
X132909000Y-74137500D01*
X132909000Y-74137500D02*
X132909000Y-68737500D01*
X132909000Y-68737500D02*
X131409000Y-68737500D01*
X135291000Y-68737500D02*
X133791000Y-68737500D01*
X135291000Y-74137500D02*
X135291000Y-68737500D01*
X133791000Y-74137500D02*
X135291000Y-74137500D01*
X133791000Y-68737500D02*
X133791000Y-74137500D01*
X134041000Y-71937500D02*
X135041000Y-71937500D01*
X135041000Y-70937500D02*
X134541000Y-71837500D01*
X134041000Y-70937500D02*
X135041000Y-70937500D01*
X134541000Y-71837500D02*
X134041000Y-70937500D01*
X66675000Y-90887500D02*
X66175000Y-89987500D01*
X66175000Y-89987500D02*
X67175000Y-89987500D01*
X67175000Y-89987500D02*
X66675000Y-90887500D01*
X66175000Y-90987500D02*
X67175000Y-90987500D01*
X65925000Y-87787500D02*
X65925000Y-93187500D01*
X65925000Y-93187500D02*
X67425000Y-93187500D01*
X67425000Y-93187500D02*
X67425000Y-87787500D01*
X67425000Y-87787500D02*
X65925000Y-87787500D01*
X86475000Y-87787500D02*
X84975000Y-87787500D01*
X86475000Y-93187500D02*
X86475000Y-87787500D01*
X84975000Y-93187500D02*
X86475000Y-93187500D01*
X84975000Y-87787500D02*
X84975000Y-93187500D01*
X85225000Y-90987500D02*
X86225000Y-90987500D01*
X86225000Y-89987500D02*
X85725000Y-90887500D01*
X85225000Y-89987500D02*
X86225000Y-89987500D01*
X85725000Y-90887500D02*
X85225000Y-89987500D01*
X104775000Y-90887500D02*
X104275000Y-89987500D01*
X104275000Y-89987500D02*
X105275000Y-89987500D01*
X105275000Y-89987500D02*
X104775000Y-90887500D01*
X104275000Y-90987500D02*
X105275000Y-90987500D01*
X104025000Y-87787500D02*
X104025000Y-93187500D01*
X104025000Y-93187500D02*
X105525000Y-93187500D01*
X105525000Y-93187500D02*
X105525000Y-87787500D01*
X105525000Y-87787500D02*
X104025000Y-87787500D01*
X124575000Y-87787500D02*
X123075000Y-87787500D01*
X124575000Y-93187500D02*
X124575000Y-87787500D01*
X123075000Y-93187500D02*
X124575000Y-93187500D01*
X123075000Y-87787500D02*
X123075000Y-93187500D01*
X123325000Y-90987500D02*
X124325000Y-90987500D01*
X124325000Y-89987500D02*
X123825000Y-90887500D01*
X123325000Y-89987500D02*
X124325000Y-89987500D01*
X123825000Y-90887500D02*
X123325000Y-89987500D01*
X141684000Y-90887500D02*
X141184000Y-89987500D01*
X141184000Y-89987500D02*
X142184000Y-89987500D01*
X142184000Y-89987500D02*
X141684000Y-90887500D01*
X141184000Y-90987500D02*
X142184000Y-90987500D01*
X140934000Y-87787500D02*
X140934000Y-93187500D01*
X140934000Y-93187500D02*
X142434000Y-93187500D01*
X142434000Y-93187500D02*
X142434000Y-87787500D01*
X142434000Y-87787500D02*
X140934000Y-87787500D01*
X144816000Y-87787500D02*
X143316000Y-87787500D01*
X144816000Y-93187500D02*
X144816000Y-87787500D01*
X143316000Y-93187500D02*
X144816000Y-93187500D01*
X143316000Y-87787500D02*
X143316000Y-93187500D01*
X143566000Y-90987500D02*
X144566000Y-90987500D01*
X144566000Y-89987500D02*
X144066000Y-90887500D01*
X143566000Y-89987500D02*
X144566000Y-89987500D01*
X144066000Y-90887500D02*
X143566000Y-89987500D01*
X42862500Y-109938000D02*
X42362500Y-109038000D01*
X42362500Y-109038000D02*
X43362500Y-109038000D01*
X43362500Y-109038000D02*
X42862500Y-109938000D01*
X42362500Y-110038000D02*
X43362500Y-110038000D01*
X42112500Y-106838000D02*
X42112500Y-112238000D01*
X42112500Y-112238000D02*
X43612500Y-112238000D01*
X43612500Y-112238000D02*
X43612500Y-106838000D01*
X43612500Y-106838000D02*
X42112500Y-106838000D01*
X62662500Y-106838000D02*
X61162500Y-106838000D01*
X62662500Y-112238000D02*
X62662500Y-106838000D01*
X61162500Y-112238000D02*
X62662500Y-112238000D01*
X61162500Y-106838000D02*
X61162500Y-112238000D01*
X61412500Y-110038000D02*
X62412500Y-110038000D01*
X62412500Y-109038000D02*
X61912500Y-109938000D01*
X61412500Y-109038000D02*
X62412500Y-109038000D01*
X61912500Y-109938000D02*
X61412500Y-109038000D01*
X95250000Y-109938000D02*
X94750000Y-109038000D01*
X94750000Y-109038000D02*
X95750000Y-109038000D01*
X95750000Y-109038000D02*
X95250000Y-109938000D01*
X94750000Y-110038000D02*
X95750000Y-110038000D01*
X94500000Y-106838000D02*
X94500000Y-112238000D01*
X94500000Y-112238000D02*
X96000000Y-112238000D01*
X96000000Y-112238000D02*
X96000000Y-106838000D01*
X96000000Y-106838000D02*
X94500000Y-106838000D01*
X157220000Y-106838000D02*
X155720000Y-106838000D01*
X157220000Y-112238000D02*
X157220000Y-106838000D01*
X155720000Y-112238000D02*
X157220000Y-112238000D01*
X155720000Y-106838000D02*
X155720000Y-112238000D01*
X155970000Y-110038000D02*
X156970000Y-110038000D01*
X156970000Y-109038000D02*
X156470000Y-109938000D01*
X155970000Y-109038000D02*
X156970000Y-109038000D01*
X156470000Y-109938000D02*
X155970000Y-109038000D01*
X150019000Y-109938000D02*
X149519000Y-109038000D01*
X149519000Y-109038000D02*
X150519000Y-109038000D01*
X150519000Y-109038000D02*
X150019000Y-109938000D01*
X149519000Y-110038000D02*
X150519000Y-110038000D01*
X149269000Y-106838000D02*
X149269000Y-112238000D01*
X149269000Y-112238000D02*
X150769000Y-112238000D01*
X150769000Y-112238000D02*
X150769000Y-106838000D01*
X150769000Y-106838000D02*
X149269000Y-106838000D01*
M02*
