G04 #@! TF.GenerationSoftware,KiCad,Pcbnew,(5.1.2-1)-1*
G04 #@! TF.CreationDate,2019-08-02T10:30:20+09:00*
G04 #@! TF.ProjectId,split-ask_left,73706c69-742d-4617-936b-5f6c6566742e,rev?*
G04 #@! TF.SameCoordinates,Original*
G04 #@! TF.FileFunction,Soldermask,Bot*
G04 #@! TF.FilePolarity,Negative*
%FSLAX46Y46*%
G04 Gerber Fmt 4.6, Leading zero omitted, Abs format (unit mm)*
G04 Created by KiCad (PCBNEW (5.1.2-1)-1) date 2019-08-02 10:30:20*
%MOMM*%
%LPD*%
G04 APERTURE LIST*
%ADD10C,0.100000*%
G04 APERTURE END LIST*
D10*
G36*
X157219500Y-114097500D02*
G01*
X155720500Y-114097500D01*
X155720500Y-112598500D01*
X157219500Y-112598500D01*
X157219500Y-114097500D01*
X157219500Y-114097500D01*
G37*
G36*
X150768500Y-114097500D02*
G01*
X149269500Y-114097500D01*
X149269500Y-112598500D01*
X150768500Y-112598500D01*
X150768500Y-114097500D01*
X150768500Y-114097500D01*
G37*
G36*
X95999500Y-114097500D02*
G01*
X94500500Y-114097500D01*
X94500500Y-112598500D01*
X95999500Y-112598500D01*
X95999500Y-114097500D01*
X95999500Y-114097500D01*
G37*
G36*
X62662000Y-114097500D02*
G01*
X61163000Y-114097500D01*
X61163000Y-112598500D01*
X62662000Y-112598500D01*
X62662000Y-114097500D01*
X62662000Y-114097500D01*
G37*
G36*
X43612000Y-114097500D02*
G01*
X42113000Y-114097500D01*
X42113000Y-112598500D01*
X43612000Y-112598500D01*
X43612000Y-114097500D01*
X43612000Y-114097500D01*
G37*
G36*
X156996000Y-112014000D02*
G01*
X155944000Y-112014000D01*
X155944000Y-110612000D01*
X156996000Y-110612000D01*
X156996000Y-112014000D01*
X156996000Y-112014000D01*
G37*
G36*
X150545000Y-112014000D02*
G01*
X149493000Y-112014000D01*
X149493000Y-110612000D01*
X150545000Y-110612000D01*
X150545000Y-112014000D01*
X150545000Y-112014000D01*
G37*
G36*
X95776000Y-112014000D02*
G01*
X94724000Y-112014000D01*
X94724000Y-110612000D01*
X95776000Y-110612000D01*
X95776000Y-112014000D01*
X95776000Y-112014000D01*
G37*
G36*
X62438500Y-112014000D02*
G01*
X61386500Y-112014000D01*
X61386500Y-110612000D01*
X62438500Y-110612000D01*
X62438500Y-112014000D01*
X62438500Y-112014000D01*
G37*
G36*
X43388500Y-112014000D02*
G01*
X42336500Y-112014000D01*
X42336500Y-110612000D01*
X43388500Y-110612000D01*
X43388500Y-112014000D01*
X43388500Y-112014000D01*
G37*
G36*
X156996000Y-108464000D02*
G01*
X155944000Y-108464000D01*
X155944000Y-107062000D01*
X156996000Y-107062000D01*
X156996000Y-108464000D01*
X156996000Y-108464000D01*
G37*
G36*
X150545000Y-108464000D02*
G01*
X149493000Y-108464000D01*
X149493000Y-107062000D01*
X150545000Y-107062000D01*
X150545000Y-108464000D01*
X150545000Y-108464000D01*
G37*
G36*
X95776000Y-108464000D02*
G01*
X94724000Y-108464000D01*
X94724000Y-107062000D01*
X95776000Y-107062000D01*
X95776000Y-108464000D01*
X95776000Y-108464000D01*
G37*
G36*
X62438500Y-108464000D02*
G01*
X61386500Y-108464000D01*
X61386500Y-107062000D01*
X62438500Y-107062000D01*
X62438500Y-108464000D01*
X62438500Y-108464000D01*
G37*
G36*
X43388500Y-108464000D02*
G01*
X42336500Y-108464000D01*
X42336500Y-107062000D01*
X43388500Y-107062000D01*
X43388500Y-108464000D01*
X43388500Y-108464000D01*
G37*
G36*
X163670560Y-104452064D02*
G01*
X163822027Y-104482193D01*
X164036045Y-104570842D01*
X164036046Y-104570843D01*
X164228654Y-104699539D01*
X164392461Y-104863346D01*
X164431768Y-104922174D01*
X164521158Y-105055955D01*
X164609807Y-105269973D01*
X164655000Y-105497174D01*
X164655000Y-105728826D01*
X164609807Y-105956027D01*
X164521158Y-106170045D01*
X164521157Y-106170046D01*
X164392461Y-106362654D01*
X164228654Y-106526461D01*
X164148292Y-106580157D01*
X164036045Y-106655158D01*
X163822027Y-106743807D01*
X163670560Y-106773936D01*
X163594827Y-106789000D01*
X163363173Y-106789000D01*
X163287440Y-106773936D01*
X163135973Y-106743807D01*
X162921955Y-106655158D01*
X162809708Y-106580157D01*
X162729346Y-106526461D01*
X162565539Y-106362654D01*
X162436843Y-106170046D01*
X162436842Y-106170045D01*
X162348193Y-105956027D01*
X162303000Y-105728826D01*
X162303000Y-105497174D01*
X162348193Y-105269973D01*
X162436842Y-105055955D01*
X162526232Y-104922174D01*
X162565539Y-104863346D01*
X162729346Y-104699539D01*
X162921954Y-104570843D01*
X162921955Y-104570842D01*
X163135973Y-104482193D01*
X163287440Y-104452064D01*
X163363173Y-104437000D01*
X163594827Y-104437000D01*
X163670560Y-104452064D01*
X163670560Y-104452064D01*
G37*
G36*
X138185560Y-104377064D02*
G01*
X138337027Y-104407193D01*
X138551045Y-104495842D01*
X138551046Y-104495843D01*
X138743654Y-104624539D01*
X138907461Y-104788346D01*
X138957573Y-104863344D01*
X139036158Y-104980955D01*
X139124807Y-105194973D01*
X139131541Y-105228827D01*
X139170000Y-105422173D01*
X139170000Y-105653827D01*
X139166774Y-105670045D01*
X139124807Y-105881027D01*
X139036158Y-106095045D01*
X139036157Y-106095046D01*
X138907461Y-106287654D01*
X138743654Y-106451461D01*
X138631411Y-106526459D01*
X138551045Y-106580158D01*
X138337027Y-106668807D01*
X138185560Y-106698936D01*
X138109827Y-106714000D01*
X137878173Y-106714000D01*
X137802440Y-106698936D01*
X137650973Y-106668807D01*
X137436955Y-106580158D01*
X137356589Y-106526459D01*
X137244346Y-106451461D01*
X137080539Y-106287654D01*
X136951843Y-106095046D01*
X136951842Y-106095045D01*
X136863193Y-105881027D01*
X136821226Y-105670045D01*
X136818000Y-105653827D01*
X136818000Y-105422173D01*
X136856459Y-105228827D01*
X136863193Y-105194973D01*
X136951842Y-104980955D01*
X137030427Y-104863344D01*
X137080539Y-104788346D01*
X137244346Y-104624539D01*
X137436954Y-104495843D01*
X137436955Y-104495842D01*
X137650973Y-104407193D01*
X137802440Y-104377064D01*
X137878173Y-104362000D01*
X138109827Y-104362000D01*
X138185560Y-104377064D01*
X138185560Y-104377064D01*
G37*
G36*
X76272760Y-104377064D02*
G01*
X76424227Y-104407193D01*
X76638245Y-104495842D01*
X76638246Y-104495843D01*
X76830854Y-104624539D01*
X76994661Y-104788346D01*
X77044773Y-104863344D01*
X77123358Y-104980955D01*
X77212007Y-105194973D01*
X77218741Y-105228827D01*
X77257200Y-105422173D01*
X77257200Y-105653827D01*
X77253974Y-105670045D01*
X77212007Y-105881027D01*
X77123358Y-106095045D01*
X77123357Y-106095046D01*
X76994661Y-106287654D01*
X76830854Y-106451461D01*
X76718611Y-106526459D01*
X76638245Y-106580158D01*
X76424227Y-106668807D01*
X76272760Y-106698936D01*
X76197027Y-106714000D01*
X75965373Y-106714000D01*
X75889640Y-106698936D01*
X75738173Y-106668807D01*
X75524155Y-106580158D01*
X75443789Y-106526459D01*
X75331546Y-106451461D01*
X75167739Y-106287654D01*
X75039043Y-106095046D01*
X75039042Y-106095045D01*
X74950393Y-105881027D01*
X74908426Y-105670045D01*
X74905200Y-105653827D01*
X74905200Y-105422173D01*
X74943659Y-105228827D01*
X74950393Y-105194973D01*
X75039042Y-104980955D01*
X75117627Y-104863344D01*
X75167739Y-104788346D01*
X75331546Y-104624539D01*
X75524154Y-104495843D01*
X75524155Y-104495842D01*
X75738173Y-104407193D01*
X75889640Y-104377064D01*
X75965373Y-104362000D01*
X76197027Y-104362000D01*
X76272760Y-104377064D01*
X76272760Y-104377064D01*
G37*
G36*
X50079060Y-104377064D02*
G01*
X50230527Y-104407193D01*
X50444545Y-104495842D01*
X50444546Y-104495843D01*
X50637154Y-104624539D01*
X50800961Y-104788346D01*
X50851073Y-104863344D01*
X50929658Y-104980955D01*
X51018307Y-105194973D01*
X51025041Y-105228827D01*
X51063500Y-105422173D01*
X51063500Y-105653827D01*
X51060274Y-105670045D01*
X51018307Y-105881027D01*
X50929658Y-106095045D01*
X50929657Y-106095046D01*
X50800961Y-106287654D01*
X50637154Y-106451461D01*
X50524911Y-106526459D01*
X50444545Y-106580158D01*
X50230527Y-106668807D01*
X50079060Y-106698936D01*
X50003327Y-106714000D01*
X49771673Y-106714000D01*
X49695940Y-106698936D01*
X49544473Y-106668807D01*
X49330455Y-106580158D01*
X49250089Y-106526459D01*
X49137846Y-106451461D01*
X48974039Y-106287654D01*
X48845343Y-106095046D01*
X48845342Y-106095045D01*
X48756693Y-105881027D01*
X48714726Y-105670045D01*
X48711500Y-105653827D01*
X48711500Y-105422173D01*
X48749959Y-105228827D01*
X48756693Y-105194973D01*
X48845342Y-104980955D01*
X48923927Y-104863344D01*
X48974039Y-104788346D01*
X49137846Y-104624539D01*
X49330454Y-104495843D01*
X49330455Y-104495842D01*
X49544473Y-104407193D01*
X49695940Y-104377064D01*
X49771673Y-104362000D01*
X50003327Y-104362000D01*
X50079060Y-104377064D01*
X50079060Y-104377064D01*
G37*
G36*
X31029060Y-104377064D02*
G01*
X31180527Y-104407193D01*
X31394545Y-104495842D01*
X31394546Y-104495843D01*
X31587154Y-104624539D01*
X31750961Y-104788346D01*
X31801073Y-104863344D01*
X31879658Y-104980955D01*
X31968307Y-105194973D01*
X31975041Y-105228827D01*
X32013500Y-105422173D01*
X32013500Y-105653827D01*
X32010274Y-105670045D01*
X31968307Y-105881027D01*
X31879658Y-106095045D01*
X31879657Y-106095046D01*
X31750961Y-106287654D01*
X31587154Y-106451461D01*
X31474911Y-106526459D01*
X31394545Y-106580158D01*
X31180527Y-106668807D01*
X31029060Y-106698936D01*
X30953327Y-106714000D01*
X30721673Y-106714000D01*
X30645940Y-106698936D01*
X30494473Y-106668807D01*
X30280455Y-106580158D01*
X30200089Y-106526459D01*
X30087846Y-106451461D01*
X29924039Y-106287654D01*
X29795343Y-106095046D01*
X29795342Y-106095045D01*
X29706693Y-105881027D01*
X29664726Y-105670045D01*
X29661500Y-105653827D01*
X29661500Y-105422173D01*
X29699959Y-105228827D01*
X29706693Y-105194973D01*
X29795342Y-104980955D01*
X29873927Y-104863344D01*
X29924039Y-104788346D01*
X30087846Y-104624539D01*
X30280454Y-104495843D01*
X30280455Y-104495842D01*
X30494473Y-104407193D01*
X30645940Y-104377064D01*
X30721673Y-104362000D01*
X30953327Y-104362000D01*
X31029060Y-104377064D01*
X31029060Y-104377064D01*
G37*
G36*
X150105162Y-104980955D02*
G01*
X150237621Y-105007302D01*
X150374022Y-105063801D01*
X150496779Y-105145825D01*
X150601175Y-105250221D01*
X150683199Y-105372978D01*
X150739698Y-105509379D01*
X150764401Y-105633575D01*
X150768430Y-105653826D01*
X150768500Y-105654181D01*
X150768500Y-105801819D01*
X150739698Y-105946621D01*
X150683199Y-106083022D01*
X150601175Y-106205779D01*
X150496779Y-106310175D01*
X150374022Y-106392199D01*
X150237621Y-106448698D01*
X150113425Y-106473401D01*
X150092820Y-106477500D01*
X149945180Y-106477500D01*
X149924575Y-106473401D01*
X149800379Y-106448698D01*
X149663978Y-106392199D01*
X149541221Y-106310175D01*
X149436825Y-106205779D01*
X149354801Y-106083022D01*
X149298302Y-105946621D01*
X149269500Y-105801819D01*
X149269500Y-105654181D01*
X149269571Y-105653826D01*
X149273599Y-105633575D01*
X149298302Y-105509379D01*
X149354801Y-105372978D01*
X149436825Y-105250221D01*
X149541221Y-105145825D01*
X149663978Y-105063801D01*
X149800379Y-105007302D01*
X149932838Y-104980955D01*
X149945180Y-104978500D01*
X150092820Y-104978500D01*
X150105162Y-104980955D01*
X150105162Y-104980955D01*
G37*
G36*
X156556162Y-104980955D02*
G01*
X156688621Y-105007302D01*
X156825022Y-105063801D01*
X156947779Y-105145825D01*
X157052175Y-105250221D01*
X157134199Y-105372978D01*
X157190698Y-105509379D01*
X157215401Y-105633575D01*
X157219430Y-105653826D01*
X157219500Y-105654181D01*
X157219500Y-105801819D01*
X157190698Y-105946621D01*
X157134199Y-106083022D01*
X157052175Y-106205779D01*
X156947779Y-106310175D01*
X156825022Y-106392199D01*
X156688621Y-106448698D01*
X156564425Y-106473401D01*
X156543820Y-106477500D01*
X156396180Y-106477500D01*
X156375575Y-106473401D01*
X156251379Y-106448698D01*
X156114978Y-106392199D01*
X155992221Y-106310175D01*
X155887825Y-106205779D01*
X155805801Y-106083022D01*
X155749302Y-105946621D01*
X155720500Y-105801819D01*
X155720500Y-105654181D01*
X155720571Y-105653826D01*
X155724599Y-105633575D01*
X155749302Y-105509379D01*
X155805801Y-105372978D01*
X155887825Y-105250221D01*
X155992221Y-105145825D01*
X156114978Y-105063801D01*
X156251379Y-105007302D01*
X156383838Y-104980955D01*
X156396180Y-104978500D01*
X156543820Y-104978500D01*
X156556162Y-104980955D01*
X156556162Y-104980955D01*
G37*
G36*
X95336162Y-104980955D02*
G01*
X95468621Y-105007302D01*
X95605022Y-105063801D01*
X95727779Y-105145825D01*
X95832175Y-105250221D01*
X95914199Y-105372978D01*
X95970698Y-105509379D01*
X95995401Y-105633575D01*
X95999430Y-105653826D01*
X95999500Y-105654181D01*
X95999500Y-105801819D01*
X95970698Y-105946621D01*
X95914199Y-106083022D01*
X95832175Y-106205779D01*
X95727779Y-106310175D01*
X95605022Y-106392199D01*
X95468621Y-106448698D01*
X95344425Y-106473401D01*
X95323820Y-106477500D01*
X95176180Y-106477500D01*
X95155575Y-106473401D01*
X95031379Y-106448698D01*
X94894978Y-106392199D01*
X94772221Y-106310175D01*
X94667825Y-106205779D01*
X94585801Y-106083022D01*
X94529302Y-105946621D01*
X94500500Y-105801819D01*
X94500500Y-105654181D01*
X94500571Y-105653826D01*
X94504599Y-105633575D01*
X94529302Y-105509379D01*
X94585801Y-105372978D01*
X94667825Y-105250221D01*
X94772221Y-105145825D01*
X94894978Y-105063801D01*
X95031379Y-105007302D01*
X95163838Y-104980955D01*
X95176180Y-104978500D01*
X95323820Y-104978500D01*
X95336162Y-104980955D01*
X95336162Y-104980955D01*
G37*
G36*
X61998662Y-104980955D02*
G01*
X62131121Y-105007302D01*
X62267522Y-105063801D01*
X62390279Y-105145825D01*
X62494675Y-105250221D01*
X62576699Y-105372978D01*
X62633198Y-105509379D01*
X62657901Y-105633575D01*
X62661930Y-105653826D01*
X62662000Y-105654181D01*
X62662000Y-105801819D01*
X62633198Y-105946621D01*
X62576699Y-106083022D01*
X62494675Y-106205779D01*
X62390279Y-106310175D01*
X62267522Y-106392199D01*
X62131121Y-106448698D01*
X62006925Y-106473401D01*
X61986320Y-106477500D01*
X61838680Y-106477500D01*
X61818075Y-106473401D01*
X61693879Y-106448698D01*
X61557478Y-106392199D01*
X61434721Y-106310175D01*
X61330325Y-106205779D01*
X61248301Y-106083022D01*
X61191802Y-105946621D01*
X61163000Y-105801819D01*
X61163000Y-105654181D01*
X61163071Y-105653826D01*
X61167099Y-105633575D01*
X61191802Y-105509379D01*
X61248301Y-105372978D01*
X61330325Y-105250221D01*
X61434721Y-105145825D01*
X61557478Y-105063801D01*
X61693879Y-105007302D01*
X61826338Y-104980955D01*
X61838680Y-104978500D01*
X61986320Y-104978500D01*
X61998662Y-104980955D01*
X61998662Y-104980955D01*
G37*
G36*
X42948662Y-104980955D02*
G01*
X43081121Y-105007302D01*
X43217522Y-105063801D01*
X43340279Y-105145825D01*
X43444675Y-105250221D01*
X43526699Y-105372978D01*
X43583198Y-105509379D01*
X43607901Y-105633575D01*
X43611930Y-105653826D01*
X43612000Y-105654181D01*
X43612000Y-105801819D01*
X43583198Y-105946621D01*
X43526699Y-106083022D01*
X43444675Y-106205779D01*
X43340279Y-106310175D01*
X43217522Y-106392199D01*
X43081121Y-106448698D01*
X42956925Y-106473401D01*
X42936320Y-106477500D01*
X42788680Y-106477500D01*
X42768075Y-106473401D01*
X42643879Y-106448698D01*
X42507478Y-106392199D01*
X42384721Y-106310175D01*
X42280325Y-106205779D01*
X42198301Y-106083022D01*
X42141802Y-105946621D01*
X42113000Y-105801819D01*
X42113000Y-105654181D01*
X42113071Y-105653826D01*
X42117099Y-105633575D01*
X42141802Y-105509379D01*
X42198301Y-105372978D01*
X42280325Y-105250221D01*
X42384721Y-105145825D01*
X42507478Y-105063801D01*
X42643879Y-105007302D01*
X42776338Y-104980955D01*
X42788680Y-104978500D01*
X42936320Y-104978500D01*
X42948662Y-104980955D01*
X42948662Y-104980955D01*
G37*
G36*
X168670560Y-103952064D02*
G01*
X168822027Y-103982193D01*
X169036045Y-104070842D01*
X169036046Y-104070843D01*
X169228654Y-104199539D01*
X169392461Y-104363346D01*
X169441675Y-104437000D01*
X169521158Y-104555955D01*
X169609807Y-104769973D01*
X169655000Y-104997174D01*
X169655000Y-105228826D01*
X169609807Y-105456027D01*
X169521158Y-105670045D01*
X169521157Y-105670046D01*
X169392461Y-105862654D01*
X169228654Y-106026461D01*
X169144004Y-106083022D01*
X169036045Y-106155158D01*
X168822027Y-106243807D01*
X168670560Y-106273936D01*
X168594827Y-106289000D01*
X168363173Y-106289000D01*
X168287440Y-106273936D01*
X168135973Y-106243807D01*
X167921955Y-106155158D01*
X167813996Y-106083022D01*
X167729346Y-106026461D01*
X167565539Y-105862654D01*
X167436843Y-105670046D01*
X167436842Y-105670045D01*
X167348193Y-105456027D01*
X167303000Y-105228826D01*
X167303000Y-104997174D01*
X167348193Y-104769973D01*
X167436842Y-104555955D01*
X167516325Y-104437000D01*
X167565539Y-104363346D01*
X167729346Y-104199539D01*
X167921954Y-104070843D01*
X167921955Y-104070842D01*
X168135973Y-103982193D01*
X168287440Y-103952064D01*
X168363173Y-103937000D01*
X168594827Y-103937000D01*
X168670560Y-103952064D01*
X168670560Y-103952064D01*
G37*
G36*
X143185560Y-103877064D02*
G01*
X143337027Y-103907193D01*
X143551045Y-103995842D01*
X143551046Y-103995843D01*
X143743654Y-104124539D01*
X143907461Y-104288346D01*
X143956675Y-104362000D01*
X144036158Y-104480955D01*
X144124807Y-104694973D01*
X144170000Y-104922174D01*
X144170000Y-105153826D01*
X144124807Y-105381027D01*
X144036158Y-105595045D01*
X144036157Y-105595046D01*
X143907461Y-105787654D01*
X143743654Y-105951461D01*
X143736823Y-105956025D01*
X143551045Y-106080158D01*
X143337027Y-106168807D01*
X143185560Y-106198936D01*
X143109827Y-106214000D01*
X142878173Y-106214000D01*
X142802440Y-106198936D01*
X142650973Y-106168807D01*
X142436955Y-106080158D01*
X142251177Y-105956025D01*
X142244346Y-105951461D01*
X142080539Y-105787654D01*
X141951843Y-105595046D01*
X141951842Y-105595045D01*
X141863193Y-105381027D01*
X141818000Y-105153826D01*
X141818000Y-104922174D01*
X141863193Y-104694973D01*
X141951842Y-104480955D01*
X142031325Y-104362000D01*
X142080539Y-104288346D01*
X142244346Y-104124539D01*
X142436954Y-103995843D01*
X142436955Y-103995842D01*
X142650973Y-103907193D01*
X142802440Y-103877064D01*
X142878173Y-103862000D01*
X143109827Y-103862000D01*
X143185560Y-103877064D01*
X143185560Y-103877064D01*
G37*
G36*
X81272760Y-103877064D02*
G01*
X81424227Y-103907193D01*
X81638245Y-103995842D01*
X81638246Y-103995843D01*
X81830854Y-104124539D01*
X81994661Y-104288346D01*
X82043875Y-104362000D01*
X82123358Y-104480955D01*
X82212007Y-104694973D01*
X82257200Y-104922174D01*
X82257200Y-105153826D01*
X82212007Y-105381027D01*
X82123358Y-105595045D01*
X82123357Y-105595046D01*
X81994661Y-105787654D01*
X81830854Y-105951461D01*
X81824023Y-105956025D01*
X81638245Y-106080158D01*
X81424227Y-106168807D01*
X81272760Y-106198936D01*
X81197027Y-106214000D01*
X80965373Y-106214000D01*
X80889640Y-106198936D01*
X80738173Y-106168807D01*
X80524155Y-106080158D01*
X80338377Y-105956025D01*
X80331546Y-105951461D01*
X80167739Y-105787654D01*
X80039043Y-105595046D01*
X80039042Y-105595045D01*
X79950393Y-105381027D01*
X79905200Y-105153826D01*
X79905200Y-104922174D01*
X79950393Y-104694973D01*
X80039042Y-104480955D01*
X80118525Y-104362000D01*
X80167739Y-104288346D01*
X80331546Y-104124539D01*
X80524154Y-103995843D01*
X80524155Y-103995842D01*
X80738173Y-103907193D01*
X80889640Y-103877064D01*
X80965373Y-103862000D01*
X81197027Y-103862000D01*
X81272760Y-103877064D01*
X81272760Y-103877064D01*
G37*
G36*
X55079060Y-103877064D02*
G01*
X55230527Y-103907193D01*
X55444545Y-103995842D01*
X55444546Y-103995843D01*
X55637154Y-104124539D01*
X55800961Y-104288346D01*
X55850175Y-104362000D01*
X55929658Y-104480955D01*
X56018307Y-104694973D01*
X56063500Y-104922174D01*
X56063500Y-105153826D01*
X56018307Y-105381027D01*
X55929658Y-105595045D01*
X55929657Y-105595046D01*
X55800961Y-105787654D01*
X55637154Y-105951461D01*
X55630323Y-105956025D01*
X55444545Y-106080158D01*
X55230527Y-106168807D01*
X55079060Y-106198936D01*
X55003327Y-106214000D01*
X54771673Y-106214000D01*
X54695940Y-106198936D01*
X54544473Y-106168807D01*
X54330455Y-106080158D01*
X54144677Y-105956025D01*
X54137846Y-105951461D01*
X53974039Y-105787654D01*
X53845343Y-105595046D01*
X53845342Y-105595045D01*
X53756693Y-105381027D01*
X53711500Y-105153826D01*
X53711500Y-104922174D01*
X53756693Y-104694973D01*
X53845342Y-104480955D01*
X53924825Y-104362000D01*
X53974039Y-104288346D01*
X54137846Y-104124539D01*
X54330454Y-103995843D01*
X54330455Y-103995842D01*
X54544473Y-103907193D01*
X54695940Y-103877064D01*
X54771673Y-103862000D01*
X55003327Y-103862000D01*
X55079060Y-103877064D01*
X55079060Y-103877064D01*
G37*
G36*
X36029060Y-103877064D02*
G01*
X36180527Y-103907193D01*
X36394545Y-103995842D01*
X36394546Y-103995843D01*
X36587154Y-104124539D01*
X36750961Y-104288346D01*
X36800175Y-104362000D01*
X36879658Y-104480955D01*
X36968307Y-104694973D01*
X37013500Y-104922174D01*
X37013500Y-105153826D01*
X36968307Y-105381027D01*
X36879658Y-105595045D01*
X36879657Y-105595046D01*
X36750961Y-105787654D01*
X36587154Y-105951461D01*
X36580323Y-105956025D01*
X36394545Y-106080158D01*
X36180527Y-106168807D01*
X36029060Y-106198936D01*
X35953327Y-106214000D01*
X35721673Y-106214000D01*
X35645940Y-106198936D01*
X35494473Y-106168807D01*
X35280455Y-106080158D01*
X35094677Y-105956025D01*
X35087846Y-105951461D01*
X34924039Y-105787654D01*
X34795343Y-105595046D01*
X34795342Y-105595045D01*
X34706693Y-105381027D01*
X34661500Y-105153826D01*
X34661500Y-104922174D01*
X34706693Y-104694973D01*
X34795342Y-104480955D01*
X34874825Y-104362000D01*
X34924039Y-104288346D01*
X35087846Y-104124539D01*
X35280454Y-103995843D01*
X35280455Y-103995842D01*
X35494473Y-103907193D01*
X35645940Y-103877064D01*
X35721673Y-103862000D01*
X35953327Y-103862000D01*
X36029060Y-103877064D01*
X36029060Y-103877064D01*
G37*
G36*
X95994098Y-98353033D02*
G01*
X96458350Y-98545332D01*
X96458352Y-98545333D01*
X96876168Y-98824509D01*
X97231491Y-99179832D01*
X97510667Y-99597648D01*
X97510668Y-99597650D01*
X97702967Y-100061902D01*
X97801000Y-100554747D01*
X97801000Y-101057253D01*
X97702967Y-101550098D01*
X97510668Y-102014350D01*
X97510667Y-102014352D01*
X97231491Y-102432168D01*
X96876168Y-102787491D01*
X96458352Y-103066667D01*
X96458351Y-103066668D01*
X96458350Y-103066668D01*
X95994098Y-103258967D01*
X95501253Y-103357000D01*
X94998747Y-103357000D01*
X94505902Y-103258967D01*
X94041650Y-103066668D01*
X94041649Y-103066668D01*
X94041648Y-103066667D01*
X93623832Y-102787491D01*
X93268509Y-102432168D01*
X92989333Y-102014352D01*
X92989332Y-102014350D01*
X92797033Y-101550098D01*
X92699000Y-101057253D01*
X92699000Y-100554747D01*
X92797033Y-100061902D01*
X92989332Y-99597650D01*
X92989333Y-99597648D01*
X93268509Y-99179832D01*
X93623832Y-98824509D01*
X94041648Y-98545333D01*
X94041650Y-98545332D01*
X94505902Y-98353033D01*
X94998747Y-98255000D01*
X95501253Y-98255000D01*
X95994098Y-98353033D01*
X95994098Y-98353033D01*
G37*
G36*
X157113098Y-98353033D02*
G01*
X157577350Y-98545332D01*
X157577352Y-98545333D01*
X157995168Y-98824509D01*
X158350491Y-99179832D01*
X158629667Y-99597648D01*
X158629668Y-99597650D01*
X158821967Y-100061902D01*
X158920000Y-100554747D01*
X158920000Y-101057253D01*
X158821967Y-101550098D01*
X158629668Y-102014350D01*
X158629667Y-102014352D01*
X158350491Y-102432168D01*
X157995168Y-102787491D01*
X157577352Y-103066667D01*
X157577351Y-103066668D01*
X157577350Y-103066668D01*
X157113098Y-103258967D01*
X156620253Y-103357000D01*
X156117747Y-103357000D01*
X155624902Y-103258967D01*
X155160650Y-103066668D01*
X155160649Y-103066668D01*
X155160648Y-103066667D01*
X154742832Y-102787491D01*
X154387509Y-102432168D01*
X154108333Y-102014352D01*
X154108332Y-102014350D01*
X153916033Y-101550098D01*
X153818000Y-101057253D01*
X153818000Y-100554747D01*
X153916033Y-100061902D01*
X154108332Y-99597650D01*
X154108333Y-99597648D01*
X154387509Y-99179832D01*
X154742832Y-98824509D01*
X155160648Y-98545333D01*
X155160650Y-98545332D01*
X155624902Y-98353033D01*
X156117747Y-98255000D01*
X156620253Y-98255000D01*
X157113098Y-98353033D01*
X157113098Y-98353033D01*
G37*
G36*
X43606598Y-98353033D02*
G01*
X44070850Y-98545332D01*
X44070852Y-98545333D01*
X44488668Y-98824509D01*
X44843991Y-99179832D01*
X45123167Y-99597648D01*
X45123168Y-99597650D01*
X45315467Y-100061902D01*
X45413500Y-100554747D01*
X45413500Y-101057253D01*
X45315467Y-101550098D01*
X45123168Y-102014350D01*
X45123167Y-102014352D01*
X44843991Y-102432168D01*
X44488668Y-102787491D01*
X44070852Y-103066667D01*
X44070851Y-103066668D01*
X44070850Y-103066668D01*
X43606598Y-103258967D01*
X43113753Y-103357000D01*
X42611247Y-103357000D01*
X42118402Y-103258967D01*
X41654150Y-103066668D01*
X41654149Y-103066668D01*
X41654148Y-103066667D01*
X41236332Y-102787491D01*
X40881009Y-102432168D01*
X40601833Y-102014352D01*
X40601832Y-102014350D01*
X40409533Y-101550098D01*
X40311500Y-101057253D01*
X40311500Y-100554747D01*
X40409533Y-100061902D01*
X40601832Y-99597650D01*
X40601833Y-99597648D01*
X40881009Y-99179832D01*
X41236332Y-98824509D01*
X41654148Y-98545333D01*
X41654150Y-98545332D01*
X42118402Y-98353033D01*
X42611247Y-98255000D01*
X43113753Y-98255000D01*
X43606598Y-98353033D01*
X43606598Y-98353033D01*
G37*
G36*
X67424500Y-95047000D02*
G01*
X65925500Y-95047000D01*
X65925500Y-93548000D01*
X67424500Y-93548000D01*
X67424500Y-95047000D01*
X67424500Y-95047000D01*
G37*
G36*
X86474500Y-95047000D02*
G01*
X84975500Y-95047000D01*
X84975500Y-93548000D01*
X86474500Y-93548000D01*
X86474500Y-95047000D01*
X86474500Y-95047000D01*
G37*
G36*
X105524500Y-95047000D02*
G01*
X104025500Y-95047000D01*
X104025500Y-93548000D01*
X105524500Y-93548000D01*
X105524500Y-95047000D01*
X105524500Y-95047000D01*
G37*
G36*
X124574500Y-95047000D02*
G01*
X123075500Y-95047000D01*
X123075500Y-93548000D01*
X124574500Y-93548000D01*
X124574500Y-95047000D01*
X124574500Y-95047000D01*
G37*
G36*
X142433500Y-95047000D02*
G01*
X140934500Y-95047000D01*
X140934500Y-93548000D01*
X142433500Y-93548000D01*
X142433500Y-95047000D01*
X142433500Y-95047000D01*
G37*
G36*
X144815500Y-95047000D02*
G01*
X143316500Y-95047000D01*
X143316500Y-93548000D01*
X144815500Y-93548000D01*
X144815500Y-95047000D01*
X144815500Y-95047000D01*
G37*
G36*
X124351000Y-92963500D02*
G01*
X123299000Y-92963500D01*
X123299000Y-91561500D01*
X124351000Y-91561500D01*
X124351000Y-92963500D01*
X124351000Y-92963500D01*
G37*
G36*
X67201000Y-92963500D02*
G01*
X66149000Y-92963500D01*
X66149000Y-91561500D01*
X67201000Y-91561500D01*
X67201000Y-92963500D01*
X67201000Y-92963500D01*
G37*
G36*
X86251000Y-92963500D02*
G01*
X85199000Y-92963500D01*
X85199000Y-91561500D01*
X86251000Y-91561500D01*
X86251000Y-92963500D01*
X86251000Y-92963500D01*
G37*
G36*
X105301000Y-92963500D02*
G01*
X104249000Y-92963500D01*
X104249000Y-91561500D01*
X105301000Y-91561500D01*
X105301000Y-92963500D01*
X105301000Y-92963500D01*
G37*
G36*
X142210000Y-92963500D02*
G01*
X141158000Y-92963500D01*
X141158000Y-91561500D01*
X142210000Y-91561500D01*
X142210000Y-92963500D01*
X142210000Y-92963500D01*
G37*
G36*
X144592000Y-92963500D02*
G01*
X143540000Y-92963500D01*
X143540000Y-91561500D01*
X144592000Y-91561500D01*
X144592000Y-92963500D01*
X144592000Y-92963500D01*
G37*
G36*
X142210000Y-89413500D02*
G01*
X141158000Y-89413500D01*
X141158000Y-88011500D01*
X142210000Y-88011500D01*
X142210000Y-89413500D01*
X142210000Y-89413500D01*
G37*
G36*
X124351000Y-89413500D02*
G01*
X123299000Y-89413500D01*
X123299000Y-88011500D01*
X124351000Y-88011500D01*
X124351000Y-89413500D01*
X124351000Y-89413500D01*
G37*
G36*
X144592000Y-89413500D02*
G01*
X143540000Y-89413500D01*
X143540000Y-88011500D01*
X144592000Y-88011500D01*
X144592000Y-89413500D01*
X144592000Y-89413500D01*
G37*
G36*
X67201000Y-89413500D02*
G01*
X66149000Y-89413500D01*
X66149000Y-88011500D01*
X67201000Y-88011500D01*
X67201000Y-89413500D01*
X67201000Y-89413500D01*
G37*
G36*
X86251000Y-89413500D02*
G01*
X85199000Y-89413500D01*
X85199000Y-88011500D01*
X86251000Y-88011500D01*
X86251000Y-89413500D01*
X86251000Y-89413500D01*
G37*
G36*
X105301000Y-89413500D02*
G01*
X104249000Y-89413500D01*
X104249000Y-88011500D01*
X105301000Y-88011500D01*
X105301000Y-89413500D01*
X105301000Y-89413500D01*
G37*
G36*
X150091560Y-85326564D02*
G01*
X150243027Y-85356693D01*
X150457045Y-85445342D01*
X150457046Y-85445343D01*
X150649654Y-85574039D01*
X150813461Y-85737846D01*
X150899258Y-85866251D01*
X150942158Y-85930455D01*
X151030807Y-86144473D01*
X151030807Y-86144475D01*
X151076000Y-86371673D01*
X151076000Y-86603327D01*
X151060936Y-86679060D01*
X151030807Y-86830527D01*
X150942158Y-87044545D01*
X150942157Y-87044546D01*
X150813461Y-87237154D01*
X150649654Y-87400961D01*
X150521249Y-87486758D01*
X150457045Y-87529658D01*
X150243027Y-87618307D01*
X150091560Y-87648436D01*
X150015827Y-87663500D01*
X149784173Y-87663500D01*
X149708440Y-87648436D01*
X149556973Y-87618307D01*
X149342955Y-87529658D01*
X149278751Y-87486758D01*
X149150346Y-87400961D01*
X148986539Y-87237154D01*
X148857843Y-87044546D01*
X148857842Y-87044545D01*
X148769193Y-86830527D01*
X148739064Y-86679060D01*
X148724000Y-86603327D01*
X148724000Y-86371673D01*
X148769193Y-86144475D01*
X148769193Y-86144473D01*
X148857842Y-85930455D01*
X148900742Y-85866251D01*
X148986539Y-85737846D01*
X149150346Y-85574039D01*
X149342954Y-85445343D01*
X149342955Y-85445342D01*
X149556973Y-85356693D01*
X149708440Y-85326564D01*
X149784173Y-85311500D01*
X150015827Y-85311500D01*
X150091560Y-85326564D01*
X150091560Y-85326564D01*
G37*
G36*
X131041560Y-85326564D02*
G01*
X131193027Y-85356693D01*
X131407045Y-85445342D01*
X131407046Y-85445343D01*
X131599654Y-85574039D01*
X131763461Y-85737846D01*
X131849258Y-85866251D01*
X131892158Y-85930455D01*
X131980807Y-86144473D01*
X131980807Y-86144475D01*
X132026000Y-86371673D01*
X132026000Y-86603327D01*
X132010936Y-86679060D01*
X131980807Y-86830527D01*
X131892158Y-87044545D01*
X131892157Y-87044546D01*
X131763461Y-87237154D01*
X131599654Y-87400961D01*
X131471249Y-87486758D01*
X131407045Y-87529658D01*
X131193027Y-87618307D01*
X131041560Y-87648436D01*
X130965827Y-87663500D01*
X130734173Y-87663500D01*
X130658440Y-87648436D01*
X130506973Y-87618307D01*
X130292955Y-87529658D01*
X130228751Y-87486758D01*
X130100346Y-87400961D01*
X129936539Y-87237154D01*
X129807843Y-87044546D01*
X129807842Y-87044545D01*
X129719193Y-86830527D01*
X129689064Y-86679060D01*
X129674000Y-86603327D01*
X129674000Y-86371673D01*
X129719193Y-86144475D01*
X129719193Y-86144473D01*
X129807842Y-85930455D01*
X129850742Y-85866251D01*
X129936539Y-85737846D01*
X130100346Y-85574039D01*
X130292954Y-85445343D01*
X130292955Y-85445342D01*
X130506973Y-85356693D01*
X130658440Y-85326564D01*
X130734173Y-85311500D01*
X130965827Y-85311500D01*
X131041560Y-85326564D01*
X131041560Y-85326564D01*
G37*
G36*
X111991560Y-85326564D02*
G01*
X112143027Y-85356693D01*
X112357045Y-85445342D01*
X112357046Y-85445343D01*
X112549654Y-85574039D01*
X112713461Y-85737846D01*
X112799258Y-85866251D01*
X112842158Y-85930455D01*
X112930807Y-86144473D01*
X112930807Y-86144475D01*
X112976000Y-86371673D01*
X112976000Y-86603327D01*
X112960936Y-86679060D01*
X112930807Y-86830527D01*
X112842158Y-87044545D01*
X112842157Y-87044546D01*
X112713461Y-87237154D01*
X112549654Y-87400961D01*
X112421249Y-87486758D01*
X112357045Y-87529658D01*
X112143027Y-87618307D01*
X111991560Y-87648436D01*
X111915827Y-87663500D01*
X111684173Y-87663500D01*
X111608440Y-87648436D01*
X111456973Y-87618307D01*
X111242955Y-87529658D01*
X111178751Y-87486758D01*
X111050346Y-87400961D01*
X110886539Y-87237154D01*
X110757843Y-87044546D01*
X110757842Y-87044545D01*
X110669193Y-86830527D01*
X110639064Y-86679060D01*
X110624000Y-86603327D01*
X110624000Y-86371673D01*
X110669193Y-86144475D01*
X110669193Y-86144473D01*
X110757842Y-85930455D01*
X110800742Y-85866251D01*
X110886539Y-85737846D01*
X111050346Y-85574039D01*
X111242954Y-85445343D01*
X111242955Y-85445342D01*
X111456973Y-85356693D01*
X111608440Y-85326564D01*
X111684173Y-85311500D01*
X111915827Y-85311500D01*
X111991560Y-85326564D01*
X111991560Y-85326564D01*
G37*
G36*
X92941560Y-85326564D02*
G01*
X93093027Y-85356693D01*
X93307045Y-85445342D01*
X93307046Y-85445343D01*
X93499654Y-85574039D01*
X93663461Y-85737846D01*
X93749258Y-85866251D01*
X93792158Y-85930455D01*
X93880807Y-86144473D01*
X93880807Y-86144475D01*
X93926000Y-86371673D01*
X93926000Y-86603327D01*
X93910936Y-86679060D01*
X93880807Y-86830527D01*
X93792158Y-87044545D01*
X93792157Y-87044546D01*
X93663461Y-87237154D01*
X93499654Y-87400961D01*
X93371249Y-87486758D01*
X93307045Y-87529658D01*
X93093027Y-87618307D01*
X92941560Y-87648436D01*
X92865827Y-87663500D01*
X92634173Y-87663500D01*
X92558440Y-87648436D01*
X92406973Y-87618307D01*
X92192955Y-87529658D01*
X92128751Y-87486758D01*
X92000346Y-87400961D01*
X91836539Y-87237154D01*
X91707843Y-87044546D01*
X91707842Y-87044545D01*
X91619193Y-86830527D01*
X91589064Y-86679060D01*
X91574000Y-86603327D01*
X91574000Y-86371673D01*
X91619193Y-86144475D01*
X91619193Y-86144473D01*
X91707842Y-85930455D01*
X91750742Y-85866251D01*
X91836539Y-85737846D01*
X92000346Y-85574039D01*
X92192954Y-85445343D01*
X92192955Y-85445342D01*
X92406973Y-85356693D01*
X92558440Y-85326564D01*
X92634173Y-85311500D01*
X92865827Y-85311500D01*
X92941560Y-85326564D01*
X92941560Y-85326564D01*
G37*
G36*
X73891560Y-85326564D02*
G01*
X74043027Y-85356693D01*
X74257045Y-85445342D01*
X74257046Y-85445343D01*
X74449654Y-85574039D01*
X74613461Y-85737846D01*
X74699258Y-85866251D01*
X74742158Y-85930455D01*
X74830807Y-86144473D01*
X74830807Y-86144475D01*
X74876000Y-86371673D01*
X74876000Y-86603327D01*
X74860936Y-86679060D01*
X74830807Y-86830527D01*
X74742158Y-87044545D01*
X74742157Y-87044546D01*
X74613461Y-87237154D01*
X74449654Y-87400961D01*
X74321249Y-87486758D01*
X74257045Y-87529658D01*
X74043027Y-87618307D01*
X73891560Y-87648436D01*
X73815827Y-87663500D01*
X73584173Y-87663500D01*
X73508440Y-87648436D01*
X73356973Y-87618307D01*
X73142955Y-87529658D01*
X73078751Y-87486758D01*
X72950346Y-87400961D01*
X72786539Y-87237154D01*
X72657843Y-87044546D01*
X72657842Y-87044545D01*
X72569193Y-86830527D01*
X72539064Y-86679060D01*
X72524000Y-86603327D01*
X72524000Y-86371673D01*
X72569193Y-86144475D01*
X72569193Y-86144473D01*
X72657842Y-85930455D01*
X72700742Y-85866251D01*
X72786539Y-85737846D01*
X72950346Y-85574039D01*
X73142954Y-85445343D01*
X73142955Y-85445342D01*
X73356973Y-85356693D01*
X73508440Y-85326564D01*
X73584173Y-85311500D01*
X73815827Y-85311500D01*
X73891560Y-85326564D01*
X73891560Y-85326564D01*
G37*
G36*
X42935360Y-85326564D02*
G01*
X43086827Y-85356693D01*
X43300845Y-85445342D01*
X43300846Y-85445343D01*
X43493454Y-85574039D01*
X43657261Y-85737846D01*
X43743058Y-85866251D01*
X43785958Y-85930455D01*
X43874607Y-86144473D01*
X43874607Y-86144475D01*
X43919800Y-86371673D01*
X43919800Y-86603327D01*
X43904736Y-86679060D01*
X43874607Y-86830527D01*
X43785958Y-87044545D01*
X43785957Y-87044546D01*
X43657261Y-87237154D01*
X43493454Y-87400961D01*
X43365049Y-87486758D01*
X43300845Y-87529658D01*
X43086827Y-87618307D01*
X42935360Y-87648436D01*
X42859627Y-87663500D01*
X42627973Y-87663500D01*
X42552240Y-87648436D01*
X42400773Y-87618307D01*
X42186755Y-87529658D01*
X42122551Y-87486758D01*
X41994146Y-87400961D01*
X41830339Y-87237154D01*
X41701643Y-87044546D01*
X41701642Y-87044545D01*
X41612993Y-86830527D01*
X41582864Y-86679060D01*
X41567800Y-86603327D01*
X41567800Y-86371673D01*
X41612993Y-86144475D01*
X41612993Y-86144473D01*
X41701642Y-85930455D01*
X41744542Y-85866251D01*
X41830339Y-85737846D01*
X41994146Y-85574039D01*
X42186754Y-85445343D01*
X42186755Y-85445342D01*
X42400773Y-85356693D01*
X42552240Y-85326564D01*
X42627973Y-85311500D01*
X42859627Y-85311500D01*
X42935360Y-85326564D01*
X42935360Y-85326564D01*
G37*
G36*
X85811162Y-85930455D02*
G01*
X85943621Y-85956802D01*
X86080022Y-86013301D01*
X86202779Y-86095325D01*
X86307175Y-86199721D01*
X86389199Y-86322478D01*
X86445698Y-86458879D01*
X86470401Y-86583075D01*
X86474430Y-86603326D01*
X86474500Y-86603681D01*
X86474500Y-86751319D01*
X86445698Y-86896121D01*
X86389199Y-87032522D01*
X86307175Y-87155279D01*
X86202779Y-87259675D01*
X86080022Y-87341699D01*
X85943621Y-87398198D01*
X85819425Y-87422901D01*
X85798820Y-87427000D01*
X85651180Y-87427000D01*
X85630575Y-87422901D01*
X85506379Y-87398198D01*
X85369978Y-87341699D01*
X85247221Y-87259675D01*
X85142825Y-87155279D01*
X85060801Y-87032522D01*
X85004302Y-86896121D01*
X84975500Y-86751319D01*
X84975500Y-86603681D01*
X84975571Y-86603326D01*
X84979599Y-86583075D01*
X85004302Y-86458879D01*
X85060801Y-86322478D01*
X85142825Y-86199721D01*
X85247221Y-86095325D01*
X85369978Y-86013301D01*
X85506379Y-85956802D01*
X85638838Y-85930455D01*
X85651180Y-85928000D01*
X85798820Y-85928000D01*
X85811162Y-85930455D01*
X85811162Y-85930455D01*
G37*
G36*
X104861162Y-85930455D02*
G01*
X104993621Y-85956802D01*
X105130022Y-86013301D01*
X105252779Y-86095325D01*
X105357175Y-86199721D01*
X105439199Y-86322478D01*
X105495698Y-86458879D01*
X105520401Y-86583075D01*
X105524430Y-86603326D01*
X105524500Y-86603681D01*
X105524500Y-86751319D01*
X105495698Y-86896121D01*
X105439199Y-87032522D01*
X105357175Y-87155279D01*
X105252779Y-87259675D01*
X105130022Y-87341699D01*
X104993621Y-87398198D01*
X104869425Y-87422901D01*
X104848820Y-87427000D01*
X104701180Y-87427000D01*
X104680575Y-87422901D01*
X104556379Y-87398198D01*
X104419978Y-87341699D01*
X104297221Y-87259675D01*
X104192825Y-87155279D01*
X104110801Y-87032522D01*
X104054302Y-86896121D01*
X104025500Y-86751319D01*
X104025500Y-86603681D01*
X104025571Y-86603326D01*
X104029599Y-86583075D01*
X104054302Y-86458879D01*
X104110801Y-86322478D01*
X104192825Y-86199721D01*
X104297221Y-86095325D01*
X104419978Y-86013301D01*
X104556379Y-85956802D01*
X104688838Y-85930455D01*
X104701180Y-85928000D01*
X104848820Y-85928000D01*
X104861162Y-85930455D01*
X104861162Y-85930455D01*
G37*
G36*
X66761162Y-85930455D02*
G01*
X66893621Y-85956802D01*
X67030022Y-86013301D01*
X67152779Y-86095325D01*
X67257175Y-86199721D01*
X67339199Y-86322478D01*
X67395698Y-86458879D01*
X67420401Y-86583075D01*
X67424430Y-86603326D01*
X67424500Y-86603681D01*
X67424500Y-86751319D01*
X67395698Y-86896121D01*
X67339199Y-87032522D01*
X67257175Y-87155279D01*
X67152779Y-87259675D01*
X67030022Y-87341699D01*
X66893621Y-87398198D01*
X66769425Y-87422901D01*
X66748820Y-87427000D01*
X66601180Y-87427000D01*
X66580575Y-87422901D01*
X66456379Y-87398198D01*
X66319978Y-87341699D01*
X66197221Y-87259675D01*
X66092825Y-87155279D01*
X66010801Y-87032522D01*
X65954302Y-86896121D01*
X65925500Y-86751319D01*
X65925500Y-86603681D01*
X65925571Y-86603326D01*
X65929599Y-86583075D01*
X65954302Y-86458879D01*
X66010801Y-86322478D01*
X66092825Y-86199721D01*
X66197221Y-86095325D01*
X66319978Y-86013301D01*
X66456379Y-85956802D01*
X66588838Y-85930455D01*
X66601180Y-85928000D01*
X66748820Y-85928000D01*
X66761162Y-85930455D01*
X66761162Y-85930455D01*
G37*
G36*
X123911162Y-85930455D02*
G01*
X124043621Y-85956802D01*
X124180022Y-86013301D01*
X124302779Y-86095325D01*
X124407175Y-86199721D01*
X124489199Y-86322478D01*
X124545698Y-86458879D01*
X124570401Y-86583075D01*
X124574430Y-86603326D01*
X124574500Y-86603681D01*
X124574500Y-86751319D01*
X124545698Y-86896121D01*
X124489199Y-87032522D01*
X124407175Y-87155279D01*
X124302779Y-87259675D01*
X124180022Y-87341699D01*
X124043621Y-87398198D01*
X123919425Y-87422901D01*
X123898820Y-87427000D01*
X123751180Y-87427000D01*
X123730575Y-87422901D01*
X123606379Y-87398198D01*
X123469978Y-87341699D01*
X123347221Y-87259675D01*
X123242825Y-87155279D01*
X123160801Y-87032522D01*
X123104302Y-86896121D01*
X123075500Y-86751319D01*
X123075500Y-86603681D01*
X123075571Y-86603326D01*
X123079599Y-86583075D01*
X123104302Y-86458879D01*
X123160801Y-86322478D01*
X123242825Y-86199721D01*
X123347221Y-86095325D01*
X123469978Y-86013301D01*
X123606379Y-85956802D01*
X123738838Y-85930455D01*
X123751180Y-85928000D01*
X123898820Y-85928000D01*
X123911162Y-85930455D01*
X123911162Y-85930455D01*
G37*
G36*
X144152162Y-85930455D02*
G01*
X144284621Y-85956802D01*
X144421022Y-86013301D01*
X144543779Y-86095325D01*
X144648175Y-86199721D01*
X144730199Y-86322478D01*
X144786698Y-86458879D01*
X144811401Y-86583075D01*
X144815430Y-86603326D01*
X144815500Y-86603681D01*
X144815500Y-86751319D01*
X144786698Y-86896121D01*
X144730199Y-87032522D01*
X144648175Y-87155279D01*
X144543779Y-87259675D01*
X144421022Y-87341699D01*
X144284621Y-87398198D01*
X144160425Y-87422901D01*
X144139820Y-87427000D01*
X143992180Y-87427000D01*
X143971575Y-87422901D01*
X143847379Y-87398198D01*
X143710978Y-87341699D01*
X143588221Y-87259675D01*
X143483825Y-87155279D01*
X143401801Y-87032522D01*
X143345302Y-86896121D01*
X143316500Y-86751319D01*
X143316500Y-86603681D01*
X143316571Y-86603326D01*
X143320599Y-86583075D01*
X143345302Y-86458879D01*
X143401801Y-86322478D01*
X143483825Y-86199721D01*
X143588221Y-86095325D01*
X143710978Y-86013301D01*
X143847379Y-85956802D01*
X143979838Y-85930455D01*
X143992180Y-85928000D01*
X144139820Y-85928000D01*
X144152162Y-85930455D01*
X144152162Y-85930455D01*
G37*
G36*
X141770162Y-85930455D02*
G01*
X141902621Y-85956802D01*
X142039022Y-86013301D01*
X142161779Y-86095325D01*
X142266175Y-86199721D01*
X142348199Y-86322478D01*
X142404698Y-86458879D01*
X142429401Y-86583075D01*
X142433430Y-86603326D01*
X142433500Y-86603681D01*
X142433500Y-86751319D01*
X142404698Y-86896121D01*
X142348199Y-87032522D01*
X142266175Y-87155279D01*
X142161779Y-87259675D01*
X142039022Y-87341699D01*
X141902621Y-87398198D01*
X141778425Y-87422901D01*
X141757820Y-87427000D01*
X141610180Y-87427000D01*
X141589575Y-87422901D01*
X141465379Y-87398198D01*
X141328978Y-87341699D01*
X141206221Y-87259675D01*
X141101825Y-87155279D01*
X141019801Y-87032522D01*
X140963302Y-86896121D01*
X140934500Y-86751319D01*
X140934500Y-86603681D01*
X140934571Y-86603326D01*
X140938599Y-86583075D01*
X140963302Y-86458879D01*
X141019801Y-86322478D01*
X141101825Y-86199721D01*
X141206221Y-86095325D01*
X141328978Y-86013301D01*
X141465379Y-85956802D01*
X141597838Y-85930455D01*
X141610180Y-85928000D01*
X141757820Y-85928000D01*
X141770162Y-85930455D01*
X141770162Y-85930455D01*
G37*
G36*
X155091560Y-84826564D02*
G01*
X155243027Y-84856693D01*
X155457045Y-84945342D01*
X155457046Y-84945343D01*
X155649654Y-85074039D01*
X155813461Y-85237846D01*
X155862675Y-85311500D01*
X155942158Y-85430455D01*
X156030807Y-85644473D01*
X156076000Y-85871674D01*
X156076000Y-86103326D01*
X156030807Y-86330527D01*
X155942158Y-86544545D01*
X155942157Y-86544546D01*
X155813461Y-86737154D01*
X155649654Y-86900961D01*
X155521249Y-86986758D01*
X155457045Y-87029658D01*
X155243027Y-87118307D01*
X155091560Y-87148436D01*
X155015827Y-87163500D01*
X154784173Y-87163500D01*
X154708440Y-87148436D01*
X154556973Y-87118307D01*
X154342955Y-87029658D01*
X154278751Y-86986758D01*
X154150346Y-86900961D01*
X153986539Y-86737154D01*
X153857843Y-86544546D01*
X153857842Y-86544545D01*
X153769193Y-86330527D01*
X153724000Y-86103326D01*
X153724000Y-85871674D01*
X153769193Y-85644473D01*
X153857842Y-85430455D01*
X153937325Y-85311500D01*
X153986539Y-85237846D01*
X154150346Y-85074039D01*
X154342954Y-84945343D01*
X154342955Y-84945342D01*
X154556973Y-84856693D01*
X154708440Y-84826564D01*
X154784173Y-84811500D01*
X155015827Y-84811500D01*
X155091560Y-84826564D01*
X155091560Y-84826564D01*
G37*
G36*
X136041560Y-84826564D02*
G01*
X136193027Y-84856693D01*
X136407045Y-84945342D01*
X136407046Y-84945343D01*
X136599654Y-85074039D01*
X136763461Y-85237846D01*
X136812675Y-85311500D01*
X136892158Y-85430455D01*
X136980807Y-85644473D01*
X137026000Y-85871674D01*
X137026000Y-86103326D01*
X136980807Y-86330527D01*
X136892158Y-86544545D01*
X136892157Y-86544546D01*
X136763461Y-86737154D01*
X136599654Y-86900961D01*
X136471249Y-86986758D01*
X136407045Y-87029658D01*
X136193027Y-87118307D01*
X136041560Y-87148436D01*
X135965827Y-87163500D01*
X135734173Y-87163500D01*
X135658440Y-87148436D01*
X135506973Y-87118307D01*
X135292955Y-87029658D01*
X135228751Y-86986758D01*
X135100346Y-86900961D01*
X134936539Y-86737154D01*
X134807843Y-86544546D01*
X134807842Y-86544545D01*
X134719193Y-86330527D01*
X134674000Y-86103326D01*
X134674000Y-85871674D01*
X134719193Y-85644473D01*
X134807842Y-85430455D01*
X134887325Y-85311500D01*
X134936539Y-85237846D01*
X135100346Y-85074039D01*
X135292954Y-84945343D01*
X135292955Y-84945342D01*
X135506973Y-84856693D01*
X135658440Y-84826564D01*
X135734173Y-84811500D01*
X135965827Y-84811500D01*
X136041560Y-84826564D01*
X136041560Y-84826564D01*
G37*
G36*
X47935360Y-84826564D02*
G01*
X48086827Y-84856693D01*
X48300845Y-84945342D01*
X48300846Y-84945343D01*
X48493454Y-85074039D01*
X48657261Y-85237846D01*
X48706475Y-85311500D01*
X48785958Y-85430455D01*
X48874607Y-85644473D01*
X48919800Y-85871674D01*
X48919800Y-86103326D01*
X48874607Y-86330527D01*
X48785958Y-86544545D01*
X48785957Y-86544546D01*
X48657261Y-86737154D01*
X48493454Y-86900961D01*
X48365049Y-86986758D01*
X48300845Y-87029658D01*
X48086827Y-87118307D01*
X47935360Y-87148436D01*
X47859627Y-87163500D01*
X47627973Y-87163500D01*
X47552240Y-87148436D01*
X47400773Y-87118307D01*
X47186755Y-87029658D01*
X47122551Y-86986758D01*
X46994146Y-86900961D01*
X46830339Y-86737154D01*
X46701643Y-86544546D01*
X46701642Y-86544545D01*
X46612993Y-86330527D01*
X46567800Y-86103326D01*
X46567800Y-85871674D01*
X46612993Y-85644473D01*
X46701642Y-85430455D01*
X46781125Y-85311500D01*
X46830339Y-85237846D01*
X46994146Y-85074039D01*
X47186754Y-84945343D01*
X47186755Y-84945342D01*
X47400773Y-84856693D01*
X47552240Y-84826564D01*
X47627973Y-84811500D01*
X47859627Y-84811500D01*
X47935360Y-84826564D01*
X47935360Y-84826564D01*
G37*
G36*
X78891560Y-84826564D02*
G01*
X79043027Y-84856693D01*
X79257045Y-84945342D01*
X79257046Y-84945343D01*
X79449654Y-85074039D01*
X79613461Y-85237846D01*
X79662675Y-85311500D01*
X79742158Y-85430455D01*
X79830807Y-85644473D01*
X79876000Y-85871674D01*
X79876000Y-86103326D01*
X79830807Y-86330527D01*
X79742158Y-86544545D01*
X79742157Y-86544546D01*
X79613461Y-86737154D01*
X79449654Y-86900961D01*
X79321249Y-86986758D01*
X79257045Y-87029658D01*
X79043027Y-87118307D01*
X78891560Y-87148436D01*
X78815827Y-87163500D01*
X78584173Y-87163500D01*
X78508440Y-87148436D01*
X78356973Y-87118307D01*
X78142955Y-87029658D01*
X78078751Y-86986758D01*
X77950346Y-86900961D01*
X77786539Y-86737154D01*
X77657843Y-86544546D01*
X77657842Y-86544545D01*
X77569193Y-86330527D01*
X77524000Y-86103326D01*
X77524000Y-85871674D01*
X77569193Y-85644473D01*
X77657842Y-85430455D01*
X77737325Y-85311500D01*
X77786539Y-85237846D01*
X77950346Y-85074039D01*
X78142954Y-84945343D01*
X78142955Y-84945342D01*
X78356973Y-84856693D01*
X78508440Y-84826564D01*
X78584173Y-84811500D01*
X78815827Y-84811500D01*
X78891560Y-84826564D01*
X78891560Y-84826564D01*
G37*
G36*
X116991560Y-84826564D02*
G01*
X117143027Y-84856693D01*
X117357045Y-84945342D01*
X117357046Y-84945343D01*
X117549654Y-85074039D01*
X117713461Y-85237846D01*
X117762675Y-85311500D01*
X117842158Y-85430455D01*
X117930807Y-85644473D01*
X117976000Y-85871674D01*
X117976000Y-86103326D01*
X117930807Y-86330527D01*
X117842158Y-86544545D01*
X117842157Y-86544546D01*
X117713461Y-86737154D01*
X117549654Y-86900961D01*
X117421249Y-86986758D01*
X117357045Y-87029658D01*
X117143027Y-87118307D01*
X116991560Y-87148436D01*
X116915827Y-87163500D01*
X116684173Y-87163500D01*
X116608440Y-87148436D01*
X116456973Y-87118307D01*
X116242955Y-87029658D01*
X116178751Y-86986758D01*
X116050346Y-86900961D01*
X115886539Y-86737154D01*
X115757843Y-86544546D01*
X115757842Y-86544545D01*
X115669193Y-86330527D01*
X115624000Y-86103326D01*
X115624000Y-85871674D01*
X115669193Y-85644473D01*
X115757842Y-85430455D01*
X115837325Y-85311500D01*
X115886539Y-85237846D01*
X116050346Y-85074039D01*
X116242954Y-84945343D01*
X116242955Y-84945342D01*
X116456973Y-84856693D01*
X116608440Y-84826564D01*
X116684173Y-84811500D01*
X116915827Y-84811500D01*
X116991560Y-84826564D01*
X116991560Y-84826564D01*
G37*
G36*
X97941560Y-84826564D02*
G01*
X98093027Y-84856693D01*
X98307045Y-84945342D01*
X98307046Y-84945343D01*
X98499654Y-85074039D01*
X98663461Y-85237846D01*
X98712675Y-85311500D01*
X98792158Y-85430455D01*
X98880807Y-85644473D01*
X98926000Y-85871674D01*
X98926000Y-86103326D01*
X98880807Y-86330527D01*
X98792158Y-86544545D01*
X98792157Y-86544546D01*
X98663461Y-86737154D01*
X98499654Y-86900961D01*
X98371249Y-86986758D01*
X98307045Y-87029658D01*
X98093027Y-87118307D01*
X97941560Y-87148436D01*
X97865827Y-87163500D01*
X97634173Y-87163500D01*
X97558440Y-87148436D01*
X97406973Y-87118307D01*
X97192955Y-87029658D01*
X97128751Y-86986758D01*
X97000346Y-86900961D01*
X96836539Y-86737154D01*
X96707843Y-86544546D01*
X96707842Y-86544545D01*
X96619193Y-86330527D01*
X96574000Y-86103326D01*
X96574000Y-85871674D01*
X96619193Y-85644473D01*
X96707842Y-85430455D01*
X96787325Y-85311500D01*
X96836539Y-85237846D01*
X97000346Y-85074039D01*
X97192954Y-84945343D01*
X97192955Y-84945342D01*
X97406973Y-84856693D01*
X97558440Y-84826564D01*
X97634173Y-84811500D01*
X97865827Y-84811500D01*
X97941560Y-84826564D01*
X97941560Y-84826564D01*
G37*
G36*
X132908500Y-75997000D02*
G01*
X131409500Y-75997000D01*
X131409500Y-74498000D01*
X132908500Y-74498000D01*
X132908500Y-75997000D01*
X132908500Y-75997000D01*
G37*
G36*
X135290500Y-75997000D02*
G01*
X133791500Y-75997000D01*
X133791500Y-74498000D01*
X135290500Y-74498000D01*
X135290500Y-75997000D01*
X135290500Y-75997000D01*
G37*
G36*
X115049500Y-75997000D02*
G01*
X113550500Y-75997000D01*
X113550500Y-74498000D01*
X115049500Y-74498000D01*
X115049500Y-75997000D01*
X115049500Y-75997000D01*
G37*
G36*
X95999500Y-75997000D02*
G01*
X94500500Y-75997000D01*
X94500500Y-74498000D01*
X95999500Y-74498000D01*
X95999500Y-75997000D01*
X95999500Y-75997000D01*
G37*
G36*
X78140100Y-75997000D02*
G01*
X76641100Y-75997000D01*
X76641100Y-74498000D01*
X78140100Y-74498000D01*
X78140100Y-75997000D01*
X78140100Y-75997000D01*
G37*
G36*
X75758900Y-75997000D02*
G01*
X74259900Y-75997000D01*
X74259900Y-74498000D01*
X75758900Y-74498000D01*
X75758900Y-75997000D01*
X75758900Y-75997000D01*
G37*
G36*
X132685000Y-73913500D02*
G01*
X131633000Y-73913500D01*
X131633000Y-72511500D01*
X132685000Y-72511500D01*
X132685000Y-73913500D01*
X132685000Y-73913500D01*
G37*
G36*
X135067000Y-73913500D02*
G01*
X134015000Y-73913500D01*
X134015000Y-72511500D01*
X135067000Y-72511500D01*
X135067000Y-73913500D01*
X135067000Y-73913500D01*
G37*
G36*
X75535400Y-73913500D02*
G01*
X74483400Y-73913500D01*
X74483400Y-72511500D01*
X75535400Y-72511500D01*
X75535400Y-73913500D01*
X75535400Y-73913500D01*
G37*
G36*
X114826000Y-73913500D02*
G01*
X113774000Y-73913500D01*
X113774000Y-72511500D01*
X114826000Y-72511500D01*
X114826000Y-73913500D01*
X114826000Y-73913500D01*
G37*
G36*
X77916600Y-73913500D02*
G01*
X76864600Y-73913500D01*
X76864600Y-72511500D01*
X77916600Y-72511500D01*
X77916600Y-73913500D01*
X77916600Y-73913500D01*
G37*
G36*
X95776000Y-73913500D02*
G01*
X94724000Y-73913500D01*
X94724000Y-72511500D01*
X95776000Y-72511500D01*
X95776000Y-73913500D01*
X95776000Y-73913500D01*
G37*
G36*
X77916600Y-70363500D02*
G01*
X76864600Y-70363500D01*
X76864600Y-68961500D01*
X77916600Y-68961500D01*
X77916600Y-70363500D01*
X77916600Y-70363500D01*
G37*
G36*
X95776000Y-70363500D02*
G01*
X94724000Y-70363500D01*
X94724000Y-68961500D01*
X95776000Y-68961500D01*
X95776000Y-70363500D01*
X95776000Y-70363500D01*
G37*
G36*
X135067000Y-70363500D02*
G01*
X134015000Y-70363500D01*
X134015000Y-68961500D01*
X135067000Y-68961500D01*
X135067000Y-70363500D01*
X135067000Y-70363500D01*
G37*
G36*
X114826000Y-70363500D02*
G01*
X113774000Y-70363500D01*
X113774000Y-68961500D01*
X114826000Y-68961500D01*
X114826000Y-70363500D01*
X114826000Y-70363500D01*
G37*
G36*
X75535400Y-70363500D02*
G01*
X74483400Y-70363500D01*
X74483400Y-68961500D01*
X75535400Y-68961500D01*
X75535400Y-70363500D01*
X75535400Y-70363500D01*
G37*
G36*
X132685000Y-70363500D02*
G01*
X131633000Y-70363500D01*
X131633000Y-68961500D01*
X132685000Y-68961500D01*
X132685000Y-70363500D01*
X132685000Y-70363500D01*
G37*
G36*
X140566560Y-66276564D02*
G01*
X140718027Y-66306693D01*
X140932045Y-66395342D01*
X140932046Y-66395343D01*
X141124654Y-66524039D01*
X141288461Y-66687846D01*
X141374258Y-66816251D01*
X141417158Y-66880455D01*
X141505807Y-67094473D01*
X141505807Y-67094475D01*
X141551000Y-67321673D01*
X141551000Y-67553327D01*
X141535936Y-67629060D01*
X141505807Y-67780527D01*
X141417158Y-67994545D01*
X141417157Y-67994546D01*
X141288461Y-68187154D01*
X141124654Y-68350961D01*
X140996249Y-68436758D01*
X140932045Y-68479658D01*
X140718027Y-68568307D01*
X140566560Y-68598436D01*
X140490827Y-68613500D01*
X140259173Y-68613500D01*
X140183440Y-68598436D01*
X140031973Y-68568307D01*
X139817955Y-68479658D01*
X139753751Y-68436758D01*
X139625346Y-68350961D01*
X139461539Y-68187154D01*
X139332843Y-67994546D01*
X139332842Y-67994545D01*
X139244193Y-67780527D01*
X139214064Y-67629060D01*
X139199000Y-67553327D01*
X139199000Y-67321673D01*
X139244193Y-67094475D01*
X139244193Y-67094473D01*
X139332842Y-66880455D01*
X139375742Y-66816251D01*
X139461539Y-66687846D01*
X139625346Y-66524039D01*
X139817954Y-66395343D01*
X139817955Y-66395342D01*
X140031973Y-66306693D01*
X140183440Y-66276564D01*
X140259173Y-66261500D01*
X140490827Y-66261500D01*
X140566560Y-66276564D01*
X140566560Y-66276564D01*
G37*
G36*
X121516560Y-66276564D02*
G01*
X121668027Y-66306693D01*
X121882045Y-66395342D01*
X121882046Y-66395343D01*
X122074654Y-66524039D01*
X122238461Y-66687846D01*
X122324258Y-66816251D01*
X122367158Y-66880455D01*
X122455807Y-67094473D01*
X122455807Y-67094475D01*
X122501000Y-67321673D01*
X122501000Y-67553327D01*
X122485936Y-67629060D01*
X122455807Y-67780527D01*
X122367158Y-67994545D01*
X122367157Y-67994546D01*
X122238461Y-68187154D01*
X122074654Y-68350961D01*
X121946249Y-68436758D01*
X121882045Y-68479658D01*
X121668027Y-68568307D01*
X121516560Y-68598436D01*
X121440827Y-68613500D01*
X121209173Y-68613500D01*
X121133440Y-68598436D01*
X120981973Y-68568307D01*
X120767955Y-68479658D01*
X120703751Y-68436758D01*
X120575346Y-68350961D01*
X120411539Y-68187154D01*
X120282843Y-67994546D01*
X120282842Y-67994545D01*
X120194193Y-67780527D01*
X120164064Y-67629060D01*
X120149000Y-67553327D01*
X120149000Y-67321673D01*
X120194193Y-67094475D01*
X120194193Y-67094473D01*
X120282842Y-66880455D01*
X120325742Y-66816251D01*
X120411539Y-66687846D01*
X120575346Y-66524039D01*
X120767954Y-66395343D01*
X120767955Y-66395342D01*
X120981973Y-66306693D01*
X121133440Y-66276564D01*
X121209173Y-66261500D01*
X121440827Y-66261500D01*
X121516560Y-66276564D01*
X121516560Y-66276564D01*
G37*
G36*
X102466560Y-66276564D02*
G01*
X102618027Y-66306693D01*
X102832045Y-66395342D01*
X102832046Y-66395343D01*
X103024654Y-66524039D01*
X103188461Y-66687846D01*
X103274258Y-66816251D01*
X103317158Y-66880455D01*
X103405807Y-67094473D01*
X103405807Y-67094475D01*
X103451000Y-67321673D01*
X103451000Y-67553327D01*
X103435936Y-67629060D01*
X103405807Y-67780527D01*
X103317158Y-67994545D01*
X103317157Y-67994546D01*
X103188461Y-68187154D01*
X103024654Y-68350961D01*
X102896249Y-68436758D01*
X102832045Y-68479658D01*
X102618027Y-68568307D01*
X102466560Y-68598436D01*
X102390827Y-68613500D01*
X102159173Y-68613500D01*
X102083440Y-68598436D01*
X101931973Y-68568307D01*
X101717955Y-68479658D01*
X101653751Y-68436758D01*
X101525346Y-68350961D01*
X101361539Y-68187154D01*
X101232843Y-67994546D01*
X101232842Y-67994545D01*
X101144193Y-67780527D01*
X101114064Y-67629060D01*
X101099000Y-67553327D01*
X101099000Y-67321673D01*
X101144193Y-67094475D01*
X101144193Y-67094473D01*
X101232842Y-66880455D01*
X101275742Y-66816251D01*
X101361539Y-66687846D01*
X101525346Y-66524039D01*
X101717954Y-66395343D01*
X101717955Y-66395342D01*
X101931973Y-66306693D01*
X102083440Y-66276564D01*
X102159173Y-66261500D01*
X102390827Y-66261500D01*
X102466560Y-66276564D01*
X102466560Y-66276564D01*
G37*
G36*
X83416560Y-66276564D02*
G01*
X83568027Y-66306693D01*
X83782045Y-66395342D01*
X83782046Y-66395343D01*
X83974654Y-66524039D01*
X84138461Y-66687846D01*
X84224258Y-66816251D01*
X84267158Y-66880455D01*
X84355807Y-67094473D01*
X84355807Y-67094475D01*
X84401000Y-67321673D01*
X84401000Y-67553327D01*
X84385936Y-67629060D01*
X84355807Y-67780527D01*
X84267158Y-67994545D01*
X84267157Y-67994546D01*
X84138461Y-68187154D01*
X83974654Y-68350961D01*
X83846249Y-68436758D01*
X83782045Y-68479658D01*
X83568027Y-68568307D01*
X83416560Y-68598436D01*
X83340827Y-68613500D01*
X83109173Y-68613500D01*
X83033440Y-68598436D01*
X82881973Y-68568307D01*
X82667955Y-68479658D01*
X82603751Y-68436758D01*
X82475346Y-68350961D01*
X82311539Y-68187154D01*
X82182843Y-67994546D01*
X82182842Y-67994545D01*
X82094193Y-67780527D01*
X82064064Y-67629060D01*
X82049000Y-67553327D01*
X82049000Y-67321673D01*
X82094193Y-67094475D01*
X82094193Y-67094473D01*
X82182842Y-66880455D01*
X82225742Y-66816251D01*
X82311539Y-66687846D01*
X82475346Y-66524039D01*
X82667954Y-66395343D01*
X82667955Y-66395342D01*
X82881973Y-66306693D01*
X83033440Y-66276564D01*
X83109173Y-66261500D01*
X83340827Y-66261500D01*
X83416560Y-66276564D01*
X83416560Y-66276564D01*
G37*
G36*
X64366560Y-66276564D02*
G01*
X64518027Y-66306693D01*
X64732045Y-66395342D01*
X64732046Y-66395343D01*
X64924654Y-66524039D01*
X65088461Y-66687846D01*
X65174258Y-66816251D01*
X65217158Y-66880455D01*
X65305807Y-67094473D01*
X65305807Y-67094475D01*
X65351000Y-67321673D01*
X65351000Y-67553327D01*
X65335936Y-67629060D01*
X65305807Y-67780527D01*
X65217158Y-67994545D01*
X65217157Y-67994546D01*
X65088461Y-68187154D01*
X64924654Y-68350961D01*
X64796249Y-68436758D01*
X64732045Y-68479658D01*
X64518027Y-68568307D01*
X64366560Y-68598436D01*
X64290827Y-68613500D01*
X64059173Y-68613500D01*
X63983440Y-68598436D01*
X63831973Y-68568307D01*
X63617955Y-68479658D01*
X63553751Y-68436758D01*
X63425346Y-68350961D01*
X63261539Y-68187154D01*
X63132843Y-67994546D01*
X63132842Y-67994545D01*
X63044193Y-67780527D01*
X63014064Y-67629060D01*
X62999000Y-67553327D01*
X62999000Y-67321673D01*
X63044193Y-67094475D01*
X63044193Y-67094473D01*
X63132842Y-66880455D01*
X63175742Y-66816251D01*
X63261539Y-66687846D01*
X63425346Y-66524039D01*
X63617954Y-66395343D01*
X63617955Y-66395342D01*
X63831973Y-66306693D01*
X63983440Y-66276564D01*
X64059173Y-66261500D01*
X64290827Y-66261500D01*
X64366560Y-66276564D01*
X64366560Y-66276564D01*
G37*
G36*
X38172760Y-66276564D02*
G01*
X38324227Y-66306693D01*
X38538245Y-66395342D01*
X38538246Y-66395343D01*
X38730854Y-66524039D01*
X38894661Y-66687846D01*
X38980458Y-66816251D01*
X39023358Y-66880455D01*
X39112007Y-67094473D01*
X39112007Y-67094475D01*
X39157200Y-67321673D01*
X39157200Y-67553327D01*
X39142136Y-67629060D01*
X39112007Y-67780527D01*
X39023358Y-67994545D01*
X39023357Y-67994546D01*
X38894661Y-68187154D01*
X38730854Y-68350961D01*
X38602449Y-68436758D01*
X38538245Y-68479658D01*
X38324227Y-68568307D01*
X38172760Y-68598436D01*
X38097027Y-68613500D01*
X37865373Y-68613500D01*
X37789640Y-68598436D01*
X37638173Y-68568307D01*
X37424155Y-68479658D01*
X37359951Y-68436758D01*
X37231546Y-68350961D01*
X37067739Y-68187154D01*
X36939043Y-67994546D01*
X36939042Y-67994545D01*
X36850393Y-67780527D01*
X36820264Y-67629060D01*
X36805200Y-67553327D01*
X36805200Y-67321673D01*
X36850393Y-67094475D01*
X36850393Y-67094473D01*
X36939042Y-66880455D01*
X36981942Y-66816251D01*
X37067739Y-66687846D01*
X37231546Y-66524039D01*
X37424154Y-66395343D01*
X37424155Y-66395342D01*
X37638173Y-66306693D01*
X37789640Y-66276564D01*
X37865373Y-66261500D01*
X38097027Y-66261500D01*
X38172760Y-66276564D01*
X38172760Y-66276564D01*
G37*
G36*
X75095562Y-66880455D02*
G01*
X75228021Y-66906802D01*
X75364422Y-66963301D01*
X75487179Y-67045325D01*
X75591575Y-67149721D01*
X75673599Y-67272478D01*
X75730098Y-67408879D01*
X75754801Y-67533075D01*
X75758830Y-67553326D01*
X75758900Y-67553681D01*
X75758900Y-67701319D01*
X75730098Y-67846121D01*
X75673599Y-67982522D01*
X75591575Y-68105279D01*
X75487179Y-68209675D01*
X75364422Y-68291699D01*
X75228021Y-68348198D01*
X75103825Y-68372901D01*
X75083220Y-68377000D01*
X74935580Y-68377000D01*
X74914975Y-68372901D01*
X74790779Y-68348198D01*
X74654378Y-68291699D01*
X74531621Y-68209675D01*
X74427225Y-68105279D01*
X74345201Y-67982522D01*
X74288702Y-67846121D01*
X74259900Y-67701319D01*
X74259900Y-67553681D01*
X74259971Y-67553326D01*
X74263999Y-67533075D01*
X74288702Y-67408879D01*
X74345201Y-67272478D01*
X74427225Y-67149721D01*
X74531621Y-67045325D01*
X74654378Y-66963301D01*
X74790779Y-66906802D01*
X74923238Y-66880455D01*
X74935580Y-66878000D01*
X75083220Y-66878000D01*
X75095562Y-66880455D01*
X75095562Y-66880455D01*
G37*
G36*
X77476762Y-66880455D02*
G01*
X77609221Y-66906802D01*
X77745622Y-66963301D01*
X77868379Y-67045325D01*
X77972775Y-67149721D01*
X78054799Y-67272478D01*
X78111298Y-67408879D01*
X78136001Y-67533075D01*
X78140030Y-67553326D01*
X78140100Y-67553681D01*
X78140100Y-67701319D01*
X78111298Y-67846121D01*
X78054799Y-67982522D01*
X77972775Y-68105279D01*
X77868379Y-68209675D01*
X77745622Y-68291699D01*
X77609221Y-68348198D01*
X77485025Y-68372901D01*
X77464420Y-68377000D01*
X77316780Y-68377000D01*
X77296175Y-68372901D01*
X77171979Y-68348198D01*
X77035578Y-68291699D01*
X76912821Y-68209675D01*
X76808425Y-68105279D01*
X76726401Y-67982522D01*
X76669902Y-67846121D01*
X76641100Y-67701319D01*
X76641100Y-67553681D01*
X76641171Y-67553326D01*
X76645199Y-67533075D01*
X76669902Y-67408879D01*
X76726401Y-67272478D01*
X76808425Y-67149721D01*
X76912821Y-67045325D01*
X77035578Y-66963301D01*
X77171979Y-66906802D01*
X77304438Y-66880455D01*
X77316780Y-66878000D01*
X77464420Y-66878000D01*
X77476762Y-66880455D01*
X77476762Y-66880455D01*
G37*
G36*
X114386162Y-66880455D02*
G01*
X114518621Y-66906802D01*
X114655022Y-66963301D01*
X114777779Y-67045325D01*
X114882175Y-67149721D01*
X114964199Y-67272478D01*
X115020698Y-67408879D01*
X115045401Y-67533075D01*
X115049430Y-67553326D01*
X115049500Y-67553681D01*
X115049500Y-67701319D01*
X115020698Y-67846121D01*
X114964199Y-67982522D01*
X114882175Y-68105279D01*
X114777779Y-68209675D01*
X114655022Y-68291699D01*
X114518621Y-68348198D01*
X114394425Y-68372901D01*
X114373820Y-68377000D01*
X114226180Y-68377000D01*
X114205575Y-68372901D01*
X114081379Y-68348198D01*
X113944978Y-68291699D01*
X113822221Y-68209675D01*
X113717825Y-68105279D01*
X113635801Y-67982522D01*
X113579302Y-67846121D01*
X113550500Y-67701319D01*
X113550500Y-67553681D01*
X113550571Y-67553326D01*
X113554599Y-67533075D01*
X113579302Y-67408879D01*
X113635801Y-67272478D01*
X113717825Y-67149721D01*
X113822221Y-67045325D01*
X113944978Y-66963301D01*
X114081379Y-66906802D01*
X114213838Y-66880455D01*
X114226180Y-66878000D01*
X114373820Y-66878000D01*
X114386162Y-66880455D01*
X114386162Y-66880455D01*
G37*
G36*
X132245162Y-66880455D02*
G01*
X132377621Y-66906802D01*
X132514022Y-66963301D01*
X132636779Y-67045325D01*
X132741175Y-67149721D01*
X132823199Y-67272478D01*
X132879698Y-67408879D01*
X132904401Y-67533075D01*
X132908430Y-67553326D01*
X132908500Y-67553681D01*
X132908500Y-67701319D01*
X132879698Y-67846121D01*
X132823199Y-67982522D01*
X132741175Y-68105279D01*
X132636779Y-68209675D01*
X132514022Y-68291699D01*
X132377621Y-68348198D01*
X132253425Y-68372901D01*
X132232820Y-68377000D01*
X132085180Y-68377000D01*
X132064575Y-68372901D01*
X131940379Y-68348198D01*
X131803978Y-68291699D01*
X131681221Y-68209675D01*
X131576825Y-68105279D01*
X131494801Y-67982522D01*
X131438302Y-67846121D01*
X131409500Y-67701319D01*
X131409500Y-67553681D01*
X131409571Y-67553326D01*
X131413599Y-67533075D01*
X131438302Y-67408879D01*
X131494801Y-67272478D01*
X131576825Y-67149721D01*
X131681221Y-67045325D01*
X131803978Y-66963301D01*
X131940379Y-66906802D01*
X132072838Y-66880455D01*
X132085180Y-66878000D01*
X132232820Y-66878000D01*
X132245162Y-66880455D01*
X132245162Y-66880455D01*
G37*
G36*
X134627162Y-66880455D02*
G01*
X134759621Y-66906802D01*
X134896022Y-66963301D01*
X135018779Y-67045325D01*
X135123175Y-67149721D01*
X135205199Y-67272478D01*
X135261698Y-67408879D01*
X135286401Y-67533075D01*
X135290430Y-67553326D01*
X135290500Y-67553681D01*
X135290500Y-67701319D01*
X135261698Y-67846121D01*
X135205199Y-67982522D01*
X135123175Y-68105279D01*
X135018779Y-68209675D01*
X134896022Y-68291699D01*
X134759621Y-68348198D01*
X134635425Y-68372901D01*
X134614820Y-68377000D01*
X134467180Y-68377000D01*
X134446575Y-68372901D01*
X134322379Y-68348198D01*
X134185978Y-68291699D01*
X134063221Y-68209675D01*
X133958825Y-68105279D01*
X133876801Y-67982522D01*
X133820302Y-67846121D01*
X133791500Y-67701319D01*
X133791500Y-67553681D01*
X133791571Y-67553326D01*
X133795599Y-67533075D01*
X133820302Y-67408879D01*
X133876801Y-67272478D01*
X133958825Y-67149721D01*
X134063221Y-67045325D01*
X134185978Y-66963301D01*
X134322379Y-66906802D01*
X134454838Y-66880455D01*
X134467180Y-66878000D01*
X134614820Y-66878000D01*
X134627162Y-66880455D01*
X134627162Y-66880455D01*
G37*
G36*
X95336162Y-66880455D02*
G01*
X95468621Y-66906802D01*
X95605022Y-66963301D01*
X95727779Y-67045325D01*
X95832175Y-67149721D01*
X95914199Y-67272478D01*
X95970698Y-67408879D01*
X95995401Y-67533075D01*
X95999430Y-67553326D01*
X95999500Y-67553681D01*
X95999500Y-67701319D01*
X95970698Y-67846121D01*
X95914199Y-67982522D01*
X95832175Y-68105279D01*
X95727779Y-68209675D01*
X95605022Y-68291699D01*
X95468621Y-68348198D01*
X95344425Y-68372901D01*
X95323820Y-68377000D01*
X95176180Y-68377000D01*
X95155575Y-68372901D01*
X95031379Y-68348198D01*
X94894978Y-68291699D01*
X94772221Y-68209675D01*
X94667825Y-68105279D01*
X94585801Y-67982522D01*
X94529302Y-67846121D01*
X94500500Y-67701319D01*
X94500500Y-67553681D01*
X94500571Y-67553326D01*
X94504599Y-67533075D01*
X94529302Y-67408879D01*
X94585801Y-67272478D01*
X94667825Y-67149721D01*
X94772221Y-67045325D01*
X94894978Y-66963301D01*
X95031379Y-66906802D01*
X95163838Y-66880455D01*
X95176180Y-66878000D01*
X95323820Y-66878000D01*
X95336162Y-66880455D01*
X95336162Y-66880455D01*
G37*
G36*
X43172760Y-65776564D02*
G01*
X43324227Y-65806693D01*
X43538245Y-65895342D01*
X43538246Y-65895343D01*
X43730854Y-66024039D01*
X43894661Y-66187846D01*
X43943875Y-66261500D01*
X44023358Y-66380455D01*
X44112007Y-66594473D01*
X44157200Y-66821674D01*
X44157200Y-67053326D01*
X44112007Y-67280527D01*
X44023358Y-67494545D01*
X44023357Y-67494546D01*
X43894661Y-67687154D01*
X43730854Y-67850961D01*
X43602449Y-67936758D01*
X43538245Y-67979658D01*
X43324227Y-68068307D01*
X43172760Y-68098436D01*
X43097027Y-68113500D01*
X42865373Y-68113500D01*
X42789640Y-68098436D01*
X42638173Y-68068307D01*
X42424155Y-67979658D01*
X42359951Y-67936758D01*
X42231546Y-67850961D01*
X42067739Y-67687154D01*
X41939043Y-67494546D01*
X41939042Y-67494545D01*
X41850393Y-67280527D01*
X41805200Y-67053326D01*
X41805200Y-66821674D01*
X41850393Y-66594473D01*
X41939042Y-66380455D01*
X42018525Y-66261500D01*
X42067739Y-66187846D01*
X42231546Y-66024039D01*
X42424154Y-65895343D01*
X42424155Y-65895342D01*
X42638173Y-65806693D01*
X42789640Y-65776564D01*
X42865373Y-65761500D01*
X43097027Y-65761500D01*
X43172760Y-65776564D01*
X43172760Y-65776564D01*
G37*
G36*
X145566560Y-65776564D02*
G01*
X145718027Y-65806693D01*
X145932045Y-65895342D01*
X145932046Y-65895343D01*
X146124654Y-66024039D01*
X146288461Y-66187846D01*
X146337675Y-66261500D01*
X146417158Y-66380455D01*
X146505807Y-66594473D01*
X146551000Y-66821674D01*
X146551000Y-67053326D01*
X146505807Y-67280527D01*
X146417158Y-67494545D01*
X146417157Y-67494546D01*
X146288461Y-67687154D01*
X146124654Y-67850961D01*
X145996249Y-67936758D01*
X145932045Y-67979658D01*
X145718027Y-68068307D01*
X145566560Y-68098436D01*
X145490827Y-68113500D01*
X145259173Y-68113500D01*
X145183440Y-68098436D01*
X145031973Y-68068307D01*
X144817955Y-67979658D01*
X144753751Y-67936758D01*
X144625346Y-67850961D01*
X144461539Y-67687154D01*
X144332843Y-67494546D01*
X144332842Y-67494545D01*
X144244193Y-67280527D01*
X144199000Y-67053326D01*
X144199000Y-66821674D01*
X144244193Y-66594473D01*
X144332842Y-66380455D01*
X144412325Y-66261500D01*
X144461539Y-66187846D01*
X144625346Y-66024039D01*
X144817954Y-65895343D01*
X144817955Y-65895342D01*
X145031973Y-65806693D01*
X145183440Y-65776564D01*
X145259173Y-65761500D01*
X145490827Y-65761500D01*
X145566560Y-65776564D01*
X145566560Y-65776564D01*
G37*
G36*
X126516560Y-65776564D02*
G01*
X126668027Y-65806693D01*
X126882045Y-65895342D01*
X126882046Y-65895343D01*
X127074654Y-66024039D01*
X127238461Y-66187846D01*
X127287675Y-66261500D01*
X127367158Y-66380455D01*
X127455807Y-66594473D01*
X127501000Y-66821674D01*
X127501000Y-67053326D01*
X127455807Y-67280527D01*
X127367158Y-67494545D01*
X127367157Y-67494546D01*
X127238461Y-67687154D01*
X127074654Y-67850961D01*
X126946249Y-67936758D01*
X126882045Y-67979658D01*
X126668027Y-68068307D01*
X126516560Y-68098436D01*
X126440827Y-68113500D01*
X126209173Y-68113500D01*
X126133440Y-68098436D01*
X125981973Y-68068307D01*
X125767955Y-67979658D01*
X125703751Y-67936758D01*
X125575346Y-67850961D01*
X125411539Y-67687154D01*
X125282843Y-67494546D01*
X125282842Y-67494545D01*
X125194193Y-67280527D01*
X125149000Y-67053326D01*
X125149000Y-66821674D01*
X125194193Y-66594473D01*
X125282842Y-66380455D01*
X125362325Y-66261500D01*
X125411539Y-66187846D01*
X125575346Y-66024039D01*
X125767954Y-65895343D01*
X125767955Y-65895342D01*
X125981973Y-65806693D01*
X126133440Y-65776564D01*
X126209173Y-65761500D01*
X126440827Y-65761500D01*
X126516560Y-65776564D01*
X126516560Y-65776564D01*
G37*
G36*
X107466560Y-65776564D02*
G01*
X107618027Y-65806693D01*
X107832045Y-65895342D01*
X107832046Y-65895343D01*
X108024654Y-66024039D01*
X108188461Y-66187846D01*
X108237675Y-66261500D01*
X108317158Y-66380455D01*
X108405807Y-66594473D01*
X108451000Y-66821674D01*
X108451000Y-67053326D01*
X108405807Y-67280527D01*
X108317158Y-67494545D01*
X108317157Y-67494546D01*
X108188461Y-67687154D01*
X108024654Y-67850961D01*
X107896249Y-67936758D01*
X107832045Y-67979658D01*
X107618027Y-68068307D01*
X107466560Y-68098436D01*
X107390827Y-68113500D01*
X107159173Y-68113500D01*
X107083440Y-68098436D01*
X106931973Y-68068307D01*
X106717955Y-67979658D01*
X106653751Y-67936758D01*
X106525346Y-67850961D01*
X106361539Y-67687154D01*
X106232843Y-67494546D01*
X106232842Y-67494545D01*
X106144193Y-67280527D01*
X106099000Y-67053326D01*
X106099000Y-66821674D01*
X106144193Y-66594473D01*
X106232842Y-66380455D01*
X106312325Y-66261500D01*
X106361539Y-66187846D01*
X106525346Y-66024039D01*
X106717954Y-65895343D01*
X106717955Y-65895342D01*
X106931973Y-65806693D01*
X107083440Y-65776564D01*
X107159173Y-65761500D01*
X107390827Y-65761500D01*
X107466560Y-65776564D01*
X107466560Y-65776564D01*
G37*
G36*
X88416560Y-65776564D02*
G01*
X88568027Y-65806693D01*
X88782045Y-65895342D01*
X88782046Y-65895343D01*
X88974654Y-66024039D01*
X89138461Y-66187846D01*
X89187675Y-66261500D01*
X89267158Y-66380455D01*
X89355807Y-66594473D01*
X89401000Y-66821674D01*
X89401000Y-67053326D01*
X89355807Y-67280527D01*
X89267158Y-67494545D01*
X89267157Y-67494546D01*
X89138461Y-67687154D01*
X88974654Y-67850961D01*
X88846249Y-67936758D01*
X88782045Y-67979658D01*
X88568027Y-68068307D01*
X88416560Y-68098436D01*
X88340827Y-68113500D01*
X88109173Y-68113500D01*
X88033440Y-68098436D01*
X87881973Y-68068307D01*
X87667955Y-67979658D01*
X87603751Y-67936758D01*
X87475346Y-67850961D01*
X87311539Y-67687154D01*
X87182843Y-67494546D01*
X87182842Y-67494545D01*
X87094193Y-67280527D01*
X87049000Y-67053326D01*
X87049000Y-66821674D01*
X87094193Y-66594473D01*
X87182842Y-66380455D01*
X87262325Y-66261500D01*
X87311539Y-66187846D01*
X87475346Y-66024039D01*
X87667954Y-65895343D01*
X87667955Y-65895342D01*
X87881973Y-65806693D01*
X88033440Y-65776564D01*
X88109173Y-65761500D01*
X88340827Y-65761500D01*
X88416560Y-65776564D01*
X88416560Y-65776564D01*
G37*
G36*
X69366560Y-65776564D02*
G01*
X69518027Y-65806693D01*
X69732045Y-65895342D01*
X69732046Y-65895343D01*
X69924654Y-66024039D01*
X70088461Y-66187846D01*
X70137675Y-66261500D01*
X70217158Y-66380455D01*
X70305807Y-66594473D01*
X70351000Y-66821674D01*
X70351000Y-67053326D01*
X70305807Y-67280527D01*
X70217158Y-67494545D01*
X70217157Y-67494546D01*
X70088461Y-67687154D01*
X69924654Y-67850961D01*
X69796249Y-67936758D01*
X69732045Y-67979658D01*
X69518027Y-68068307D01*
X69366560Y-68098436D01*
X69290827Y-68113500D01*
X69059173Y-68113500D01*
X68983440Y-68098436D01*
X68831973Y-68068307D01*
X68617955Y-67979658D01*
X68553751Y-67936758D01*
X68425346Y-67850961D01*
X68261539Y-67687154D01*
X68132843Y-67494546D01*
X68132842Y-67494545D01*
X68044193Y-67280527D01*
X67999000Y-67053326D01*
X67999000Y-66821674D01*
X68044193Y-66594473D01*
X68132842Y-66380455D01*
X68212325Y-66261500D01*
X68261539Y-66187846D01*
X68425346Y-66024039D01*
X68617954Y-65895343D01*
X68617955Y-65895342D01*
X68831973Y-65806693D01*
X68983440Y-65776564D01*
X69059173Y-65761500D01*
X69290827Y-65761500D01*
X69366560Y-65776564D01*
X69366560Y-65776564D01*
G37*
G36*
X53137000Y-56947000D02*
G01*
X51638000Y-56947000D01*
X51638000Y-55448000D01*
X53137000Y-55448000D01*
X53137000Y-56947000D01*
X53137000Y-56947000D01*
G37*
G36*
X130527500Y-56947000D02*
G01*
X129028500Y-56947000D01*
X129028500Y-55448000D01*
X130527500Y-55448000D01*
X130527500Y-56947000D01*
X130527500Y-56947000D01*
G37*
G36*
X128146500Y-56947000D02*
G01*
X126647500Y-56947000D01*
X126647500Y-55448000D01*
X128146500Y-55448000D01*
X128146500Y-56947000D01*
X128146500Y-56947000D01*
G37*
G36*
X110287500Y-56947000D02*
G01*
X108788500Y-56947000D01*
X108788500Y-55448000D01*
X110287500Y-55448000D01*
X110287500Y-56947000D01*
X110287500Y-56947000D01*
G37*
G36*
X91237000Y-56947000D02*
G01*
X89738000Y-56947000D01*
X89738000Y-55448000D01*
X91237000Y-55448000D01*
X91237000Y-56947000D01*
X91237000Y-56947000D01*
G37*
G36*
X72187000Y-56947000D02*
G01*
X70688000Y-56947000D01*
X70688000Y-55448000D01*
X72187000Y-55448000D01*
X72187000Y-56947000D01*
X72187000Y-56947000D01*
G37*
G36*
X52913500Y-54863500D02*
G01*
X51861500Y-54863500D01*
X51861500Y-53461500D01*
X52913500Y-53461500D01*
X52913500Y-54863500D01*
X52913500Y-54863500D01*
G37*
G36*
X130304000Y-54863500D02*
G01*
X129252000Y-54863500D01*
X129252000Y-53461500D01*
X130304000Y-53461500D01*
X130304000Y-54863500D01*
X130304000Y-54863500D01*
G37*
G36*
X71963500Y-54863500D02*
G01*
X70911500Y-54863500D01*
X70911500Y-53461500D01*
X71963500Y-53461500D01*
X71963500Y-54863500D01*
X71963500Y-54863500D01*
G37*
G36*
X91013500Y-54863500D02*
G01*
X89961500Y-54863500D01*
X89961500Y-53461500D01*
X91013500Y-53461500D01*
X91013500Y-54863500D01*
X91013500Y-54863500D01*
G37*
G36*
X127923000Y-54863500D02*
G01*
X126871000Y-54863500D01*
X126871000Y-53461500D01*
X127923000Y-53461500D01*
X127923000Y-54863500D01*
X127923000Y-54863500D01*
G37*
G36*
X110064000Y-54863500D02*
G01*
X109012000Y-54863500D01*
X109012000Y-53461500D01*
X110064000Y-53461500D01*
X110064000Y-54863500D01*
X110064000Y-54863500D01*
G37*
G36*
X130304000Y-51313500D02*
G01*
X129252000Y-51313500D01*
X129252000Y-49911500D01*
X130304000Y-49911500D01*
X130304000Y-51313500D01*
X130304000Y-51313500D01*
G37*
G36*
X127923000Y-51313500D02*
G01*
X126871000Y-51313500D01*
X126871000Y-49911500D01*
X127923000Y-49911500D01*
X127923000Y-51313500D01*
X127923000Y-51313500D01*
G37*
G36*
X110064000Y-51313500D02*
G01*
X109012000Y-51313500D01*
X109012000Y-49911500D01*
X110064000Y-49911500D01*
X110064000Y-51313500D01*
X110064000Y-51313500D01*
G37*
G36*
X91013500Y-51313500D02*
G01*
X89961500Y-51313500D01*
X89961500Y-49911500D01*
X91013500Y-49911500D01*
X91013500Y-51313500D01*
X91013500Y-51313500D01*
G37*
G36*
X71963500Y-51313500D02*
G01*
X70911500Y-51313500D01*
X70911500Y-49911500D01*
X71963500Y-49911500D01*
X71963500Y-51313500D01*
X71963500Y-51313500D01*
G37*
G36*
X52913500Y-51313500D02*
G01*
X51861500Y-51313500D01*
X51861500Y-49911500D01*
X52913500Y-49911500D01*
X52913500Y-51313500D01*
X52913500Y-51313500D01*
G37*
G36*
X35791560Y-47226564D02*
G01*
X35943027Y-47256693D01*
X36157045Y-47345342D01*
X36157046Y-47345343D01*
X36349654Y-47474039D01*
X36513461Y-47637846D01*
X36599258Y-47766251D01*
X36642158Y-47830455D01*
X36730807Y-48044473D01*
X36730807Y-48044475D01*
X36776000Y-48271673D01*
X36776000Y-48503327D01*
X36760936Y-48579060D01*
X36730807Y-48730527D01*
X36642158Y-48944545D01*
X36642157Y-48944546D01*
X36513461Y-49137154D01*
X36349654Y-49300961D01*
X36221249Y-49386758D01*
X36157045Y-49429658D01*
X35943027Y-49518307D01*
X35791560Y-49548436D01*
X35715827Y-49563500D01*
X35484173Y-49563500D01*
X35408440Y-49548436D01*
X35256973Y-49518307D01*
X35042955Y-49429658D01*
X34978751Y-49386758D01*
X34850346Y-49300961D01*
X34686539Y-49137154D01*
X34557843Y-48944546D01*
X34557842Y-48944545D01*
X34469193Y-48730527D01*
X34439064Y-48579060D01*
X34424000Y-48503327D01*
X34424000Y-48271673D01*
X34469193Y-48044475D01*
X34469193Y-48044473D01*
X34557842Y-47830455D01*
X34600742Y-47766251D01*
X34686539Y-47637846D01*
X34850346Y-47474039D01*
X35042954Y-47345343D01*
X35042955Y-47345342D01*
X35256973Y-47256693D01*
X35408440Y-47226564D01*
X35484173Y-47211500D01*
X35715827Y-47211500D01*
X35791560Y-47226564D01*
X35791560Y-47226564D01*
G37*
G36*
X59604060Y-47226564D02*
G01*
X59755527Y-47256693D01*
X59969545Y-47345342D01*
X59969546Y-47345343D01*
X60162154Y-47474039D01*
X60325961Y-47637846D01*
X60411758Y-47766251D01*
X60454658Y-47830455D01*
X60543307Y-48044473D01*
X60543307Y-48044475D01*
X60588500Y-48271673D01*
X60588500Y-48503327D01*
X60573436Y-48579060D01*
X60543307Y-48730527D01*
X60454658Y-48944545D01*
X60454657Y-48944546D01*
X60325961Y-49137154D01*
X60162154Y-49300961D01*
X60033749Y-49386758D01*
X59969545Y-49429658D01*
X59755527Y-49518307D01*
X59604060Y-49548436D01*
X59528327Y-49563500D01*
X59296673Y-49563500D01*
X59220940Y-49548436D01*
X59069473Y-49518307D01*
X58855455Y-49429658D01*
X58791251Y-49386758D01*
X58662846Y-49300961D01*
X58499039Y-49137154D01*
X58370343Y-48944546D01*
X58370342Y-48944545D01*
X58281693Y-48730527D01*
X58251564Y-48579060D01*
X58236500Y-48503327D01*
X58236500Y-48271673D01*
X58281693Y-48044475D01*
X58281693Y-48044473D01*
X58370342Y-47830455D01*
X58413242Y-47766251D01*
X58499039Y-47637846D01*
X58662846Y-47474039D01*
X58855454Y-47345343D01*
X58855455Y-47345342D01*
X59069473Y-47256693D01*
X59220940Y-47226564D01*
X59296673Y-47211500D01*
X59528327Y-47211500D01*
X59604060Y-47226564D01*
X59604060Y-47226564D01*
G37*
G36*
X78654060Y-47226564D02*
G01*
X78805527Y-47256693D01*
X79019545Y-47345342D01*
X79019546Y-47345343D01*
X79212154Y-47474039D01*
X79375961Y-47637846D01*
X79461758Y-47766251D01*
X79504658Y-47830455D01*
X79593307Y-48044473D01*
X79593307Y-48044475D01*
X79638500Y-48271673D01*
X79638500Y-48503327D01*
X79623436Y-48579060D01*
X79593307Y-48730527D01*
X79504658Y-48944545D01*
X79504657Y-48944546D01*
X79375961Y-49137154D01*
X79212154Y-49300961D01*
X79083749Y-49386758D01*
X79019545Y-49429658D01*
X78805527Y-49518307D01*
X78654060Y-49548436D01*
X78578327Y-49563500D01*
X78346673Y-49563500D01*
X78270940Y-49548436D01*
X78119473Y-49518307D01*
X77905455Y-49429658D01*
X77841251Y-49386758D01*
X77712846Y-49300961D01*
X77549039Y-49137154D01*
X77420343Y-48944546D01*
X77420342Y-48944545D01*
X77331693Y-48730527D01*
X77301564Y-48579060D01*
X77286500Y-48503327D01*
X77286500Y-48271673D01*
X77331693Y-48044475D01*
X77331693Y-48044473D01*
X77420342Y-47830455D01*
X77463242Y-47766251D01*
X77549039Y-47637846D01*
X77712846Y-47474039D01*
X77905454Y-47345343D01*
X77905455Y-47345342D01*
X78119473Y-47256693D01*
X78270940Y-47226564D01*
X78346673Y-47211500D01*
X78578327Y-47211500D01*
X78654060Y-47226564D01*
X78654060Y-47226564D01*
G37*
G36*
X97703560Y-47226564D02*
G01*
X97855027Y-47256693D01*
X98069045Y-47345342D01*
X98069046Y-47345343D01*
X98261654Y-47474039D01*
X98425461Y-47637846D01*
X98511258Y-47766251D01*
X98554158Y-47830455D01*
X98642807Y-48044473D01*
X98642807Y-48044475D01*
X98688000Y-48271673D01*
X98688000Y-48503327D01*
X98672936Y-48579060D01*
X98642807Y-48730527D01*
X98554158Y-48944545D01*
X98554157Y-48944546D01*
X98425461Y-49137154D01*
X98261654Y-49300961D01*
X98133249Y-49386758D01*
X98069045Y-49429658D01*
X97855027Y-49518307D01*
X97703560Y-49548436D01*
X97627827Y-49563500D01*
X97396173Y-49563500D01*
X97320440Y-49548436D01*
X97168973Y-49518307D01*
X96954955Y-49429658D01*
X96890751Y-49386758D01*
X96762346Y-49300961D01*
X96598539Y-49137154D01*
X96469843Y-48944546D01*
X96469842Y-48944545D01*
X96381193Y-48730527D01*
X96351064Y-48579060D01*
X96336000Y-48503327D01*
X96336000Y-48271673D01*
X96381193Y-48044475D01*
X96381193Y-48044473D01*
X96469842Y-47830455D01*
X96512742Y-47766251D01*
X96598539Y-47637846D01*
X96762346Y-47474039D01*
X96954954Y-47345343D01*
X96954955Y-47345342D01*
X97168973Y-47256693D01*
X97320440Y-47226564D01*
X97396173Y-47211500D01*
X97627827Y-47211500D01*
X97703560Y-47226564D01*
X97703560Y-47226564D01*
G37*
G36*
X116753560Y-47226564D02*
G01*
X116905027Y-47256693D01*
X117119045Y-47345342D01*
X117119046Y-47345343D01*
X117311654Y-47474039D01*
X117475461Y-47637846D01*
X117561258Y-47766251D01*
X117604158Y-47830455D01*
X117692807Y-48044473D01*
X117692807Y-48044475D01*
X117738000Y-48271673D01*
X117738000Y-48503327D01*
X117722936Y-48579060D01*
X117692807Y-48730527D01*
X117604158Y-48944545D01*
X117604157Y-48944546D01*
X117475461Y-49137154D01*
X117311654Y-49300961D01*
X117183249Y-49386758D01*
X117119045Y-49429658D01*
X116905027Y-49518307D01*
X116753560Y-49548436D01*
X116677827Y-49563500D01*
X116446173Y-49563500D01*
X116370440Y-49548436D01*
X116218973Y-49518307D01*
X116004955Y-49429658D01*
X115940751Y-49386758D01*
X115812346Y-49300961D01*
X115648539Y-49137154D01*
X115519843Y-48944546D01*
X115519842Y-48944545D01*
X115431193Y-48730527D01*
X115401064Y-48579060D01*
X115386000Y-48503327D01*
X115386000Y-48271673D01*
X115431193Y-48044475D01*
X115431193Y-48044473D01*
X115519842Y-47830455D01*
X115562742Y-47766251D01*
X115648539Y-47637846D01*
X115812346Y-47474039D01*
X116004954Y-47345343D01*
X116004955Y-47345342D01*
X116218973Y-47256693D01*
X116370440Y-47226564D01*
X116446173Y-47211500D01*
X116677827Y-47211500D01*
X116753560Y-47226564D01*
X116753560Y-47226564D01*
G37*
G36*
X135803560Y-47226564D02*
G01*
X135955027Y-47256693D01*
X136169045Y-47345342D01*
X136169046Y-47345343D01*
X136361654Y-47474039D01*
X136525461Y-47637846D01*
X136611258Y-47766251D01*
X136654158Y-47830455D01*
X136742807Y-48044473D01*
X136742807Y-48044475D01*
X136788000Y-48271673D01*
X136788000Y-48503327D01*
X136772936Y-48579060D01*
X136742807Y-48730527D01*
X136654158Y-48944545D01*
X136654157Y-48944546D01*
X136525461Y-49137154D01*
X136361654Y-49300961D01*
X136233249Y-49386758D01*
X136169045Y-49429658D01*
X135955027Y-49518307D01*
X135803560Y-49548436D01*
X135727827Y-49563500D01*
X135496173Y-49563500D01*
X135420440Y-49548436D01*
X135268973Y-49518307D01*
X135054955Y-49429658D01*
X134990751Y-49386758D01*
X134862346Y-49300961D01*
X134698539Y-49137154D01*
X134569843Y-48944546D01*
X134569842Y-48944545D01*
X134481193Y-48730527D01*
X134451064Y-48579060D01*
X134436000Y-48503327D01*
X134436000Y-48271673D01*
X134481193Y-48044475D01*
X134481193Y-48044473D01*
X134569842Y-47830455D01*
X134612742Y-47766251D01*
X134698539Y-47637846D01*
X134862346Y-47474039D01*
X135054954Y-47345343D01*
X135054955Y-47345342D01*
X135268973Y-47256693D01*
X135420440Y-47226564D01*
X135496173Y-47211500D01*
X135727827Y-47211500D01*
X135803560Y-47226564D01*
X135803560Y-47226564D01*
G37*
G36*
X52473662Y-47830455D02*
G01*
X52606121Y-47856802D01*
X52742522Y-47913301D01*
X52865279Y-47995325D01*
X52969675Y-48099721D01*
X53051699Y-48222478D01*
X53108198Y-48358879D01*
X53132901Y-48483075D01*
X53136930Y-48503326D01*
X53137000Y-48503681D01*
X53137000Y-48651319D01*
X53108198Y-48796121D01*
X53051699Y-48932522D01*
X52969675Y-49055279D01*
X52865279Y-49159675D01*
X52742522Y-49241699D01*
X52606121Y-49298198D01*
X52481925Y-49322901D01*
X52461320Y-49327000D01*
X52313680Y-49327000D01*
X52293075Y-49322901D01*
X52168879Y-49298198D01*
X52032478Y-49241699D01*
X51909721Y-49159675D01*
X51805325Y-49055279D01*
X51723301Y-48932522D01*
X51666802Y-48796121D01*
X51638000Y-48651319D01*
X51638000Y-48503681D01*
X51638071Y-48503326D01*
X51642099Y-48483075D01*
X51666802Y-48358879D01*
X51723301Y-48222478D01*
X51805325Y-48099721D01*
X51909721Y-47995325D01*
X52032478Y-47913301D01*
X52168879Y-47856802D01*
X52301338Y-47830455D01*
X52313680Y-47828000D01*
X52461320Y-47828000D01*
X52473662Y-47830455D01*
X52473662Y-47830455D01*
G37*
G36*
X71523662Y-47830455D02*
G01*
X71656121Y-47856802D01*
X71792522Y-47913301D01*
X71915279Y-47995325D01*
X72019675Y-48099721D01*
X72101699Y-48222478D01*
X72158198Y-48358879D01*
X72182901Y-48483075D01*
X72186930Y-48503326D01*
X72187000Y-48503681D01*
X72187000Y-48651319D01*
X72158198Y-48796121D01*
X72101699Y-48932522D01*
X72019675Y-49055279D01*
X71915279Y-49159675D01*
X71792522Y-49241699D01*
X71656121Y-49298198D01*
X71531925Y-49322901D01*
X71511320Y-49327000D01*
X71363680Y-49327000D01*
X71343075Y-49322901D01*
X71218879Y-49298198D01*
X71082478Y-49241699D01*
X70959721Y-49159675D01*
X70855325Y-49055279D01*
X70773301Y-48932522D01*
X70716802Y-48796121D01*
X70688000Y-48651319D01*
X70688000Y-48503681D01*
X70688071Y-48503326D01*
X70692099Y-48483075D01*
X70716802Y-48358879D01*
X70773301Y-48222478D01*
X70855325Y-48099721D01*
X70959721Y-47995325D01*
X71082478Y-47913301D01*
X71218879Y-47856802D01*
X71351338Y-47830455D01*
X71363680Y-47828000D01*
X71511320Y-47828000D01*
X71523662Y-47830455D01*
X71523662Y-47830455D01*
G37*
G36*
X129864162Y-47830455D02*
G01*
X129996621Y-47856802D01*
X130133022Y-47913301D01*
X130255779Y-47995325D01*
X130360175Y-48099721D01*
X130442199Y-48222478D01*
X130498698Y-48358879D01*
X130523401Y-48483075D01*
X130527430Y-48503326D01*
X130527500Y-48503681D01*
X130527500Y-48651319D01*
X130498698Y-48796121D01*
X130442199Y-48932522D01*
X130360175Y-49055279D01*
X130255779Y-49159675D01*
X130133022Y-49241699D01*
X129996621Y-49298198D01*
X129872425Y-49322901D01*
X129851820Y-49327000D01*
X129704180Y-49327000D01*
X129683575Y-49322901D01*
X129559379Y-49298198D01*
X129422978Y-49241699D01*
X129300221Y-49159675D01*
X129195825Y-49055279D01*
X129113801Y-48932522D01*
X129057302Y-48796121D01*
X129028500Y-48651319D01*
X129028500Y-48503681D01*
X129028571Y-48503326D01*
X129032599Y-48483075D01*
X129057302Y-48358879D01*
X129113801Y-48222478D01*
X129195825Y-48099721D01*
X129300221Y-47995325D01*
X129422978Y-47913301D01*
X129559379Y-47856802D01*
X129691838Y-47830455D01*
X129704180Y-47828000D01*
X129851820Y-47828000D01*
X129864162Y-47830455D01*
X129864162Y-47830455D01*
G37*
G36*
X127483162Y-47830455D02*
G01*
X127615621Y-47856802D01*
X127752022Y-47913301D01*
X127874779Y-47995325D01*
X127979175Y-48099721D01*
X128061199Y-48222478D01*
X128117698Y-48358879D01*
X128142401Y-48483075D01*
X128146430Y-48503326D01*
X128146500Y-48503681D01*
X128146500Y-48651319D01*
X128117698Y-48796121D01*
X128061199Y-48932522D01*
X127979175Y-49055279D01*
X127874779Y-49159675D01*
X127752022Y-49241699D01*
X127615621Y-49298198D01*
X127491425Y-49322901D01*
X127470820Y-49327000D01*
X127323180Y-49327000D01*
X127302575Y-49322901D01*
X127178379Y-49298198D01*
X127041978Y-49241699D01*
X126919221Y-49159675D01*
X126814825Y-49055279D01*
X126732801Y-48932522D01*
X126676302Y-48796121D01*
X126647500Y-48651319D01*
X126647500Y-48503681D01*
X126647571Y-48503326D01*
X126651599Y-48483075D01*
X126676302Y-48358879D01*
X126732801Y-48222478D01*
X126814825Y-48099721D01*
X126919221Y-47995325D01*
X127041978Y-47913301D01*
X127178379Y-47856802D01*
X127310838Y-47830455D01*
X127323180Y-47828000D01*
X127470820Y-47828000D01*
X127483162Y-47830455D01*
X127483162Y-47830455D01*
G37*
G36*
X109624162Y-47830455D02*
G01*
X109756621Y-47856802D01*
X109893022Y-47913301D01*
X110015779Y-47995325D01*
X110120175Y-48099721D01*
X110202199Y-48222478D01*
X110258698Y-48358879D01*
X110283401Y-48483075D01*
X110287430Y-48503326D01*
X110287500Y-48503681D01*
X110287500Y-48651319D01*
X110258698Y-48796121D01*
X110202199Y-48932522D01*
X110120175Y-49055279D01*
X110015779Y-49159675D01*
X109893022Y-49241699D01*
X109756621Y-49298198D01*
X109632425Y-49322901D01*
X109611820Y-49327000D01*
X109464180Y-49327000D01*
X109443575Y-49322901D01*
X109319379Y-49298198D01*
X109182978Y-49241699D01*
X109060221Y-49159675D01*
X108955825Y-49055279D01*
X108873801Y-48932522D01*
X108817302Y-48796121D01*
X108788500Y-48651319D01*
X108788500Y-48503681D01*
X108788571Y-48503326D01*
X108792599Y-48483075D01*
X108817302Y-48358879D01*
X108873801Y-48222478D01*
X108955825Y-48099721D01*
X109060221Y-47995325D01*
X109182978Y-47913301D01*
X109319379Y-47856802D01*
X109451838Y-47830455D01*
X109464180Y-47828000D01*
X109611820Y-47828000D01*
X109624162Y-47830455D01*
X109624162Y-47830455D01*
G37*
G36*
X90573662Y-47830455D02*
G01*
X90706121Y-47856802D01*
X90842522Y-47913301D01*
X90965279Y-47995325D01*
X91069675Y-48099721D01*
X91151699Y-48222478D01*
X91208198Y-48358879D01*
X91232901Y-48483075D01*
X91236930Y-48503326D01*
X91237000Y-48503681D01*
X91237000Y-48651319D01*
X91208198Y-48796121D01*
X91151699Y-48932522D01*
X91069675Y-49055279D01*
X90965279Y-49159675D01*
X90842522Y-49241699D01*
X90706121Y-49298198D01*
X90581925Y-49322901D01*
X90561320Y-49327000D01*
X90413680Y-49327000D01*
X90393075Y-49322901D01*
X90268879Y-49298198D01*
X90132478Y-49241699D01*
X90009721Y-49159675D01*
X89905325Y-49055279D01*
X89823301Y-48932522D01*
X89766802Y-48796121D01*
X89738000Y-48651319D01*
X89738000Y-48503681D01*
X89738071Y-48503326D01*
X89742099Y-48483075D01*
X89766802Y-48358879D01*
X89823301Y-48222478D01*
X89905325Y-48099721D01*
X90009721Y-47995325D01*
X90132478Y-47913301D01*
X90268879Y-47856802D01*
X90401338Y-47830455D01*
X90413680Y-47828000D01*
X90561320Y-47828000D01*
X90573662Y-47830455D01*
X90573662Y-47830455D01*
G37*
G36*
X140803560Y-46726564D02*
G01*
X140955027Y-46756693D01*
X141169045Y-46845342D01*
X141169046Y-46845343D01*
X141361654Y-46974039D01*
X141525461Y-47137846D01*
X141574675Y-47211500D01*
X141654158Y-47330455D01*
X141742807Y-47544473D01*
X141788000Y-47771674D01*
X141788000Y-48003326D01*
X141742807Y-48230527D01*
X141654158Y-48444545D01*
X141654157Y-48444546D01*
X141525461Y-48637154D01*
X141361654Y-48800961D01*
X141233249Y-48886758D01*
X141169045Y-48929658D01*
X140955027Y-49018307D01*
X140803560Y-49048436D01*
X140727827Y-49063500D01*
X140496173Y-49063500D01*
X140420440Y-49048436D01*
X140268973Y-49018307D01*
X140054955Y-48929658D01*
X139990751Y-48886758D01*
X139862346Y-48800961D01*
X139698539Y-48637154D01*
X139569843Y-48444546D01*
X139569842Y-48444545D01*
X139481193Y-48230527D01*
X139436000Y-48003326D01*
X139436000Y-47771674D01*
X139481193Y-47544473D01*
X139569842Y-47330455D01*
X139649325Y-47211500D01*
X139698539Y-47137846D01*
X139862346Y-46974039D01*
X140054954Y-46845343D01*
X140054955Y-46845342D01*
X140268973Y-46756693D01*
X140420440Y-46726564D01*
X140496173Y-46711500D01*
X140727827Y-46711500D01*
X140803560Y-46726564D01*
X140803560Y-46726564D01*
G37*
G36*
X121753560Y-46726564D02*
G01*
X121905027Y-46756693D01*
X122119045Y-46845342D01*
X122119046Y-46845343D01*
X122311654Y-46974039D01*
X122475461Y-47137846D01*
X122524675Y-47211500D01*
X122604158Y-47330455D01*
X122692807Y-47544473D01*
X122738000Y-47771674D01*
X122738000Y-48003326D01*
X122692807Y-48230527D01*
X122604158Y-48444545D01*
X122604157Y-48444546D01*
X122475461Y-48637154D01*
X122311654Y-48800961D01*
X122183249Y-48886758D01*
X122119045Y-48929658D01*
X121905027Y-49018307D01*
X121753560Y-49048436D01*
X121677827Y-49063500D01*
X121446173Y-49063500D01*
X121370440Y-49048436D01*
X121218973Y-49018307D01*
X121004955Y-48929658D01*
X120940751Y-48886758D01*
X120812346Y-48800961D01*
X120648539Y-48637154D01*
X120519843Y-48444546D01*
X120519842Y-48444545D01*
X120431193Y-48230527D01*
X120386000Y-48003326D01*
X120386000Y-47771674D01*
X120431193Y-47544473D01*
X120519842Y-47330455D01*
X120599325Y-47211500D01*
X120648539Y-47137846D01*
X120812346Y-46974039D01*
X121004954Y-46845343D01*
X121004955Y-46845342D01*
X121218973Y-46756693D01*
X121370440Y-46726564D01*
X121446173Y-46711500D01*
X121677827Y-46711500D01*
X121753560Y-46726564D01*
X121753560Y-46726564D01*
G37*
G36*
X40791560Y-46726564D02*
G01*
X40943027Y-46756693D01*
X41157045Y-46845342D01*
X41157046Y-46845343D01*
X41349654Y-46974039D01*
X41513461Y-47137846D01*
X41562675Y-47211500D01*
X41642158Y-47330455D01*
X41730807Y-47544473D01*
X41776000Y-47771674D01*
X41776000Y-48003326D01*
X41730807Y-48230527D01*
X41642158Y-48444545D01*
X41642157Y-48444546D01*
X41513461Y-48637154D01*
X41349654Y-48800961D01*
X41221249Y-48886758D01*
X41157045Y-48929658D01*
X40943027Y-49018307D01*
X40791560Y-49048436D01*
X40715827Y-49063500D01*
X40484173Y-49063500D01*
X40408440Y-49048436D01*
X40256973Y-49018307D01*
X40042955Y-48929658D01*
X39978751Y-48886758D01*
X39850346Y-48800961D01*
X39686539Y-48637154D01*
X39557843Y-48444546D01*
X39557842Y-48444545D01*
X39469193Y-48230527D01*
X39424000Y-48003326D01*
X39424000Y-47771674D01*
X39469193Y-47544473D01*
X39557842Y-47330455D01*
X39637325Y-47211500D01*
X39686539Y-47137846D01*
X39850346Y-46974039D01*
X40042954Y-46845343D01*
X40042955Y-46845342D01*
X40256973Y-46756693D01*
X40408440Y-46726564D01*
X40484173Y-46711500D01*
X40715827Y-46711500D01*
X40791560Y-46726564D01*
X40791560Y-46726564D01*
G37*
G36*
X64604060Y-46726564D02*
G01*
X64755527Y-46756693D01*
X64969545Y-46845342D01*
X64969546Y-46845343D01*
X65162154Y-46974039D01*
X65325961Y-47137846D01*
X65375175Y-47211500D01*
X65454658Y-47330455D01*
X65543307Y-47544473D01*
X65588500Y-47771674D01*
X65588500Y-48003326D01*
X65543307Y-48230527D01*
X65454658Y-48444545D01*
X65454657Y-48444546D01*
X65325961Y-48637154D01*
X65162154Y-48800961D01*
X65033749Y-48886758D01*
X64969545Y-48929658D01*
X64755527Y-49018307D01*
X64604060Y-49048436D01*
X64528327Y-49063500D01*
X64296673Y-49063500D01*
X64220940Y-49048436D01*
X64069473Y-49018307D01*
X63855455Y-48929658D01*
X63791251Y-48886758D01*
X63662846Y-48800961D01*
X63499039Y-48637154D01*
X63370343Y-48444546D01*
X63370342Y-48444545D01*
X63281693Y-48230527D01*
X63236500Y-48003326D01*
X63236500Y-47771674D01*
X63281693Y-47544473D01*
X63370342Y-47330455D01*
X63449825Y-47211500D01*
X63499039Y-47137846D01*
X63662846Y-46974039D01*
X63855454Y-46845343D01*
X63855455Y-46845342D01*
X64069473Y-46756693D01*
X64220940Y-46726564D01*
X64296673Y-46711500D01*
X64528327Y-46711500D01*
X64604060Y-46726564D01*
X64604060Y-46726564D01*
G37*
G36*
X102703560Y-46726564D02*
G01*
X102855027Y-46756693D01*
X103069045Y-46845342D01*
X103069046Y-46845343D01*
X103261654Y-46974039D01*
X103425461Y-47137846D01*
X103474675Y-47211500D01*
X103554158Y-47330455D01*
X103642807Y-47544473D01*
X103688000Y-47771674D01*
X103688000Y-48003326D01*
X103642807Y-48230527D01*
X103554158Y-48444545D01*
X103554157Y-48444546D01*
X103425461Y-48637154D01*
X103261654Y-48800961D01*
X103133249Y-48886758D01*
X103069045Y-48929658D01*
X102855027Y-49018307D01*
X102703560Y-49048436D01*
X102627827Y-49063500D01*
X102396173Y-49063500D01*
X102320440Y-49048436D01*
X102168973Y-49018307D01*
X101954955Y-48929658D01*
X101890751Y-48886758D01*
X101762346Y-48800961D01*
X101598539Y-48637154D01*
X101469843Y-48444546D01*
X101469842Y-48444545D01*
X101381193Y-48230527D01*
X101336000Y-48003326D01*
X101336000Y-47771674D01*
X101381193Y-47544473D01*
X101469842Y-47330455D01*
X101549325Y-47211500D01*
X101598539Y-47137846D01*
X101762346Y-46974039D01*
X101954954Y-46845343D01*
X101954955Y-46845342D01*
X102168973Y-46756693D01*
X102320440Y-46726564D01*
X102396173Y-46711500D01*
X102627827Y-46711500D01*
X102703560Y-46726564D01*
X102703560Y-46726564D01*
G37*
G36*
X83654060Y-46726564D02*
G01*
X83805527Y-46756693D01*
X84019545Y-46845342D01*
X84019546Y-46845343D01*
X84212154Y-46974039D01*
X84375961Y-47137846D01*
X84425175Y-47211500D01*
X84504658Y-47330455D01*
X84593307Y-47544473D01*
X84638500Y-47771674D01*
X84638500Y-48003326D01*
X84593307Y-48230527D01*
X84504658Y-48444545D01*
X84504657Y-48444546D01*
X84375961Y-48637154D01*
X84212154Y-48800961D01*
X84083749Y-48886758D01*
X84019545Y-48929658D01*
X83805527Y-49018307D01*
X83654060Y-49048436D01*
X83578327Y-49063500D01*
X83346673Y-49063500D01*
X83270940Y-49048436D01*
X83119473Y-49018307D01*
X82905455Y-48929658D01*
X82841251Y-48886758D01*
X82712846Y-48800961D01*
X82549039Y-48637154D01*
X82420343Y-48444546D01*
X82420342Y-48444545D01*
X82331693Y-48230527D01*
X82286500Y-48003326D01*
X82286500Y-47771674D01*
X82331693Y-47544473D01*
X82420342Y-47330455D01*
X82499825Y-47211500D01*
X82549039Y-47137846D01*
X82712846Y-46974039D01*
X82905454Y-46845343D01*
X82905455Y-46845342D01*
X83119473Y-46756693D01*
X83270940Y-46726564D01*
X83346673Y-46711500D01*
X83578327Y-46711500D01*
X83654060Y-46726564D01*
X83654060Y-46726564D01*
G37*
G36*
X43606598Y-39615833D02*
G01*
X44070850Y-39808132D01*
X44070852Y-39808133D01*
X44488668Y-40087309D01*
X44843991Y-40442632D01*
X45123167Y-40860448D01*
X45123168Y-40860450D01*
X45315467Y-41324702D01*
X45413500Y-41817547D01*
X45413500Y-42320053D01*
X45315467Y-42812898D01*
X45123168Y-43277150D01*
X45123167Y-43277152D01*
X44843991Y-43694968D01*
X44488668Y-44050291D01*
X44070852Y-44329467D01*
X44070851Y-44329468D01*
X44070850Y-44329468D01*
X43606598Y-44521767D01*
X43113753Y-44619800D01*
X42611247Y-44619800D01*
X42118402Y-44521767D01*
X41654150Y-44329468D01*
X41654149Y-44329468D01*
X41654148Y-44329467D01*
X41236332Y-44050291D01*
X40881009Y-43694968D01*
X40601833Y-43277152D01*
X40601832Y-43277150D01*
X40409533Y-42812898D01*
X40311500Y-42320053D01*
X40311500Y-41817547D01*
X40409533Y-41324702D01*
X40601832Y-40860450D01*
X40601833Y-40860448D01*
X40881009Y-40442632D01*
X41236332Y-40087309D01*
X41654148Y-39808133D01*
X41654150Y-39808132D01*
X42118402Y-39615833D01*
X42611247Y-39517800D01*
X43113753Y-39517800D01*
X43606598Y-39615833D01*
X43606598Y-39615833D01*
G37*
G36*
X119806098Y-39615833D02*
G01*
X120270350Y-39808132D01*
X120270352Y-39808133D01*
X120688168Y-40087309D01*
X121043491Y-40442632D01*
X121322667Y-40860448D01*
X121322668Y-40860450D01*
X121514967Y-41324702D01*
X121613000Y-41817547D01*
X121613000Y-42320053D01*
X121514967Y-42812898D01*
X121322668Y-43277150D01*
X121322667Y-43277152D01*
X121043491Y-43694968D01*
X120688168Y-44050291D01*
X120270352Y-44329467D01*
X120270351Y-44329468D01*
X120270350Y-44329468D01*
X119806098Y-44521767D01*
X119313253Y-44619800D01*
X118810747Y-44619800D01*
X118317902Y-44521767D01*
X117853650Y-44329468D01*
X117853649Y-44329468D01*
X117853648Y-44329467D01*
X117435832Y-44050291D01*
X117080509Y-43694968D01*
X116801333Y-43277152D01*
X116801332Y-43277150D01*
X116609033Y-42812898D01*
X116511000Y-42320053D01*
X116511000Y-41817547D01*
X116609033Y-41324702D01*
X116801332Y-40860450D01*
X116801333Y-40860448D01*
X117080509Y-40442632D01*
X117435832Y-40087309D01*
X117853648Y-39808133D01*
X117853650Y-39808132D01*
X118317902Y-39615833D01*
X118810747Y-39517800D01*
X119313253Y-39517800D01*
X119806098Y-39615833D01*
X119806098Y-39615833D01*
G37*
G36*
X62662000Y-37897000D02*
G01*
X61163000Y-37897000D01*
X61163000Y-36398000D01*
X62662000Y-36398000D01*
X62662000Y-37897000D01*
X62662000Y-37897000D01*
G37*
G36*
X43612000Y-37897000D02*
G01*
X42113000Y-37897000D01*
X42113000Y-36398000D01*
X43612000Y-36398000D01*
X43612000Y-37897000D01*
X43612000Y-37897000D01*
G37*
G36*
X101952500Y-37897000D02*
G01*
X100453500Y-37897000D01*
X100453500Y-36398000D01*
X101952500Y-36398000D01*
X101952500Y-37897000D01*
X101952500Y-37897000D01*
G37*
G36*
X99571400Y-37897000D02*
G01*
X98072400Y-37897000D01*
X98072400Y-36398000D01*
X99571400Y-36398000D01*
X99571400Y-37897000D01*
X99571400Y-37897000D01*
G37*
G36*
X82902600Y-37897000D02*
G01*
X81403600Y-37897000D01*
X81403600Y-36398000D01*
X82902600Y-36398000D01*
X82902600Y-37897000D01*
X82902600Y-37897000D01*
G37*
G36*
X80521400Y-37897000D02*
G01*
X79022400Y-37897000D01*
X79022400Y-36398000D01*
X80521400Y-36398000D01*
X80521400Y-37897000D01*
X80521400Y-37897000D01*
G37*
G36*
X62438500Y-35813500D02*
G01*
X61386500Y-35813500D01*
X61386500Y-34411500D01*
X62438500Y-34411500D01*
X62438500Y-35813500D01*
X62438500Y-35813500D01*
G37*
G36*
X43388500Y-35813500D02*
G01*
X42336500Y-35813500D01*
X42336500Y-34411500D01*
X43388500Y-34411500D01*
X43388500Y-35813500D01*
X43388500Y-35813500D01*
G37*
G36*
X80297900Y-35813500D02*
G01*
X79245900Y-35813500D01*
X79245900Y-34411500D01*
X80297900Y-34411500D01*
X80297900Y-35813500D01*
X80297900Y-35813500D01*
G37*
G36*
X82679100Y-35813500D02*
G01*
X81627100Y-35813500D01*
X81627100Y-34411500D01*
X82679100Y-34411500D01*
X82679100Y-35813500D01*
X82679100Y-35813500D01*
G37*
G36*
X99347900Y-35813500D02*
G01*
X98295900Y-35813500D01*
X98295900Y-34411500D01*
X99347900Y-34411500D01*
X99347900Y-35813500D01*
X99347900Y-35813500D01*
G37*
G36*
X101729000Y-35813500D02*
G01*
X100677000Y-35813500D01*
X100677000Y-34411500D01*
X101729000Y-34411500D01*
X101729000Y-35813500D01*
X101729000Y-35813500D01*
G37*
G36*
X119251890Y-31834017D02*
G01*
X119370364Y-31883091D01*
X119476988Y-31954335D01*
X119567665Y-32045012D01*
X119638909Y-32151636D01*
X119687983Y-32270110D01*
X119713000Y-32395882D01*
X119713000Y-32524118D01*
X119687983Y-32649890D01*
X119638909Y-32768364D01*
X119567665Y-32874988D01*
X119476988Y-32965665D01*
X119370364Y-33036909D01*
X119370363Y-33036910D01*
X119370362Y-33036910D01*
X119251890Y-33085983D01*
X119126119Y-33111000D01*
X118997881Y-33111000D01*
X118872110Y-33085983D01*
X118753638Y-33036910D01*
X118753637Y-33036910D01*
X118753636Y-33036909D01*
X118647012Y-32965665D01*
X118556335Y-32874988D01*
X118485091Y-32768364D01*
X118436017Y-32649890D01*
X118411000Y-32524118D01*
X118411000Y-32395882D01*
X118436017Y-32270110D01*
X118485091Y-32151636D01*
X118556335Y-32045012D01*
X118647012Y-31954335D01*
X118753636Y-31883091D01*
X118872110Y-31834017D01*
X118997881Y-31809000D01*
X119126119Y-31809000D01*
X119251890Y-31834017D01*
X119251890Y-31834017D01*
G37*
G36*
X82679100Y-32263500D02*
G01*
X81627100Y-32263500D01*
X81627100Y-30861500D01*
X82679100Y-30861500D01*
X82679100Y-32263500D01*
X82679100Y-32263500D01*
G37*
G36*
X99347900Y-32263500D02*
G01*
X98295900Y-32263500D01*
X98295900Y-30861500D01*
X99347900Y-30861500D01*
X99347900Y-32263500D01*
X99347900Y-32263500D01*
G37*
G36*
X101729000Y-32263500D02*
G01*
X100677000Y-32263500D01*
X100677000Y-30861500D01*
X101729000Y-30861500D01*
X101729000Y-32263500D01*
X101729000Y-32263500D01*
G37*
G36*
X80297900Y-32263500D02*
G01*
X79245900Y-32263500D01*
X79245900Y-30861500D01*
X80297900Y-30861500D01*
X80297900Y-32263500D01*
X80297900Y-32263500D01*
G37*
G36*
X62438500Y-32263500D02*
G01*
X61386500Y-32263500D01*
X61386500Y-30861500D01*
X62438500Y-30861500D01*
X62438500Y-32263500D01*
X62438500Y-32263500D01*
G37*
G36*
X43388500Y-32263500D02*
G01*
X42336500Y-32263500D01*
X42336500Y-30861500D01*
X43388500Y-30861500D01*
X43388500Y-32263500D01*
X43388500Y-32263500D01*
G37*
G36*
X126279560Y-28176564D02*
G01*
X126431027Y-28206693D01*
X126645045Y-28295342D01*
X126645046Y-28295343D01*
X126837654Y-28424039D01*
X127001461Y-28587846D01*
X127087258Y-28716251D01*
X127130158Y-28780455D01*
X127218807Y-28994473D01*
X127218807Y-28994475D01*
X127264000Y-29221673D01*
X127264000Y-29453327D01*
X127248936Y-29529060D01*
X127218807Y-29680527D01*
X127130158Y-29894545D01*
X127130157Y-29894546D01*
X127001461Y-30087154D01*
X126837654Y-30250961D01*
X126709249Y-30336758D01*
X126645045Y-30379658D01*
X126431027Y-30468307D01*
X126279560Y-30498436D01*
X126203827Y-30513500D01*
X125972173Y-30513500D01*
X125896440Y-30498436D01*
X125744973Y-30468307D01*
X125530955Y-30379658D01*
X125466751Y-30336758D01*
X125338346Y-30250961D01*
X125174539Y-30087154D01*
X125045843Y-29894546D01*
X125045842Y-29894545D01*
X124957193Y-29680527D01*
X124927064Y-29529060D01*
X124912000Y-29453327D01*
X124912000Y-29221673D01*
X124957193Y-28994475D01*
X124957193Y-28994473D01*
X125045842Y-28780455D01*
X125088742Y-28716251D01*
X125174539Y-28587846D01*
X125338346Y-28424039D01*
X125530954Y-28295343D01*
X125530955Y-28295342D01*
X125744973Y-28206693D01*
X125896440Y-28176564D01*
X125972173Y-28161500D01*
X126203827Y-28161500D01*
X126279560Y-28176564D01*
X126279560Y-28176564D01*
G37*
G36*
X88179060Y-28176564D02*
G01*
X88330527Y-28206693D01*
X88544545Y-28295342D01*
X88544546Y-28295343D01*
X88737154Y-28424039D01*
X88900961Y-28587846D01*
X88986758Y-28716251D01*
X89029658Y-28780455D01*
X89118307Y-28994473D01*
X89118307Y-28994475D01*
X89163500Y-29221673D01*
X89163500Y-29453327D01*
X89148436Y-29529060D01*
X89118307Y-29680527D01*
X89029658Y-29894545D01*
X89029657Y-29894546D01*
X88900961Y-30087154D01*
X88737154Y-30250961D01*
X88608749Y-30336758D01*
X88544545Y-30379658D01*
X88330527Y-30468307D01*
X88179060Y-30498436D01*
X88103327Y-30513500D01*
X87871673Y-30513500D01*
X87795940Y-30498436D01*
X87644473Y-30468307D01*
X87430455Y-30379658D01*
X87366251Y-30336758D01*
X87237846Y-30250961D01*
X87074039Y-30087154D01*
X86945343Y-29894546D01*
X86945342Y-29894545D01*
X86856693Y-29680527D01*
X86826564Y-29529060D01*
X86811500Y-29453327D01*
X86811500Y-29221673D01*
X86856693Y-28994475D01*
X86856693Y-28994473D01*
X86945342Y-28780455D01*
X86988242Y-28716251D01*
X87074039Y-28587846D01*
X87237846Y-28424039D01*
X87430454Y-28295343D01*
X87430455Y-28295342D01*
X87644473Y-28206693D01*
X87795940Y-28176564D01*
X87871673Y-28161500D01*
X88103327Y-28161500D01*
X88179060Y-28176564D01*
X88179060Y-28176564D01*
G37*
G36*
X107229560Y-28176564D02*
G01*
X107381027Y-28206693D01*
X107595045Y-28295342D01*
X107595046Y-28295343D01*
X107787654Y-28424039D01*
X107951461Y-28587846D01*
X108037258Y-28716251D01*
X108080158Y-28780455D01*
X108168807Y-28994473D01*
X108168807Y-28994475D01*
X108214000Y-29221673D01*
X108214000Y-29453327D01*
X108198936Y-29529060D01*
X108168807Y-29680527D01*
X108080158Y-29894545D01*
X108080157Y-29894546D01*
X107951461Y-30087154D01*
X107787654Y-30250961D01*
X107659249Y-30336758D01*
X107595045Y-30379658D01*
X107381027Y-30468307D01*
X107229560Y-30498436D01*
X107153827Y-30513500D01*
X106922173Y-30513500D01*
X106846440Y-30498436D01*
X106694973Y-30468307D01*
X106480955Y-30379658D01*
X106416751Y-30336758D01*
X106288346Y-30250961D01*
X106124539Y-30087154D01*
X105995843Y-29894546D01*
X105995842Y-29894545D01*
X105907193Y-29680527D01*
X105877064Y-29529060D01*
X105862000Y-29453327D01*
X105862000Y-29221673D01*
X105907193Y-28994475D01*
X105907193Y-28994473D01*
X105995842Y-28780455D01*
X106038742Y-28716251D01*
X106124539Y-28587846D01*
X106288346Y-28424039D01*
X106480954Y-28295343D01*
X106480955Y-28295342D01*
X106694973Y-28206693D01*
X106846440Y-28176564D01*
X106922173Y-28161500D01*
X107153827Y-28161500D01*
X107229560Y-28176564D01*
X107229560Y-28176564D01*
G37*
G36*
X69129060Y-28176564D02*
G01*
X69280527Y-28206693D01*
X69494545Y-28295342D01*
X69494546Y-28295343D01*
X69687154Y-28424039D01*
X69850961Y-28587846D01*
X69936758Y-28716251D01*
X69979658Y-28780455D01*
X70068307Y-28994473D01*
X70068307Y-28994475D01*
X70113500Y-29221673D01*
X70113500Y-29453327D01*
X70098436Y-29529060D01*
X70068307Y-29680527D01*
X69979658Y-29894545D01*
X69979657Y-29894546D01*
X69850961Y-30087154D01*
X69687154Y-30250961D01*
X69558749Y-30336758D01*
X69494545Y-30379658D01*
X69280527Y-30468307D01*
X69129060Y-30498436D01*
X69053327Y-30513500D01*
X68821673Y-30513500D01*
X68745940Y-30498436D01*
X68594473Y-30468307D01*
X68380455Y-30379658D01*
X68316251Y-30336758D01*
X68187846Y-30250961D01*
X68024039Y-30087154D01*
X67895343Y-29894546D01*
X67895342Y-29894545D01*
X67806693Y-29680527D01*
X67776564Y-29529060D01*
X67761500Y-29453327D01*
X67761500Y-29221673D01*
X67806693Y-28994475D01*
X67806693Y-28994473D01*
X67895342Y-28780455D01*
X67938242Y-28716251D01*
X68024039Y-28587846D01*
X68187846Y-28424039D01*
X68380454Y-28295343D01*
X68380455Y-28295342D01*
X68594473Y-28206693D01*
X68745940Y-28176564D01*
X68821673Y-28161500D01*
X69053327Y-28161500D01*
X69129060Y-28176564D01*
X69129060Y-28176564D01*
G37*
G36*
X50079060Y-28176564D02*
G01*
X50230527Y-28206693D01*
X50444545Y-28295342D01*
X50444546Y-28295343D01*
X50637154Y-28424039D01*
X50800961Y-28587846D01*
X50886758Y-28716251D01*
X50929658Y-28780455D01*
X51018307Y-28994473D01*
X51018307Y-28994475D01*
X51063500Y-29221673D01*
X51063500Y-29453327D01*
X51048436Y-29529060D01*
X51018307Y-29680527D01*
X50929658Y-29894545D01*
X50929657Y-29894546D01*
X50800961Y-30087154D01*
X50637154Y-30250961D01*
X50508749Y-30336758D01*
X50444545Y-30379658D01*
X50230527Y-30468307D01*
X50079060Y-30498436D01*
X50003327Y-30513500D01*
X49771673Y-30513500D01*
X49695940Y-30498436D01*
X49544473Y-30468307D01*
X49330455Y-30379658D01*
X49266251Y-30336758D01*
X49137846Y-30250961D01*
X48974039Y-30087154D01*
X48845343Y-29894546D01*
X48845342Y-29894545D01*
X48756693Y-29680527D01*
X48726564Y-29529060D01*
X48711500Y-29453327D01*
X48711500Y-29221673D01*
X48756693Y-28994475D01*
X48756693Y-28994473D01*
X48845342Y-28780455D01*
X48888242Y-28716251D01*
X48974039Y-28587846D01*
X49137846Y-28424039D01*
X49330454Y-28295343D01*
X49330455Y-28295342D01*
X49544473Y-28206693D01*
X49695940Y-28176564D01*
X49771673Y-28161500D01*
X50003327Y-28161500D01*
X50079060Y-28176564D01*
X50079060Y-28176564D01*
G37*
G36*
X31029060Y-28176564D02*
G01*
X31180527Y-28206693D01*
X31394545Y-28295342D01*
X31394546Y-28295343D01*
X31587154Y-28424039D01*
X31750961Y-28587846D01*
X31836758Y-28716251D01*
X31879658Y-28780455D01*
X31968307Y-28994473D01*
X31968307Y-28994475D01*
X32013500Y-29221673D01*
X32013500Y-29453327D01*
X31998436Y-29529060D01*
X31968307Y-29680527D01*
X31879658Y-29894545D01*
X31879657Y-29894546D01*
X31750961Y-30087154D01*
X31587154Y-30250961D01*
X31458749Y-30336758D01*
X31394545Y-30379658D01*
X31180527Y-30468307D01*
X31029060Y-30498436D01*
X30953327Y-30513500D01*
X30721673Y-30513500D01*
X30645940Y-30498436D01*
X30494473Y-30468307D01*
X30280455Y-30379658D01*
X30216251Y-30336758D01*
X30087846Y-30250961D01*
X29924039Y-30087154D01*
X29795343Y-29894546D01*
X29795342Y-29894545D01*
X29706693Y-29680527D01*
X29676564Y-29529060D01*
X29661500Y-29453327D01*
X29661500Y-29221673D01*
X29706693Y-28994475D01*
X29706693Y-28994473D01*
X29795342Y-28780455D01*
X29838242Y-28716251D01*
X29924039Y-28587846D01*
X30087846Y-28424039D01*
X30280454Y-28295343D01*
X30280455Y-28295342D01*
X30494473Y-28206693D01*
X30645940Y-28176564D01*
X30721673Y-28161500D01*
X30953327Y-28161500D01*
X31029060Y-28176564D01*
X31029060Y-28176564D01*
G37*
G36*
X101289162Y-28780455D02*
G01*
X101421621Y-28806802D01*
X101558022Y-28863301D01*
X101680779Y-28945325D01*
X101785175Y-29049721D01*
X101867199Y-29172478D01*
X101923698Y-29308879D01*
X101948401Y-29433075D01*
X101952430Y-29453326D01*
X101952500Y-29453681D01*
X101952500Y-29601319D01*
X101923698Y-29746121D01*
X101867199Y-29882522D01*
X101785175Y-30005279D01*
X101680779Y-30109675D01*
X101558022Y-30191699D01*
X101421621Y-30248198D01*
X101297425Y-30272901D01*
X101276820Y-30277000D01*
X101129180Y-30277000D01*
X101108575Y-30272901D01*
X100984379Y-30248198D01*
X100847978Y-30191699D01*
X100725221Y-30109675D01*
X100620825Y-30005279D01*
X100538801Y-29882522D01*
X100482302Y-29746121D01*
X100453500Y-29601319D01*
X100453500Y-29453681D01*
X100453571Y-29453326D01*
X100457599Y-29433075D01*
X100482302Y-29308879D01*
X100538801Y-29172478D01*
X100620825Y-29049721D01*
X100725221Y-28945325D01*
X100847978Y-28863301D01*
X100984379Y-28806802D01*
X101116838Y-28780455D01*
X101129180Y-28778000D01*
X101276820Y-28778000D01*
X101289162Y-28780455D01*
X101289162Y-28780455D01*
G37*
G36*
X42948662Y-28780455D02*
G01*
X43081121Y-28806802D01*
X43217522Y-28863301D01*
X43340279Y-28945325D01*
X43444675Y-29049721D01*
X43526699Y-29172478D01*
X43583198Y-29308879D01*
X43607901Y-29433075D01*
X43611930Y-29453326D01*
X43612000Y-29453681D01*
X43612000Y-29601319D01*
X43583198Y-29746121D01*
X43526699Y-29882522D01*
X43444675Y-30005279D01*
X43340279Y-30109675D01*
X43217522Y-30191699D01*
X43081121Y-30248198D01*
X42956925Y-30272901D01*
X42936320Y-30277000D01*
X42788680Y-30277000D01*
X42768075Y-30272901D01*
X42643879Y-30248198D01*
X42507478Y-30191699D01*
X42384721Y-30109675D01*
X42280325Y-30005279D01*
X42198301Y-29882522D01*
X42141802Y-29746121D01*
X42113000Y-29601319D01*
X42113000Y-29453681D01*
X42113071Y-29453326D01*
X42117099Y-29433075D01*
X42141802Y-29308879D01*
X42198301Y-29172478D01*
X42280325Y-29049721D01*
X42384721Y-28945325D01*
X42507478Y-28863301D01*
X42643879Y-28806802D01*
X42776338Y-28780455D01*
X42788680Y-28778000D01*
X42936320Y-28778000D01*
X42948662Y-28780455D01*
X42948662Y-28780455D01*
G37*
G36*
X98908062Y-28780455D02*
G01*
X99040521Y-28806802D01*
X99176922Y-28863301D01*
X99299679Y-28945325D01*
X99404075Y-29049721D01*
X99486099Y-29172478D01*
X99542598Y-29308879D01*
X99567301Y-29433075D01*
X99571330Y-29453326D01*
X99571400Y-29453681D01*
X99571400Y-29601319D01*
X99542598Y-29746121D01*
X99486099Y-29882522D01*
X99404075Y-30005279D01*
X99299679Y-30109675D01*
X99176922Y-30191699D01*
X99040521Y-30248198D01*
X98916325Y-30272901D01*
X98895720Y-30277000D01*
X98748080Y-30277000D01*
X98727475Y-30272901D01*
X98603279Y-30248198D01*
X98466878Y-30191699D01*
X98344121Y-30109675D01*
X98239725Y-30005279D01*
X98157701Y-29882522D01*
X98101202Y-29746121D01*
X98072400Y-29601319D01*
X98072400Y-29453681D01*
X98072471Y-29453326D01*
X98076499Y-29433075D01*
X98101202Y-29308879D01*
X98157701Y-29172478D01*
X98239725Y-29049721D01*
X98344121Y-28945325D01*
X98466878Y-28863301D01*
X98603279Y-28806802D01*
X98735738Y-28780455D01*
X98748080Y-28778000D01*
X98895720Y-28778000D01*
X98908062Y-28780455D01*
X98908062Y-28780455D01*
G37*
G36*
X82239262Y-28780455D02*
G01*
X82371721Y-28806802D01*
X82508122Y-28863301D01*
X82630879Y-28945325D01*
X82735275Y-29049721D01*
X82817299Y-29172478D01*
X82873798Y-29308879D01*
X82898501Y-29433075D01*
X82902530Y-29453326D01*
X82902600Y-29453681D01*
X82902600Y-29601319D01*
X82873798Y-29746121D01*
X82817299Y-29882522D01*
X82735275Y-30005279D01*
X82630879Y-30109675D01*
X82508122Y-30191699D01*
X82371721Y-30248198D01*
X82247525Y-30272901D01*
X82226920Y-30277000D01*
X82079280Y-30277000D01*
X82058675Y-30272901D01*
X81934479Y-30248198D01*
X81798078Y-30191699D01*
X81675321Y-30109675D01*
X81570925Y-30005279D01*
X81488901Y-29882522D01*
X81432402Y-29746121D01*
X81403600Y-29601319D01*
X81403600Y-29453681D01*
X81403671Y-29453326D01*
X81407699Y-29433075D01*
X81432402Y-29308879D01*
X81488901Y-29172478D01*
X81570925Y-29049721D01*
X81675321Y-28945325D01*
X81798078Y-28863301D01*
X81934479Y-28806802D01*
X82066938Y-28780455D01*
X82079280Y-28778000D01*
X82226920Y-28778000D01*
X82239262Y-28780455D01*
X82239262Y-28780455D01*
G37*
G36*
X61998662Y-28780455D02*
G01*
X62131121Y-28806802D01*
X62267522Y-28863301D01*
X62390279Y-28945325D01*
X62494675Y-29049721D01*
X62576699Y-29172478D01*
X62633198Y-29308879D01*
X62657901Y-29433075D01*
X62661930Y-29453326D01*
X62662000Y-29453681D01*
X62662000Y-29601319D01*
X62633198Y-29746121D01*
X62576699Y-29882522D01*
X62494675Y-30005279D01*
X62390279Y-30109675D01*
X62267522Y-30191699D01*
X62131121Y-30248198D01*
X62006925Y-30272901D01*
X61986320Y-30277000D01*
X61838680Y-30277000D01*
X61818075Y-30272901D01*
X61693879Y-30248198D01*
X61557478Y-30191699D01*
X61434721Y-30109675D01*
X61330325Y-30005279D01*
X61248301Y-29882522D01*
X61191802Y-29746121D01*
X61163000Y-29601319D01*
X61163000Y-29453681D01*
X61163071Y-29453326D01*
X61167099Y-29433075D01*
X61191802Y-29308879D01*
X61248301Y-29172478D01*
X61330325Y-29049721D01*
X61434721Y-28945325D01*
X61557478Y-28863301D01*
X61693879Y-28806802D01*
X61826338Y-28780455D01*
X61838680Y-28778000D01*
X61986320Y-28778000D01*
X61998662Y-28780455D01*
X61998662Y-28780455D01*
G37*
G36*
X79858062Y-28780455D02*
G01*
X79990521Y-28806802D01*
X80126922Y-28863301D01*
X80249679Y-28945325D01*
X80354075Y-29049721D01*
X80436099Y-29172478D01*
X80492598Y-29308879D01*
X80517301Y-29433075D01*
X80521330Y-29453326D01*
X80521400Y-29453681D01*
X80521400Y-29601319D01*
X80492598Y-29746121D01*
X80436099Y-29882522D01*
X80354075Y-30005279D01*
X80249679Y-30109675D01*
X80126922Y-30191699D01*
X79990521Y-30248198D01*
X79866325Y-30272901D01*
X79845720Y-30277000D01*
X79698080Y-30277000D01*
X79677475Y-30272901D01*
X79553279Y-30248198D01*
X79416878Y-30191699D01*
X79294121Y-30109675D01*
X79189725Y-30005279D01*
X79107701Y-29882522D01*
X79051202Y-29746121D01*
X79022400Y-29601319D01*
X79022400Y-29453681D01*
X79022471Y-29453326D01*
X79026499Y-29433075D01*
X79051202Y-29308879D01*
X79107701Y-29172478D01*
X79189725Y-29049721D01*
X79294121Y-28945325D01*
X79416878Y-28863301D01*
X79553279Y-28806802D01*
X79685738Y-28780455D01*
X79698080Y-28778000D01*
X79845720Y-28778000D01*
X79858062Y-28780455D01*
X79858062Y-28780455D01*
G37*
G36*
X74129060Y-27676564D02*
G01*
X74280527Y-27706693D01*
X74494545Y-27795342D01*
X74494546Y-27795343D01*
X74687154Y-27924039D01*
X74850961Y-28087846D01*
X74900175Y-28161500D01*
X74979658Y-28280455D01*
X75068307Y-28494473D01*
X75113500Y-28721674D01*
X75113500Y-28953326D01*
X75068307Y-29180527D01*
X74979658Y-29394545D01*
X74979657Y-29394546D01*
X74850961Y-29587154D01*
X74687154Y-29750961D01*
X74558749Y-29836758D01*
X74494545Y-29879658D01*
X74280527Y-29968307D01*
X74129060Y-29998436D01*
X74053327Y-30013500D01*
X73821673Y-30013500D01*
X73745940Y-29998436D01*
X73594473Y-29968307D01*
X73380455Y-29879658D01*
X73316251Y-29836758D01*
X73187846Y-29750961D01*
X73024039Y-29587154D01*
X72895343Y-29394546D01*
X72895342Y-29394545D01*
X72806693Y-29180527D01*
X72761500Y-28953326D01*
X72761500Y-28721674D01*
X72806693Y-28494473D01*
X72895342Y-28280455D01*
X72974825Y-28161500D01*
X73024039Y-28087846D01*
X73187846Y-27924039D01*
X73380454Y-27795343D01*
X73380455Y-27795342D01*
X73594473Y-27706693D01*
X73745940Y-27676564D01*
X73821673Y-27661500D01*
X74053327Y-27661500D01*
X74129060Y-27676564D01*
X74129060Y-27676564D01*
G37*
G36*
X36029060Y-27676564D02*
G01*
X36180527Y-27706693D01*
X36394545Y-27795342D01*
X36394546Y-27795343D01*
X36587154Y-27924039D01*
X36750961Y-28087846D01*
X36800175Y-28161500D01*
X36879658Y-28280455D01*
X36968307Y-28494473D01*
X37013500Y-28721674D01*
X37013500Y-28953326D01*
X36968307Y-29180527D01*
X36879658Y-29394545D01*
X36879657Y-29394546D01*
X36750961Y-29587154D01*
X36587154Y-29750961D01*
X36458749Y-29836758D01*
X36394545Y-29879658D01*
X36180527Y-29968307D01*
X36029060Y-29998436D01*
X35953327Y-30013500D01*
X35721673Y-30013500D01*
X35645940Y-29998436D01*
X35494473Y-29968307D01*
X35280455Y-29879658D01*
X35216251Y-29836758D01*
X35087846Y-29750961D01*
X34924039Y-29587154D01*
X34795343Y-29394546D01*
X34795342Y-29394545D01*
X34706693Y-29180527D01*
X34661500Y-28953326D01*
X34661500Y-28721674D01*
X34706693Y-28494473D01*
X34795342Y-28280455D01*
X34874825Y-28161500D01*
X34924039Y-28087846D01*
X35087846Y-27924039D01*
X35280454Y-27795343D01*
X35280455Y-27795342D01*
X35494473Y-27706693D01*
X35645940Y-27676564D01*
X35721673Y-27661500D01*
X35953327Y-27661500D01*
X36029060Y-27676564D01*
X36029060Y-27676564D01*
G37*
G36*
X55079060Y-27676564D02*
G01*
X55230527Y-27706693D01*
X55444545Y-27795342D01*
X55444546Y-27795343D01*
X55637154Y-27924039D01*
X55800961Y-28087846D01*
X55850175Y-28161500D01*
X55929658Y-28280455D01*
X56018307Y-28494473D01*
X56063500Y-28721674D01*
X56063500Y-28953326D01*
X56018307Y-29180527D01*
X55929658Y-29394545D01*
X55929657Y-29394546D01*
X55800961Y-29587154D01*
X55637154Y-29750961D01*
X55508749Y-29836758D01*
X55444545Y-29879658D01*
X55230527Y-29968307D01*
X55079060Y-29998436D01*
X55003327Y-30013500D01*
X54771673Y-30013500D01*
X54695940Y-29998436D01*
X54544473Y-29968307D01*
X54330455Y-29879658D01*
X54266251Y-29836758D01*
X54137846Y-29750961D01*
X53974039Y-29587154D01*
X53845343Y-29394546D01*
X53845342Y-29394545D01*
X53756693Y-29180527D01*
X53711500Y-28953326D01*
X53711500Y-28721674D01*
X53756693Y-28494473D01*
X53845342Y-28280455D01*
X53924825Y-28161500D01*
X53974039Y-28087846D01*
X54137846Y-27924039D01*
X54330454Y-27795343D01*
X54330455Y-27795342D01*
X54544473Y-27706693D01*
X54695940Y-27676564D01*
X54771673Y-27661500D01*
X55003327Y-27661500D01*
X55079060Y-27676564D01*
X55079060Y-27676564D01*
G37*
G36*
X93179060Y-27676564D02*
G01*
X93330527Y-27706693D01*
X93544545Y-27795342D01*
X93544546Y-27795343D01*
X93737154Y-27924039D01*
X93900961Y-28087846D01*
X93950175Y-28161500D01*
X94029658Y-28280455D01*
X94118307Y-28494473D01*
X94163500Y-28721674D01*
X94163500Y-28953326D01*
X94118307Y-29180527D01*
X94029658Y-29394545D01*
X94029657Y-29394546D01*
X93900961Y-29587154D01*
X93737154Y-29750961D01*
X93608749Y-29836758D01*
X93544545Y-29879658D01*
X93330527Y-29968307D01*
X93179060Y-29998436D01*
X93103327Y-30013500D01*
X92871673Y-30013500D01*
X92795940Y-29998436D01*
X92644473Y-29968307D01*
X92430455Y-29879658D01*
X92366251Y-29836758D01*
X92237846Y-29750961D01*
X92074039Y-29587154D01*
X91945343Y-29394546D01*
X91945342Y-29394545D01*
X91856693Y-29180527D01*
X91811500Y-28953326D01*
X91811500Y-28721674D01*
X91856693Y-28494473D01*
X91945342Y-28280455D01*
X92024825Y-28161500D01*
X92074039Y-28087846D01*
X92237846Y-27924039D01*
X92430454Y-27795343D01*
X92430455Y-27795342D01*
X92644473Y-27706693D01*
X92795940Y-27676564D01*
X92871673Y-27661500D01*
X93103327Y-27661500D01*
X93179060Y-27676564D01*
X93179060Y-27676564D01*
G37*
G36*
X112229560Y-27676564D02*
G01*
X112381027Y-27706693D01*
X112595045Y-27795342D01*
X112595046Y-27795343D01*
X112787654Y-27924039D01*
X112951461Y-28087846D01*
X113000675Y-28161500D01*
X113080158Y-28280455D01*
X113168807Y-28494473D01*
X113214000Y-28721674D01*
X113214000Y-28953326D01*
X113168807Y-29180527D01*
X113080158Y-29394545D01*
X113080157Y-29394546D01*
X112951461Y-29587154D01*
X112787654Y-29750961D01*
X112659249Y-29836758D01*
X112595045Y-29879658D01*
X112381027Y-29968307D01*
X112229560Y-29998436D01*
X112153827Y-30013500D01*
X111922173Y-30013500D01*
X111846440Y-29998436D01*
X111694973Y-29968307D01*
X111480955Y-29879658D01*
X111416751Y-29836758D01*
X111288346Y-29750961D01*
X111124539Y-29587154D01*
X110995843Y-29394546D01*
X110995842Y-29394545D01*
X110907193Y-29180527D01*
X110862000Y-28953326D01*
X110862000Y-28721674D01*
X110907193Y-28494473D01*
X110995842Y-28280455D01*
X111075325Y-28161500D01*
X111124539Y-28087846D01*
X111288346Y-27924039D01*
X111480954Y-27795343D01*
X111480955Y-27795342D01*
X111694973Y-27706693D01*
X111846440Y-27676564D01*
X111922173Y-27661500D01*
X112153827Y-27661500D01*
X112229560Y-27676564D01*
X112229560Y-27676564D01*
G37*
G36*
X131279560Y-27676564D02*
G01*
X131431027Y-27706693D01*
X131645045Y-27795342D01*
X131645046Y-27795343D01*
X131837654Y-27924039D01*
X132001461Y-28087846D01*
X132050675Y-28161500D01*
X132130158Y-28280455D01*
X132218807Y-28494473D01*
X132264000Y-28721674D01*
X132264000Y-28953326D01*
X132218807Y-29180527D01*
X132130158Y-29394545D01*
X132130157Y-29394546D01*
X132001461Y-29587154D01*
X131837654Y-29750961D01*
X131709249Y-29836758D01*
X131645045Y-29879658D01*
X131431027Y-29968307D01*
X131279560Y-29998436D01*
X131203827Y-30013500D01*
X130972173Y-30013500D01*
X130896440Y-29998436D01*
X130744973Y-29968307D01*
X130530955Y-29879658D01*
X130466751Y-29836758D01*
X130338346Y-29750961D01*
X130174539Y-29587154D01*
X130045843Y-29394546D01*
X130045842Y-29394545D01*
X129957193Y-29180527D01*
X129912000Y-28953326D01*
X129912000Y-28721674D01*
X129957193Y-28494473D01*
X130045842Y-28280455D01*
X130125325Y-28161500D01*
X130174539Y-28087846D01*
X130338346Y-27924039D01*
X130530954Y-27795343D01*
X130530955Y-27795342D01*
X130744973Y-27706693D01*
X130896440Y-27676564D01*
X130972173Y-27661500D01*
X131203827Y-27661500D01*
X131279560Y-27676564D01*
X131279560Y-27676564D01*
G37*
G36*
X119251890Y-24834017D02*
G01*
X119370364Y-24883091D01*
X119476988Y-24954335D01*
X119567665Y-25045012D01*
X119638909Y-25151636D01*
X119687983Y-25270110D01*
X119713000Y-25395882D01*
X119713000Y-25524118D01*
X119687983Y-25649890D01*
X119638909Y-25768364D01*
X119567665Y-25874988D01*
X119476988Y-25965665D01*
X119370364Y-26036909D01*
X119370363Y-26036910D01*
X119370362Y-26036910D01*
X119251890Y-26085983D01*
X119126119Y-26111000D01*
X118997881Y-26111000D01*
X118872110Y-26085983D01*
X118753638Y-26036910D01*
X118753637Y-26036910D01*
X118753636Y-26036909D01*
X118647012Y-25965665D01*
X118556335Y-25874988D01*
X118485091Y-25768364D01*
X118436017Y-25649890D01*
X118411000Y-25524118D01*
X118411000Y-25395882D01*
X118436017Y-25270110D01*
X118485091Y-25151636D01*
X118556335Y-25045012D01*
X118647012Y-24954335D01*
X118753636Y-24883091D01*
X118872110Y-24834017D01*
X118997881Y-24809000D01*
X119126119Y-24809000D01*
X119251890Y-24834017D01*
X119251890Y-24834017D01*
G37*
M02*
