G04 #@! TF.GenerationSoftware,KiCad,Pcbnew,(5.1.2-1)-1*
G04 #@! TF.CreationDate,2019-08-02T10:41:21+09:00*
G04 #@! TF.ProjectId,split-ask_right,73706c69-742d-4617-936b-5f7269676874,rev?*
G04 #@! TF.SameCoordinates,Original*
G04 #@! TF.FileFunction,Soldermask,Bot*
G04 #@! TF.FilePolarity,Negative*
%FSLAX46Y46*%
G04 Gerber Fmt 4.6, Leading zero omitted, Abs format (unit mm)*
G04 Created by KiCad (PCBNEW (5.1.2-1)-1) date 2019-08-02 10:41:21*
%MOMM*%
%LPD*%
G04 APERTURE LIST*
%ADD10C,0.100000*%
G04 APERTURE END LIST*
D10*
G36*
X282927500Y-114097500D02*
G01*
X281428500Y-114097500D01*
X281428500Y-112598500D01*
X282927500Y-112598500D01*
X282927500Y-114097500D01*
X282927500Y-114097500D01*
G37*
G36*
X280546500Y-114097500D02*
G01*
X279047500Y-114097500D01*
X279047500Y-112598500D01*
X280546500Y-112598500D01*
X280546500Y-114097500D01*
X280546500Y-114097500D01*
G37*
G36*
X262687500Y-114097500D02*
G01*
X261188500Y-114097500D01*
X261188500Y-112598500D01*
X262687500Y-112598500D01*
X262687500Y-114097500D01*
X262687500Y-114097500D01*
G37*
G36*
X243637500Y-114097500D02*
G01*
X242138500Y-114097500D01*
X242138500Y-112598500D01*
X243637500Y-112598500D01*
X243637500Y-114097500D01*
X243637500Y-114097500D01*
G37*
G36*
X224587500Y-114097500D02*
G01*
X223088500Y-114097500D01*
X223088500Y-112598500D01*
X224587500Y-112598500D01*
X224587500Y-114097500D01*
X224587500Y-114097500D01*
G37*
G36*
X205537500Y-114097500D02*
G01*
X204038500Y-114097500D01*
X204038500Y-112598500D01*
X205537500Y-112598500D01*
X205537500Y-114097500D01*
X205537500Y-114097500D01*
G37*
G36*
X282704000Y-112014000D02*
G01*
X281652000Y-112014000D01*
X281652000Y-110612000D01*
X282704000Y-110612000D01*
X282704000Y-112014000D01*
X282704000Y-112014000D01*
G37*
G36*
X280323000Y-112014000D02*
G01*
X279271000Y-112014000D01*
X279271000Y-110612000D01*
X280323000Y-110612000D01*
X280323000Y-112014000D01*
X280323000Y-112014000D01*
G37*
G36*
X262464000Y-112014000D02*
G01*
X261412000Y-112014000D01*
X261412000Y-110612000D01*
X262464000Y-110612000D01*
X262464000Y-112014000D01*
X262464000Y-112014000D01*
G37*
G36*
X243414000Y-112014000D02*
G01*
X242362000Y-112014000D01*
X242362000Y-110612000D01*
X243414000Y-110612000D01*
X243414000Y-112014000D01*
X243414000Y-112014000D01*
G37*
G36*
X224364000Y-112014000D02*
G01*
X223312000Y-112014000D01*
X223312000Y-110612000D01*
X224364000Y-110612000D01*
X224364000Y-112014000D01*
X224364000Y-112014000D01*
G37*
G36*
X205314000Y-112014000D02*
G01*
X204262000Y-112014000D01*
X204262000Y-110612000D01*
X205314000Y-110612000D01*
X205314000Y-112014000D01*
X205314000Y-112014000D01*
G37*
G36*
X205314000Y-108464000D02*
G01*
X204262000Y-108464000D01*
X204262000Y-107062000D01*
X205314000Y-107062000D01*
X205314000Y-108464000D01*
X205314000Y-108464000D01*
G37*
G36*
X282704000Y-108464000D02*
G01*
X281652000Y-108464000D01*
X281652000Y-107062000D01*
X282704000Y-107062000D01*
X282704000Y-108464000D01*
X282704000Y-108464000D01*
G37*
G36*
X280323000Y-108464000D02*
G01*
X279271000Y-108464000D01*
X279271000Y-107062000D01*
X280323000Y-107062000D01*
X280323000Y-108464000D01*
X280323000Y-108464000D01*
G37*
G36*
X262464000Y-108464000D02*
G01*
X261412000Y-108464000D01*
X261412000Y-107062000D01*
X262464000Y-107062000D01*
X262464000Y-108464000D01*
X262464000Y-108464000D01*
G37*
G36*
X243414000Y-108464000D02*
G01*
X242362000Y-108464000D01*
X242362000Y-107062000D01*
X243414000Y-107062000D01*
X243414000Y-108464000D01*
X243414000Y-108464000D01*
G37*
G36*
X224364000Y-108464000D02*
G01*
X223312000Y-108464000D01*
X223312000Y-107062000D01*
X224364000Y-107062000D01*
X224364000Y-108464000D01*
X224364000Y-108464000D01*
G37*
G36*
X192953560Y-104377064D02*
G01*
X193105027Y-104407193D01*
X193319045Y-104495842D01*
X193319046Y-104495843D01*
X193511654Y-104624539D01*
X193675461Y-104788346D01*
X193761258Y-104916751D01*
X193804158Y-104980955D01*
X193892807Y-105194973D01*
X193892807Y-105194975D01*
X193938000Y-105422173D01*
X193938000Y-105653827D01*
X193922936Y-105729560D01*
X193892807Y-105881027D01*
X193804158Y-106095045D01*
X193804157Y-106095046D01*
X193675461Y-106287654D01*
X193511654Y-106451461D01*
X193383249Y-106537258D01*
X193319045Y-106580158D01*
X193105027Y-106668807D01*
X192953560Y-106698936D01*
X192877827Y-106714000D01*
X192646173Y-106714000D01*
X192570440Y-106698936D01*
X192418973Y-106668807D01*
X192204955Y-106580158D01*
X192140751Y-106537258D01*
X192012346Y-106451461D01*
X191848539Y-106287654D01*
X191719843Y-106095046D01*
X191719842Y-106095045D01*
X191631193Y-105881027D01*
X191601064Y-105729560D01*
X191586000Y-105653827D01*
X191586000Y-105422173D01*
X191631193Y-105194975D01*
X191631193Y-105194973D01*
X191719842Y-104980955D01*
X191762742Y-104916751D01*
X191848539Y-104788346D01*
X192012346Y-104624539D01*
X192204954Y-104495843D01*
X192204955Y-104495842D01*
X192418973Y-104407193D01*
X192570440Y-104377064D01*
X192646173Y-104362000D01*
X192877827Y-104362000D01*
X192953560Y-104377064D01*
X192953560Y-104377064D01*
G37*
G36*
X212003560Y-104377064D02*
G01*
X212155027Y-104407193D01*
X212369045Y-104495842D01*
X212369046Y-104495843D01*
X212561654Y-104624539D01*
X212725461Y-104788346D01*
X212811258Y-104916751D01*
X212854158Y-104980955D01*
X212942807Y-105194973D01*
X212942807Y-105194975D01*
X212988000Y-105422173D01*
X212988000Y-105653827D01*
X212972936Y-105729560D01*
X212942807Y-105881027D01*
X212854158Y-106095045D01*
X212854157Y-106095046D01*
X212725461Y-106287654D01*
X212561654Y-106451461D01*
X212433249Y-106537258D01*
X212369045Y-106580158D01*
X212155027Y-106668807D01*
X212003560Y-106698936D01*
X211927827Y-106714000D01*
X211696173Y-106714000D01*
X211620440Y-106698936D01*
X211468973Y-106668807D01*
X211254955Y-106580158D01*
X211190751Y-106537258D01*
X211062346Y-106451461D01*
X210898539Y-106287654D01*
X210769843Y-106095046D01*
X210769842Y-106095045D01*
X210681193Y-105881027D01*
X210651064Y-105729560D01*
X210636000Y-105653827D01*
X210636000Y-105422173D01*
X210681193Y-105194975D01*
X210681193Y-105194973D01*
X210769842Y-104980955D01*
X210812742Y-104916751D01*
X210898539Y-104788346D01*
X211062346Y-104624539D01*
X211254954Y-104495843D01*
X211254955Y-104495842D01*
X211468973Y-104407193D01*
X211620440Y-104377064D01*
X211696173Y-104362000D01*
X211927827Y-104362000D01*
X212003560Y-104377064D01*
X212003560Y-104377064D01*
G37*
G36*
X231053560Y-104377064D02*
G01*
X231205027Y-104407193D01*
X231419045Y-104495842D01*
X231419046Y-104495843D01*
X231611654Y-104624539D01*
X231775461Y-104788346D01*
X231861258Y-104916751D01*
X231904158Y-104980955D01*
X231992807Y-105194973D01*
X231992807Y-105194975D01*
X232038000Y-105422173D01*
X232038000Y-105653827D01*
X232022936Y-105729560D01*
X231992807Y-105881027D01*
X231904158Y-106095045D01*
X231904157Y-106095046D01*
X231775461Y-106287654D01*
X231611654Y-106451461D01*
X231483249Y-106537258D01*
X231419045Y-106580158D01*
X231205027Y-106668807D01*
X231053560Y-106698936D01*
X230977827Y-106714000D01*
X230746173Y-106714000D01*
X230670440Y-106698936D01*
X230518973Y-106668807D01*
X230304955Y-106580158D01*
X230240751Y-106537258D01*
X230112346Y-106451461D01*
X229948539Y-106287654D01*
X229819843Y-106095046D01*
X229819842Y-106095045D01*
X229731193Y-105881027D01*
X229701064Y-105729560D01*
X229686000Y-105653827D01*
X229686000Y-105422173D01*
X229731193Y-105194975D01*
X229731193Y-105194973D01*
X229819842Y-104980955D01*
X229862742Y-104916751D01*
X229948539Y-104788346D01*
X230112346Y-104624539D01*
X230304954Y-104495843D01*
X230304955Y-104495842D01*
X230518973Y-104407193D01*
X230670440Y-104377064D01*
X230746173Y-104362000D01*
X230977827Y-104362000D01*
X231053560Y-104377064D01*
X231053560Y-104377064D01*
G37*
G36*
X288203560Y-104377064D02*
G01*
X288355027Y-104407193D01*
X288569045Y-104495842D01*
X288569046Y-104495843D01*
X288761654Y-104624539D01*
X288925461Y-104788346D01*
X289011258Y-104916751D01*
X289054158Y-104980955D01*
X289142807Y-105194973D01*
X289142807Y-105194975D01*
X289188000Y-105422173D01*
X289188000Y-105653827D01*
X289172936Y-105729560D01*
X289142807Y-105881027D01*
X289054158Y-106095045D01*
X289054157Y-106095046D01*
X288925461Y-106287654D01*
X288761654Y-106451461D01*
X288633249Y-106537258D01*
X288569045Y-106580158D01*
X288355027Y-106668807D01*
X288203560Y-106698936D01*
X288127827Y-106714000D01*
X287896173Y-106714000D01*
X287820440Y-106698936D01*
X287668973Y-106668807D01*
X287454955Y-106580158D01*
X287390751Y-106537258D01*
X287262346Y-106451461D01*
X287098539Y-106287654D01*
X286969843Y-106095046D01*
X286969842Y-106095045D01*
X286881193Y-105881027D01*
X286851064Y-105729560D01*
X286836000Y-105653827D01*
X286836000Y-105422173D01*
X286881193Y-105194975D01*
X286881193Y-105194973D01*
X286969842Y-104980955D01*
X287012742Y-104916751D01*
X287098539Y-104788346D01*
X287262346Y-104624539D01*
X287454954Y-104495843D01*
X287454955Y-104495842D01*
X287668973Y-104407193D01*
X287820440Y-104377064D01*
X287896173Y-104362000D01*
X288127827Y-104362000D01*
X288203560Y-104377064D01*
X288203560Y-104377064D01*
G37*
G36*
X269153560Y-104377064D02*
G01*
X269305027Y-104407193D01*
X269519045Y-104495842D01*
X269519046Y-104495843D01*
X269711654Y-104624539D01*
X269875461Y-104788346D01*
X269961258Y-104916751D01*
X270004158Y-104980955D01*
X270092807Y-105194973D01*
X270092807Y-105194975D01*
X270138000Y-105422173D01*
X270138000Y-105653827D01*
X270122936Y-105729560D01*
X270092807Y-105881027D01*
X270004158Y-106095045D01*
X270004157Y-106095046D01*
X269875461Y-106287654D01*
X269711654Y-106451461D01*
X269583249Y-106537258D01*
X269519045Y-106580158D01*
X269305027Y-106668807D01*
X269153560Y-106698936D01*
X269077827Y-106714000D01*
X268846173Y-106714000D01*
X268770440Y-106698936D01*
X268618973Y-106668807D01*
X268404955Y-106580158D01*
X268340751Y-106537258D01*
X268212346Y-106451461D01*
X268048539Y-106287654D01*
X267919843Y-106095046D01*
X267919842Y-106095045D01*
X267831193Y-105881027D01*
X267801064Y-105729560D01*
X267786000Y-105653827D01*
X267786000Y-105422173D01*
X267831193Y-105194975D01*
X267831193Y-105194973D01*
X267919842Y-104980955D01*
X267962742Y-104916751D01*
X268048539Y-104788346D01*
X268212346Y-104624539D01*
X268404954Y-104495843D01*
X268404955Y-104495842D01*
X268618973Y-104407193D01*
X268770440Y-104377064D01*
X268846173Y-104362000D01*
X269077827Y-104362000D01*
X269153560Y-104377064D01*
X269153560Y-104377064D01*
G37*
G36*
X250103560Y-104377064D02*
G01*
X250255027Y-104407193D01*
X250469045Y-104495842D01*
X250469046Y-104495843D01*
X250661654Y-104624539D01*
X250825461Y-104788346D01*
X250911258Y-104916751D01*
X250954158Y-104980955D01*
X251042807Y-105194973D01*
X251042807Y-105194975D01*
X251088000Y-105422173D01*
X251088000Y-105653827D01*
X251072936Y-105729560D01*
X251042807Y-105881027D01*
X250954158Y-106095045D01*
X250954157Y-106095046D01*
X250825461Y-106287654D01*
X250661654Y-106451461D01*
X250533249Y-106537258D01*
X250469045Y-106580158D01*
X250255027Y-106668807D01*
X250103560Y-106698936D01*
X250027827Y-106714000D01*
X249796173Y-106714000D01*
X249720440Y-106698936D01*
X249568973Y-106668807D01*
X249354955Y-106580158D01*
X249290751Y-106537258D01*
X249162346Y-106451461D01*
X248998539Y-106287654D01*
X248869843Y-106095046D01*
X248869842Y-106095045D01*
X248781193Y-105881027D01*
X248751064Y-105729560D01*
X248736000Y-105653827D01*
X248736000Y-105422173D01*
X248781193Y-105194975D01*
X248781193Y-105194973D01*
X248869842Y-104980955D01*
X248912742Y-104916751D01*
X248998539Y-104788346D01*
X249162346Y-104624539D01*
X249354954Y-104495843D01*
X249354955Y-104495842D01*
X249568973Y-104407193D01*
X249720440Y-104377064D01*
X249796173Y-104362000D01*
X250027827Y-104362000D01*
X250103560Y-104377064D01*
X250103560Y-104377064D01*
G37*
G36*
X282264162Y-104980955D02*
G01*
X282396621Y-105007302D01*
X282533022Y-105063801D01*
X282655779Y-105145825D01*
X282760175Y-105250221D01*
X282842199Y-105372978D01*
X282898698Y-105509379D01*
X282923401Y-105633575D01*
X282927430Y-105653826D01*
X282927500Y-105654181D01*
X282927500Y-105801819D01*
X282898698Y-105946621D01*
X282842199Y-106083022D01*
X282760175Y-106205779D01*
X282655779Y-106310175D01*
X282533022Y-106392199D01*
X282396621Y-106448698D01*
X282272425Y-106473401D01*
X282251820Y-106477500D01*
X282104180Y-106477500D01*
X282083575Y-106473401D01*
X281959379Y-106448698D01*
X281822978Y-106392199D01*
X281700221Y-106310175D01*
X281595825Y-106205779D01*
X281513801Y-106083022D01*
X281457302Y-105946621D01*
X281428500Y-105801819D01*
X281428500Y-105654181D01*
X281428571Y-105653826D01*
X281432599Y-105633575D01*
X281457302Y-105509379D01*
X281513801Y-105372978D01*
X281595825Y-105250221D01*
X281700221Y-105145825D01*
X281822978Y-105063801D01*
X281959379Y-105007302D01*
X282091838Y-104980955D01*
X282104180Y-104978500D01*
X282251820Y-104978500D01*
X282264162Y-104980955D01*
X282264162Y-104980955D01*
G37*
G36*
X279883162Y-104980955D02*
G01*
X280015621Y-105007302D01*
X280152022Y-105063801D01*
X280274779Y-105145825D01*
X280379175Y-105250221D01*
X280461199Y-105372978D01*
X280517698Y-105509379D01*
X280542401Y-105633575D01*
X280546430Y-105653826D01*
X280546500Y-105654181D01*
X280546500Y-105801819D01*
X280517698Y-105946621D01*
X280461199Y-106083022D01*
X280379175Y-106205779D01*
X280274779Y-106310175D01*
X280152022Y-106392199D01*
X280015621Y-106448698D01*
X279891425Y-106473401D01*
X279870820Y-106477500D01*
X279723180Y-106477500D01*
X279702575Y-106473401D01*
X279578379Y-106448698D01*
X279441978Y-106392199D01*
X279319221Y-106310175D01*
X279214825Y-106205779D01*
X279132801Y-106083022D01*
X279076302Y-105946621D01*
X279047500Y-105801819D01*
X279047500Y-105654181D01*
X279047571Y-105653826D01*
X279051599Y-105633575D01*
X279076302Y-105509379D01*
X279132801Y-105372978D01*
X279214825Y-105250221D01*
X279319221Y-105145825D01*
X279441978Y-105063801D01*
X279578379Y-105007302D01*
X279710838Y-104980955D01*
X279723180Y-104978500D01*
X279870820Y-104978500D01*
X279883162Y-104980955D01*
X279883162Y-104980955D01*
G37*
G36*
X262024162Y-104980955D02*
G01*
X262156621Y-105007302D01*
X262293022Y-105063801D01*
X262415779Y-105145825D01*
X262520175Y-105250221D01*
X262602199Y-105372978D01*
X262658698Y-105509379D01*
X262683401Y-105633575D01*
X262687430Y-105653826D01*
X262687500Y-105654181D01*
X262687500Y-105801819D01*
X262658698Y-105946621D01*
X262602199Y-106083022D01*
X262520175Y-106205779D01*
X262415779Y-106310175D01*
X262293022Y-106392199D01*
X262156621Y-106448698D01*
X262032425Y-106473401D01*
X262011820Y-106477500D01*
X261864180Y-106477500D01*
X261843575Y-106473401D01*
X261719379Y-106448698D01*
X261582978Y-106392199D01*
X261460221Y-106310175D01*
X261355825Y-106205779D01*
X261273801Y-106083022D01*
X261217302Y-105946621D01*
X261188500Y-105801819D01*
X261188500Y-105654181D01*
X261188571Y-105653826D01*
X261192599Y-105633575D01*
X261217302Y-105509379D01*
X261273801Y-105372978D01*
X261355825Y-105250221D01*
X261460221Y-105145825D01*
X261582978Y-105063801D01*
X261719379Y-105007302D01*
X261851838Y-104980955D01*
X261864180Y-104978500D01*
X262011820Y-104978500D01*
X262024162Y-104980955D01*
X262024162Y-104980955D01*
G37*
G36*
X242974162Y-104980955D02*
G01*
X243106621Y-105007302D01*
X243243022Y-105063801D01*
X243365779Y-105145825D01*
X243470175Y-105250221D01*
X243552199Y-105372978D01*
X243608698Y-105509379D01*
X243633401Y-105633575D01*
X243637430Y-105653826D01*
X243637500Y-105654181D01*
X243637500Y-105801819D01*
X243608698Y-105946621D01*
X243552199Y-106083022D01*
X243470175Y-106205779D01*
X243365779Y-106310175D01*
X243243022Y-106392199D01*
X243106621Y-106448698D01*
X242982425Y-106473401D01*
X242961820Y-106477500D01*
X242814180Y-106477500D01*
X242793575Y-106473401D01*
X242669379Y-106448698D01*
X242532978Y-106392199D01*
X242410221Y-106310175D01*
X242305825Y-106205779D01*
X242223801Y-106083022D01*
X242167302Y-105946621D01*
X242138500Y-105801819D01*
X242138500Y-105654181D01*
X242138571Y-105653826D01*
X242142599Y-105633575D01*
X242167302Y-105509379D01*
X242223801Y-105372978D01*
X242305825Y-105250221D01*
X242410221Y-105145825D01*
X242532978Y-105063801D01*
X242669379Y-105007302D01*
X242801838Y-104980955D01*
X242814180Y-104978500D01*
X242961820Y-104978500D01*
X242974162Y-104980955D01*
X242974162Y-104980955D01*
G37*
G36*
X204874162Y-104980955D02*
G01*
X205006621Y-105007302D01*
X205143022Y-105063801D01*
X205265779Y-105145825D01*
X205370175Y-105250221D01*
X205452199Y-105372978D01*
X205508698Y-105509379D01*
X205533401Y-105633575D01*
X205537430Y-105653826D01*
X205537500Y-105654181D01*
X205537500Y-105801819D01*
X205508698Y-105946621D01*
X205452199Y-106083022D01*
X205370175Y-106205779D01*
X205265779Y-106310175D01*
X205143022Y-106392199D01*
X205006621Y-106448698D01*
X204882425Y-106473401D01*
X204861820Y-106477500D01*
X204714180Y-106477500D01*
X204693575Y-106473401D01*
X204569379Y-106448698D01*
X204432978Y-106392199D01*
X204310221Y-106310175D01*
X204205825Y-106205779D01*
X204123801Y-106083022D01*
X204067302Y-105946621D01*
X204038500Y-105801819D01*
X204038500Y-105654181D01*
X204038571Y-105653826D01*
X204042599Y-105633575D01*
X204067302Y-105509379D01*
X204123801Y-105372978D01*
X204205825Y-105250221D01*
X204310221Y-105145825D01*
X204432978Y-105063801D01*
X204569379Y-105007302D01*
X204701838Y-104980955D01*
X204714180Y-104978500D01*
X204861820Y-104978500D01*
X204874162Y-104980955D01*
X204874162Y-104980955D01*
G37*
G36*
X223924162Y-104980955D02*
G01*
X224056621Y-105007302D01*
X224193022Y-105063801D01*
X224315779Y-105145825D01*
X224420175Y-105250221D01*
X224502199Y-105372978D01*
X224558698Y-105509379D01*
X224583401Y-105633575D01*
X224587430Y-105653826D01*
X224587500Y-105654181D01*
X224587500Y-105801819D01*
X224558698Y-105946621D01*
X224502199Y-106083022D01*
X224420175Y-106205779D01*
X224315779Y-106310175D01*
X224193022Y-106392199D01*
X224056621Y-106448698D01*
X223932425Y-106473401D01*
X223911820Y-106477500D01*
X223764180Y-106477500D01*
X223743575Y-106473401D01*
X223619379Y-106448698D01*
X223482978Y-106392199D01*
X223360221Y-106310175D01*
X223255825Y-106205779D01*
X223173801Y-106083022D01*
X223117302Y-105946621D01*
X223088500Y-105801819D01*
X223088500Y-105654181D01*
X223088571Y-105653826D01*
X223092599Y-105633575D01*
X223117302Y-105509379D01*
X223173801Y-105372978D01*
X223255825Y-105250221D01*
X223360221Y-105145825D01*
X223482978Y-105063801D01*
X223619379Y-105007302D01*
X223751838Y-104980955D01*
X223764180Y-104978500D01*
X223911820Y-104978500D01*
X223924162Y-104980955D01*
X223924162Y-104980955D01*
G37*
G36*
X293203560Y-103877064D02*
G01*
X293355027Y-103907193D01*
X293569045Y-103995842D01*
X293569046Y-103995843D01*
X293761654Y-104124539D01*
X293925461Y-104288346D01*
X293974675Y-104362000D01*
X294054158Y-104480955D01*
X294142807Y-104694973D01*
X294188000Y-104922174D01*
X294188000Y-105153826D01*
X294142807Y-105381027D01*
X294054158Y-105595045D01*
X294054157Y-105595046D01*
X293925461Y-105787654D01*
X293761654Y-105951461D01*
X293633249Y-106037258D01*
X293569045Y-106080158D01*
X293355027Y-106168807D01*
X293203560Y-106198936D01*
X293127827Y-106214000D01*
X292896173Y-106214000D01*
X292820440Y-106198936D01*
X292668973Y-106168807D01*
X292454955Y-106080158D01*
X292390751Y-106037258D01*
X292262346Y-105951461D01*
X292098539Y-105787654D01*
X291969843Y-105595046D01*
X291969842Y-105595045D01*
X291881193Y-105381027D01*
X291836000Y-105153826D01*
X291836000Y-104922174D01*
X291881193Y-104694973D01*
X291969842Y-104480955D01*
X292049325Y-104362000D01*
X292098539Y-104288346D01*
X292262346Y-104124539D01*
X292454954Y-103995843D01*
X292454955Y-103995842D01*
X292668973Y-103907193D01*
X292820440Y-103877064D01*
X292896173Y-103862000D01*
X293127827Y-103862000D01*
X293203560Y-103877064D01*
X293203560Y-103877064D01*
G37*
G36*
X274153560Y-103877064D02*
G01*
X274305027Y-103907193D01*
X274519045Y-103995842D01*
X274519046Y-103995843D01*
X274711654Y-104124539D01*
X274875461Y-104288346D01*
X274924675Y-104362000D01*
X275004158Y-104480955D01*
X275092807Y-104694973D01*
X275138000Y-104922174D01*
X275138000Y-105153826D01*
X275092807Y-105381027D01*
X275004158Y-105595045D01*
X275004157Y-105595046D01*
X274875461Y-105787654D01*
X274711654Y-105951461D01*
X274583249Y-106037258D01*
X274519045Y-106080158D01*
X274305027Y-106168807D01*
X274153560Y-106198936D01*
X274077827Y-106214000D01*
X273846173Y-106214000D01*
X273770440Y-106198936D01*
X273618973Y-106168807D01*
X273404955Y-106080158D01*
X273340751Y-106037258D01*
X273212346Y-105951461D01*
X273048539Y-105787654D01*
X272919843Y-105595046D01*
X272919842Y-105595045D01*
X272831193Y-105381027D01*
X272786000Y-105153826D01*
X272786000Y-104922174D01*
X272831193Y-104694973D01*
X272919842Y-104480955D01*
X272999325Y-104362000D01*
X273048539Y-104288346D01*
X273212346Y-104124539D01*
X273404954Y-103995843D01*
X273404955Y-103995842D01*
X273618973Y-103907193D01*
X273770440Y-103877064D01*
X273846173Y-103862000D01*
X274077827Y-103862000D01*
X274153560Y-103877064D01*
X274153560Y-103877064D01*
G37*
G36*
X255103560Y-103877064D02*
G01*
X255255027Y-103907193D01*
X255469045Y-103995842D01*
X255469046Y-103995843D01*
X255661654Y-104124539D01*
X255825461Y-104288346D01*
X255874675Y-104362000D01*
X255954158Y-104480955D01*
X256042807Y-104694973D01*
X256088000Y-104922174D01*
X256088000Y-105153826D01*
X256042807Y-105381027D01*
X255954158Y-105595045D01*
X255954157Y-105595046D01*
X255825461Y-105787654D01*
X255661654Y-105951461D01*
X255533249Y-106037258D01*
X255469045Y-106080158D01*
X255255027Y-106168807D01*
X255103560Y-106198936D01*
X255027827Y-106214000D01*
X254796173Y-106214000D01*
X254720440Y-106198936D01*
X254568973Y-106168807D01*
X254354955Y-106080158D01*
X254290751Y-106037258D01*
X254162346Y-105951461D01*
X253998539Y-105787654D01*
X253869843Y-105595046D01*
X253869842Y-105595045D01*
X253781193Y-105381027D01*
X253736000Y-105153826D01*
X253736000Y-104922174D01*
X253781193Y-104694973D01*
X253869842Y-104480955D01*
X253949325Y-104362000D01*
X253998539Y-104288346D01*
X254162346Y-104124539D01*
X254354954Y-103995843D01*
X254354955Y-103995842D01*
X254568973Y-103907193D01*
X254720440Y-103877064D01*
X254796173Y-103862000D01*
X255027827Y-103862000D01*
X255103560Y-103877064D01*
X255103560Y-103877064D01*
G37*
G36*
X236053560Y-103877064D02*
G01*
X236205027Y-103907193D01*
X236419045Y-103995842D01*
X236419046Y-103995843D01*
X236611654Y-104124539D01*
X236775461Y-104288346D01*
X236824675Y-104362000D01*
X236904158Y-104480955D01*
X236992807Y-104694973D01*
X237038000Y-104922174D01*
X237038000Y-105153826D01*
X236992807Y-105381027D01*
X236904158Y-105595045D01*
X236904157Y-105595046D01*
X236775461Y-105787654D01*
X236611654Y-105951461D01*
X236483249Y-106037258D01*
X236419045Y-106080158D01*
X236205027Y-106168807D01*
X236053560Y-106198936D01*
X235977827Y-106214000D01*
X235746173Y-106214000D01*
X235670440Y-106198936D01*
X235518973Y-106168807D01*
X235304955Y-106080158D01*
X235240751Y-106037258D01*
X235112346Y-105951461D01*
X234948539Y-105787654D01*
X234819843Y-105595046D01*
X234819842Y-105595045D01*
X234731193Y-105381027D01*
X234686000Y-105153826D01*
X234686000Y-104922174D01*
X234731193Y-104694973D01*
X234819842Y-104480955D01*
X234899325Y-104362000D01*
X234948539Y-104288346D01*
X235112346Y-104124539D01*
X235304954Y-103995843D01*
X235304955Y-103995842D01*
X235518973Y-103907193D01*
X235670440Y-103877064D01*
X235746173Y-103862000D01*
X235977827Y-103862000D01*
X236053560Y-103877064D01*
X236053560Y-103877064D01*
G37*
G36*
X217003560Y-103877064D02*
G01*
X217155027Y-103907193D01*
X217369045Y-103995842D01*
X217369046Y-103995843D01*
X217561654Y-104124539D01*
X217725461Y-104288346D01*
X217774675Y-104362000D01*
X217854158Y-104480955D01*
X217942807Y-104694973D01*
X217988000Y-104922174D01*
X217988000Y-105153826D01*
X217942807Y-105381027D01*
X217854158Y-105595045D01*
X217854157Y-105595046D01*
X217725461Y-105787654D01*
X217561654Y-105951461D01*
X217433249Y-106037258D01*
X217369045Y-106080158D01*
X217155027Y-106168807D01*
X217003560Y-106198936D01*
X216927827Y-106214000D01*
X216696173Y-106214000D01*
X216620440Y-106198936D01*
X216468973Y-106168807D01*
X216254955Y-106080158D01*
X216190751Y-106037258D01*
X216062346Y-105951461D01*
X215898539Y-105787654D01*
X215769843Y-105595046D01*
X215769842Y-105595045D01*
X215681193Y-105381027D01*
X215636000Y-105153826D01*
X215636000Y-104922174D01*
X215681193Y-104694973D01*
X215769842Y-104480955D01*
X215849325Y-104362000D01*
X215898539Y-104288346D01*
X216062346Y-104124539D01*
X216254954Y-103995843D01*
X216254955Y-103995842D01*
X216468973Y-103907193D01*
X216620440Y-103877064D01*
X216696173Y-103862000D01*
X216927827Y-103862000D01*
X217003560Y-103877064D01*
X217003560Y-103877064D01*
G37*
G36*
X197953560Y-103877064D02*
G01*
X198105027Y-103907193D01*
X198319045Y-103995842D01*
X198319046Y-103995843D01*
X198511654Y-104124539D01*
X198675461Y-104288346D01*
X198724675Y-104362000D01*
X198804158Y-104480955D01*
X198892807Y-104694973D01*
X198938000Y-104922174D01*
X198938000Y-105153826D01*
X198892807Y-105381027D01*
X198804158Y-105595045D01*
X198804157Y-105595046D01*
X198675461Y-105787654D01*
X198511654Y-105951461D01*
X198383249Y-106037258D01*
X198319045Y-106080158D01*
X198105027Y-106168807D01*
X197953560Y-106198936D01*
X197877827Y-106214000D01*
X197646173Y-106214000D01*
X197570440Y-106198936D01*
X197418973Y-106168807D01*
X197204955Y-106080158D01*
X197140751Y-106037258D01*
X197012346Y-105951461D01*
X196848539Y-105787654D01*
X196719843Y-105595046D01*
X196719842Y-105595045D01*
X196631193Y-105381027D01*
X196586000Y-105153826D01*
X196586000Y-104922174D01*
X196631193Y-104694973D01*
X196719842Y-104480955D01*
X196799325Y-104362000D01*
X196848539Y-104288346D01*
X197012346Y-104124539D01*
X197204954Y-103995843D01*
X197204955Y-103995842D01*
X197418973Y-103907193D01*
X197570440Y-103877064D01*
X197646173Y-103862000D01*
X197877827Y-103862000D01*
X197953560Y-103877064D01*
X197953560Y-103877064D01*
G37*
G36*
X205532098Y-98353033D02*
G01*
X205996350Y-98545332D01*
X205996352Y-98545333D01*
X206414168Y-98824509D01*
X206769491Y-99179832D01*
X207048667Y-99597648D01*
X207048668Y-99597650D01*
X207240967Y-100061902D01*
X207339000Y-100554747D01*
X207339000Y-101057253D01*
X207240967Y-101550098D01*
X207048668Y-102014350D01*
X207048667Y-102014352D01*
X206769491Y-102432168D01*
X206414168Y-102787491D01*
X205996352Y-103066667D01*
X205996351Y-103066668D01*
X205996350Y-103066668D01*
X205532098Y-103258967D01*
X205039253Y-103357000D01*
X204536747Y-103357000D01*
X204043902Y-103258967D01*
X203579650Y-103066668D01*
X203579649Y-103066668D01*
X203579648Y-103066667D01*
X203161832Y-102787491D01*
X202806509Y-102432168D01*
X202527333Y-102014352D01*
X202527332Y-102014350D01*
X202335033Y-101550098D01*
X202237000Y-101057253D01*
X202237000Y-100554747D01*
X202335033Y-100061902D01*
X202527332Y-99597650D01*
X202527333Y-99597648D01*
X202806509Y-99179832D01*
X203161832Y-98824509D01*
X203579648Y-98545333D01*
X203579650Y-98545332D01*
X204043902Y-98353033D01*
X204536747Y-98255000D01*
X205039253Y-98255000D01*
X205532098Y-98353033D01*
X205532098Y-98353033D01*
G37*
G36*
X281732098Y-98353033D02*
G01*
X282196350Y-98545332D01*
X282196352Y-98545333D01*
X282614168Y-98824509D01*
X282969491Y-99179832D01*
X283248667Y-99597648D01*
X283248668Y-99597650D01*
X283440967Y-100061902D01*
X283539000Y-100554747D01*
X283539000Y-101057253D01*
X283440967Y-101550098D01*
X283248668Y-102014350D01*
X283248667Y-102014352D01*
X282969491Y-102432168D01*
X282614168Y-102787491D01*
X282196352Y-103066667D01*
X282196351Y-103066668D01*
X282196350Y-103066668D01*
X281732098Y-103258967D01*
X281239253Y-103357000D01*
X280736747Y-103357000D01*
X280243902Y-103258967D01*
X279779650Y-103066668D01*
X279779649Y-103066668D01*
X279779648Y-103066667D01*
X279361832Y-102787491D01*
X279006509Y-102432168D01*
X278727333Y-102014352D01*
X278727332Y-102014350D01*
X278535033Y-101550098D01*
X278437000Y-101057253D01*
X278437000Y-100554747D01*
X278535033Y-100061902D01*
X278727332Y-99597650D01*
X278727333Y-99597648D01*
X279006509Y-99179832D01*
X279361832Y-98824509D01*
X279779648Y-98545333D01*
X279779650Y-98545332D01*
X280243902Y-98353033D01*
X280736747Y-98255000D01*
X281239253Y-98255000D01*
X281732098Y-98353033D01*
X281732098Y-98353033D01*
G37*
G36*
X181724500Y-95047000D02*
G01*
X180225500Y-95047000D01*
X180225500Y-93548000D01*
X181724500Y-93548000D01*
X181724500Y-95047000D01*
X181724500Y-95047000D01*
G37*
G36*
X200774500Y-95047000D02*
G01*
X199275500Y-95047000D01*
X199275500Y-93548000D01*
X200774500Y-93548000D01*
X200774500Y-95047000D01*
X200774500Y-95047000D01*
G37*
G36*
X219824500Y-95047000D02*
G01*
X218325500Y-95047000D01*
X218325500Y-93548000D01*
X219824500Y-93548000D01*
X219824500Y-95047000D01*
X219824500Y-95047000D01*
G37*
G36*
X238874500Y-95047000D02*
G01*
X237375500Y-95047000D01*
X237375500Y-93548000D01*
X238874500Y-93548000D01*
X238874500Y-95047000D01*
X238874500Y-95047000D01*
G37*
G36*
X256733500Y-95047000D02*
G01*
X255234500Y-95047000D01*
X255234500Y-93548000D01*
X256733500Y-93548000D01*
X256733500Y-95047000D01*
X256733500Y-95047000D01*
G37*
G36*
X259115500Y-95047000D02*
G01*
X257616500Y-95047000D01*
X257616500Y-93548000D01*
X259115500Y-93548000D01*
X259115500Y-95047000D01*
X259115500Y-95047000D01*
G37*
G36*
X200551000Y-92963500D02*
G01*
X199499000Y-92963500D01*
X199499000Y-91561500D01*
X200551000Y-91561500D01*
X200551000Y-92963500D01*
X200551000Y-92963500D01*
G37*
G36*
X219601000Y-92963500D02*
G01*
X218549000Y-92963500D01*
X218549000Y-91561500D01*
X219601000Y-91561500D01*
X219601000Y-92963500D01*
X219601000Y-92963500D01*
G37*
G36*
X238651000Y-92963500D02*
G01*
X237599000Y-92963500D01*
X237599000Y-91561500D01*
X238651000Y-91561500D01*
X238651000Y-92963500D01*
X238651000Y-92963500D01*
G37*
G36*
X256510000Y-92963500D02*
G01*
X255458000Y-92963500D01*
X255458000Y-91561500D01*
X256510000Y-91561500D01*
X256510000Y-92963500D01*
X256510000Y-92963500D01*
G37*
G36*
X258892000Y-92963500D02*
G01*
X257840000Y-92963500D01*
X257840000Y-91561500D01*
X258892000Y-91561500D01*
X258892000Y-92963500D01*
X258892000Y-92963500D01*
G37*
G36*
X181501000Y-92963500D02*
G01*
X180449000Y-92963500D01*
X180449000Y-91561500D01*
X181501000Y-91561500D01*
X181501000Y-92963500D01*
X181501000Y-92963500D01*
G37*
G36*
X258892000Y-89413500D02*
G01*
X257840000Y-89413500D01*
X257840000Y-88011500D01*
X258892000Y-88011500D01*
X258892000Y-89413500D01*
X258892000Y-89413500D01*
G37*
G36*
X238651000Y-89413500D02*
G01*
X237599000Y-89413500D01*
X237599000Y-88011500D01*
X238651000Y-88011500D01*
X238651000Y-89413500D01*
X238651000Y-89413500D01*
G37*
G36*
X219601000Y-89413500D02*
G01*
X218549000Y-89413500D01*
X218549000Y-88011500D01*
X219601000Y-88011500D01*
X219601000Y-89413500D01*
X219601000Y-89413500D01*
G37*
G36*
X200551000Y-89413500D02*
G01*
X199499000Y-89413500D01*
X199499000Y-88011500D01*
X200551000Y-88011500D01*
X200551000Y-89413500D01*
X200551000Y-89413500D01*
G37*
G36*
X181501000Y-89413500D02*
G01*
X180449000Y-89413500D01*
X180449000Y-88011500D01*
X181501000Y-88011500D01*
X181501000Y-89413500D01*
X181501000Y-89413500D01*
G37*
G36*
X256510000Y-89413500D02*
G01*
X255458000Y-89413500D01*
X255458000Y-88011500D01*
X256510000Y-88011500D01*
X256510000Y-89413500D01*
X256510000Y-89413500D01*
G37*
G36*
X169141560Y-85326564D02*
G01*
X169293027Y-85356693D01*
X169507045Y-85445342D01*
X169507046Y-85445343D01*
X169699654Y-85574039D01*
X169863461Y-85737846D01*
X169949258Y-85866251D01*
X169992158Y-85930455D01*
X170080807Y-86144473D01*
X170080807Y-86144475D01*
X170126000Y-86371673D01*
X170126000Y-86603327D01*
X170110936Y-86679060D01*
X170080807Y-86830527D01*
X169992158Y-87044545D01*
X169992157Y-87044546D01*
X169863461Y-87237154D01*
X169699654Y-87400961D01*
X169571249Y-87486758D01*
X169507045Y-87529658D01*
X169293027Y-87618307D01*
X169141560Y-87648436D01*
X169065827Y-87663500D01*
X168834173Y-87663500D01*
X168758440Y-87648436D01*
X168606973Y-87618307D01*
X168392955Y-87529658D01*
X168328751Y-87486758D01*
X168200346Y-87400961D01*
X168036539Y-87237154D01*
X167907843Y-87044546D01*
X167907842Y-87044545D01*
X167819193Y-86830527D01*
X167789064Y-86679060D01*
X167774000Y-86603327D01*
X167774000Y-86371673D01*
X167819193Y-86144475D01*
X167819193Y-86144473D01*
X167907842Y-85930455D01*
X167950742Y-85866251D01*
X168036539Y-85737846D01*
X168200346Y-85574039D01*
X168392954Y-85445343D01*
X168392955Y-85445342D01*
X168606973Y-85356693D01*
X168758440Y-85326564D01*
X168834173Y-85311500D01*
X169065827Y-85311500D01*
X169141560Y-85326564D01*
X169141560Y-85326564D01*
G37*
G36*
X188191560Y-85326564D02*
G01*
X188343027Y-85356693D01*
X188557045Y-85445342D01*
X188557046Y-85445343D01*
X188749654Y-85574039D01*
X188913461Y-85737846D01*
X188999258Y-85866251D01*
X189042158Y-85930455D01*
X189130807Y-86144473D01*
X189130807Y-86144475D01*
X189176000Y-86371673D01*
X189176000Y-86603327D01*
X189160936Y-86679060D01*
X189130807Y-86830527D01*
X189042158Y-87044545D01*
X189042157Y-87044546D01*
X188913461Y-87237154D01*
X188749654Y-87400961D01*
X188621249Y-87486758D01*
X188557045Y-87529658D01*
X188343027Y-87618307D01*
X188191560Y-87648436D01*
X188115827Y-87663500D01*
X187884173Y-87663500D01*
X187808440Y-87648436D01*
X187656973Y-87618307D01*
X187442955Y-87529658D01*
X187378751Y-87486758D01*
X187250346Y-87400961D01*
X187086539Y-87237154D01*
X186957843Y-87044546D01*
X186957842Y-87044545D01*
X186869193Y-86830527D01*
X186839064Y-86679060D01*
X186824000Y-86603327D01*
X186824000Y-86371673D01*
X186869193Y-86144475D01*
X186869193Y-86144473D01*
X186957842Y-85930455D01*
X187000742Y-85866251D01*
X187086539Y-85737846D01*
X187250346Y-85574039D01*
X187442954Y-85445343D01*
X187442955Y-85445342D01*
X187656973Y-85356693D01*
X187808440Y-85326564D01*
X187884173Y-85311500D01*
X188115827Y-85311500D01*
X188191560Y-85326564D01*
X188191560Y-85326564D01*
G37*
G36*
X207241560Y-85326564D02*
G01*
X207393027Y-85356693D01*
X207607045Y-85445342D01*
X207607046Y-85445343D01*
X207799654Y-85574039D01*
X207963461Y-85737846D01*
X208049258Y-85866251D01*
X208092158Y-85930455D01*
X208180807Y-86144473D01*
X208180807Y-86144475D01*
X208226000Y-86371673D01*
X208226000Y-86603327D01*
X208210936Y-86679060D01*
X208180807Y-86830527D01*
X208092158Y-87044545D01*
X208092157Y-87044546D01*
X207963461Y-87237154D01*
X207799654Y-87400961D01*
X207671249Y-87486758D01*
X207607045Y-87529658D01*
X207393027Y-87618307D01*
X207241560Y-87648436D01*
X207165827Y-87663500D01*
X206934173Y-87663500D01*
X206858440Y-87648436D01*
X206706973Y-87618307D01*
X206492955Y-87529658D01*
X206428751Y-87486758D01*
X206300346Y-87400961D01*
X206136539Y-87237154D01*
X206007843Y-87044546D01*
X206007842Y-87044545D01*
X205919193Y-86830527D01*
X205889064Y-86679060D01*
X205874000Y-86603327D01*
X205874000Y-86371673D01*
X205919193Y-86144475D01*
X205919193Y-86144473D01*
X206007842Y-85930455D01*
X206050742Y-85866251D01*
X206136539Y-85737846D01*
X206300346Y-85574039D01*
X206492954Y-85445343D01*
X206492955Y-85445342D01*
X206706973Y-85356693D01*
X206858440Y-85326564D01*
X206934173Y-85311500D01*
X207165827Y-85311500D01*
X207241560Y-85326564D01*
X207241560Y-85326564D01*
G37*
G36*
X226291560Y-85326564D02*
G01*
X226443027Y-85356693D01*
X226657045Y-85445342D01*
X226657046Y-85445343D01*
X226849654Y-85574039D01*
X227013461Y-85737846D01*
X227099258Y-85866251D01*
X227142158Y-85930455D01*
X227230807Y-86144473D01*
X227230807Y-86144475D01*
X227276000Y-86371673D01*
X227276000Y-86603327D01*
X227260936Y-86679060D01*
X227230807Y-86830527D01*
X227142158Y-87044545D01*
X227142157Y-87044546D01*
X227013461Y-87237154D01*
X226849654Y-87400961D01*
X226721249Y-87486758D01*
X226657045Y-87529658D01*
X226443027Y-87618307D01*
X226291560Y-87648436D01*
X226215827Y-87663500D01*
X225984173Y-87663500D01*
X225908440Y-87648436D01*
X225756973Y-87618307D01*
X225542955Y-87529658D01*
X225478751Y-87486758D01*
X225350346Y-87400961D01*
X225186539Y-87237154D01*
X225057843Y-87044546D01*
X225057842Y-87044545D01*
X224969193Y-86830527D01*
X224939064Y-86679060D01*
X224924000Y-86603327D01*
X224924000Y-86371673D01*
X224969193Y-86144475D01*
X224969193Y-86144473D01*
X225057842Y-85930455D01*
X225100742Y-85866251D01*
X225186539Y-85737846D01*
X225350346Y-85574039D01*
X225542954Y-85445343D01*
X225542955Y-85445342D01*
X225756973Y-85356693D01*
X225908440Y-85326564D01*
X225984173Y-85311500D01*
X226215827Y-85311500D01*
X226291560Y-85326564D01*
X226291560Y-85326564D01*
G37*
G36*
X276297560Y-85326564D02*
G01*
X276449027Y-85356693D01*
X276663045Y-85445342D01*
X276663046Y-85445343D01*
X276855654Y-85574039D01*
X277019461Y-85737846D01*
X277105258Y-85866251D01*
X277148158Y-85930455D01*
X277236807Y-86144473D01*
X277236807Y-86144475D01*
X277282000Y-86371673D01*
X277282000Y-86603327D01*
X277266936Y-86679060D01*
X277236807Y-86830527D01*
X277148158Y-87044545D01*
X277148157Y-87044546D01*
X277019461Y-87237154D01*
X276855654Y-87400961D01*
X276727249Y-87486758D01*
X276663045Y-87529658D01*
X276449027Y-87618307D01*
X276297560Y-87648436D01*
X276221827Y-87663500D01*
X275990173Y-87663500D01*
X275914440Y-87648436D01*
X275762973Y-87618307D01*
X275548955Y-87529658D01*
X275484751Y-87486758D01*
X275356346Y-87400961D01*
X275192539Y-87237154D01*
X275063843Y-87044546D01*
X275063842Y-87044545D01*
X274975193Y-86830527D01*
X274945064Y-86679060D01*
X274930000Y-86603327D01*
X274930000Y-86371673D01*
X274975193Y-86144475D01*
X274975193Y-86144473D01*
X275063842Y-85930455D01*
X275106742Y-85866251D01*
X275192539Y-85737846D01*
X275356346Y-85574039D01*
X275548954Y-85445343D01*
X275548955Y-85445342D01*
X275762973Y-85356693D01*
X275914440Y-85326564D01*
X275990173Y-85311500D01*
X276221827Y-85311500D01*
X276297560Y-85326564D01*
X276297560Y-85326564D01*
G37*
G36*
X245341560Y-85326564D02*
G01*
X245493027Y-85356693D01*
X245707045Y-85445342D01*
X245707046Y-85445343D01*
X245899654Y-85574039D01*
X246063461Y-85737846D01*
X246149258Y-85866251D01*
X246192158Y-85930455D01*
X246280807Y-86144473D01*
X246280807Y-86144475D01*
X246326000Y-86371673D01*
X246326000Y-86603327D01*
X246310936Y-86679060D01*
X246280807Y-86830527D01*
X246192158Y-87044545D01*
X246192157Y-87044546D01*
X246063461Y-87237154D01*
X245899654Y-87400961D01*
X245771249Y-87486758D01*
X245707045Y-87529658D01*
X245493027Y-87618307D01*
X245341560Y-87648436D01*
X245265827Y-87663500D01*
X245034173Y-87663500D01*
X244958440Y-87648436D01*
X244806973Y-87618307D01*
X244592955Y-87529658D01*
X244528751Y-87486758D01*
X244400346Y-87400961D01*
X244236539Y-87237154D01*
X244107843Y-87044546D01*
X244107842Y-87044545D01*
X244019193Y-86830527D01*
X243989064Y-86679060D01*
X243974000Y-86603327D01*
X243974000Y-86371673D01*
X244019193Y-86144475D01*
X244019193Y-86144473D01*
X244107842Y-85930455D01*
X244150742Y-85866251D01*
X244236539Y-85737846D01*
X244400346Y-85574039D01*
X244592954Y-85445343D01*
X244592955Y-85445342D01*
X244806973Y-85356693D01*
X244958440Y-85326564D01*
X245034173Y-85311500D01*
X245265827Y-85311500D01*
X245341560Y-85326564D01*
X245341560Y-85326564D01*
G37*
G36*
X238211162Y-85930455D02*
G01*
X238343621Y-85956802D01*
X238480022Y-86013301D01*
X238602779Y-86095325D01*
X238707175Y-86199721D01*
X238789199Y-86322478D01*
X238845698Y-86458879D01*
X238870401Y-86583075D01*
X238874430Y-86603326D01*
X238874500Y-86603681D01*
X238874500Y-86751319D01*
X238845698Y-86896121D01*
X238789199Y-87032522D01*
X238707175Y-87155279D01*
X238602779Y-87259675D01*
X238480022Y-87341699D01*
X238343621Y-87398198D01*
X238219425Y-87422901D01*
X238198820Y-87427000D01*
X238051180Y-87427000D01*
X238030575Y-87422901D01*
X237906379Y-87398198D01*
X237769978Y-87341699D01*
X237647221Y-87259675D01*
X237542825Y-87155279D01*
X237460801Y-87032522D01*
X237404302Y-86896121D01*
X237375500Y-86751319D01*
X237375500Y-86603681D01*
X237375571Y-86603326D01*
X237379599Y-86583075D01*
X237404302Y-86458879D01*
X237460801Y-86322478D01*
X237542825Y-86199721D01*
X237647221Y-86095325D01*
X237769978Y-86013301D01*
X237906379Y-85956802D01*
X238038838Y-85930455D01*
X238051180Y-85928000D01*
X238198820Y-85928000D01*
X238211162Y-85930455D01*
X238211162Y-85930455D01*
G37*
G36*
X258452162Y-85930455D02*
G01*
X258584621Y-85956802D01*
X258721022Y-86013301D01*
X258843779Y-86095325D01*
X258948175Y-86199721D01*
X259030199Y-86322478D01*
X259086698Y-86458879D01*
X259111401Y-86583075D01*
X259115430Y-86603326D01*
X259115500Y-86603681D01*
X259115500Y-86751319D01*
X259086698Y-86896121D01*
X259030199Y-87032522D01*
X258948175Y-87155279D01*
X258843779Y-87259675D01*
X258721022Y-87341699D01*
X258584621Y-87398198D01*
X258460425Y-87422901D01*
X258439820Y-87427000D01*
X258292180Y-87427000D01*
X258271575Y-87422901D01*
X258147379Y-87398198D01*
X258010978Y-87341699D01*
X257888221Y-87259675D01*
X257783825Y-87155279D01*
X257701801Y-87032522D01*
X257645302Y-86896121D01*
X257616500Y-86751319D01*
X257616500Y-86603681D01*
X257616571Y-86603326D01*
X257620599Y-86583075D01*
X257645302Y-86458879D01*
X257701801Y-86322478D01*
X257783825Y-86199721D01*
X257888221Y-86095325D01*
X258010978Y-86013301D01*
X258147379Y-85956802D01*
X258279838Y-85930455D01*
X258292180Y-85928000D01*
X258439820Y-85928000D01*
X258452162Y-85930455D01*
X258452162Y-85930455D01*
G37*
G36*
X219161162Y-85930455D02*
G01*
X219293621Y-85956802D01*
X219430022Y-86013301D01*
X219552779Y-86095325D01*
X219657175Y-86199721D01*
X219739199Y-86322478D01*
X219795698Y-86458879D01*
X219820401Y-86583075D01*
X219824430Y-86603326D01*
X219824500Y-86603681D01*
X219824500Y-86751319D01*
X219795698Y-86896121D01*
X219739199Y-87032522D01*
X219657175Y-87155279D01*
X219552779Y-87259675D01*
X219430022Y-87341699D01*
X219293621Y-87398198D01*
X219169425Y-87422901D01*
X219148820Y-87427000D01*
X219001180Y-87427000D01*
X218980575Y-87422901D01*
X218856379Y-87398198D01*
X218719978Y-87341699D01*
X218597221Y-87259675D01*
X218492825Y-87155279D01*
X218410801Y-87032522D01*
X218354302Y-86896121D01*
X218325500Y-86751319D01*
X218325500Y-86603681D01*
X218325571Y-86603326D01*
X218329599Y-86583075D01*
X218354302Y-86458879D01*
X218410801Y-86322478D01*
X218492825Y-86199721D01*
X218597221Y-86095325D01*
X218719978Y-86013301D01*
X218856379Y-85956802D01*
X218988838Y-85930455D01*
X219001180Y-85928000D01*
X219148820Y-85928000D01*
X219161162Y-85930455D01*
X219161162Y-85930455D01*
G37*
G36*
X200111162Y-85930455D02*
G01*
X200243621Y-85956802D01*
X200380022Y-86013301D01*
X200502779Y-86095325D01*
X200607175Y-86199721D01*
X200689199Y-86322478D01*
X200745698Y-86458879D01*
X200770401Y-86583075D01*
X200774430Y-86603326D01*
X200774500Y-86603681D01*
X200774500Y-86751319D01*
X200745698Y-86896121D01*
X200689199Y-87032522D01*
X200607175Y-87155279D01*
X200502779Y-87259675D01*
X200380022Y-87341699D01*
X200243621Y-87398198D01*
X200119425Y-87422901D01*
X200098820Y-87427000D01*
X199951180Y-87427000D01*
X199930575Y-87422901D01*
X199806379Y-87398198D01*
X199669978Y-87341699D01*
X199547221Y-87259675D01*
X199442825Y-87155279D01*
X199360801Y-87032522D01*
X199304302Y-86896121D01*
X199275500Y-86751319D01*
X199275500Y-86603681D01*
X199275571Y-86603326D01*
X199279599Y-86583075D01*
X199304302Y-86458879D01*
X199360801Y-86322478D01*
X199442825Y-86199721D01*
X199547221Y-86095325D01*
X199669978Y-86013301D01*
X199806379Y-85956802D01*
X199938838Y-85930455D01*
X199951180Y-85928000D01*
X200098820Y-85928000D01*
X200111162Y-85930455D01*
X200111162Y-85930455D01*
G37*
G36*
X181061162Y-85930455D02*
G01*
X181193621Y-85956802D01*
X181330022Y-86013301D01*
X181452779Y-86095325D01*
X181557175Y-86199721D01*
X181639199Y-86322478D01*
X181695698Y-86458879D01*
X181720401Y-86583075D01*
X181724430Y-86603326D01*
X181724500Y-86603681D01*
X181724500Y-86751319D01*
X181695698Y-86896121D01*
X181639199Y-87032522D01*
X181557175Y-87155279D01*
X181452779Y-87259675D01*
X181330022Y-87341699D01*
X181193621Y-87398198D01*
X181069425Y-87422901D01*
X181048820Y-87427000D01*
X180901180Y-87427000D01*
X180880575Y-87422901D01*
X180756379Y-87398198D01*
X180619978Y-87341699D01*
X180497221Y-87259675D01*
X180392825Y-87155279D01*
X180310801Y-87032522D01*
X180254302Y-86896121D01*
X180225500Y-86751319D01*
X180225500Y-86603681D01*
X180225571Y-86603326D01*
X180229599Y-86583075D01*
X180254302Y-86458879D01*
X180310801Y-86322478D01*
X180392825Y-86199721D01*
X180497221Y-86095325D01*
X180619978Y-86013301D01*
X180756379Y-85956802D01*
X180888838Y-85930455D01*
X180901180Y-85928000D01*
X181048820Y-85928000D01*
X181061162Y-85930455D01*
X181061162Y-85930455D01*
G37*
G36*
X256070162Y-85930455D02*
G01*
X256202621Y-85956802D01*
X256339022Y-86013301D01*
X256461779Y-86095325D01*
X256566175Y-86199721D01*
X256648199Y-86322478D01*
X256704698Y-86458879D01*
X256729401Y-86583075D01*
X256733430Y-86603326D01*
X256733500Y-86603681D01*
X256733500Y-86751319D01*
X256704698Y-86896121D01*
X256648199Y-87032522D01*
X256566175Y-87155279D01*
X256461779Y-87259675D01*
X256339022Y-87341699D01*
X256202621Y-87398198D01*
X256078425Y-87422901D01*
X256057820Y-87427000D01*
X255910180Y-87427000D01*
X255889575Y-87422901D01*
X255765379Y-87398198D01*
X255628978Y-87341699D01*
X255506221Y-87259675D01*
X255401825Y-87155279D01*
X255319801Y-87032522D01*
X255263302Y-86896121D01*
X255234500Y-86751319D01*
X255234500Y-86603681D01*
X255234571Y-86603326D01*
X255238599Y-86583075D01*
X255263302Y-86458879D01*
X255319801Y-86322478D01*
X255401825Y-86199721D01*
X255506221Y-86095325D01*
X255628978Y-86013301D01*
X255765379Y-85956802D01*
X255897838Y-85930455D01*
X255910180Y-85928000D01*
X256057820Y-85928000D01*
X256070162Y-85930455D01*
X256070162Y-85930455D01*
G37*
G36*
X231291560Y-84826564D02*
G01*
X231443027Y-84856693D01*
X231657045Y-84945342D01*
X231657046Y-84945343D01*
X231849654Y-85074039D01*
X232013461Y-85237846D01*
X232062675Y-85311500D01*
X232142158Y-85430455D01*
X232230807Y-85644473D01*
X232276000Y-85871674D01*
X232276000Y-86103326D01*
X232230807Y-86330527D01*
X232142158Y-86544545D01*
X232142157Y-86544546D01*
X232013461Y-86737154D01*
X231849654Y-86900961D01*
X231721249Y-86986758D01*
X231657045Y-87029658D01*
X231443027Y-87118307D01*
X231291560Y-87148436D01*
X231215827Y-87163500D01*
X230984173Y-87163500D01*
X230908440Y-87148436D01*
X230756973Y-87118307D01*
X230542955Y-87029658D01*
X230478751Y-86986758D01*
X230350346Y-86900961D01*
X230186539Y-86737154D01*
X230057843Y-86544546D01*
X230057842Y-86544545D01*
X229969193Y-86330527D01*
X229924000Y-86103326D01*
X229924000Y-85871674D01*
X229969193Y-85644473D01*
X230057842Y-85430455D01*
X230137325Y-85311500D01*
X230186539Y-85237846D01*
X230350346Y-85074039D01*
X230542954Y-84945343D01*
X230542955Y-84945342D01*
X230756973Y-84856693D01*
X230908440Y-84826564D01*
X230984173Y-84811500D01*
X231215827Y-84811500D01*
X231291560Y-84826564D01*
X231291560Y-84826564D01*
G37*
G36*
X281297560Y-84826564D02*
G01*
X281449027Y-84856693D01*
X281663045Y-84945342D01*
X281663046Y-84945343D01*
X281855654Y-85074039D01*
X282019461Y-85237846D01*
X282068675Y-85311500D01*
X282148158Y-85430455D01*
X282236807Y-85644473D01*
X282282000Y-85871674D01*
X282282000Y-86103326D01*
X282236807Y-86330527D01*
X282148158Y-86544545D01*
X282148157Y-86544546D01*
X282019461Y-86737154D01*
X281855654Y-86900961D01*
X281727249Y-86986758D01*
X281663045Y-87029658D01*
X281449027Y-87118307D01*
X281297560Y-87148436D01*
X281221827Y-87163500D01*
X280990173Y-87163500D01*
X280914440Y-87148436D01*
X280762973Y-87118307D01*
X280548955Y-87029658D01*
X280484751Y-86986758D01*
X280356346Y-86900961D01*
X280192539Y-86737154D01*
X280063843Y-86544546D01*
X280063842Y-86544545D01*
X279975193Y-86330527D01*
X279930000Y-86103326D01*
X279930000Y-85871674D01*
X279975193Y-85644473D01*
X280063842Y-85430455D01*
X280143325Y-85311500D01*
X280192539Y-85237846D01*
X280356346Y-85074039D01*
X280548954Y-84945343D01*
X280548955Y-84945342D01*
X280762973Y-84856693D01*
X280914440Y-84826564D01*
X280990173Y-84811500D01*
X281221827Y-84811500D01*
X281297560Y-84826564D01*
X281297560Y-84826564D01*
G37*
G36*
X174141560Y-84826564D02*
G01*
X174293027Y-84856693D01*
X174507045Y-84945342D01*
X174507046Y-84945343D01*
X174699654Y-85074039D01*
X174863461Y-85237846D01*
X174912675Y-85311500D01*
X174992158Y-85430455D01*
X175080807Y-85644473D01*
X175126000Y-85871674D01*
X175126000Y-86103326D01*
X175080807Y-86330527D01*
X174992158Y-86544545D01*
X174992157Y-86544546D01*
X174863461Y-86737154D01*
X174699654Y-86900961D01*
X174571249Y-86986758D01*
X174507045Y-87029658D01*
X174293027Y-87118307D01*
X174141560Y-87148436D01*
X174065827Y-87163500D01*
X173834173Y-87163500D01*
X173758440Y-87148436D01*
X173606973Y-87118307D01*
X173392955Y-87029658D01*
X173328751Y-86986758D01*
X173200346Y-86900961D01*
X173036539Y-86737154D01*
X172907843Y-86544546D01*
X172907842Y-86544545D01*
X172819193Y-86330527D01*
X172774000Y-86103326D01*
X172774000Y-85871674D01*
X172819193Y-85644473D01*
X172907842Y-85430455D01*
X172987325Y-85311500D01*
X173036539Y-85237846D01*
X173200346Y-85074039D01*
X173392954Y-84945343D01*
X173392955Y-84945342D01*
X173606973Y-84856693D01*
X173758440Y-84826564D01*
X173834173Y-84811500D01*
X174065827Y-84811500D01*
X174141560Y-84826564D01*
X174141560Y-84826564D01*
G37*
G36*
X193191560Y-84826564D02*
G01*
X193343027Y-84856693D01*
X193557045Y-84945342D01*
X193557046Y-84945343D01*
X193749654Y-85074039D01*
X193913461Y-85237846D01*
X193962675Y-85311500D01*
X194042158Y-85430455D01*
X194130807Y-85644473D01*
X194176000Y-85871674D01*
X194176000Y-86103326D01*
X194130807Y-86330527D01*
X194042158Y-86544545D01*
X194042157Y-86544546D01*
X193913461Y-86737154D01*
X193749654Y-86900961D01*
X193621249Y-86986758D01*
X193557045Y-87029658D01*
X193343027Y-87118307D01*
X193191560Y-87148436D01*
X193115827Y-87163500D01*
X192884173Y-87163500D01*
X192808440Y-87148436D01*
X192656973Y-87118307D01*
X192442955Y-87029658D01*
X192378751Y-86986758D01*
X192250346Y-86900961D01*
X192086539Y-86737154D01*
X191957843Y-86544546D01*
X191957842Y-86544545D01*
X191869193Y-86330527D01*
X191824000Y-86103326D01*
X191824000Y-85871674D01*
X191869193Y-85644473D01*
X191957842Y-85430455D01*
X192037325Y-85311500D01*
X192086539Y-85237846D01*
X192250346Y-85074039D01*
X192442954Y-84945343D01*
X192442955Y-84945342D01*
X192656973Y-84856693D01*
X192808440Y-84826564D01*
X192884173Y-84811500D01*
X193115827Y-84811500D01*
X193191560Y-84826564D01*
X193191560Y-84826564D01*
G37*
G36*
X212241560Y-84826564D02*
G01*
X212393027Y-84856693D01*
X212607045Y-84945342D01*
X212607046Y-84945343D01*
X212799654Y-85074039D01*
X212963461Y-85237846D01*
X213012675Y-85311500D01*
X213092158Y-85430455D01*
X213180807Y-85644473D01*
X213226000Y-85871674D01*
X213226000Y-86103326D01*
X213180807Y-86330527D01*
X213092158Y-86544545D01*
X213092157Y-86544546D01*
X212963461Y-86737154D01*
X212799654Y-86900961D01*
X212671249Y-86986758D01*
X212607045Y-87029658D01*
X212393027Y-87118307D01*
X212241560Y-87148436D01*
X212165827Y-87163500D01*
X211934173Y-87163500D01*
X211858440Y-87148436D01*
X211706973Y-87118307D01*
X211492955Y-87029658D01*
X211428751Y-86986758D01*
X211300346Y-86900961D01*
X211136539Y-86737154D01*
X211007843Y-86544546D01*
X211007842Y-86544545D01*
X210919193Y-86330527D01*
X210874000Y-86103326D01*
X210874000Y-85871674D01*
X210919193Y-85644473D01*
X211007842Y-85430455D01*
X211087325Y-85311500D01*
X211136539Y-85237846D01*
X211300346Y-85074039D01*
X211492954Y-84945343D01*
X211492955Y-84945342D01*
X211706973Y-84856693D01*
X211858440Y-84826564D01*
X211934173Y-84811500D01*
X212165827Y-84811500D01*
X212241560Y-84826564D01*
X212241560Y-84826564D01*
G37*
G36*
X250341560Y-84826564D02*
G01*
X250493027Y-84856693D01*
X250707045Y-84945342D01*
X250707046Y-84945343D01*
X250899654Y-85074039D01*
X251063461Y-85237846D01*
X251112675Y-85311500D01*
X251192158Y-85430455D01*
X251280807Y-85644473D01*
X251326000Y-85871674D01*
X251326000Y-86103326D01*
X251280807Y-86330527D01*
X251192158Y-86544545D01*
X251192157Y-86544546D01*
X251063461Y-86737154D01*
X250899654Y-86900961D01*
X250771249Y-86986758D01*
X250707045Y-87029658D01*
X250493027Y-87118307D01*
X250341560Y-87148436D01*
X250265827Y-87163500D01*
X250034173Y-87163500D01*
X249958440Y-87148436D01*
X249806973Y-87118307D01*
X249592955Y-87029658D01*
X249528751Y-86986758D01*
X249400346Y-86900961D01*
X249236539Y-86737154D01*
X249107843Y-86544546D01*
X249107842Y-86544545D01*
X249019193Y-86330527D01*
X248974000Y-86103326D01*
X248974000Y-85871674D01*
X249019193Y-85644473D01*
X249107842Y-85430455D01*
X249187325Y-85311500D01*
X249236539Y-85237846D01*
X249400346Y-85074039D01*
X249592954Y-84945343D01*
X249592955Y-84945342D01*
X249806973Y-84856693D01*
X249958440Y-84826564D01*
X250034173Y-84811500D01*
X250265827Y-84811500D01*
X250341560Y-84826564D01*
X250341560Y-84826564D01*
G37*
G36*
X191249500Y-75997000D02*
G01*
X189750500Y-75997000D01*
X189750500Y-74498000D01*
X191249500Y-74498000D01*
X191249500Y-75997000D01*
X191249500Y-75997000D01*
G37*
G36*
X210299500Y-75997000D02*
G01*
X208800500Y-75997000D01*
X208800500Y-74498000D01*
X210299500Y-74498000D01*
X210299500Y-75997000D01*
X210299500Y-75997000D01*
G37*
G36*
X248399500Y-75997000D02*
G01*
X246900500Y-75997000D01*
X246900500Y-74498000D01*
X248399500Y-74498000D01*
X248399500Y-75997000D01*
X248399500Y-75997000D01*
G37*
G36*
X229349500Y-75997000D02*
G01*
X227850500Y-75997000D01*
X227850500Y-74498000D01*
X229349500Y-74498000D01*
X229349500Y-75997000D01*
X229349500Y-75997000D01*
G37*
G36*
X267449500Y-75997000D02*
G01*
X265950500Y-75997000D01*
X265950500Y-74498000D01*
X267449500Y-74498000D01*
X267449500Y-75997000D01*
X267449500Y-75997000D01*
G37*
G36*
X172199500Y-75997000D02*
G01*
X170700500Y-75997000D01*
X170700500Y-74498000D01*
X172199500Y-74498000D01*
X172199500Y-75997000D01*
X172199500Y-75997000D01*
G37*
G36*
X191026000Y-73913500D02*
G01*
X189974000Y-73913500D01*
X189974000Y-72511500D01*
X191026000Y-72511500D01*
X191026000Y-73913500D01*
X191026000Y-73913500D01*
G37*
G36*
X210076000Y-73913500D02*
G01*
X209024000Y-73913500D01*
X209024000Y-72511500D01*
X210076000Y-72511500D01*
X210076000Y-73913500D01*
X210076000Y-73913500D01*
G37*
G36*
X248176000Y-73913500D02*
G01*
X247124000Y-73913500D01*
X247124000Y-72511500D01*
X248176000Y-72511500D01*
X248176000Y-73913500D01*
X248176000Y-73913500D01*
G37*
G36*
X267226000Y-73913500D02*
G01*
X266174000Y-73913500D01*
X266174000Y-72511500D01*
X267226000Y-72511500D01*
X267226000Y-73913500D01*
X267226000Y-73913500D01*
G37*
G36*
X229126000Y-73913500D02*
G01*
X228074000Y-73913500D01*
X228074000Y-72511500D01*
X229126000Y-72511500D01*
X229126000Y-73913500D01*
X229126000Y-73913500D01*
G37*
G36*
X171976000Y-73913500D02*
G01*
X170924000Y-73913500D01*
X170924000Y-72511500D01*
X171976000Y-72511500D01*
X171976000Y-73913500D01*
X171976000Y-73913500D01*
G37*
G36*
X171976000Y-70363500D02*
G01*
X170924000Y-70363500D01*
X170924000Y-68961500D01*
X171976000Y-68961500D01*
X171976000Y-70363500D01*
X171976000Y-70363500D01*
G37*
G36*
X191026000Y-70363500D02*
G01*
X189974000Y-70363500D01*
X189974000Y-68961500D01*
X191026000Y-68961500D01*
X191026000Y-70363500D01*
X191026000Y-70363500D01*
G37*
G36*
X267226000Y-70363500D02*
G01*
X266174000Y-70363500D01*
X266174000Y-68961500D01*
X267226000Y-68961500D01*
X267226000Y-70363500D01*
X267226000Y-70363500D01*
G37*
G36*
X210076000Y-70363500D02*
G01*
X209024000Y-70363500D01*
X209024000Y-68961500D01*
X210076000Y-68961500D01*
X210076000Y-70363500D01*
X210076000Y-70363500D01*
G37*
G36*
X248176000Y-70363500D02*
G01*
X247124000Y-70363500D01*
X247124000Y-68961500D01*
X248176000Y-68961500D01*
X248176000Y-70363500D01*
X248176000Y-70363500D01*
G37*
G36*
X229126000Y-70363500D02*
G01*
X228074000Y-70363500D01*
X228074000Y-68961500D01*
X229126000Y-68961500D01*
X229126000Y-70363500D01*
X229126000Y-70363500D01*
G37*
G36*
X178666560Y-66276564D02*
G01*
X178818027Y-66306693D01*
X179032045Y-66395342D01*
X179032046Y-66395343D01*
X179224654Y-66524039D01*
X179388461Y-66687846D01*
X179474258Y-66816251D01*
X179517158Y-66880455D01*
X179605807Y-67094473D01*
X179605807Y-67094475D01*
X179651000Y-67321673D01*
X179651000Y-67553327D01*
X179635936Y-67629060D01*
X179605807Y-67780527D01*
X179517158Y-67994545D01*
X179517157Y-67994546D01*
X179388461Y-68187154D01*
X179224654Y-68350961D01*
X179096249Y-68436758D01*
X179032045Y-68479658D01*
X178818027Y-68568307D01*
X178666560Y-68598436D01*
X178590827Y-68613500D01*
X178359173Y-68613500D01*
X178283440Y-68598436D01*
X178131973Y-68568307D01*
X177917955Y-68479658D01*
X177853751Y-68436758D01*
X177725346Y-68350961D01*
X177561539Y-68187154D01*
X177432843Y-67994546D01*
X177432842Y-67994545D01*
X177344193Y-67780527D01*
X177314064Y-67629060D01*
X177299000Y-67553327D01*
X177299000Y-67321673D01*
X177344193Y-67094475D01*
X177344193Y-67094473D01*
X177432842Y-66880455D01*
X177475742Y-66816251D01*
X177561539Y-66687846D01*
X177725346Y-66524039D01*
X177917954Y-66395343D01*
X177917955Y-66395342D01*
X178131973Y-66306693D01*
X178283440Y-66276564D01*
X178359173Y-66261500D01*
X178590827Y-66261500D01*
X178666560Y-66276564D01*
X178666560Y-66276564D01*
G37*
G36*
X235816560Y-66276564D02*
G01*
X235968027Y-66306693D01*
X236182045Y-66395342D01*
X236182046Y-66395343D01*
X236374654Y-66524039D01*
X236538461Y-66687846D01*
X236624258Y-66816251D01*
X236667158Y-66880455D01*
X236755807Y-67094473D01*
X236755807Y-67094475D01*
X236801000Y-67321673D01*
X236801000Y-67553327D01*
X236785936Y-67629060D01*
X236755807Y-67780527D01*
X236667158Y-67994545D01*
X236667157Y-67994546D01*
X236538461Y-68187154D01*
X236374654Y-68350961D01*
X236246249Y-68436758D01*
X236182045Y-68479658D01*
X235968027Y-68568307D01*
X235816560Y-68598436D01*
X235740827Y-68613500D01*
X235509173Y-68613500D01*
X235433440Y-68598436D01*
X235281973Y-68568307D01*
X235067955Y-68479658D01*
X235003751Y-68436758D01*
X234875346Y-68350961D01*
X234711539Y-68187154D01*
X234582843Y-67994546D01*
X234582842Y-67994545D01*
X234494193Y-67780527D01*
X234464064Y-67629060D01*
X234449000Y-67553327D01*
X234449000Y-67321673D01*
X234494193Y-67094475D01*
X234494193Y-67094473D01*
X234582842Y-66880455D01*
X234625742Y-66816251D01*
X234711539Y-66687846D01*
X234875346Y-66524039D01*
X235067954Y-66395343D01*
X235067955Y-66395342D01*
X235281973Y-66306693D01*
X235433440Y-66276564D01*
X235509173Y-66261500D01*
X235740827Y-66261500D01*
X235816560Y-66276564D01*
X235816560Y-66276564D01*
G37*
G36*
X254866560Y-66276564D02*
G01*
X255018027Y-66306693D01*
X255232045Y-66395342D01*
X255232046Y-66395343D01*
X255424654Y-66524039D01*
X255588461Y-66687846D01*
X255674258Y-66816251D01*
X255717158Y-66880455D01*
X255805807Y-67094473D01*
X255805807Y-67094475D01*
X255851000Y-67321673D01*
X255851000Y-67553327D01*
X255835936Y-67629060D01*
X255805807Y-67780527D01*
X255717158Y-67994545D01*
X255717157Y-67994546D01*
X255588461Y-68187154D01*
X255424654Y-68350961D01*
X255296249Y-68436758D01*
X255232045Y-68479658D01*
X255018027Y-68568307D01*
X254866560Y-68598436D01*
X254790827Y-68613500D01*
X254559173Y-68613500D01*
X254483440Y-68598436D01*
X254331973Y-68568307D01*
X254117955Y-68479658D01*
X254053751Y-68436758D01*
X253925346Y-68350961D01*
X253761539Y-68187154D01*
X253632843Y-67994546D01*
X253632842Y-67994545D01*
X253544193Y-67780527D01*
X253514064Y-67629060D01*
X253499000Y-67553327D01*
X253499000Y-67321673D01*
X253544193Y-67094475D01*
X253544193Y-67094473D01*
X253632842Y-66880455D01*
X253675742Y-66816251D01*
X253761539Y-66687846D01*
X253925346Y-66524039D01*
X254117954Y-66395343D01*
X254117955Y-66395342D01*
X254331973Y-66306693D01*
X254483440Y-66276564D01*
X254559173Y-66261500D01*
X254790827Y-66261500D01*
X254866560Y-66276564D01*
X254866560Y-66276564D01*
G37*
G36*
X197716560Y-66276564D02*
G01*
X197868027Y-66306693D01*
X198082045Y-66395342D01*
X198082046Y-66395343D01*
X198274654Y-66524039D01*
X198438461Y-66687846D01*
X198524258Y-66816251D01*
X198567158Y-66880455D01*
X198655807Y-67094473D01*
X198655807Y-67094475D01*
X198701000Y-67321673D01*
X198701000Y-67553327D01*
X198685936Y-67629060D01*
X198655807Y-67780527D01*
X198567158Y-67994545D01*
X198567157Y-67994546D01*
X198438461Y-68187154D01*
X198274654Y-68350961D01*
X198146249Y-68436758D01*
X198082045Y-68479658D01*
X197868027Y-68568307D01*
X197716560Y-68598436D01*
X197640827Y-68613500D01*
X197409173Y-68613500D01*
X197333440Y-68598436D01*
X197181973Y-68568307D01*
X196967955Y-68479658D01*
X196903751Y-68436758D01*
X196775346Y-68350961D01*
X196611539Y-68187154D01*
X196482843Y-67994546D01*
X196482842Y-67994545D01*
X196394193Y-67780527D01*
X196364064Y-67629060D01*
X196349000Y-67553327D01*
X196349000Y-67321673D01*
X196394193Y-67094475D01*
X196394193Y-67094473D01*
X196482842Y-66880455D01*
X196525742Y-66816251D01*
X196611539Y-66687846D01*
X196775346Y-66524039D01*
X196967954Y-66395343D01*
X196967955Y-66395342D01*
X197181973Y-66306693D01*
X197333440Y-66276564D01*
X197409173Y-66261500D01*
X197640827Y-66261500D01*
X197716560Y-66276564D01*
X197716560Y-66276564D01*
G37*
G36*
X159616560Y-66276564D02*
G01*
X159768027Y-66306693D01*
X159982045Y-66395342D01*
X159982046Y-66395343D01*
X160174654Y-66524039D01*
X160338461Y-66687846D01*
X160424258Y-66816251D01*
X160467158Y-66880455D01*
X160555807Y-67094473D01*
X160555807Y-67094475D01*
X160601000Y-67321673D01*
X160601000Y-67553327D01*
X160585936Y-67629060D01*
X160555807Y-67780527D01*
X160467158Y-67994545D01*
X160467157Y-67994546D01*
X160338461Y-68187154D01*
X160174654Y-68350961D01*
X160046249Y-68436758D01*
X159982045Y-68479658D01*
X159768027Y-68568307D01*
X159616560Y-68598436D01*
X159540827Y-68613500D01*
X159309173Y-68613500D01*
X159233440Y-68598436D01*
X159081973Y-68568307D01*
X158867955Y-68479658D01*
X158803751Y-68436758D01*
X158675346Y-68350961D01*
X158511539Y-68187154D01*
X158382843Y-67994546D01*
X158382842Y-67994545D01*
X158294193Y-67780527D01*
X158264064Y-67629060D01*
X158249000Y-67553327D01*
X158249000Y-67321673D01*
X158294193Y-67094475D01*
X158294193Y-67094473D01*
X158382842Y-66880455D01*
X158425742Y-66816251D01*
X158511539Y-66687846D01*
X158675346Y-66524039D01*
X158867954Y-66395343D01*
X158867955Y-66395342D01*
X159081973Y-66306693D01*
X159233440Y-66276564D01*
X159309173Y-66261500D01*
X159540827Y-66261500D01*
X159616560Y-66276564D01*
X159616560Y-66276564D01*
G37*
G36*
X216766560Y-66276564D02*
G01*
X216918027Y-66306693D01*
X217132045Y-66395342D01*
X217132046Y-66395343D01*
X217324654Y-66524039D01*
X217488461Y-66687846D01*
X217574258Y-66816251D01*
X217617158Y-66880455D01*
X217705807Y-67094473D01*
X217705807Y-67094475D01*
X217751000Y-67321673D01*
X217751000Y-67553327D01*
X217735936Y-67629060D01*
X217705807Y-67780527D01*
X217617158Y-67994545D01*
X217617157Y-67994546D01*
X217488461Y-68187154D01*
X217324654Y-68350961D01*
X217196249Y-68436758D01*
X217132045Y-68479658D01*
X216918027Y-68568307D01*
X216766560Y-68598436D01*
X216690827Y-68613500D01*
X216459173Y-68613500D01*
X216383440Y-68598436D01*
X216231973Y-68568307D01*
X216017955Y-68479658D01*
X215953751Y-68436758D01*
X215825346Y-68350961D01*
X215661539Y-68187154D01*
X215532843Y-67994546D01*
X215532842Y-67994545D01*
X215444193Y-67780527D01*
X215414064Y-67629060D01*
X215399000Y-67553327D01*
X215399000Y-67321673D01*
X215444193Y-67094475D01*
X215444193Y-67094473D01*
X215532842Y-66880455D01*
X215575742Y-66816251D01*
X215661539Y-66687846D01*
X215825346Y-66524039D01*
X216017954Y-66395343D01*
X216017955Y-66395342D01*
X216231973Y-66306693D01*
X216383440Y-66276564D01*
X216459173Y-66261500D01*
X216690827Y-66261500D01*
X216766560Y-66276564D01*
X216766560Y-66276564D01*
G37*
G36*
X171536162Y-66880455D02*
G01*
X171668621Y-66906802D01*
X171805022Y-66963301D01*
X171927779Y-67045325D01*
X172032175Y-67149721D01*
X172114199Y-67272478D01*
X172170698Y-67408879D01*
X172195401Y-67533075D01*
X172199430Y-67553326D01*
X172199500Y-67553681D01*
X172199500Y-67701319D01*
X172170698Y-67846121D01*
X172114199Y-67982522D01*
X172032175Y-68105279D01*
X171927779Y-68209675D01*
X171805022Y-68291699D01*
X171668621Y-68348198D01*
X171544425Y-68372901D01*
X171523820Y-68377000D01*
X171376180Y-68377000D01*
X171355575Y-68372901D01*
X171231379Y-68348198D01*
X171094978Y-68291699D01*
X170972221Y-68209675D01*
X170867825Y-68105279D01*
X170785801Y-67982522D01*
X170729302Y-67846121D01*
X170700500Y-67701319D01*
X170700500Y-67553681D01*
X170700571Y-67553326D01*
X170704599Y-67533075D01*
X170729302Y-67408879D01*
X170785801Y-67272478D01*
X170867825Y-67149721D01*
X170972221Y-67045325D01*
X171094978Y-66963301D01*
X171231379Y-66906802D01*
X171363838Y-66880455D01*
X171376180Y-66878000D01*
X171523820Y-66878000D01*
X171536162Y-66880455D01*
X171536162Y-66880455D01*
G37*
G36*
X190586162Y-66880455D02*
G01*
X190718621Y-66906802D01*
X190855022Y-66963301D01*
X190977779Y-67045325D01*
X191082175Y-67149721D01*
X191164199Y-67272478D01*
X191220698Y-67408879D01*
X191245401Y-67533075D01*
X191249430Y-67553326D01*
X191249500Y-67553681D01*
X191249500Y-67701319D01*
X191220698Y-67846121D01*
X191164199Y-67982522D01*
X191082175Y-68105279D01*
X190977779Y-68209675D01*
X190855022Y-68291699D01*
X190718621Y-68348198D01*
X190594425Y-68372901D01*
X190573820Y-68377000D01*
X190426180Y-68377000D01*
X190405575Y-68372901D01*
X190281379Y-68348198D01*
X190144978Y-68291699D01*
X190022221Y-68209675D01*
X189917825Y-68105279D01*
X189835801Y-67982522D01*
X189779302Y-67846121D01*
X189750500Y-67701319D01*
X189750500Y-67553681D01*
X189750571Y-67553326D01*
X189754599Y-67533075D01*
X189779302Y-67408879D01*
X189835801Y-67272478D01*
X189917825Y-67149721D01*
X190022221Y-67045325D01*
X190144978Y-66963301D01*
X190281379Y-66906802D01*
X190413838Y-66880455D01*
X190426180Y-66878000D01*
X190573820Y-66878000D01*
X190586162Y-66880455D01*
X190586162Y-66880455D01*
G37*
G36*
X209636162Y-66880455D02*
G01*
X209768621Y-66906802D01*
X209905022Y-66963301D01*
X210027779Y-67045325D01*
X210132175Y-67149721D01*
X210214199Y-67272478D01*
X210270698Y-67408879D01*
X210295401Y-67533075D01*
X210299430Y-67553326D01*
X210299500Y-67553681D01*
X210299500Y-67701319D01*
X210270698Y-67846121D01*
X210214199Y-67982522D01*
X210132175Y-68105279D01*
X210027779Y-68209675D01*
X209905022Y-68291699D01*
X209768621Y-68348198D01*
X209644425Y-68372901D01*
X209623820Y-68377000D01*
X209476180Y-68377000D01*
X209455575Y-68372901D01*
X209331379Y-68348198D01*
X209194978Y-68291699D01*
X209072221Y-68209675D01*
X208967825Y-68105279D01*
X208885801Y-67982522D01*
X208829302Y-67846121D01*
X208800500Y-67701319D01*
X208800500Y-67553681D01*
X208800571Y-67553326D01*
X208804599Y-67533075D01*
X208829302Y-67408879D01*
X208885801Y-67272478D01*
X208967825Y-67149721D01*
X209072221Y-67045325D01*
X209194978Y-66963301D01*
X209331379Y-66906802D01*
X209463838Y-66880455D01*
X209476180Y-66878000D01*
X209623820Y-66878000D01*
X209636162Y-66880455D01*
X209636162Y-66880455D01*
G37*
G36*
X228686162Y-66880455D02*
G01*
X228818621Y-66906802D01*
X228955022Y-66963301D01*
X229077779Y-67045325D01*
X229182175Y-67149721D01*
X229264199Y-67272478D01*
X229320698Y-67408879D01*
X229345401Y-67533075D01*
X229349430Y-67553326D01*
X229349500Y-67553681D01*
X229349500Y-67701319D01*
X229320698Y-67846121D01*
X229264199Y-67982522D01*
X229182175Y-68105279D01*
X229077779Y-68209675D01*
X228955022Y-68291699D01*
X228818621Y-68348198D01*
X228694425Y-68372901D01*
X228673820Y-68377000D01*
X228526180Y-68377000D01*
X228505575Y-68372901D01*
X228381379Y-68348198D01*
X228244978Y-68291699D01*
X228122221Y-68209675D01*
X228017825Y-68105279D01*
X227935801Y-67982522D01*
X227879302Y-67846121D01*
X227850500Y-67701319D01*
X227850500Y-67553681D01*
X227850571Y-67553326D01*
X227854599Y-67533075D01*
X227879302Y-67408879D01*
X227935801Y-67272478D01*
X228017825Y-67149721D01*
X228122221Y-67045325D01*
X228244978Y-66963301D01*
X228381379Y-66906802D01*
X228513838Y-66880455D01*
X228526180Y-66878000D01*
X228673820Y-66878000D01*
X228686162Y-66880455D01*
X228686162Y-66880455D01*
G37*
G36*
X266786162Y-66880455D02*
G01*
X266918621Y-66906802D01*
X267055022Y-66963301D01*
X267177779Y-67045325D01*
X267282175Y-67149721D01*
X267364199Y-67272478D01*
X267420698Y-67408879D01*
X267445401Y-67533075D01*
X267449430Y-67553326D01*
X267449500Y-67553681D01*
X267449500Y-67701319D01*
X267420698Y-67846121D01*
X267364199Y-67982522D01*
X267282175Y-68105279D01*
X267177779Y-68209675D01*
X267055022Y-68291699D01*
X266918621Y-68348198D01*
X266794425Y-68372901D01*
X266773820Y-68377000D01*
X266626180Y-68377000D01*
X266605575Y-68372901D01*
X266481379Y-68348198D01*
X266344978Y-68291699D01*
X266222221Y-68209675D01*
X266117825Y-68105279D01*
X266035801Y-67982522D01*
X265979302Y-67846121D01*
X265950500Y-67701319D01*
X265950500Y-67553681D01*
X265950571Y-67553326D01*
X265954599Y-67533075D01*
X265979302Y-67408879D01*
X266035801Y-67272478D01*
X266117825Y-67149721D01*
X266222221Y-67045325D01*
X266344978Y-66963301D01*
X266481379Y-66906802D01*
X266613838Y-66880455D01*
X266626180Y-66878000D01*
X266773820Y-66878000D01*
X266786162Y-66880455D01*
X266786162Y-66880455D01*
G37*
G36*
X247736162Y-66880455D02*
G01*
X247868621Y-66906802D01*
X248005022Y-66963301D01*
X248127779Y-67045325D01*
X248232175Y-67149721D01*
X248314199Y-67272478D01*
X248370698Y-67408879D01*
X248395401Y-67533075D01*
X248399430Y-67553326D01*
X248399500Y-67553681D01*
X248399500Y-67701319D01*
X248370698Y-67846121D01*
X248314199Y-67982522D01*
X248232175Y-68105279D01*
X248127779Y-68209675D01*
X248005022Y-68291699D01*
X247868621Y-68348198D01*
X247744425Y-68372901D01*
X247723820Y-68377000D01*
X247576180Y-68377000D01*
X247555575Y-68372901D01*
X247431379Y-68348198D01*
X247294978Y-68291699D01*
X247172221Y-68209675D01*
X247067825Y-68105279D01*
X246985801Y-67982522D01*
X246929302Y-67846121D01*
X246900500Y-67701319D01*
X246900500Y-67553681D01*
X246900571Y-67553326D01*
X246904599Y-67533075D01*
X246929302Y-67408879D01*
X246985801Y-67272478D01*
X247067825Y-67149721D01*
X247172221Y-67045325D01*
X247294978Y-66963301D01*
X247431379Y-66906802D01*
X247563838Y-66880455D01*
X247576180Y-66878000D01*
X247723820Y-66878000D01*
X247736162Y-66880455D01*
X247736162Y-66880455D01*
G37*
G36*
X164616560Y-65776564D02*
G01*
X164768027Y-65806693D01*
X164982045Y-65895342D01*
X164982046Y-65895343D01*
X165174654Y-66024039D01*
X165338461Y-66187846D01*
X165387675Y-66261500D01*
X165467158Y-66380455D01*
X165555807Y-66594473D01*
X165601000Y-66821674D01*
X165601000Y-67053326D01*
X165555807Y-67280527D01*
X165467158Y-67494545D01*
X165467157Y-67494546D01*
X165338461Y-67687154D01*
X165174654Y-67850961D01*
X165046249Y-67936758D01*
X164982045Y-67979658D01*
X164768027Y-68068307D01*
X164616560Y-68098436D01*
X164540827Y-68113500D01*
X164309173Y-68113500D01*
X164233440Y-68098436D01*
X164081973Y-68068307D01*
X163867955Y-67979658D01*
X163803751Y-67936758D01*
X163675346Y-67850961D01*
X163511539Y-67687154D01*
X163382843Y-67494546D01*
X163382842Y-67494545D01*
X163294193Y-67280527D01*
X163249000Y-67053326D01*
X163249000Y-66821674D01*
X163294193Y-66594473D01*
X163382842Y-66380455D01*
X163462325Y-66261500D01*
X163511539Y-66187846D01*
X163675346Y-66024039D01*
X163867954Y-65895343D01*
X163867955Y-65895342D01*
X164081973Y-65806693D01*
X164233440Y-65776564D01*
X164309173Y-65761500D01*
X164540827Y-65761500D01*
X164616560Y-65776564D01*
X164616560Y-65776564D01*
G37*
G36*
X259866560Y-65776564D02*
G01*
X260018027Y-65806693D01*
X260232045Y-65895342D01*
X260232046Y-65895343D01*
X260424654Y-66024039D01*
X260588461Y-66187846D01*
X260637675Y-66261500D01*
X260717158Y-66380455D01*
X260805807Y-66594473D01*
X260851000Y-66821674D01*
X260851000Y-67053326D01*
X260805807Y-67280527D01*
X260717158Y-67494545D01*
X260717157Y-67494546D01*
X260588461Y-67687154D01*
X260424654Y-67850961D01*
X260296249Y-67936758D01*
X260232045Y-67979658D01*
X260018027Y-68068307D01*
X259866560Y-68098436D01*
X259790827Y-68113500D01*
X259559173Y-68113500D01*
X259483440Y-68098436D01*
X259331973Y-68068307D01*
X259117955Y-67979658D01*
X259053751Y-67936758D01*
X258925346Y-67850961D01*
X258761539Y-67687154D01*
X258632843Y-67494546D01*
X258632842Y-67494545D01*
X258544193Y-67280527D01*
X258499000Y-67053326D01*
X258499000Y-66821674D01*
X258544193Y-66594473D01*
X258632842Y-66380455D01*
X258712325Y-66261500D01*
X258761539Y-66187846D01*
X258925346Y-66024039D01*
X259117954Y-65895343D01*
X259117955Y-65895342D01*
X259331973Y-65806693D01*
X259483440Y-65776564D01*
X259559173Y-65761500D01*
X259790827Y-65761500D01*
X259866560Y-65776564D01*
X259866560Y-65776564D01*
G37*
G36*
X240816560Y-65776564D02*
G01*
X240968027Y-65806693D01*
X241182045Y-65895342D01*
X241182046Y-65895343D01*
X241374654Y-66024039D01*
X241538461Y-66187846D01*
X241587675Y-66261500D01*
X241667158Y-66380455D01*
X241755807Y-66594473D01*
X241801000Y-66821674D01*
X241801000Y-67053326D01*
X241755807Y-67280527D01*
X241667158Y-67494545D01*
X241667157Y-67494546D01*
X241538461Y-67687154D01*
X241374654Y-67850961D01*
X241246249Y-67936758D01*
X241182045Y-67979658D01*
X240968027Y-68068307D01*
X240816560Y-68098436D01*
X240740827Y-68113500D01*
X240509173Y-68113500D01*
X240433440Y-68098436D01*
X240281973Y-68068307D01*
X240067955Y-67979658D01*
X240003751Y-67936758D01*
X239875346Y-67850961D01*
X239711539Y-67687154D01*
X239582843Y-67494546D01*
X239582842Y-67494545D01*
X239494193Y-67280527D01*
X239449000Y-67053326D01*
X239449000Y-66821674D01*
X239494193Y-66594473D01*
X239582842Y-66380455D01*
X239662325Y-66261500D01*
X239711539Y-66187846D01*
X239875346Y-66024039D01*
X240067954Y-65895343D01*
X240067955Y-65895342D01*
X240281973Y-65806693D01*
X240433440Y-65776564D01*
X240509173Y-65761500D01*
X240740827Y-65761500D01*
X240816560Y-65776564D01*
X240816560Y-65776564D01*
G37*
G36*
X202716560Y-65776564D02*
G01*
X202868027Y-65806693D01*
X203082045Y-65895342D01*
X203082046Y-65895343D01*
X203274654Y-66024039D01*
X203438461Y-66187846D01*
X203487675Y-66261500D01*
X203567158Y-66380455D01*
X203655807Y-66594473D01*
X203701000Y-66821674D01*
X203701000Y-67053326D01*
X203655807Y-67280527D01*
X203567158Y-67494545D01*
X203567157Y-67494546D01*
X203438461Y-67687154D01*
X203274654Y-67850961D01*
X203146249Y-67936758D01*
X203082045Y-67979658D01*
X202868027Y-68068307D01*
X202716560Y-68098436D01*
X202640827Y-68113500D01*
X202409173Y-68113500D01*
X202333440Y-68098436D01*
X202181973Y-68068307D01*
X201967955Y-67979658D01*
X201903751Y-67936758D01*
X201775346Y-67850961D01*
X201611539Y-67687154D01*
X201482843Y-67494546D01*
X201482842Y-67494545D01*
X201394193Y-67280527D01*
X201349000Y-67053326D01*
X201349000Y-66821674D01*
X201394193Y-66594473D01*
X201482842Y-66380455D01*
X201562325Y-66261500D01*
X201611539Y-66187846D01*
X201775346Y-66024039D01*
X201967954Y-65895343D01*
X201967955Y-65895342D01*
X202181973Y-65806693D01*
X202333440Y-65776564D01*
X202409173Y-65761500D01*
X202640827Y-65761500D01*
X202716560Y-65776564D01*
X202716560Y-65776564D01*
G37*
G36*
X221766560Y-65776564D02*
G01*
X221918027Y-65806693D01*
X222132045Y-65895342D01*
X222132046Y-65895343D01*
X222324654Y-66024039D01*
X222488461Y-66187846D01*
X222537675Y-66261500D01*
X222617158Y-66380455D01*
X222705807Y-66594473D01*
X222751000Y-66821674D01*
X222751000Y-67053326D01*
X222705807Y-67280527D01*
X222617158Y-67494545D01*
X222617157Y-67494546D01*
X222488461Y-67687154D01*
X222324654Y-67850961D01*
X222196249Y-67936758D01*
X222132045Y-67979658D01*
X221918027Y-68068307D01*
X221766560Y-68098436D01*
X221690827Y-68113500D01*
X221459173Y-68113500D01*
X221383440Y-68098436D01*
X221231973Y-68068307D01*
X221017955Y-67979658D01*
X220953751Y-67936758D01*
X220825346Y-67850961D01*
X220661539Y-67687154D01*
X220532843Y-67494546D01*
X220532842Y-67494545D01*
X220444193Y-67280527D01*
X220399000Y-67053326D01*
X220399000Y-66821674D01*
X220444193Y-66594473D01*
X220532842Y-66380455D01*
X220612325Y-66261500D01*
X220661539Y-66187846D01*
X220825346Y-66024039D01*
X221017954Y-65895343D01*
X221017955Y-65895342D01*
X221231973Y-65806693D01*
X221383440Y-65776564D01*
X221459173Y-65761500D01*
X221690827Y-65761500D01*
X221766560Y-65776564D01*
X221766560Y-65776564D01*
G37*
G36*
X183666560Y-65776564D02*
G01*
X183818027Y-65806693D01*
X184032045Y-65895342D01*
X184032046Y-65895343D01*
X184224654Y-66024039D01*
X184388461Y-66187846D01*
X184437675Y-66261500D01*
X184517158Y-66380455D01*
X184605807Y-66594473D01*
X184651000Y-66821674D01*
X184651000Y-67053326D01*
X184605807Y-67280527D01*
X184517158Y-67494545D01*
X184517157Y-67494546D01*
X184388461Y-67687154D01*
X184224654Y-67850961D01*
X184096249Y-67936758D01*
X184032045Y-67979658D01*
X183818027Y-68068307D01*
X183666560Y-68098436D01*
X183590827Y-68113500D01*
X183359173Y-68113500D01*
X183283440Y-68098436D01*
X183131973Y-68068307D01*
X182917955Y-67979658D01*
X182853751Y-67936758D01*
X182725346Y-67850961D01*
X182561539Y-67687154D01*
X182432843Y-67494546D01*
X182432842Y-67494545D01*
X182344193Y-67280527D01*
X182299000Y-67053326D01*
X182299000Y-66821674D01*
X182344193Y-66594473D01*
X182432842Y-66380455D01*
X182512325Y-66261500D01*
X182561539Y-66187846D01*
X182725346Y-66024039D01*
X182917954Y-65895343D01*
X182917955Y-65895342D01*
X183131973Y-65806693D01*
X183283440Y-65776564D01*
X183359173Y-65761500D01*
X183590827Y-65761500D01*
X183666560Y-65776564D01*
X183666560Y-65776564D01*
G37*
G36*
X286703560Y-63794064D02*
G01*
X286855027Y-63824193D01*
X287069045Y-63912842D01*
X287069046Y-63912843D01*
X287261654Y-64041539D01*
X287425461Y-64205346D01*
X287511258Y-64333751D01*
X287554158Y-64397955D01*
X287642807Y-64611973D01*
X287688000Y-64839174D01*
X287688000Y-65070826D01*
X287642807Y-65298027D01*
X287554158Y-65512045D01*
X287554157Y-65512046D01*
X287425461Y-65704654D01*
X287261654Y-65868461D01*
X287135183Y-65952966D01*
X287069045Y-65997158D01*
X286855027Y-66085807D01*
X286703560Y-66115936D01*
X286627827Y-66131000D01*
X286396173Y-66131000D01*
X286320440Y-66115936D01*
X286168973Y-66085807D01*
X285954955Y-65997158D01*
X285888817Y-65952966D01*
X285762346Y-65868461D01*
X285598539Y-65704654D01*
X285469843Y-65512046D01*
X285469842Y-65512045D01*
X285381193Y-65298027D01*
X285336000Y-65070826D01*
X285336000Y-64839174D01*
X285381193Y-64611973D01*
X285469842Y-64397955D01*
X285512742Y-64333751D01*
X285598539Y-64205346D01*
X285762346Y-64041539D01*
X285954954Y-63912843D01*
X285954955Y-63912842D01*
X286168973Y-63824193D01*
X286320440Y-63794064D01*
X286396173Y-63779000D01*
X286627827Y-63779000D01*
X286703560Y-63794064D01*
X286703560Y-63794064D01*
G37*
G36*
X280144098Y-61047033D02*
G01*
X280608350Y-61239332D01*
X280608352Y-61239333D01*
X281026168Y-61518509D01*
X281381491Y-61873832D01*
X281660667Y-62291648D01*
X281660668Y-62291650D01*
X281852967Y-62755902D01*
X281951000Y-63248747D01*
X281951000Y-63751253D01*
X281852967Y-64244098D01*
X281660668Y-64708350D01*
X281660667Y-64708352D01*
X281381491Y-65126168D01*
X281026168Y-65481491D01*
X280608352Y-65760667D01*
X280608351Y-65760668D01*
X280608350Y-65760668D01*
X280144098Y-65952967D01*
X279651253Y-66051000D01*
X279148747Y-66051000D01*
X278655902Y-65952967D01*
X278191650Y-65760668D01*
X278191649Y-65760668D01*
X278191648Y-65760667D01*
X277773832Y-65481491D01*
X277418509Y-65126168D01*
X277139333Y-64708352D01*
X277139332Y-64708350D01*
X276947033Y-64244098D01*
X276849000Y-63751253D01*
X276849000Y-63248747D01*
X276947033Y-62755902D01*
X277139332Y-62291650D01*
X277139333Y-62291648D01*
X277418509Y-61873832D01*
X277773832Y-61518509D01*
X278191648Y-61239333D01*
X278191650Y-61239332D01*
X278655902Y-61047033D01*
X279148747Y-60949000D01*
X279651253Y-60949000D01*
X280144098Y-61047033D01*
X280144098Y-61047033D01*
G37*
G36*
X286203560Y-58794064D02*
G01*
X286355027Y-58824193D01*
X286569045Y-58912842D01*
X286569046Y-58912843D01*
X286761654Y-59041539D01*
X286925461Y-59205346D01*
X287011258Y-59333751D01*
X287054158Y-59397955D01*
X287142807Y-59611973D01*
X287188000Y-59839174D01*
X287188000Y-60070826D01*
X287142807Y-60298027D01*
X287054158Y-60512045D01*
X287054157Y-60512046D01*
X286925461Y-60704654D01*
X286761654Y-60868461D01*
X286641118Y-60949000D01*
X286569045Y-60997158D01*
X286355027Y-61085807D01*
X286203560Y-61115936D01*
X286127827Y-61131000D01*
X285896173Y-61131000D01*
X285820440Y-61115936D01*
X285668973Y-61085807D01*
X285454955Y-60997158D01*
X285382882Y-60949000D01*
X285262346Y-60868461D01*
X285098539Y-60704654D01*
X284969843Y-60512046D01*
X284969842Y-60512045D01*
X284881193Y-60298027D01*
X284836000Y-60070826D01*
X284836000Y-59839174D01*
X284881193Y-59611973D01*
X284969842Y-59397955D01*
X285012742Y-59333751D01*
X285098539Y-59205346D01*
X285262346Y-59041539D01*
X285454954Y-58912843D01*
X285454955Y-58912842D01*
X285668973Y-58824193D01*
X285820440Y-58794064D01*
X285896173Y-58779000D01*
X286127827Y-58779000D01*
X286203560Y-58794064D01*
X286203560Y-58794064D01*
G37*
G36*
X282927500Y-56947000D02*
G01*
X281428500Y-56947000D01*
X281428500Y-55448000D01*
X282927500Y-55448000D01*
X282927500Y-56947000D01*
X282927500Y-56947000D01*
G37*
G36*
X280546500Y-56947000D02*
G01*
X279047500Y-56947000D01*
X279047500Y-55448000D01*
X280546500Y-55448000D01*
X280546500Y-56947000D01*
X280546500Y-56947000D01*
G37*
G36*
X262687500Y-56947000D02*
G01*
X261188500Y-56947000D01*
X261188500Y-55448000D01*
X262687500Y-55448000D01*
X262687500Y-56947000D01*
X262687500Y-56947000D01*
G37*
G36*
X243637500Y-56947000D02*
G01*
X242138500Y-56947000D01*
X242138500Y-55448000D01*
X243637500Y-55448000D01*
X243637500Y-56947000D01*
X243637500Y-56947000D01*
G37*
G36*
X224587500Y-56947000D02*
G01*
X223088500Y-56947000D01*
X223088500Y-55448000D01*
X224587500Y-55448000D01*
X224587500Y-56947000D01*
X224587500Y-56947000D01*
G37*
G36*
X205537500Y-56947000D02*
G01*
X204038500Y-56947000D01*
X204038500Y-55448000D01*
X205537500Y-55448000D01*
X205537500Y-56947000D01*
X205537500Y-56947000D01*
G37*
G36*
X186487500Y-56947000D02*
G01*
X184988500Y-56947000D01*
X184988500Y-55448000D01*
X186487500Y-55448000D01*
X186487500Y-56947000D01*
X186487500Y-56947000D01*
G37*
G36*
X167437500Y-56947000D02*
G01*
X165938500Y-56947000D01*
X165938500Y-55448000D01*
X167437500Y-55448000D01*
X167437500Y-56947000D01*
X167437500Y-56947000D01*
G37*
G36*
X282704000Y-54863500D02*
G01*
X281652000Y-54863500D01*
X281652000Y-53461500D01*
X282704000Y-53461500D01*
X282704000Y-54863500D01*
X282704000Y-54863500D01*
G37*
G36*
X224364000Y-54863500D02*
G01*
X223312000Y-54863500D01*
X223312000Y-53461500D01*
X224364000Y-53461500D01*
X224364000Y-54863500D01*
X224364000Y-54863500D01*
G37*
G36*
X167214000Y-54863500D02*
G01*
X166162000Y-54863500D01*
X166162000Y-53461500D01*
X167214000Y-53461500D01*
X167214000Y-54863500D01*
X167214000Y-54863500D01*
G37*
G36*
X280323000Y-54863500D02*
G01*
X279271000Y-54863500D01*
X279271000Y-53461500D01*
X280323000Y-53461500D01*
X280323000Y-54863500D01*
X280323000Y-54863500D01*
G37*
G36*
X186264000Y-54863500D02*
G01*
X185212000Y-54863500D01*
X185212000Y-53461500D01*
X186264000Y-53461500D01*
X186264000Y-54863500D01*
X186264000Y-54863500D01*
G37*
G36*
X262464000Y-54863500D02*
G01*
X261412000Y-54863500D01*
X261412000Y-53461500D01*
X262464000Y-53461500D01*
X262464000Y-54863500D01*
X262464000Y-54863500D01*
G37*
G36*
X243414000Y-54863500D02*
G01*
X242362000Y-54863500D01*
X242362000Y-53461500D01*
X243414000Y-53461500D01*
X243414000Y-54863500D01*
X243414000Y-54863500D01*
G37*
G36*
X205314000Y-54863500D02*
G01*
X204262000Y-54863500D01*
X204262000Y-53461500D01*
X205314000Y-53461500D01*
X205314000Y-54863500D01*
X205314000Y-54863500D01*
G37*
G36*
X224364000Y-51313500D02*
G01*
X223312000Y-51313500D01*
X223312000Y-49911500D01*
X224364000Y-49911500D01*
X224364000Y-51313500D01*
X224364000Y-51313500D01*
G37*
G36*
X243414000Y-51313500D02*
G01*
X242362000Y-51313500D01*
X242362000Y-49911500D01*
X243414000Y-49911500D01*
X243414000Y-51313500D01*
X243414000Y-51313500D01*
G37*
G36*
X205314000Y-51313500D02*
G01*
X204262000Y-51313500D01*
X204262000Y-49911500D01*
X205314000Y-49911500D01*
X205314000Y-51313500D01*
X205314000Y-51313500D01*
G37*
G36*
X186264000Y-51313500D02*
G01*
X185212000Y-51313500D01*
X185212000Y-49911500D01*
X186264000Y-49911500D01*
X186264000Y-51313500D01*
X186264000Y-51313500D01*
G37*
G36*
X262464000Y-51313500D02*
G01*
X261412000Y-51313500D01*
X261412000Y-49911500D01*
X262464000Y-49911500D01*
X262464000Y-51313500D01*
X262464000Y-51313500D01*
G37*
G36*
X280323000Y-51313500D02*
G01*
X279271000Y-51313500D01*
X279271000Y-49911500D01*
X280323000Y-49911500D01*
X280323000Y-51313500D01*
X280323000Y-51313500D01*
G37*
G36*
X282704000Y-51313500D02*
G01*
X281652000Y-51313500D01*
X281652000Y-49911500D01*
X282704000Y-49911500D01*
X282704000Y-51313500D01*
X282704000Y-51313500D01*
G37*
G36*
X167214000Y-51313500D02*
G01*
X166162000Y-51313500D01*
X166162000Y-49911500D01*
X167214000Y-49911500D01*
X167214000Y-51313500D01*
X167214000Y-51313500D01*
G37*
G36*
X154853560Y-47226564D02*
G01*
X155005027Y-47256693D01*
X155219045Y-47345342D01*
X155219046Y-47345343D01*
X155411654Y-47474039D01*
X155575461Y-47637846D01*
X155661258Y-47766251D01*
X155704158Y-47830455D01*
X155792807Y-48044473D01*
X155792807Y-48044475D01*
X155838000Y-48271673D01*
X155838000Y-48503327D01*
X155822936Y-48579060D01*
X155792807Y-48730527D01*
X155704158Y-48944545D01*
X155704157Y-48944546D01*
X155575461Y-49137154D01*
X155411654Y-49300961D01*
X155283249Y-49386758D01*
X155219045Y-49429658D01*
X155005027Y-49518307D01*
X154853560Y-49548436D01*
X154777827Y-49563500D01*
X154546173Y-49563500D01*
X154470440Y-49548436D01*
X154318973Y-49518307D01*
X154104955Y-49429658D01*
X154040751Y-49386758D01*
X153912346Y-49300961D01*
X153748539Y-49137154D01*
X153619843Y-48944546D01*
X153619842Y-48944545D01*
X153531193Y-48730527D01*
X153501064Y-48579060D01*
X153486000Y-48503327D01*
X153486000Y-48271673D01*
X153531193Y-48044475D01*
X153531193Y-48044473D01*
X153619842Y-47830455D01*
X153662742Y-47766251D01*
X153748539Y-47637846D01*
X153912346Y-47474039D01*
X154104954Y-47345343D01*
X154104955Y-47345342D01*
X154318973Y-47256693D01*
X154470440Y-47226564D01*
X154546173Y-47211500D01*
X154777827Y-47211500D01*
X154853560Y-47226564D01*
X154853560Y-47226564D01*
G37*
G36*
X173903560Y-47226564D02*
G01*
X174055027Y-47256693D01*
X174269045Y-47345342D01*
X174269046Y-47345343D01*
X174461654Y-47474039D01*
X174625461Y-47637846D01*
X174711258Y-47766251D01*
X174754158Y-47830455D01*
X174842807Y-48044473D01*
X174842807Y-48044475D01*
X174888000Y-48271673D01*
X174888000Y-48503327D01*
X174872936Y-48579060D01*
X174842807Y-48730527D01*
X174754158Y-48944545D01*
X174754157Y-48944546D01*
X174625461Y-49137154D01*
X174461654Y-49300961D01*
X174333249Y-49386758D01*
X174269045Y-49429658D01*
X174055027Y-49518307D01*
X173903560Y-49548436D01*
X173827827Y-49563500D01*
X173596173Y-49563500D01*
X173520440Y-49548436D01*
X173368973Y-49518307D01*
X173154955Y-49429658D01*
X173090751Y-49386758D01*
X172962346Y-49300961D01*
X172798539Y-49137154D01*
X172669843Y-48944546D01*
X172669842Y-48944545D01*
X172581193Y-48730527D01*
X172551064Y-48579060D01*
X172536000Y-48503327D01*
X172536000Y-48271673D01*
X172581193Y-48044475D01*
X172581193Y-48044473D01*
X172669842Y-47830455D01*
X172712742Y-47766251D01*
X172798539Y-47637846D01*
X172962346Y-47474039D01*
X173154954Y-47345343D01*
X173154955Y-47345342D01*
X173368973Y-47256693D01*
X173520440Y-47226564D01*
X173596173Y-47211500D01*
X173827827Y-47211500D01*
X173903560Y-47226564D01*
X173903560Y-47226564D01*
G37*
G36*
X192953560Y-47226564D02*
G01*
X193105027Y-47256693D01*
X193319045Y-47345342D01*
X193319046Y-47345343D01*
X193511654Y-47474039D01*
X193675461Y-47637846D01*
X193761258Y-47766251D01*
X193804158Y-47830455D01*
X193892807Y-48044473D01*
X193892807Y-48044475D01*
X193938000Y-48271673D01*
X193938000Y-48503327D01*
X193922936Y-48579060D01*
X193892807Y-48730527D01*
X193804158Y-48944545D01*
X193804157Y-48944546D01*
X193675461Y-49137154D01*
X193511654Y-49300961D01*
X193383249Y-49386758D01*
X193319045Y-49429658D01*
X193105027Y-49518307D01*
X192953560Y-49548436D01*
X192877827Y-49563500D01*
X192646173Y-49563500D01*
X192570440Y-49548436D01*
X192418973Y-49518307D01*
X192204955Y-49429658D01*
X192140751Y-49386758D01*
X192012346Y-49300961D01*
X191848539Y-49137154D01*
X191719843Y-48944546D01*
X191719842Y-48944545D01*
X191631193Y-48730527D01*
X191601064Y-48579060D01*
X191586000Y-48503327D01*
X191586000Y-48271673D01*
X191631193Y-48044475D01*
X191631193Y-48044473D01*
X191719842Y-47830455D01*
X191762742Y-47766251D01*
X191848539Y-47637846D01*
X192012346Y-47474039D01*
X192204954Y-47345343D01*
X192204955Y-47345342D01*
X192418973Y-47256693D01*
X192570440Y-47226564D01*
X192646173Y-47211500D01*
X192877827Y-47211500D01*
X192953560Y-47226564D01*
X192953560Y-47226564D01*
G37*
G36*
X212003560Y-47226564D02*
G01*
X212155027Y-47256693D01*
X212369045Y-47345342D01*
X212369046Y-47345343D01*
X212561654Y-47474039D01*
X212725461Y-47637846D01*
X212811258Y-47766251D01*
X212854158Y-47830455D01*
X212942807Y-48044473D01*
X212942807Y-48044475D01*
X212988000Y-48271673D01*
X212988000Y-48503327D01*
X212972936Y-48579060D01*
X212942807Y-48730527D01*
X212854158Y-48944545D01*
X212854157Y-48944546D01*
X212725461Y-49137154D01*
X212561654Y-49300961D01*
X212433249Y-49386758D01*
X212369045Y-49429658D01*
X212155027Y-49518307D01*
X212003560Y-49548436D01*
X211927827Y-49563500D01*
X211696173Y-49563500D01*
X211620440Y-49548436D01*
X211468973Y-49518307D01*
X211254955Y-49429658D01*
X211190751Y-49386758D01*
X211062346Y-49300961D01*
X210898539Y-49137154D01*
X210769843Y-48944546D01*
X210769842Y-48944545D01*
X210681193Y-48730527D01*
X210651064Y-48579060D01*
X210636000Y-48503327D01*
X210636000Y-48271673D01*
X210681193Y-48044475D01*
X210681193Y-48044473D01*
X210769842Y-47830455D01*
X210812742Y-47766251D01*
X210898539Y-47637846D01*
X211062346Y-47474039D01*
X211254954Y-47345343D01*
X211254955Y-47345342D01*
X211468973Y-47256693D01*
X211620440Y-47226564D01*
X211696173Y-47211500D01*
X211927827Y-47211500D01*
X212003560Y-47226564D01*
X212003560Y-47226564D01*
G37*
G36*
X231053560Y-47226564D02*
G01*
X231205027Y-47256693D01*
X231419045Y-47345342D01*
X231419046Y-47345343D01*
X231611654Y-47474039D01*
X231775461Y-47637846D01*
X231861258Y-47766251D01*
X231904158Y-47830455D01*
X231992807Y-48044473D01*
X231992807Y-48044475D01*
X232038000Y-48271673D01*
X232038000Y-48503327D01*
X232022936Y-48579060D01*
X231992807Y-48730527D01*
X231904158Y-48944545D01*
X231904157Y-48944546D01*
X231775461Y-49137154D01*
X231611654Y-49300961D01*
X231483249Y-49386758D01*
X231419045Y-49429658D01*
X231205027Y-49518307D01*
X231053560Y-49548436D01*
X230977827Y-49563500D01*
X230746173Y-49563500D01*
X230670440Y-49548436D01*
X230518973Y-49518307D01*
X230304955Y-49429658D01*
X230240751Y-49386758D01*
X230112346Y-49300961D01*
X229948539Y-49137154D01*
X229819843Y-48944546D01*
X229819842Y-48944545D01*
X229731193Y-48730527D01*
X229701064Y-48579060D01*
X229686000Y-48503327D01*
X229686000Y-48271673D01*
X229731193Y-48044475D01*
X229731193Y-48044473D01*
X229819842Y-47830455D01*
X229862742Y-47766251D01*
X229948539Y-47637846D01*
X230112346Y-47474039D01*
X230304954Y-47345343D01*
X230304955Y-47345342D01*
X230518973Y-47256693D01*
X230670440Y-47226564D01*
X230746173Y-47211500D01*
X230977827Y-47211500D01*
X231053560Y-47226564D01*
X231053560Y-47226564D01*
G37*
G36*
X250103560Y-47226564D02*
G01*
X250255027Y-47256693D01*
X250469045Y-47345342D01*
X250469046Y-47345343D01*
X250661654Y-47474039D01*
X250825461Y-47637846D01*
X250911258Y-47766251D01*
X250954158Y-47830455D01*
X251042807Y-48044473D01*
X251042807Y-48044475D01*
X251088000Y-48271673D01*
X251088000Y-48503327D01*
X251072936Y-48579060D01*
X251042807Y-48730527D01*
X250954158Y-48944545D01*
X250954157Y-48944546D01*
X250825461Y-49137154D01*
X250661654Y-49300961D01*
X250533249Y-49386758D01*
X250469045Y-49429658D01*
X250255027Y-49518307D01*
X250103560Y-49548436D01*
X250027827Y-49563500D01*
X249796173Y-49563500D01*
X249720440Y-49548436D01*
X249568973Y-49518307D01*
X249354955Y-49429658D01*
X249290751Y-49386758D01*
X249162346Y-49300961D01*
X248998539Y-49137154D01*
X248869843Y-48944546D01*
X248869842Y-48944545D01*
X248781193Y-48730527D01*
X248751064Y-48579060D01*
X248736000Y-48503327D01*
X248736000Y-48271673D01*
X248781193Y-48044475D01*
X248781193Y-48044473D01*
X248869842Y-47830455D01*
X248912742Y-47766251D01*
X248998539Y-47637846D01*
X249162346Y-47474039D01*
X249354954Y-47345343D01*
X249354955Y-47345342D01*
X249568973Y-47256693D01*
X249720440Y-47226564D01*
X249796173Y-47211500D01*
X250027827Y-47211500D01*
X250103560Y-47226564D01*
X250103560Y-47226564D01*
G37*
G36*
X269153560Y-47226564D02*
G01*
X269305027Y-47256693D01*
X269519045Y-47345342D01*
X269519046Y-47345343D01*
X269711654Y-47474039D01*
X269875461Y-47637846D01*
X269961258Y-47766251D01*
X270004158Y-47830455D01*
X270092807Y-48044473D01*
X270092807Y-48044475D01*
X270138000Y-48271673D01*
X270138000Y-48503327D01*
X270122936Y-48579060D01*
X270092807Y-48730527D01*
X270004158Y-48944545D01*
X270004157Y-48944546D01*
X269875461Y-49137154D01*
X269711654Y-49300961D01*
X269583249Y-49386758D01*
X269519045Y-49429658D01*
X269305027Y-49518307D01*
X269153560Y-49548436D01*
X269077827Y-49563500D01*
X268846173Y-49563500D01*
X268770440Y-49548436D01*
X268618973Y-49518307D01*
X268404955Y-49429658D01*
X268340751Y-49386758D01*
X268212346Y-49300961D01*
X268048539Y-49137154D01*
X267919843Y-48944546D01*
X267919842Y-48944545D01*
X267831193Y-48730527D01*
X267801064Y-48579060D01*
X267786000Y-48503327D01*
X267786000Y-48271673D01*
X267831193Y-48044475D01*
X267831193Y-48044473D01*
X267919842Y-47830455D01*
X267962742Y-47766251D01*
X268048539Y-47637846D01*
X268212346Y-47474039D01*
X268404954Y-47345343D01*
X268404955Y-47345342D01*
X268618973Y-47256693D01*
X268770440Y-47226564D01*
X268846173Y-47211500D01*
X269077827Y-47211500D01*
X269153560Y-47226564D01*
X269153560Y-47226564D01*
G37*
G36*
X166774162Y-47830455D02*
G01*
X166906621Y-47856802D01*
X167043022Y-47913301D01*
X167165779Y-47995325D01*
X167270175Y-48099721D01*
X167352199Y-48222478D01*
X167408698Y-48358879D01*
X167433401Y-48483075D01*
X167437430Y-48503326D01*
X167437500Y-48503681D01*
X167437500Y-48651319D01*
X167408698Y-48796121D01*
X167352199Y-48932522D01*
X167270175Y-49055279D01*
X167165779Y-49159675D01*
X167043022Y-49241699D01*
X166906621Y-49298198D01*
X166782425Y-49322901D01*
X166761820Y-49327000D01*
X166614180Y-49327000D01*
X166593575Y-49322901D01*
X166469379Y-49298198D01*
X166332978Y-49241699D01*
X166210221Y-49159675D01*
X166105825Y-49055279D01*
X166023801Y-48932522D01*
X165967302Y-48796121D01*
X165938500Y-48651319D01*
X165938500Y-48503681D01*
X165938571Y-48503326D01*
X165942599Y-48483075D01*
X165967302Y-48358879D01*
X166023801Y-48222478D01*
X166105825Y-48099721D01*
X166210221Y-47995325D01*
X166332978Y-47913301D01*
X166469379Y-47856802D01*
X166601838Y-47830455D01*
X166614180Y-47828000D01*
X166761820Y-47828000D01*
X166774162Y-47830455D01*
X166774162Y-47830455D01*
G37*
G36*
X185824162Y-47830455D02*
G01*
X185956621Y-47856802D01*
X186093022Y-47913301D01*
X186215779Y-47995325D01*
X186320175Y-48099721D01*
X186402199Y-48222478D01*
X186458698Y-48358879D01*
X186483401Y-48483075D01*
X186487430Y-48503326D01*
X186487500Y-48503681D01*
X186487500Y-48651319D01*
X186458698Y-48796121D01*
X186402199Y-48932522D01*
X186320175Y-49055279D01*
X186215779Y-49159675D01*
X186093022Y-49241699D01*
X185956621Y-49298198D01*
X185832425Y-49322901D01*
X185811820Y-49327000D01*
X185664180Y-49327000D01*
X185643575Y-49322901D01*
X185519379Y-49298198D01*
X185382978Y-49241699D01*
X185260221Y-49159675D01*
X185155825Y-49055279D01*
X185073801Y-48932522D01*
X185017302Y-48796121D01*
X184988500Y-48651319D01*
X184988500Y-48503681D01*
X184988571Y-48503326D01*
X184992599Y-48483075D01*
X185017302Y-48358879D01*
X185073801Y-48222478D01*
X185155825Y-48099721D01*
X185260221Y-47995325D01*
X185382978Y-47913301D01*
X185519379Y-47856802D01*
X185651838Y-47830455D01*
X185664180Y-47828000D01*
X185811820Y-47828000D01*
X185824162Y-47830455D01*
X185824162Y-47830455D01*
G37*
G36*
X204874162Y-47830455D02*
G01*
X205006621Y-47856802D01*
X205143022Y-47913301D01*
X205265779Y-47995325D01*
X205370175Y-48099721D01*
X205452199Y-48222478D01*
X205508698Y-48358879D01*
X205533401Y-48483075D01*
X205537430Y-48503326D01*
X205537500Y-48503681D01*
X205537500Y-48651319D01*
X205508698Y-48796121D01*
X205452199Y-48932522D01*
X205370175Y-49055279D01*
X205265779Y-49159675D01*
X205143022Y-49241699D01*
X205006621Y-49298198D01*
X204882425Y-49322901D01*
X204861820Y-49327000D01*
X204714180Y-49327000D01*
X204693575Y-49322901D01*
X204569379Y-49298198D01*
X204432978Y-49241699D01*
X204310221Y-49159675D01*
X204205825Y-49055279D01*
X204123801Y-48932522D01*
X204067302Y-48796121D01*
X204038500Y-48651319D01*
X204038500Y-48503681D01*
X204038571Y-48503326D01*
X204042599Y-48483075D01*
X204067302Y-48358879D01*
X204123801Y-48222478D01*
X204205825Y-48099721D01*
X204310221Y-47995325D01*
X204432978Y-47913301D01*
X204569379Y-47856802D01*
X204701838Y-47830455D01*
X204714180Y-47828000D01*
X204861820Y-47828000D01*
X204874162Y-47830455D01*
X204874162Y-47830455D01*
G37*
G36*
X223924162Y-47830455D02*
G01*
X224056621Y-47856802D01*
X224193022Y-47913301D01*
X224315779Y-47995325D01*
X224420175Y-48099721D01*
X224502199Y-48222478D01*
X224558698Y-48358879D01*
X224583401Y-48483075D01*
X224587430Y-48503326D01*
X224587500Y-48503681D01*
X224587500Y-48651319D01*
X224558698Y-48796121D01*
X224502199Y-48932522D01*
X224420175Y-49055279D01*
X224315779Y-49159675D01*
X224193022Y-49241699D01*
X224056621Y-49298198D01*
X223932425Y-49322901D01*
X223911820Y-49327000D01*
X223764180Y-49327000D01*
X223743575Y-49322901D01*
X223619379Y-49298198D01*
X223482978Y-49241699D01*
X223360221Y-49159675D01*
X223255825Y-49055279D01*
X223173801Y-48932522D01*
X223117302Y-48796121D01*
X223088500Y-48651319D01*
X223088500Y-48503681D01*
X223088571Y-48503326D01*
X223092599Y-48483075D01*
X223117302Y-48358879D01*
X223173801Y-48222478D01*
X223255825Y-48099721D01*
X223360221Y-47995325D01*
X223482978Y-47913301D01*
X223619379Y-47856802D01*
X223751838Y-47830455D01*
X223764180Y-47828000D01*
X223911820Y-47828000D01*
X223924162Y-47830455D01*
X223924162Y-47830455D01*
G37*
G36*
X242974162Y-47830455D02*
G01*
X243106621Y-47856802D01*
X243243022Y-47913301D01*
X243365779Y-47995325D01*
X243470175Y-48099721D01*
X243552199Y-48222478D01*
X243608698Y-48358879D01*
X243633401Y-48483075D01*
X243637430Y-48503326D01*
X243637500Y-48503681D01*
X243637500Y-48651319D01*
X243608698Y-48796121D01*
X243552199Y-48932522D01*
X243470175Y-49055279D01*
X243365779Y-49159675D01*
X243243022Y-49241699D01*
X243106621Y-49298198D01*
X242982425Y-49322901D01*
X242961820Y-49327000D01*
X242814180Y-49327000D01*
X242793575Y-49322901D01*
X242669379Y-49298198D01*
X242532978Y-49241699D01*
X242410221Y-49159675D01*
X242305825Y-49055279D01*
X242223801Y-48932522D01*
X242167302Y-48796121D01*
X242138500Y-48651319D01*
X242138500Y-48503681D01*
X242138571Y-48503326D01*
X242142599Y-48483075D01*
X242167302Y-48358879D01*
X242223801Y-48222478D01*
X242305825Y-48099721D01*
X242410221Y-47995325D01*
X242532978Y-47913301D01*
X242669379Y-47856802D01*
X242801838Y-47830455D01*
X242814180Y-47828000D01*
X242961820Y-47828000D01*
X242974162Y-47830455D01*
X242974162Y-47830455D01*
G37*
G36*
X262024162Y-47830455D02*
G01*
X262156621Y-47856802D01*
X262293022Y-47913301D01*
X262415779Y-47995325D01*
X262520175Y-48099721D01*
X262602199Y-48222478D01*
X262658698Y-48358879D01*
X262683401Y-48483075D01*
X262687430Y-48503326D01*
X262687500Y-48503681D01*
X262687500Y-48651319D01*
X262658698Y-48796121D01*
X262602199Y-48932522D01*
X262520175Y-49055279D01*
X262415779Y-49159675D01*
X262293022Y-49241699D01*
X262156621Y-49298198D01*
X262032425Y-49322901D01*
X262011820Y-49327000D01*
X261864180Y-49327000D01*
X261843575Y-49322901D01*
X261719379Y-49298198D01*
X261582978Y-49241699D01*
X261460221Y-49159675D01*
X261355825Y-49055279D01*
X261273801Y-48932522D01*
X261217302Y-48796121D01*
X261188500Y-48651319D01*
X261188500Y-48503681D01*
X261188571Y-48503326D01*
X261192599Y-48483075D01*
X261217302Y-48358879D01*
X261273801Y-48222478D01*
X261355825Y-48099721D01*
X261460221Y-47995325D01*
X261582978Y-47913301D01*
X261719379Y-47856802D01*
X261851838Y-47830455D01*
X261864180Y-47828000D01*
X262011820Y-47828000D01*
X262024162Y-47830455D01*
X262024162Y-47830455D01*
G37*
G36*
X279883162Y-47830455D02*
G01*
X280015621Y-47856802D01*
X280152022Y-47913301D01*
X280274779Y-47995325D01*
X280379175Y-48099721D01*
X280461199Y-48222478D01*
X280517698Y-48358879D01*
X280542401Y-48483075D01*
X280546430Y-48503326D01*
X280546500Y-48503681D01*
X280546500Y-48651319D01*
X280517698Y-48796121D01*
X280461199Y-48932522D01*
X280379175Y-49055279D01*
X280274779Y-49159675D01*
X280152022Y-49241699D01*
X280015621Y-49298198D01*
X279891425Y-49322901D01*
X279870820Y-49327000D01*
X279723180Y-49327000D01*
X279702575Y-49322901D01*
X279578379Y-49298198D01*
X279441978Y-49241699D01*
X279319221Y-49159675D01*
X279214825Y-49055279D01*
X279132801Y-48932522D01*
X279076302Y-48796121D01*
X279047500Y-48651319D01*
X279047500Y-48503681D01*
X279047571Y-48503326D01*
X279051599Y-48483075D01*
X279076302Y-48358879D01*
X279132801Y-48222478D01*
X279214825Y-48099721D01*
X279319221Y-47995325D01*
X279441978Y-47913301D01*
X279578379Y-47856802D01*
X279710838Y-47830455D01*
X279723180Y-47828000D01*
X279870820Y-47828000D01*
X279883162Y-47830455D01*
X279883162Y-47830455D01*
G37*
G36*
X282264162Y-47830455D02*
G01*
X282396621Y-47856802D01*
X282533022Y-47913301D01*
X282655779Y-47995325D01*
X282760175Y-48099721D01*
X282842199Y-48222478D01*
X282898698Y-48358879D01*
X282923401Y-48483075D01*
X282927430Y-48503326D01*
X282927500Y-48503681D01*
X282927500Y-48651319D01*
X282898698Y-48796121D01*
X282842199Y-48932522D01*
X282760175Y-49055279D01*
X282655779Y-49159675D01*
X282533022Y-49241699D01*
X282396621Y-49298198D01*
X282272425Y-49322901D01*
X282251820Y-49327000D01*
X282104180Y-49327000D01*
X282083575Y-49322901D01*
X281959379Y-49298198D01*
X281822978Y-49241699D01*
X281700221Y-49159675D01*
X281595825Y-49055279D01*
X281513801Y-48932522D01*
X281457302Y-48796121D01*
X281428500Y-48651319D01*
X281428500Y-48503681D01*
X281428571Y-48503326D01*
X281432599Y-48483075D01*
X281457302Y-48358879D01*
X281513801Y-48222478D01*
X281595825Y-48099721D01*
X281700221Y-47995325D01*
X281822978Y-47913301D01*
X281959379Y-47856802D01*
X282091838Y-47830455D01*
X282104180Y-47828000D01*
X282251820Y-47828000D01*
X282264162Y-47830455D01*
X282264162Y-47830455D01*
G37*
G36*
X236053560Y-46726564D02*
G01*
X236205027Y-46756693D01*
X236419045Y-46845342D01*
X236419046Y-46845343D01*
X236611654Y-46974039D01*
X236775461Y-47137846D01*
X236824675Y-47211500D01*
X236904158Y-47330455D01*
X236992807Y-47544473D01*
X237038000Y-47771674D01*
X237038000Y-48003326D01*
X236992807Y-48230527D01*
X236904158Y-48444545D01*
X236904157Y-48444546D01*
X236775461Y-48637154D01*
X236611654Y-48800961D01*
X236483249Y-48886758D01*
X236419045Y-48929658D01*
X236205027Y-49018307D01*
X236053560Y-49048436D01*
X235977827Y-49063500D01*
X235746173Y-49063500D01*
X235670440Y-49048436D01*
X235518973Y-49018307D01*
X235304955Y-48929658D01*
X235240751Y-48886758D01*
X235112346Y-48800961D01*
X234948539Y-48637154D01*
X234819843Y-48444546D01*
X234819842Y-48444545D01*
X234731193Y-48230527D01*
X234686000Y-48003326D01*
X234686000Y-47771674D01*
X234731193Y-47544473D01*
X234819842Y-47330455D01*
X234899325Y-47211500D01*
X234948539Y-47137846D01*
X235112346Y-46974039D01*
X235304954Y-46845343D01*
X235304955Y-46845342D01*
X235518973Y-46756693D01*
X235670440Y-46726564D01*
X235746173Y-46711500D01*
X235977827Y-46711500D01*
X236053560Y-46726564D01*
X236053560Y-46726564D01*
G37*
G36*
X274153560Y-46726564D02*
G01*
X274305027Y-46756693D01*
X274519045Y-46845342D01*
X274519046Y-46845343D01*
X274711654Y-46974039D01*
X274875461Y-47137846D01*
X274924675Y-47211500D01*
X275004158Y-47330455D01*
X275092807Y-47544473D01*
X275138000Y-47771674D01*
X275138000Y-48003326D01*
X275092807Y-48230527D01*
X275004158Y-48444545D01*
X275004157Y-48444546D01*
X274875461Y-48637154D01*
X274711654Y-48800961D01*
X274583249Y-48886758D01*
X274519045Y-48929658D01*
X274305027Y-49018307D01*
X274153560Y-49048436D01*
X274077827Y-49063500D01*
X273846173Y-49063500D01*
X273770440Y-49048436D01*
X273618973Y-49018307D01*
X273404955Y-48929658D01*
X273340751Y-48886758D01*
X273212346Y-48800961D01*
X273048539Y-48637154D01*
X272919843Y-48444546D01*
X272919842Y-48444545D01*
X272831193Y-48230527D01*
X272786000Y-48003326D01*
X272786000Y-47771674D01*
X272831193Y-47544473D01*
X272919842Y-47330455D01*
X272999325Y-47211500D01*
X273048539Y-47137846D01*
X273212346Y-46974039D01*
X273404954Y-46845343D01*
X273404955Y-46845342D01*
X273618973Y-46756693D01*
X273770440Y-46726564D01*
X273846173Y-46711500D01*
X274077827Y-46711500D01*
X274153560Y-46726564D01*
X274153560Y-46726564D01*
G37*
G36*
X255103560Y-46726564D02*
G01*
X255255027Y-46756693D01*
X255469045Y-46845342D01*
X255469046Y-46845343D01*
X255661654Y-46974039D01*
X255825461Y-47137846D01*
X255874675Y-47211500D01*
X255954158Y-47330455D01*
X256042807Y-47544473D01*
X256088000Y-47771674D01*
X256088000Y-48003326D01*
X256042807Y-48230527D01*
X255954158Y-48444545D01*
X255954157Y-48444546D01*
X255825461Y-48637154D01*
X255661654Y-48800961D01*
X255533249Y-48886758D01*
X255469045Y-48929658D01*
X255255027Y-49018307D01*
X255103560Y-49048436D01*
X255027827Y-49063500D01*
X254796173Y-49063500D01*
X254720440Y-49048436D01*
X254568973Y-49018307D01*
X254354955Y-48929658D01*
X254290751Y-48886758D01*
X254162346Y-48800961D01*
X253998539Y-48637154D01*
X253869843Y-48444546D01*
X253869842Y-48444545D01*
X253781193Y-48230527D01*
X253736000Y-48003326D01*
X253736000Y-47771674D01*
X253781193Y-47544473D01*
X253869842Y-47330455D01*
X253949325Y-47211500D01*
X253998539Y-47137846D01*
X254162346Y-46974039D01*
X254354954Y-46845343D01*
X254354955Y-46845342D01*
X254568973Y-46756693D01*
X254720440Y-46726564D01*
X254796173Y-46711500D01*
X255027827Y-46711500D01*
X255103560Y-46726564D01*
X255103560Y-46726564D01*
G37*
G36*
X197953560Y-46726564D02*
G01*
X198105027Y-46756693D01*
X198319045Y-46845342D01*
X198319046Y-46845343D01*
X198511654Y-46974039D01*
X198675461Y-47137846D01*
X198724675Y-47211500D01*
X198804158Y-47330455D01*
X198892807Y-47544473D01*
X198938000Y-47771674D01*
X198938000Y-48003326D01*
X198892807Y-48230527D01*
X198804158Y-48444545D01*
X198804157Y-48444546D01*
X198675461Y-48637154D01*
X198511654Y-48800961D01*
X198383249Y-48886758D01*
X198319045Y-48929658D01*
X198105027Y-49018307D01*
X197953560Y-49048436D01*
X197877827Y-49063500D01*
X197646173Y-49063500D01*
X197570440Y-49048436D01*
X197418973Y-49018307D01*
X197204955Y-48929658D01*
X197140751Y-48886758D01*
X197012346Y-48800961D01*
X196848539Y-48637154D01*
X196719843Y-48444546D01*
X196719842Y-48444545D01*
X196631193Y-48230527D01*
X196586000Y-48003326D01*
X196586000Y-47771674D01*
X196631193Y-47544473D01*
X196719842Y-47330455D01*
X196799325Y-47211500D01*
X196848539Y-47137846D01*
X197012346Y-46974039D01*
X197204954Y-46845343D01*
X197204955Y-46845342D01*
X197418973Y-46756693D01*
X197570440Y-46726564D01*
X197646173Y-46711500D01*
X197877827Y-46711500D01*
X197953560Y-46726564D01*
X197953560Y-46726564D01*
G37*
G36*
X159853560Y-46726564D02*
G01*
X160005027Y-46756693D01*
X160219045Y-46845342D01*
X160219046Y-46845343D01*
X160411654Y-46974039D01*
X160575461Y-47137846D01*
X160624675Y-47211500D01*
X160704158Y-47330455D01*
X160792807Y-47544473D01*
X160838000Y-47771674D01*
X160838000Y-48003326D01*
X160792807Y-48230527D01*
X160704158Y-48444545D01*
X160704157Y-48444546D01*
X160575461Y-48637154D01*
X160411654Y-48800961D01*
X160283249Y-48886758D01*
X160219045Y-48929658D01*
X160005027Y-49018307D01*
X159853560Y-49048436D01*
X159777827Y-49063500D01*
X159546173Y-49063500D01*
X159470440Y-49048436D01*
X159318973Y-49018307D01*
X159104955Y-48929658D01*
X159040751Y-48886758D01*
X158912346Y-48800961D01*
X158748539Y-48637154D01*
X158619843Y-48444546D01*
X158619842Y-48444545D01*
X158531193Y-48230527D01*
X158486000Y-48003326D01*
X158486000Y-47771674D01*
X158531193Y-47544473D01*
X158619842Y-47330455D01*
X158699325Y-47211500D01*
X158748539Y-47137846D01*
X158912346Y-46974039D01*
X159104954Y-46845343D01*
X159104955Y-46845342D01*
X159318973Y-46756693D01*
X159470440Y-46726564D01*
X159546173Y-46711500D01*
X159777827Y-46711500D01*
X159853560Y-46726564D01*
X159853560Y-46726564D01*
G37*
G36*
X178903560Y-46726564D02*
G01*
X179055027Y-46756693D01*
X179269045Y-46845342D01*
X179269046Y-46845343D01*
X179461654Y-46974039D01*
X179625461Y-47137846D01*
X179674675Y-47211500D01*
X179754158Y-47330455D01*
X179842807Y-47544473D01*
X179888000Y-47771674D01*
X179888000Y-48003326D01*
X179842807Y-48230527D01*
X179754158Y-48444545D01*
X179754157Y-48444546D01*
X179625461Y-48637154D01*
X179461654Y-48800961D01*
X179333249Y-48886758D01*
X179269045Y-48929658D01*
X179055027Y-49018307D01*
X178903560Y-49048436D01*
X178827827Y-49063500D01*
X178596173Y-49063500D01*
X178520440Y-49048436D01*
X178368973Y-49018307D01*
X178154955Y-48929658D01*
X178090751Y-48886758D01*
X177962346Y-48800961D01*
X177798539Y-48637154D01*
X177669843Y-48444546D01*
X177669842Y-48444545D01*
X177581193Y-48230527D01*
X177536000Y-48003326D01*
X177536000Y-47771674D01*
X177581193Y-47544473D01*
X177669842Y-47330455D01*
X177749325Y-47211500D01*
X177798539Y-47137846D01*
X177962346Y-46974039D01*
X178154954Y-46845343D01*
X178154955Y-46845342D01*
X178368973Y-46756693D01*
X178520440Y-46726564D01*
X178596173Y-46711500D01*
X178827827Y-46711500D01*
X178903560Y-46726564D01*
X178903560Y-46726564D01*
G37*
G36*
X217003560Y-46726564D02*
G01*
X217155027Y-46756693D01*
X217369045Y-46845342D01*
X217369046Y-46845343D01*
X217561654Y-46974039D01*
X217725461Y-47137846D01*
X217774675Y-47211500D01*
X217854158Y-47330455D01*
X217942807Y-47544473D01*
X217988000Y-47771674D01*
X217988000Y-48003326D01*
X217942807Y-48230527D01*
X217854158Y-48444545D01*
X217854157Y-48444546D01*
X217725461Y-48637154D01*
X217561654Y-48800961D01*
X217433249Y-48886758D01*
X217369045Y-48929658D01*
X217155027Y-49018307D01*
X217003560Y-49048436D01*
X216927827Y-49063500D01*
X216696173Y-49063500D01*
X216620440Y-49048436D01*
X216468973Y-49018307D01*
X216254955Y-48929658D01*
X216190751Y-48886758D01*
X216062346Y-48800961D01*
X215898539Y-48637154D01*
X215769843Y-48444546D01*
X215769842Y-48444545D01*
X215681193Y-48230527D01*
X215636000Y-48003326D01*
X215636000Y-47771674D01*
X215681193Y-47544473D01*
X215769842Y-47330455D01*
X215849325Y-47211500D01*
X215898539Y-47137846D01*
X216062346Y-46974039D01*
X216254954Y-46845343D01*
X216254955Y-46845342D01*
X216468973Y-46756693D01*
X216620440Y-46726564D01*
X216696173Y-46711500D01*
X216927827Y-46711500D01*
X217003560Y-46726564D01*
X217003560Y-46726564D01*
G37*
G36*
X157906098Y-39615833D02*
G01*
X158370350Y-39808132D01*
X158370352Y-39808133D01*
X158788168Y-40087309D01*
X159143491Y-40442632D01*
X159422667Y-40860448D01*
X159422668Y-40860450D01*
X159614967Y-41324702D01*
X159713000Y-41817547D01*
X159713000Y-42320053D01*
X159614967Y-42812898D01*
X159422668Y-43277150D01*
X159422667Y-43277152D01*
X159143491Y-43694968D01*
X158788168Y-44050291D01*
X158370352Y-44329467D01*
X158370351Y-44329468D01*
X158370350Y-44329468D01*
X157906098Y-44521767D01*
X157413253Y-44619800D01*
X156910747Y-44619800D01*
X156417902Y-44521767D01*
X155953650Y-44329468D01*
X155953649Y-44329468D01*
X155953648Y-44329467D01*
X155535832Y-44050291D01*
X155180509Y-43694968D01*
X154901333Y-43277152D01*
X154901332Y-43277150D01*
X154709033Y-42812898D01*
X154611000Y-42320053D01*
X154611000Y-41817547D01*
X154709033Y-41324702D01*
X154901332Y-40860450D01*
X154901333Y-40860448D01*
X155180509Y-40442632D01*
X155535832Y-40087309D01*
X155953648Y-39808133D01*
X155953650Y-39808132D01*
X156417902Y-39615833D01*
X156910747Y-39517800D01*
X157413253Y-39517800D01*
X157906098Y-39615833D01*
X157906098Y-39615833D01*
G37*
G36*
X253156098Y-39615833D02*
G01*
X253620350Y-39808132D01*
X253620352Y-39808133D01*
X254038168Y-40087309D01*
X254393491Y-40442632D01*
X254672667Y-40860448D01*
X254672668Y-40860450D01*
X254864967Y-41324702D01*
X254963000Y-41817547D01*
X254963000Y-42320053D01*
X254864967Y-42812898D01*
X254672668Y-43277150D01*
X254672667Y-43277152D01*
X254393491Y-43694968D01*
X254038168Y-44050291D01*
X253620352Y-44329467D01*
X253620351Y-44329468D01*
X253620350Y-44329468D01*
X253156098Y-44521767D01*
X252663253Y-44619800D01*
X252160747Y-44619800D01*
X251667902Y-44521767D01*
X251203650Y-44329468D01*
X251203649Y-44329468D01*
X251203648Y-44329467D01*
X250785832Y-44050291D01*
X250430509Y-43694968D01*
X250151333Y-43277152D01*
X250151332Y-43277150D01*
X249959033Y-42812898D01*
X249861000Y-42320053D01*
X249861000Y-41817547D01*
X249959033Y-41324702D01*
X250151332Y-40860450D01*
X250151333Y-40860448D01*
X250430509Y-40442632D01*
X250785832Y-40087309D01*
X251203648Y-39808133D01*
X251203650Y-39808132D01*
X251667902Y-39615833D01*
X252160747Y-39517800D01*
X252663253Y-39517800D01*
X253156098Y-39615833D01*
X253156098Y-39615833D01*
G37*
G36*
X254352500Y-37897000D02*
G01*
X252853500Y-37897000D01*
X252853500Y-36398000D01*
X254352500Y-36398000D01*
X254352500Y-37897000D01*
X254352500Y-37897000D01*
G37*
G36*
X178152500Y-37897000D02*
G01*
X176653500Y-37897000D01*
X176653500Y-36398000D01*
X178152500Y-36398000D01*
X178152500Y-37897000D01*
X178152500Y-37897000D01*
G37*
G36*
X251971500Y-37897000D02*
G01*
X250472500Y-37897000D01*
X250472500Y-36398000D01*
X251971500Y-36398000D01*
X251971500Y-37897000D01*
X251971500Y-37897000D01*
G37*
G36*
X196011500Y-37897000D02*
G01*
X194512500Y-37897000D01*
X194512500Y-36398000D01*
X196011500Y-36398000D01*
X196011500Y-37897000D01*
X196011500Y-37897000D01*
G37*
G36*
X215061500Y-37897000D02*
G01*
X213562500Y-37897000D01*
X213562500Y-36398000D01*
X215061500Y-36398000D01*
X215061500Y-37897000D01*
X215061500Y-37897000D01*
G37*
G36*
X232921500Y-37897000D02*
G01*
X231422500Y-37897000D01*
X231422500Y-36398000D01*
X232921500Y-36398000D01*
X232921500Y-37897000D01*
X232921500Y-37897000D01*
G37*
G36*
X235302500Y-37897000D02*
G01*
X233803500Y-37897000D01*
X233803500Y-36398000D01*
X235302500Y-36398000D01*
X235302500Y-37897000D01*
X235302500Y-37897000D01*
G37*
G36*
X175771500Y-37897000D02*
G01*
X174272500Y-37897000D01*
X174272500Y-36398000D01*
X175771500Y-36398000D01*
X175771500Y-37897000D01*
X175771500Y-37897000D01*
G37*
G36*
X214838000Y-35813500D02*
G01*
X213786000Y-35813500D01*
X213786000Y-34411500D01*
X214838000Y-34411500D01*
X214838000Y-35813500D01*
X214838000Y-35813500D01*
G37*
G36*
X175548000Y-35813500D02*
G01*
X174496000Y-35813500D01*
X174496000Y-34411500D01*
X175548000Y-34411500D01*
X175548000Y-35813500D01*
X175548000Y-35813500D01*
G37*
G36*
X232698000Y-35813500D02*
G01*
X231646000Y-35813500D01*
X231646000Y-34411500D01*
X232698000Y-34411500D01*
X232698000Y-35813500D01*
X232698000Y-35813500D01*
G37*
G36*
X235079000Y-35813500D02*
G01*
X234027000Y-35813500D01*
X234027000Y-34411500D01*
X235079000Y-34411500D01*
X235079000Y-35813500D01*
X235079000Y-35813500D01*
G37*
G36*
X177929000Y-35813500D02*
G01*
X176877000Y-35813500D01*
X176877000Y-34411500D01*
X177929000Y-34411500D01*
X177929000Y-35813500D01*
X177929000Y-35813500D01*
G37*
G36*
X251748000Y-35813500D02*
G01*
X250696000Y-35813500D01*
X250696000Y-34411500D01*
X251748000Y-34411500D01*
X251748000Y-35813500D01*
X251748000Y-35813500D01*
G37*
G36*
X195788000Y-35813500D02*
G01*
X194736000Y-35813500D01*
X194736000Y-34411500D01*
X195788000Y-34411500D01*
X195788000Y-35813500D01*
X195788000Y-35813500D01*
G37*
G36*
X254129000Y-35813500D02*
G01*
X253077000Y-35813500D01*
X253077000Y-34411500D01*
X254129000Y-34411500D01*
X254129000Y-35813500D01*
X254129000Y-35813500D01*
G37*
G36*
X157351890Y-31834017D02*
G01*
X157470364Y-31883091D01*
X157576988Y-31954335D01*
X157667665Y-32045012D01*
X157738909Y-32151636D01*
X157787983Y-32270110D01*
X157813000Y-32395882D01*
X157813000Y-32524118D01*
X157787983Y-32649890D01*
X157738909Y-32768364D01*
X157667665Y-32874988D01*
X157576988Y-32965665D01*
X157470364Y-33036909D01*
X157470363Y-33036910D01*
X157470362Y-33036910D01*
X157351890Y-33085983D01*
X157226119Y-33111000D01*
X157097881Y-33111000D01*
X156972110Y-33085983D01*
X156853638Y-33036910D01*
X156853637Y-33036910D01*
X156853636Y-33036909D01*
X156747012Y-32965665D01*
X156656335Y-32874988D01*
X156585091Y-32768364D01*
X156536017Y-32649890D01*
X156511000Y-32524118D01*
X156511000Y-32395882D01*
X156536017Y-32270110D01*
X156585091Y-32151636D01*
X156656335Y-32045012D01*
X156747012Y-31954335D01*
X156853636Y-31883091D01*
X156972110Y-31834017D01*
X157097881Y-31809000D01*
X157226119Y-31809000D01*
X157351890Y-31834017D01*
X157351890Y-31834017D01*
G37*
G36*
X254129000Y-32263500D02*
G01*
X253077000Y-32263500D01*
X253077000Y-30861500D01*
X254129000Y-30861500D01*
X254129000Y-32263500D01*
X254129000Y-32263500D01*
G37*
G36*
X251748000Y-32263500D02*
G01*
X250696000Y-32263500D01*
X250696000Y-30861500D01*
X251748000Y-30861500D01*
X251748000Y-32263500D01*
X251748000Y-32263500D01*
G37*
G36*
X235079000Y-32263500D02*
G01*
X234027000Y-32263500D01*
X234027000Y-30861500D01*
X235079000Y-30861500D01*
X235079000Y-32263500D01*
X235079000Y-32263500D01*
G37*
G36*
X232698000Y-32263500D02*
G01*
X231646000Y-32263500D01*
X231646000Y-30861500D01*
X232698000Y-30861500D01*
X232698000Y-32263500D01*
X232698000Y-32263500D01*
G37*
G36*
X214838000Y-32263500D02*
G01*
X213786000Y-32263500D01*
X213786000Y-30861500D01*
X214838000Y-30861500D01*
X214838000Y-32263500D01*
X214838000Y-32263500D01*
G37*
G36*
X195788000Y-32263500D02*
G01*
X194736000Y-32263500D01*
X194736000Y-30861500D01*
X195788000Y-30861500D01*
X195788000Y-32263500D01*
X195788000Y-32263500D01*
G37*
G36*
X177929000Y-32263500D02*
G01*
X176877000Y-32263500D01*
X176877000Y-30861500D01*
X177929000Y-30861500D01*
X177929000Y-32263500D01*
X177929000Y-32263500D01*
G37*
G36*
X175548000Y-32263500D02*
G01*
X174496000Y-32263500D01*
X174496000Y-30861500D01*
X175548000Y-30861500D01*
X175548000Y-32263500D01*
X175548000Y-32263500D01*
G37*
G36*
X183429560Y-28176564D02*
G01*
X183581027Y-28206693D01*
X183795045Y-28295342D01*
X183795046Y-28295343D01*
X183987654Y-28424039D01*
X184151461Y-28587846D01*
X184237258Y-28716251D01*
X184280158Y-28780455D01*
X184368807Y-28994473D01*
X184368807Y-28994475D01*
X184414000Y-29221673D01*
X184414000Y-29453327D01*
X184398936Y-29529060D01*
X184368807Y-29680527D01*
X184280158Y-29894545D01*
X184280157Y-29894546D01*
X184151461Y-30087154D01*
X183987654Y-30250961D01*
X183859249Y-30336758D01*
X183795045Y-30379658D01*
X183581027Y-30468307D01*
X183429560Y-30498436D01*
X183353827Y-30513500D01*
X183122173Y-30513500D01*
X183046440Y-30498436D01*
X182894973Y-30468307D01*
X182680955Y-30379658D01*
X182616751Y-30336758D01*
X182488346Y-30250961D01*
X182324539Y-30087154D01*
X182195843Y-29894546D01*
X182195842Y-29894545D01*
X182107193Y-29680527D01*
X182077064Y-29529060D01*
X182062000Y-29453327D01*
X182062000Y-29221673D01*
X182107193Y-28994475D01*
X182107193Y-28994473D01*
X182195842Y-28780455D01*
X182238742Y-28716251D01*
X182324539Y-28587846D01*
X182488346Y-28424039D01*
X182680954Y-28295343D01*
X182680955Y-28295342D01*
X182894973Y-28206693D01*
X183046440Y-28176564D01*
X183122173Y-28161500D01*
X183353827Y-28161500D01*
X183429560Y-28176564D01*
X183429560Y-28176564D01*
G37*
G36*
X283441560Y-28176564D02*
G01*
X283593027Y-28206693D01*
X283807045Y-28295342D01*
X283807046Y-28295343D01*
X283999654Y-28424039D01*
X284163461Y-28587846D01*
X284249258Y-28716251D01*
X284292158Y-28780455D01*
X284380807Y-28994473D01*
X284380807Y-28994475D01*
X284426000Y-29221673D01*
X284426000Y-29453327D01*
X284410936Y-29529060D01*
X284380807Y-29680527D01*
X284292158Y-29894545D01*
X284292157Y-29894546D01*
X284163461Y-30087154D01*
X283999654Y-30250961D01*
X283871249Y-30336758D01*
X283807045Y-30379658D01*
X283593027Y-30468307D01*
X283441560Y-30498436D01*
X283365827Y-30513500D01*
X283134173Y-30513500D01*
X283058440Y-30498436D01*
X282906973Y-30468307D01*
X282692955Y-30379658D01*
X282628751Y-30336758D01*
X282500346Y-30250961D01*
X282336539Y-30087154D01*
X282207843Y-29894546D01*
X282207842Y-29894545D01*
X282119193Y-29680527D01*
X282089064Y-29529060D01*
X282074000Y-29453327D01*
X282074000Y-29221673D01*
X282119193Y-28994475D01*
X282119193Y-28994473D01*
X282207842Y-28780455D01*
X282250742Y-28716251D01*
X282336539Y-28587846D01*
X282500346Y-28424039D01*
X282692954Y-28295343D01*
X282692955Y-28295342D01*
X282906973Y-28206693D01*
X283058440Y-28176564D01*
X283134173Y-28161500D01*
X283365827Y-28161500D01*
X283441560Y-28176564D01*
X283441560Y-28176564D01*
G37*
G36*
X259629560Y-28176564D02*
G01*
X259781027Y-28206693D01*
X259995045Y-28295342D01*
X259995046Y-28295343D01*
X260187654Y-28424039D01*
X260351461Y-28587846D01*
X260437258Y-28716251D01*
X260480158Y-28780455D01*
X260568807Y-28994473D01*
X260568807Y-28994475D01*
X260614000Y-29221673D01*
X260614000Y-29453327D01*
X260598936Y-29529060D01*
X260568807Y-29680527D01*
X260480158Y-29894545D01*
X260480157Y-29894546D01*
X260351461Y-30087154D01*
X260187654Y-30250961D01*
X260059249Y-30336758D01*
X259995045Y-30379658D01*
X259781027Y-30468307D01*
X259629560Y-30498436D01*
X259553827Y-30513500D01*
X259322173Y-30513500D01*
X259246440Y-30498436D01*
X259094973Y-30468307D01*
X258880955Y-30379658D01*
X258816751Y-30336758D01*
X258688346Y-30250961D01*
X258524539Y-30087154D01*
X258395843Y-29894546D01*
X258395842Y-29894545D01*
X258307193Y-29680527D01*
X258277064Y-29529060D01*
X258262000Y-29453327D01*
X258262000Y-29221673D01*
X258307193Y-28994475D01*
X258307193Y-28994473D01*
X258395842Y-28780455D01*
X258438742Y-28716251D01*
X258524539Y-28587846D01*
X258688346Y-28424039D01*
X258880954Y-28295343D01*
X258880955Y-28295342D01*
X259094973Y-28206693D01*
X259246440Y-28176564D01*
X259322173Y-28161500D01*
X259553827Y-28161500D01*
X259629560Y-28176564D01*
X259629560Y-28176564D01*
G37*
G36*
X240579560Y-28176564D02*
G01*
X240731027Y-28206693D01*
X240945045Y-28295342D01*
X240945046Y-28295343D01*
X241137654Y-28424039D01*
X241301461Y-28587846D01*
X241387258Y-28716251D01*
X241430158Y-28780455D01*
X241518807Y-28994473D01*
X241518807Y-28994475D01*
X241564000Y-29221673D01*
X241564000Y-29453327D01*
X241548936Y-29529060D01*
X241518807Y-29680527D01*
X241430158Y-29894545D01*
X241430157Y-29894546D01*
X241301461Y-30087154D01*
X241137654Y-30250961D01*
X241009249Y-30336758D01*
X240945045Y-30379658D01*
X240731027Y-30468307D01*
X240579560Y-30498436D01*
X240503827Y-30513500D01*
X240272173Y-30513500D01*
X240196440Y-30498436D01*
X240044973Y-30468307D01*
X239830955Y-30379658D01*
X239766751Y-30336758D01*
X239638346Y-30250961D01*
X239474539Y-30087154D01*
X239345843Y-29894546D01*
X239345842Y-29894545D01*
X239257193Y-29680527D01*
X239227064Y-29529060D01*
X239212000Y-29453327D01*
X239212000Y-29221673D01*
X239257193Y-28994475D01*
X239257193Y-28994473D01*
X239345842Y-28780455D01*
X239388742Y-28716251D01*
X239474539Y-28587846D01*
X239638346Y-28424039D01*
X239830954Y-28295343D01*
X239830955Y-28295342D01*
X240044973Y-28206693D01*
X240196440Y-28176564D01*
X240272173Y-28161500D01*
X240503827Y-28161500D01*
X240579560Y-28176564D01*
X240579560Y-28176564D01*
G37*
G36*
X221529560Y-28176564D02*
G01*
X221681027Y-28206693D01*
X221895045Y-28295342D01*
X221895046Y-28295343D01*
X222087654Y-28424039D01*
X222251461Y-28587846D01*
X222337258Y-28716251D01*
X222380158Y-28780455D01*
X222468807Y-28994473D01*
X222468807Y-28994475D01*
X222514000Y-29221673D01*
X222514000Y-29453327D01*
X222498936Y-29529060D01*
X222468807Y-29680527D01*
X222380158Y-29894545D01*
X222380157Y-29894546D01*
X222251461Y-30087154D01*
X222087654Y-30250961D01*
X221959249Y-30336758D01*
X221895045Y-30379658D01*
X221681027Y-30468307D01*
X221529560Y-30498436D01*
X221453827Y-30513500D01*
X221222173Y-30513500D01*
X221146440Y-30498436D01*
X220994973Y-30468307D01*
X220780955Y-30379658D01*
X220716751Y-30336758D01*
X220588346Y-30250961D01*
X220424539Y-30087154D01*
X220295843Y-29894546D01*
X220295842Y-29894545D01*
X220207193Y-29680527D01*
X220177064Y-29529060D01*
X220162000Y-29453327D01*
X220162000Y-29221673D01*
X220207193Y-28994475D01*
X220207193Y-28994473D01*
X220295842Y-28780455D01*
X220338742Y-28716251D01*
X220424539Y-28587846D01*
X220588346Y-28424039D01*
X220780954Y-28295343D01*
X220780955Y-28295342D01*
X220994973Y-28206693D01*
X221146440Y-28176564D01*
X221222173Y-28161500D01*
X221453827Y-28161500D01*
X221529560Y-28176564D01*
X221529560Y-28176564D01*
G37*
G36*
X202479560Y-28176564D02*
G01*
X202631027Y-28206693D01*
X202845045Y-28295342D01*
X202845046Y-28295343D01*
X203037654Y-28424039D01*
X203201461Y-28587846D01*
X203287258Y-28716251D01*
X203330158Y-28780455D01*
X203418807Y-28994473D01*
X203418807Y-28994475D01*
X203464000Y-29221673D01*
X203464000Y-29453327D01*
X203448936Y-29529060D01*
X203418807Y-29680527D01*
X203330158Y-29894545D01*
X203330157Y-29894546D01*
X203201461Y-30087154D01*
X203037654Y-30250961D01*
X202909249Y-30336758D01*
X202845045Y-30379658D01*
X202631027Y-30468307D01*
X202479560Y-30498436D01*
X202403827Y-30513500D01*
X202172173Y-30513500D01*
X202096440Y-30498436D01*
X201944973Y-30468307D01*
X201730955Y-30379658D01*
X201666751Y-30336758D01*
X201538346Y-30250961D01*
X201374539Y-30087154D01*
X201245843Y-29894546D01*
X201245842Y-29894545D01*
X201157193Y-29680527D01*
X201127064Y-29529060D01*
X201112000Y-29453327D01*
X201112000Y-29221673D01*
X201157193Y-28994475D01*
X201157193Y-28994473D01*
X201245842Y-28780455D01*
X201288742Y-28716251D01*
X201374539Y-28587846D01*
X201538346Y-28424039D01*
X201730954Y-28295343D01*
X201730955Y-28295342D01*
X201944973Y-28206693D01*
X202096440Y-28176564D01*
X202172173Y-28161500D01*
X202403827Y-28161500D01*
X202479560Y-28176564D01*
X202479560Y-28176564D01*
G37*
G36*
X164379560Y-28176564D02*
G01*
X164531027Y-28206693D01*
X164745045Y-28295342D01*
X164745046Y-28295343D01*
X164937654Y-28424039D01*
X165101461Y-28587846D01*
X165187258Y-28716251D01*
X165230158Y-28780455D01*
X165318807Y-28994473D01*
X165318807Y-28994475D01*
X165364000Y-29221673D01*
X165364000Y-29453327D01*
X165348936Y-29529060D01*
X165318807Y-29680527D01*
X165230158Y-29894545D01*
X165230157Y-29894546D01*
X165101461Y-30087154D01*
X164937654Y-30250961D01*
X164809249Y-30336758D01*
X164745045Y-30379658D01*
X164531027Y-30468307D01*
X164379560Y-30498436D01*
X164303827Y-30513500D01*
X164072173Y-30513500D01*
X163996440Y-30498436D01*
X163844973Y-30468307D01*
X163630955Y-30379658D01*
X163566751Y-30336758D01*
X163438346Y-30250961D01*
X163274539Y-30087154D01*
X163145843Y-29894546D01*
X163145842Y-29894545D01*
X163057193Y-29680527D01*
X163027064Y-29529060D01*
X163012000Y-29453327D01*
X163012000Y-29221673D01*
X163057193Y-28994475D01*
X163057193Y-28994473D01*
X163145842Y-28780455D01*
X163188742Y-28716251D01*
X163274539Y-28587846D01*
X163438346Y-28424039D01*
X163630954Y-28295343D01*
X163630955Y-28295342D01*
X163844973Y-28206693D01*
X163996440Y-28176564D01*
X164072173Y-28161500D01*
X164303827Y-28161500D01*
X164379560Y-28176564D01*
X164379560Y-28176564D01*
G37*
G36*
X145329560Y-28176564D02*
G01*
X145481027Y-28206693D01*
X145695045Y-28295342D01*
X145695046Y-28295343D01*
X145887654Y-28424039D01*
X146051461Y-28587846D01*
X146137258Y-28716251D01*
X146180158Y-28780455D01*
X146268807Y-28994473D01*
X146268807Y-28994475D01*
X146314000Y-29221673D01*
X146314000Y-29453327D01*
X146298936Y-29529060D01*
X146268807Y-29680527D01*
X146180158Y-29894545D01*
X146180157Y-29894546D01*
X146051461Y-30087154D01*
X145887654Y-30250961D01*
X145759249Y-30336758D01*
X145695045Y-30379658D01*
X145481027Y-30468307D01*
X145329560Y-30498436D01*
X145253827Y-30513500D01*
X145022173Y-30513500D01*
X144946440Y-30498436D01*
X144794973Y-30468307D01*
X144580955Y-30379658D01*
X144516751Y-30336758D01*
X144388346Y-30250961D01*
X144224539Y-30087154D01*
X144095843Y-29894546D01*
X144095842Y-29894545D01*
X144007193Y-29680527D01*
X143977064Y-29529060D01*
X143962000Y-29453327D01*
X143962000Y-29221673D01*
X144007193Y-28994475D01*
X144007193Y-28994473D01*
X144095842Y-28780455D01*
X144138742Y-28716251D01*
X144224539Y-28587846D01*
X144388346Y-28424039D01*
X144580954Y-28295343D01*
X144580955Y-28295342D01*
X144794973Y-28206693D01*
X144946440Y-28176564D01*
X145022173Y-28161500D01*
X145253827Y-28161500D01*
X145329560Y-28176564D01*
X145329560Y-28176564D01*
G37*
G36*
X175108162Y-28780455D02*
G01*
X175240621Y-28806802D01*
X175377022Y-28863301D01*
X175499779Y-28945325D01*
X175604175Y-29049721D01*
X175686199Y-29172478D01*
X175742698Y-29308879D01*
X175767401Y-29433075D01*
X175771430Y-29453326D01*
X175771500Y-29453681D01*
X175771500Y-29601319D01*
X175742698Y-29746121D01*
X175686199Y-29882522D01*
X175604175Y-30005279D01*
X175499779Y-30109675D01*
X175377022Y-30191699D01*
X175240621Y-30248198D01*
X175116425Y-30272901D01*
X175095820Y-30277000D01*
X174948180Y-30277000D01*
X174927575Y-30272901D01*
X174803379Y-30248198D01*
X174666978Y-30191699D01*
X174544221Y-30109675D01*
X174439825Y-30005279D01*
X174357801Y-29882522D01*
X174301302Y-29746121D01*
X174272500Y-29601319D01*
X174272500Y-29453681D01*
X174272571Y-29453326D01*
X174276599Y-29433075D01*
X174301302Y-29308879D01*
X174357801Y-29172478D01*
X174439825Y-29049721D01*
X174544221Y-28945325D01*
X174666978Y-28863301D01*
X174803379Y-28806802D01*
X174935838Y-28780455D01*
X174948180Y-28778000D01*
X175095820Y-28778000D01*
X175108162Y-28780455D01*
X175108162Y-28780455D01*
G37*
G36*
X195348162Y-28780455D02*
G01*
X195480621Y-28806802D01*
X195617022Y-28863301D01*
X195739779Y-28945325D01*
X195844175Y-29049721D01*
X195926199Y-29172478D01*
X195982698Y-29308879D01*
X196007401Y-29433075D01*
X196011430Y-29453326D01*
X196011500Y-29453681D01*
X196011500Y-29601319D01*
X195982698Y-29746121D01*
X195926199Y-29882522D01*
X195844175Y-30005279D01*
X195739779Y-30109675D01*
X195617022Y-30191699D01*
X195480621Y-30248198D01*
X195356425Y-30272901D01*
X195335820Y-30277000D01*
X195188180Y-30277000D01*
X195167575Y-30272901D01*
X195043379Y-30248198D01*
X194906978Y-30191699D01*
X194784221Y-30109675D01*
X194679825Y-30005279D01*
X194597801Y-29882522D01*
X194541302Y-29746121D01*
X194512500Y-29601319D01*
X194512500Y-29453681D01*
X194512571Y-29453326D01*
X194516599Y-29433075D01*
X194541302Y-29308879D01*
X194597801Y-29172478D01*
X194679825Y-29049721D01*
X194784221Y-28945325D01*
X194906978Y-28863301D01*
X195043379Y-28806802D01*
X195175838Y-28780455D01*
X195188180Y-28778000D01*
X195335820Y-28778000D01*
X195348162Y-28780455D01*
X195348162Y-28780455D01*
G37*
G36*
X253689162Y-28780455D02*
G01*
X253821621Y-28806802D01*
X253958022Y-28863301D01*
X254080779Y-28945325D01*
X254185175Y-29049721D01*
X254267199Y-29172478D01*
X254323698Y-29308879D01*
X254348401Y-29433075D01*
X254352430Y-29453326D01*
X254352500Y-29453681D01*
X254352500Y-29601319D01*
X254323698Y-29746121D01*
X254267199Y-29882522D01*
X254185175Y-30005279D01*
X254080779Y-30109675D01*
X253958022Y-30191699D01*
X253821621Y-30248198D01*
X253697425Y-30272901D01*
X253676820Y-30277000D01*
X253529180Y-30277000D01*
X253508575Y-30272901D01*
X253384379Y-30248198D01*
X253247978Y-30191699D01*
X253125221Y-30109675D01*
X253020825Y-30005279D01*
X252938801Y-29882522D01*
X252882302Y-29746121D01*
X252853500Y-29601319D01*
X252853500Y-29453681D01*
X252853571Y-29453326D01*
X252857599Y-29433075D01*
X252882302Y-29308879D01*
X252938801Y-29172478D01*
X253020825Y-29049721D01*
X253125221Y-28945325D01*
X253247978Y-28863301D01*
X253384379Y-28806802D01*
X253516838Y-28780455D01*
X253529180Y-28778000D01*
X253676820Y-28778000D01*
X253689162Y-28780455D01*
X253689162Y-28780455D01*
G37*
G36*
X251308162Y-28780455D02*
G01*
X251440621Y-28806802D01*
X251577022Y-28863301D01*
X251699779Y-28945325D01*
X251804175Y-29049721D01*
X251886199Y-29172478D01*
X251942698Y-29308879D01*
X251967401Y-29433075D01*
X251971430Y-29453326D01*
X251971500Y-29453681D01*
X251971500Y-29601319D01*
X251942698Y-29746121D01*
X251886199Y-29882522D01*
X251804175Y-30005279D01*
X251699779Y-30109675D01*
X251577022Y-30191699D01*
X251440621Y-30248198D01*
X251316425Y-30272901D01*
X251295820Y-30277000D01*
X251148180Y-30277000D01*
X251127575Y-30272901D01*
X251003379Y-30248198D01*
X250866978Y-30191699D01*
X250744221Y-30109675D01*
X250639825Y-30005279D01*
X250557801Y-29882522D01*
X250501302Y-29746121D01*
X250472500Y-29601319D01*
X250472500Y-29453681D01*
X250472571Y-29453326D01*
X250476599Y-29433075D01*
X250501302Y-29308879D01*
X250557801Y-29172478D01*
X250639825Y-29049721D01*
X250744221Y-28945325D01*
X250866978Y-28863301D01*
X251003379Y-28806802D01*
X251135838Y-28780455D01*
X251148180Y-28778000D01*
X251295820Y-28778000D01*
X251308162Y-28780455D01*
X251308162Y-28780455D01*
G37*
G36*
X234639162Y-28780455D02*
G01*
X234771621Y-28806802D01*
X234908022Y-28863301D01*
X235030779Y-28945325D01*
X235135175Y-29049721D01*
X235217199Y-29172478D01*
X235273698Y-29308879D01*
X235298401Y-29433075D01*
X235302430Y-29453326D01*
X235302500Y-29453681D01*
X235302500Y-29601319D01*
X235273698Y-29746121D01*
X235217199Y-29882522D01*
X235135175Y-30005279D01*
X235030779Y-30109675D01*
X234908022Y-30191699D01*
X234771621Y-30248198D01*
X234647425Y-30272901D01*
X234626820Y-30277000D01*
X234479180Y-30277000D01*
X234458575Y-30272901D01*
X234334379Y-30248198D01*
X234197978Y-30191699D01*
X234075221Y-30109675D01*
X233970825Y-30005279D01*
X233888801Y-29882522D01*
X233832302Y-29746121D01*
X233803500Y-29601319D01*
X233803500Y-29453681D01*
X233803571Y-29453326D01*
X233807599Y-29433075D01*
X233832302Y-29308879D01*
X233888801Y-29172478D01*
X233970825Y-29049721D01*
X234075221Y-28945325D01*
X234197978Y-28863301D01*
X234334379Y-28806802D01*
X234466838Y-28780455D01*
X234479180Y-28778000D01*
X234626820Y-28778000D01*
X234639162Y-28780455D01*
X234639162Y-28780455D01*
G37*
G36*
X232258162Y-28780455D02*
G01*
X232390621Y-28806802D01*
X232527022Y-28863301D01*
X232649779Y-28945325D01*
X232754175Y-29049721D01*
X232836199Y-29172478D01*
X232892698Y-29308879D01*
X232917401Y-29433075D01*
X232921430Y-29453326D01*
X232921500Y-29453681D01*
X232921500Y-29601319D01*
X232892698Y-29746121D01*
X232836199Y-29882522D01*
X232754175Y-30005279D01*
X232649779Y-30109675D01*
X232527022Y-30191699D01*
X232390621Y-30248198D01*
X232266425Y-30272901D01*
X232245820Y-30277000D01*
X232098180Y-30277000D01*
X232077575Y-30272901D01*
X231953379Y-30248198D01*
X231816978Y-30191699D01*
X231694221Y-30109675D01*
X231589825Y-30005279D01*
X231507801Y-29882522D01*
X231451302Y-29746121D01*
X231422500Y-29601319D01*
X231422500Y-29453681D01*
X231422571Y-29453326D01*
X231426599Y-29433075D01*
X231451302Y-29308879D01*
X231507801Y-29172478D01*
X231589825Y-29049721D01*
X231694221Y-28945325D01*
X231816978Y-28863301D01*
X231953379Y-28806802D01*
X232085838Y-28780455D01*
X232098180Y-28778000D01*
X232245820Y-28778000D01*
X232258162Y-28780455D01*
X232258162Y-28780455D01*
G37*
G36*
X214398162Y-28780455D02*
G01*
X214530621Y-28806802D01*
X214667022Y-28863301D01*
X214789779Y-28945325D01*
X214894175Y-29049721D01*
X214976199Y-29172478D01*
X215032698Y-29308879D01*
X215057401Y-29433075D01*
X215061430Y-29453326D01*
X215061500Y-29453681D01*
X215061500Y-29601319D01*
X215032698Y-29746121D01*
X214976199Y-29882522D01*
X214894175Y-30005279D01*
X214789779Y-30109675D01*
X214667022Y-30191699D01*
X214530621Y-30248198D01*
X214406425Y-30272901D01*
X214385820Y-30277000D01*
X214238180Y-30277000D01*
X214217575Y-30272901D01*
X214093379Y-30248198D01*
X213956978Y-30191699D01*
X213834221Y-30109675D01*
X213729825Y-30005279D01*
X213647801Y-29882522D01*
X213591302Y-29746121D01*
X213562500Y-29601319D01*
X213562500Y-29453681D01*
X213562571Y-29453326D01*
X213566599Y-29433075D01*
X213591302Y-29308879D01*
X213647801Y-29172478D01*
X213729825Y-29049721D01*
X213834221Y-28945325D01*
X213956978Y-28863301D01*
X214093379Y-28806802D01*
X214225838Y-28780455D01*
X214238180Y-28778000D01*
X214385820Y-28778000D01*
X214398162Y-28780455D01*
X214398162Y-28780455D01*
G37*
G36*
X177489162Y-28780455D02*
G01*
X177621621Y-28806802D01*
X177758022Y-28863301D01*
X177880779Y-28945325D01*
X177985175Y-29049721D01*
X178067199Y-29172478D01*
X178123698Y-29308879D01*
X178148401Y-29433075D01*
X178152430Y-29453326D01*
X178152500Y-29453681D01*
X178152500Y-29601319D01*
X178123698Y-29746121D01*
X178067199Y-29882522D01*
X177985175Y-30005279D01*
X177880779Y-30109675D01*
X177758022Y-30191699D01*
X177621621Y-30248198D01*
X177497425Y-30272901D01*
X177476820Y-30277000D01*
X177329180Y-30277000D01*
X177308575Y-30272901D01*
X177184379Y-30248198D01*
X177047978Y-30191699D01*
X176925221Y-30109675D01*
X176820825Y-30005279D01*
X176738801Y-29882522D01*
X176682302Y-29746121D01*
X176653500Y-29601319D01*
X176653500Y-29453681D01*
X176653571Y-29453326D01*
X176657599Y-29433075D01*
X176682302Y-29308879D01*
X176738801Y-29172478D01*
X176820825Y-29049721D01*
X176925221Y-28945325D01*
X177047978Y-28863301D01*
X177184379Y-28806802D01*
X177316838Y-28780455D01*
X177329180Y-28778000D01*
X177476820Y-28778000D01*
X177489162Y-28780455D01*
X177489162Y-28780455D01*
G37*
G36*
X288441560Y-27676564D02*
G01*
X288593027Y-27706693D01*
X288807045Y-27795342D01*
X288807046Y-27795343D01*
X288999654Y-27924039D01*
X289163461Y-28087846D01*
X289212675Y-28161500D01*
X289292158Y-28280455D01*
X289380807Y-28494473D01*
X289426000Y-28721674D01*
X289426000Y-28953326D01*
X289380807Y-29180527D01*
X289292158Y-29394545D01*
X289292157Y-29394546D01*
X289163461Y-29587154D01*
X288999654Y-29750961D01*
X288871249Y-29836758D01*
X288807045Y-29879658D01*
X288593027Y-29968307D01*
X288441560Y-29998436D01*
X288365827Y-30013500D01*
X288134173Y-30013500D01*
X288058440Y-29998436D01*
X287906973Y-29968307D01*
X287692955Y-29879658D01*
X287628751Y-29836758D01*
X287500346Y-29750961D01*
X287336539Y-29587154D01*
X287207843Y-29394546D01*
X287207842Y-29394545D01*
X287119193Y-29180527D01*
X287074000Y-28953326D01*
X287074000Y-28721674D01*
X287119193Y-28494473D01*
X287207842Y-28280455D01*
X287287325Y-28161500D01*
X287336539Y-28087846D01*
X287500346Y-27924039D01*
X287692954Y-27795343D01*
X287692955Y-27795342D01*
X287906973Y-27706693D01*
X288058440Y-27676564D01*
X288134173Y-27661500D01*
X288365827Y-27661500D01*
X288441560Y-27676564D01*
X288441560Y-27676564D01*
G37*
G36*
X264629560Y-27676564D02*
G01*
X264781027Y-27706693D01*
X264995045Y-27795342D01*
X264995046Y-27795343D01*
X265187654Y-27924039D01*
X265351461Y-28087846D01*
X265400675Y-28161500D01*
X265480158Y-28280455D01*
X265568807Y-28494473D01*
X265614000Y-28721674D01*
X265614000Y-28953326D01*
X265568807Y-29180527D01*
X265480158Y-29394545D01*
X265480157Y-29394546D01*
X265351461Y-29587154D01*
X265187654Y-29750961D01*
X265059249Y-29836758D01*
X264995045Y-29879658D01*
X264781027Y-29968307D01*
X264629560Y-29998436D01*
X264553827Y-30013500D01*
X264322173Y-30013500D01*
X264246440Y-29998436D01*
X264094973Y-29968307D01*
X263880955Y-29879658D01*
X263816751Y-29836758D01*
X263688346Y-29750961D01*
X263524539Y-29587154D01*
X263395843Y-29394546D01*
X263395842Y-29394545D01*
X263307193Y-29180527D01*
X263262000Y-28953326D01*
X263262000Y-28721674D01*
X263307193Y-28494473D01*
X263395842Y-28280455D01*
X263475325Y-28161500D01*
X263524539Y-28087846D01*
X263688346Y-27924039D01*
X263880954Y-27795343D01*
X263880955Y-27795342D01*
X264094973Y-27706693D01*
X264246440Y-27676564D01*
X264322173Y-27661500D01*
X264553827Y-27661500D01*
X264629560Y-27676564D01*
X264629560Y-27676564D01*
G37*
G36*
X245579560Y-27676564D02*
G01*
X245731027Y-27706693D01*
X245945045Y-27795342D01*
X245945046Y-27795343D01*
X246137654Y-27924039D01*
X246301461Y-28087846D01*
X246350675Y-28161500D01*
X246430158Y-28280455D01*
X246518807Y-28494473D01*
X246564000Y-28721674D01*
X246564000Y-28953326D01*
X246518807Y-29180527D01*
X246430158Y-29394545D01*
X246430157Y-29394546D01*
X246301461Y-29587154D01*
X246137654Y-29750961D01*
X246009249Y-29836758D01*
X245945045Y-29879658D01*
X245731027Y-29968307D01*
X245579560Y-29998436D01*
X245503827Y-30013500D01*
X245272173Y-30013500D01*
X245196440Y-29998436D01*
X245044973Y-29968307D01*
X244830955Y-29879658D01*
X244766751Y-29836758D01*
X244638346Y-29750961D01*
X244474539Y-29587154D01*
X244345843Y-29394546D01*
X244345842Y-29394545D01*
X244257193Y-29180527D01*
X244212000Y-28953326D01*
X244212000Y-28721674D01*
X244257193Y-28494473D01*
X244345842Y-28280455D01*
X244425325Y-28161500D01*
X244474539Y-28087846D01*
X244638346Y-27924039D01*
X244830954Y-27795343D01*
X244830955Y-27795342D01*
X245044973Y-27706693D01*
X245196440Y-27676564D01*
X245272173Y-27661500D01*
X245503827Y-27661500D01*
X245579560Y-27676564D01*
X245579560Y-27676564D01*
G37*
G36*
X226529560Y-27676564D02*
G01*
X226681027Y-27706693D01*
X226895045Y-27795342D01*
X226895046Y-27795343D01*
X227087654Y-27924039D01*
X227251461Y-28087846D01*
X227300675Y-28161500D01*
X227380158Y-28280455D01*
X227468807Y-28494473D01*
X227514000Y-28721674D01*
X227514000Y-28953326D01*
X227468807Y-29180527D01*
X227380158Y-29394545D01*
X227380157Y-29394546D01*
X227251461Y-29587154D01*
X227087654Y-29750961D01*
X226959249Y-29836758D01*
X226895045Y-29879658D01*
X226681027Y-29968307D01*
X226529560Y-29998436D01*
X226453827Y-30013500D01*
X226222173Y-30013500D01*
X226146440Y-29998436D01*
X225994973Y-29968307D01*
X225780955Y-29879658D01*
X225716751Y-29836758D01*
X225588346Y-29750961D01*
X225424539Y-29587154D01*
X225295843Y-29394546D01*
X225295842Y-29394545D01*
X225207193Y-29180527D01*
X225162000Y-28953326D01*
X225162000Y-28721674D01*
X225207193Y-28494473D01*
X225295842Y-28280455D01*
X225375325Y-28161500D01*
X225424539Y-28087846D01*
X225588346Y-27924039D01*
X225780954Y-27795343D01*
X225780955Y-27795342D01*
X225994973Y-27706693D01*
X226146440Y-27676564D01*
X226222173Y-27661500D01*
X226453827Y-27661500D01*
X226529560Y-27676564D01*
X226529560Y-27676564D01*
G37*
G36*
X207479560Y-27676564D02*
G01*
X207631027Y-27706693D01*
X207845045Y-27795342D01*
X207845046Y-27795343D01*
X208037654Y-27924039D01*
X208201461Y-28087846D01*
X208250675Y-28161500D01*
X208330158Y-28280455D01*
X208418807Y-28494473D01*
X208464000Y-28721674D01*
X208464000Y-28953326D01*
X208418807Y-29180527D01*
X208330158Y-29394545D01*
X208330157Y-29394546D01*
X208201461Y-29587154D01*
X208037654Y-29750961D01*
X207909249Y-29836758D01*
X207845045Y-29879658D01*
X207631027Y-29968307D01*
X207479560Y-29998436D01*
X207403827Y-30013500D01*
X207172173Y-30013500D01*
X207096440Y-29998436D01*
X206944973Y-29968307D01*
X206730955Y-29879658D01*
X206666751Y-29836758D01*
X206538346Y-29750961D01*
X206374539Y-29587154D01*
X206245843Y-29394546D01*
X206245842Y-29394545D01*
X206157193Y-29180527D01*
X206112000Y-28953326D01*
X206112000Y-28721674D01*
X206157193Y-28494473D01*
X206245842Y-28280455D01*
X206325325Y-28161500D01*
X206374539Y-28087846D01*
X206538346Y-27924039D01*
X206730954Y-27795343D01*
X206730955Y-27795342D01*
X206944973Y-27706693D01*
X207096440Y-27676564D01*
X207172173Y-27661500D01*
X207403827Y-27661500D01*
X207479560Y-27676564D01*
X207479560Y-27676564D01*
G37*
G36*
X188429560Y-27676564D02*
G01*
X188581027Y-27706693D01*
X188795045Y-27795342D01*
X188795046Y-27795343D01*
X188987654Y-27924039D01*
X189151461Y-28087846D01*
X189200675Y-28161500D01*
X189280158Y-28280455D01*
X189368807Y-28494473D01*
X189414000Y-28721674D01*
X189414000Y-28953326D01*
X189368807Y-29180527D01*
X189280158Y-29394545D01*
X189280157Y-29394546D01*
X189151461Y-29587154D01*
X188987654Y-29750961D01*
X188859249Y-29836758D01*
X188795045Y-29879658D01*
X188581027Y-29968307D01*
X188429560Y-29998436D01*
X188353827Y-30013500D01*
X188122173Y-30013500D01*
X188046440Y-29998436D01*
X187894973Y-29968307D01*
X187680955Y-29879658D01*
X187616751Y-29836758D01*
X187488346Y-29750961D01*
X187324539Y-29587154D01*
X187195843Y-29394546D01*
X187195842Y-29394545D01*
X187107193Y-29180527D01*
X187062000Y-28953326D01*
X187062000Y-28721674D01*
X187107193Y-28494473D01*
X187195842Y-28280455D01*
X187275325Y-28161500D01*
X187324539Y-28087846D01*
X187488346Y-27924039D01*
X187680954Y-27795343D01*
X187680955Y-27795342D01*
X187894973Y-27706693D01*
X188046440Y-27676564D01*
X188122173Y-27661500D01*
X188353827Y-27661500D01*
X188429560Y-27676564D01*
X188429560Y-27676564D01*
G37*
G36*
X169379560Y-27676564D02*
G01*
X169531027Y-27706693D01*
X169745045Y-27795342D01*
X169745046Y-27795343D01*
X169937654Y-27924039D01*
X170101461Y-28087846D01*
X170150675Y-28161500D01*
X170230158Y-28280455D01*
X170318807Y-28494473D01*
X170364000Y-28721674D01*
X170364000Y-28953326D01*
X170318807Y-29180527D01*
X170230158Y-29394545D01*
X170230157Y-29394546D01*
X170101461Y-29587154D01*
X169937654Y-29750961D01*
X169809249Y-29836758D01*
X169745045Y-29879658D01*
X169531027Y-29968307D01*
X169379560Y-29998436D01*
X169303827Y-30013500D01*
X169072173Y-30013500D01*
X168996440Y-29998436D01*
X168844973Y-29968307D01*
X168630955Y-29879658D01*
X168566751Y-29836758D01*
X168438346Y-29750961D01*
X168274539Y-29587154D01*
X168145843Y-29394546D01*
X168145842Y-29394545D01*
X168057193Y-29180527D01*
X168012000Y-28953326D01*
X168012000Y-28721674D01*
X168057193Y-28494473D01*
X168145842Y-28280455D01*
X168225325Y-28161500D01*
X168274539Y-28087846D01*
X168438346Y-27924039D01*
X168630954Y-27795343D01*
X168630955Y-27795342D01*
X168844973Y-27706693D01*
X168996440Y-27676564D01*
X169072173Y-27661500D01*
X169303827Y-27661500D01*
X169379560Y-27676564D01*
X169379560Y-27676564D01*
G37*
G36*
X150329560Y-27676564D02*
G01*
X150481027Y-27706693D01*
X150695045Y-27795342D01*
X150695046Y-27795343D01*
X150887654Y-27924039D01*
X151051461Y-28087846D01*
X151100675Y-28161500D01*
X151180158Y-28280455D01*
X151268807Y-28494473D01*
X151314000Y-28721674D01*
X151314000Y-28953326D01*
X151268807Y-29180527D01*
X151180158Y-29394545D01*
X151180157Y-29394546D01*
X151051461Y-29587154D01*
X150887654Y-29750961D01*
X150759249Y-29836758D01*
X150695045Y-29879658D01*
X150481027Y-29968307D01*
X150329560Y-29998436D01*
X150253827Y-30013500D01*
X150022173Y-30013500D01*
X149946440Y-29998436D01*
X149794973Y-29968307D01*
X149580955Y-29879658D01*
X149516751Y-29836758D01*
X149388346Y-29750961D01*
X149224539Y-29587154D01*
X149095843Y-29394546D01*
X149095842Y-29394545D01*
X149007193Y-29180527D01*
X148962000Y-28953326D01*
X148962000Y-28721674D01*
X149007193Y-28494473D01*
X149095842Y-28280455D01*
X149175325Y-28161500D01*
X149224539Y-28087846D01*
X149388346Y-27924039D01*
X149580954Y-27795343D01*
X149580955Y-27795342D01*
X149794973Y-27706693D01*
X149946440Y-27676564D01*
X150022173Y-27661500D01*
X150253827Y-27661500D01*
X150329560Y-27676564D01*
X150329560Y-27676564D01*
G37*
G36*
X157351890Y-24834017D02*
G01*
X157470364Y-24883091D01*
X157576988Y-24954335D01*
X157667665Y-25045012D01*
X157738909Y-25151636D01*
X157787983Y-25270110D01*
X157813000Y-25395882D01*
X157813000Y-25524118D01*
X157787983Y-25649890D01*
X157738909Y-25768364D01*
X157667665Y-25874988D01*
X157576988Y-25965665D01*
X157470364Y-26036909D01*
X157470363Y-26036910D01*
X157470362Y-26036910D01*
X157351890Y-26085983D01*
X157226119Y-26111000D01*
X157097881Y-26111000D01*
X156972110Y-26085983D01*
X156853638Y-26036910D01*
X156853637Y-26036910D01*
X156853636Y-26036909D01*
X156747012Y-25965665D01*
X156656335Y-25874988D01*
X156585091Y-25768364D01*
X156536017Y-25649890D01*
X156511000Y-25524118D01*
X156511000Y-25395882D01*
X156536017Y-25270110D01*
X156585091Y-25151636D01*
X156656335Y-25045012D01*
X156747012Y-24954335D01*
X156853636Y-24883091D01*
X156972110Y-24834017D01*
X157097881Y-24809000D01*
X157226119Y-24809000D01*
X157351890Y-24834017D01*
X157351890Y-24834017D01*
G37*
M02*
