G04 #@! TF.GenerationSoftware,KiCad,Pcbnew,(5.1.2-1)-1*
G04 #@! TF.CreationDate,2019-08-02T10:41:21+09:00*
G04 #@! TF.ProjectId,split-ask_right,73706c69-742d-4617-936b-5f7269676874,rev?*
G04 #@! TF.SameCoordinates,Original*
G04 #@! TF.FileFunction,Legend,Bot*
G04 #@! TF.FilePolarity,Positive*
%FSLAX46Y46*%
G04 Gerber Fmt 4.6, Leading zero omitted, Abs format (unit mm)*
G04 Created by KiCad (PCBNEW (5.1.2-1)-1) date 2019-08-02 10:41:21*
%MOMM*%
%LPD*%
G04 APERTURE LIST*
%ADD10C,0.150000*%
%ADD11C,0.120000*%
%ADD12C,0.125000*%
G04 APERTURE END LIST*
D10*
X175022000Y-33737500D02*
X174522000Y-32837500D01*
X174522000Y-32837500D02*
X175522000Y-32837500D01*
X175522000Y-32837500D02*
X175022000Y-33737500D01*
X174522000Y-33837500D02*
X175522000Y-33837500D01*
X174272000Y-30637500D02*
X174272000Y-36037500D01*
X174272000Y-36037500D02*
X175772000Y-36037500D01*
X175772000Y-36037500D02*
X175772000Y-30637500D01*
X175772000Y-30637500D02*
X174272000Y-30637500D01*
X178153000Y-30637500D02*
X176653000Y-30637500D01*
X178153000Y-36037500D02*
X178153000Y-30637500D01*
X176653000Y-36037500D02*
X178153000Y-36037500D01*
X176653000Y-30637500D02*
X176653000Y-36037500D01*
X176903000Y-33837500D02*
X177903000Y-33837500D01*
X177903000Y-32837500D02*
X177403000Y-33737500D01*
X176903000Y-32837500D02*
X177903000Y-32837500D01*
X177403000Y-33737500D02*
X176903000Y-32837500D01*
X195262000Y-33737500D02*
X194762000Y-32837500D01*
X194762000Y-32837500D02*
X195762000Y-32837500D01*
X195762000Y-32837500D02*
X195262000Y-33737500D01*
X194762000Y-33837500D02*
X195762000Y-33837500D01*
X194512000Y-30637500D02*
X194512000Y-36037500D01*
X194512000Y-36037500D02*
X196012000Y-36037500D01*
X196012000Y-36037500D02*
X196012000Y-30637500D01*
X196012000Y-30637500D02*
X194512000Y-30637500D01*
X215062000Y-30637500D02*
X213562000Y-30637500D01*
X215062000Y-36037500D02*
X215062000Y-30637500D01*
X213562000Y-36037500D02*
X215062000Y-36037500D01*
X213562000Y-30637500D02*
X213562000Y-36037500D01*
X213812000Y-33837500D02*
X214812000Y-33837500D01*
X214812000Y-32837500D02*
X214312000Y-33737500D01*
X213812000Y-32837500D02*
X214812000Y-32837500D01*
X214312000Y-33737500D02*
X213812000Y-32837500D01*
X232172000Y-33737500D02*
X231672000Y-32837500D01*
X231672000Y-32837500D02*
X232672000Y-32837500D01*
X232672000Y-32837500D02*
X232172000Y-33737500D01*
X231672000Y-33837500D02*
X232672000Y-33837500D01*
X231422000Y-30637500D02*
X231422000Y-36037500D01*
X231422000Y-36037500D02*
X232922000Y-36037500D01*
X232922000Y-36037500D02*
X232922000Y-30637500D01*
X232922000Y-30637500D02*
X231422000Y-30637500D01*
X235303000Y-30637500D02*
X233803000Y-30637500D01*
X235303000Y-36037500D02*
X235303000Y-30637500D01*
X233803000Y-36037500D02*
X235303000Y-36037500D01*
X233803000Y-30637500D02*
X233803000Y-36037500D01*
X234053000Y-33837500D02*
X235053000Y-33837500D01*
X235053000Y-32837500D02*
X234553000Y-33737500D01*
X234053000Y-32837500D02*
X235053000Y-32837500D01*
X234553000Y-33737500D02*
X234053000Y-32837500D01*
X251222000Y-33737500D02*
X250722000Y-32837500D01*
X250722000Y-32837500D02*
X251722000Y-32837500D01*
X251722000Y-32837500D02*
X251222000Y-33737500D01*
X250722000Y-33837500D02*
X251722000Y-33837500D01*
X250472000Y-30637500D02*
X250472000Y-36037500D01*
X250472000Y-36037500D02*
X251972000Y-36037500D01*
X251972000Y-36037500D02*
X251972000Y-30637500D01*
X251972000Y-30637500D02*
X250472000Y-30637500D01*
X254353000Y-30637500D02*
X252853000Y-30637500D01*
X254353000Y-36037500D02*
X254353000Y-30637500D01*
X252853000Y-36037500D02*
X254353000Y-36037500D01*
X252853000Y-30637500D02*
X252853000Y-36037500D01*
X253103000Y-33837500D02*
X254103000Y-33837500D01*
X254103000Y-32837500D02*
X253603000Y-33737500D01*
X253103000Y-32837500D02*
X254103000Y-32837500D01*
X253603000Y-33737500D02*
X253103000Y-32837500D01*
X166688000Y-52787500D02*
X166188000Y-51887500D01*
X166188000Y-51887500D02*
X167188000Y-51887500D01*
X167188000Y-51887500D02*
X166688000Y-52787500D01*
X166188000Y-52887500D02*
X167188000Y-52887500D01*
X165938000Y-49687500D02*
X165938000Y-55087500D01*
X165938000Y-55087500D02*
X167438000Y-55087500D01*
X167438000Y-55087500D02*
X167438000Y-49687500D01*
X167438000Y-49687500D02*
X165938000Y-49687500D01*
X186488000Y-49687500D02*
X184988000Y-49687500D01*
X186488000Y-55087500D02*
X186488000Y-49687500D01*
X184988000Y-55087500D02*
X186488000Y-55087500D01*
X184988000Y-49687500D02*
X184988000Y-55087500D01*
X185238000Y-52887500D02*
X186238000Y-52887500D01*
X186238000Y-51887500D02*
X185738000Y-52787500D01*
X185238000Y-51887500D02*
X186238000Y-51887500D01*
X185738000Y-52787500D02*
X185238000Y-51887500D01*
X204788000Y-52787500D02*
X204288000Y-51887500D01*
X204288000Y-51887500D02*
X205288000Y-51887500D01*
X205288000Y-51887500D02*
X204788000Y-52787500D01*
X204288000Y-52887500D02*
X205288000Y-52887500D01*
X204038000Y-49687500D02*
X204038000Y-55087500D01*
X204038000Y-55087500D02*
X205538000Y-55087500D01*
X205538000Y-55087500D02*
X205538000Y-49687500D01*
X205538000Y-49687500D02*
X204038000Y-49687500D01*
X224588000Y-49687500D02*
X223088000Y-49687500D01*
X224588000Y-55087500D02*
X224588000Y-49687500D01*
X223088000Y-55087500D02*
X224588000Y-55087500D01*
X223088000Y-49687500D02*
X223088000Y-55087500D01*
X223338000Y-52887500D02*
X224338000Y-52887500D01*
X224338000Y-51887500D02*
X223838000Y-52787500D01*
X223338000Y-51887500D02*
X224338000Y-51887500D01*
X223838000Y-52787500D02*
X223338000Y-51887500D01*
X242888000Y-52787500D02*
X242388000Y-51887500D01*
X242388000Y-51887500D02*
X243388000Y-51887500D01*
X243388000Y-51887500D02*
X242888000Y-52787500D01*
X242388000Y-52887500D02*
X243388000Y-52887500D01*
X242138000Y-49687500D02*
X242138000Y-55087500D01*
X242138000Y-55087500D02*
X243638000Y-55087500D01*
X243638000Y-55087500D02*
X243638000Y-49687500D01*
X243638000Y-49687500D02*
X242138000Y-49687500D01*
X262688000Y-49687500D02*
X261188000Y-49687500D01*
X262688000Y-55087500D02*
X262688000Y-49687500D01*
X261188000Y-55087500D02*
X262688000Y-55087500D01*
X261188000Y-49687500D02*
X261188000Y-55087500D01*
X261438000Y-52887500D02*
X262438000Y-52887500D01*
X262438000Y-51887500D02*
X261938000Y-52787500D01*
X261438000Y-51887500D02*
X262438000Y-51887500D01*
X261938000Y-52787500D02*
X261438000Y-51887500D01*
X279797000Y-52787500D02*
X279297000Y-51887500D01*
X279297000Y-51887500D02*
X280297000Y-51887500D01*
X280297000Y-51887500D02*
X279797000Y-52787500D01*
X279297000Y-52887500D02*
X280297000Y-52887500D01*
X279047000Y-49687500D02*
X279047000Y-55087500D01*
X279047000Y-55087500D02*
X280547000Y-55087500D01*
X280547000Y-55087500D02*
X280547000Y-49687500D01*
X280547000Y-49687500D02*
X279047000Y-49687500D01*
X282928000Y-49687500D02*
X281428000Y-49687500D01*
X282928000Y-55087500D02*
X282928000Y-49687500D01*
X281428000Y-55087500D02*
X282928000Y-55087500D01*
X281428000Y-49687500D02*
X281428000Y-55087500D01*
X281678000Y-52887500D02*
X282678000Y-52887500D01*
X282678000Y-51887500D02*
X282178000Y-52787500D01*
X281678000Y-51887500D02*
X282678000Y-51887500D01*
X282178000Y-52787500D02*
X281678000Y-51887500D01*
X171450000Y-71837500D02*
X170950000Y-70937500D01*
X170950000Y-70937500D02*
X171950000Y-70937500D01*
X171950000Y-70937500D02*
X171450000Y-71837500D01*
X170950000Y-71937500D02*
X171950000Y-71937500D01*
X170700000Y-68737500D02*
X170700000Y-74137500D01*
X170700000Y-74137500D02*
X172200000Y-74137500D01*
X172200000Y-74137500D02*
X172200000Y-68737500D01*
X172200000Y-68737500D02*
X170700000Y-68737500D01*
X191250000Y-68737500D02*
X189750000Y-68737500D01*
X191250000Y-74137500D02*
X191250000Y-68737500D01*
X189750000Y-74137500D02*
X191250000Y-74137500D01*
X189750000Y-68737500D02*
X189750000Y-74137500D01*
X190000000Y-71937500D02*
X191000000Y-71937500D01*
X191000000Y-70937500D02*
X190500000Y-71837500D01*
X190000000Y-70937500D02*
X191000000Y-70937500D01*
X190500000Y-71837500D02*
X190000000Y-70937500D01*
X209550000Y-71837500D02*
X209050000Y-70937500D01*
X209050000Y-70937500D02*
X210050000Y-70937500D01*
X210050000Y-70937500D02*
X209550000Y-71837500D01*
X209050000Y-71937500D02*
X210050000Y-71937500D01*
X208800000Y-68737500D02*
X208800000Y-74137500D01*
X208800000Y-74137500D02*
X210300000Y-74137500D01*
X210300000Y-74137500D02*
X210300000Y-68737500D01*
X210300000Y-68737500D02*
X208800000Y-68737500D01*
X229350000Y-68737500D02*
X227850000Y-68737500D01*
X229350000Y-74137500D02*
X229350000Y-68737500D01*
X227850000Y-74137500D02*
X229350000Y-74137500D01*
X227850000Y-68737500D02*
X227850000Y-74137500D01*
X228100000Y-71937500D02*
X229100000Y-71937500D01*
X229100000Y-70937500D02*
X228600000Y-71837500D01*
X228100000Y-70937500D02*
X229100000Y-70937500D01*
X228600000Y-71837500D02*
X228100000Y-70937500D01*
X247650000Y-71837500D02*
X247150000Y-70937500D01*
X247150000Y-70937500D02*
X248150000Y-70937500D01*
X248150000Y-70937500D02*
X247650000Y-71837500D01*
X247150000Y-71937500D02*
X248150000Y-71937500D01*
X246900000Y-68737500D02*
X246900000Y-74137500D01*
X246900000Y-74137500D02*
X248400000Y-74137500D01*
X248400000Y-74137500D02*
X248400000Y-68737500D01*
X248400000Y-68737500D02*
X246900000Y-68737500D01*
X267450000Y-68737500D02*
X265950000Y-68737500D01*
X267450000Y-74137500D02*
X267450000Y-68737500D01*
X265950000Y-74137500D02*
X267450000Y-74137500D01*
X265950000Y-68737500D02*
X265950000Y-74137500D01*
X266200000Y-71937500D02*
X267200000Y-71937500D01*
X267200000Y-70937500D02*
X266700000Y-71837500D01*
X266200000Y-70937500D02*
X267200000Y-70937500D01*
X266700000Y-71837500D02*
X266200000Y-70937500D01*
X180975000Y-90887500D02*
X180475000Y-89987500D01*
X180475000Y-89987500D02*
X181475000Y-89987500D01*
X181475000Y-89987500D02*
X180975000Y-90887500D01*
X180475000Y-90987500D02*
X181475000Y-90987500D01*
X180225000Y-87787500D02*
X180225000Y-93187500D01*
X180225000Y-93187500D02*
X181725000Y-93187500D01*
X181725000Y-93187500D02*
X181725000Y-87787500D01*
X181725000Y-87787500D02*
X180225000Y-87787500D01*
X200775000Y-87787500D02*
X199275000Y-87787500D01*
X200775000Y-93187500D02*
X200775000Y-87787500D01*
X199275000Y-93187500D02*
X200775000Y-93187500D01*
X199275000Y-87787500D02*
X199275000Y-93187500D01*
X199525000Y-90987500D02*
X200525000Y-90987500D01*
X200525000Y-89987500D02*
X200025000Y-90887500D01*
X199525000Y-89987500D02*
X200525000Y-89987500D01*
X200025000Y-90887500D02*
X199525000Y-89987500D01*
X219075000Y-90887500D02*
X218575000Y-89987500D01*
X218575000Y-89987500D02*
X219575000Y-89987500D01*
X219575000Y-89987500D02*
X219075000Y-90887500D01*
X218575000Y-90987500D02*
X219575000Y-90987500D01*
X218325000Y-87787500D02*
X218325000Y-93187500D01*
X218325000Y-93187500D02*
X219825000Y-93187500D01*
X219825000Y-93187500D02*
X219825000Y-87787500D01*
X219825000Y-87787500D02*
X218325000Y-87787500D01*
X238875000Y-87787500D02*
X237375000Y-87787500D01*
X238875000Y-93187500D02*
X238875000Y-87787500D01*
X237375000Y-93187500D02*
X238875000Y-93187500D01*
X237375000Y-87787500D02*
X237375000Y-93187500D01*
X237625000Y-90987500D02*
X238625000Y-90987500D01*
X238625000Y-89987500D02*
X238125000Y-90887500D01*
X237625000Y-89987500D02*
X238625000Y-89987500D01*
X238125000Y-90887500D02*
X237625000Y-89987500D01*
X255984000Y-90887500D02*
X255484000Y-89987500D01*
X255484000Y-89987500D02*
X256484000Y-89987500D01*
X256484000Y-89987500D02*
X255984000Y-90887500D01*
X255484000Y-90987500D02*
X256484000Y-90987500D01*
X255234000Y-87787500D02*
X255234000Y-93187500D01*
X255234000Y-93187500D02*
X256734000Y-93187500D01*
X256734000Y-93187500D02*
X256734000Y-87787500D01*
X256734000Y-87787500D02*
X255234000Y-87787500D01*
X259116000Y-87787500D02*
X257616000Y-87787500D01*
X259116000Y-93187500D02*
X259116000Y-87787500D01*
X257616000Y-93187500D02*
X259116000Y-93187500D01*
X257616000Y-87787500D02*
X257616000Y-93187500D01*
X257866000Y-90987500D02*
X258866000Y-90987500D01*
X258866000Y-89987500D02*
X258366000Y-90887500D01*
X257866000Y-89987500D02*
X258866000Y-89987500D01*
X258366000Y-90887500D02*
X257866000Y-89987500D01*
X160162000Y-23960000D02*
X154162000Y-23960000D01*
X154162000Y-23960000D02*
X154162000Y-35960000D01*
X154162000Y-35960000D02*
X160162000Y-35960000D01*
X160162000Y-35960000D02*
X160162000Y-23960000D01*
X204788000Y-109938000D02*
X204288000Y-109038000D01*
X204288000Y-109038000D02*
X205288000Y-109038000D01*
X205288000Y-109038000D02*
X204788000Y-109938000D01*
X204288000Y-110038000D02*
X205288000Y-110038000D01*
X204038000Y-106838000D02*
X204038000Y-112238000D01*
X204038000Y-112238000D02*
X205538000Y-112238000D01*
X205538000Y-112238000D02*
X205538000Y-106838000D01*
X205538000Y-106838000D02*
X204038000Y-106838000D01*
X224588000Y-106838000D02*
X223088000Y-106838000D01*
X224588000Y-112238000D02*
X224588000Y-106838000D01*
X223088000Y-112238000D02*
X224588000Y-112238000D01*
X223088000Y-106838000D02*
X223088000Y-112238000D01*
X223338000Y-110038000D02*
X224338000Y-110038000D01*
X224338000Y-109038000D02*
X223838000Y-109938000D01*
X223338000Y-109038000D02*
X224338000Y-109038000D01*
X223838000Y-109938000D02*
X223338000Y-109038000D01*
X242888000Y-109938000D02*
X242388000Y-109038000D01*
X242388000Y-109038000D02*
X243388000Y-109038000D01*
X243388000Y-109038000D02*
X242888000Y-109938000D01*
X242388000Y-110038000D02*
X243388000Y-110038000D01*
X242138000Y-106838000D02*
X242138000Y-112238000D01*
X242138000Y-112238000D02*
X243638000Y-112238000D01*
X243638000Y-112238000D02*
X243638000Y-106838000D01*
X243638000Y-106838000D02*
X242138000Y-106838000D01*
X262688000Y-106838000D02*
X261188000Y-106838000D01*
X262688000Y-112238000D02*
X262688000Y-106838000D01*
X261188000Y-112238000D02*
X262688000Y-112238000D01*
X261188000Y-106838000D02*
X261188000Y-112238000D01*
X261438000Y-110038000D02*
X262438000Y-110038000D01*
X262438000Y-109038000D02*
X261938000Y-109938000D01*
X261438000Y-109038000D02*
X262438000Y-109038000D01*
X261938000Y-109938000D02*
X261438000Y-109038000D01*
X279797000Y-109938000D02*
X279297000Y-109038000D01*
X279297000Y-109038000D02*
X280297000Y-109038000D01*
X280297000Y-109038000D02*
X279797000Y-109938000D01*
X279297000Y-110038000D02*
X280297000Y-110038000D01*
X279047000Y-106838000D02*
X279047000Y-112238000D01*
X279047000Y-112238000D02*
X280547000Y-112238000D01*
X280547000Y-112238000D02*
X280547000Y-106838000D01*
X280547000Y-106838000D02*
X279047000Y-106838000D01*
X282928000Y-106838000D02*
X281428000Y-106838000D01*
X282928000Y-112238000D02*
X282928000Y-106838000D01*
X281428000Y-112238000D02*
X282928000Y-112238000D01*
X281428000Y-106838000D02*
X281428000Y-112238000D01*
X281678000Y-110038000D02*
X282678000Y-110038000D01*
X282678000Y-109038000D02*
X282178000Y-109938000D01*
X281678000Y-109038000D02*
X282678000Y-109038000D01*
X282178000Y-109938000D02*
X281678000Y-109038000D01*
X300790000Y-33487500D02*
X300790000Y-33187500D01*
X300940000Y-33587500D02*
X300940000Y-33087500D01*
X301090000Y-33687500D02*
X301090000Y-32987500D01*
X300590000Y-33337500D02*
X301240000Y-33837500D01*
X301240000Y-32837500D02*
X300590000Y-33337500D01*
X301240000Y-33837500D02*
X301240000Y-32837500D01*
X301590000Y-29587500D02*
X301590000Y-37087500D01*
X300290000Y-29587500D02*
X301590000Y-29587500D01*
X300290000Y-37087500D02*
X300290000Y-29587500D01*
X301590000Y-37087500D02*
X300290000Y-37087500D01*
X298690000Y-42237500D02*
X297690000Y-42237500D01*
X298690000Y-24437500D02*
X297690000Y-24437500D01*
X298690000Y-42237500D02*
X298690000Y-41237500D01*
X298690000Y-24437500D02*
X298690000Y-25387500D01*
X266690000Y-42237500D02*
X265640000Y-42237500D01*
X266640000Y-24437500D02*
X265640000Y-24437500D01*
X265640000Y-42237500D02*
X265640000Y-41237500D01*
X265640000Y-24437500D02*
X265640000Y-25447500D01*
X299930000Y-49387500D02*
X299930000Y-55387500D01*
X299930000Y-55387500D02*
X299680000Y-55387500D01*
X299930000Y-49387500D02*
X299680000Y-49387500D01*
X296430000Y-49387500D02*
X296680000Y-49387500D01*
X296430000Y-49387500D02*
X296430000Y-55387500D01*
X296430000Y-55387500D02*
X296680000Y-55387500D01*
X159673904Y-29862380D02*
X159102476Y-29862380D01*
X159388190Y-30862380D02*
X159388190Y-29862380D01*
X158197714Y-30862380D02*
X158531047Y-30386190D01*
X158769142Y-30862380D02*
X158769142Y-29862380D01*
X158388190Y-29862380D01*
X158292952Y-29910000D01*
X158245333Y-29957619D01*
X158197714Y-30052857D01*
X158197714Y-30195714D01*
X158245333Y-30290952D01*
X158292952Y-30338571D01*
X158388190Y-30386190D01*
X158769142Y-30386190D01*
X157197714Y-30862380D02*
X157531047Y-30386190D01*
X157769142Y-30862380D02*
X157769142Y-29862380D01*
X157388190Y-29862380D01*
X157292952Y-29910000D01*
X157245333Y-29957619D01*
X157197714Y-30052857D01*
X157197714Y-30195714D01*
X157245333Y-30290952D01*
X157292952Y-30338571D01*
X157388190Y-30386190D01*
X157769142Y-30386190D01*
X156816761Y-30814761D02*
X156673904Y-30862380D01*
X156435809Y-30862380D01*
X156340571Y-30814761D01*
X156292952Y-30767142D01*
X156245333Y-30671904D01*
X156245333Y-30576666D01*
X156292952Y-30481428D01*
X156340571Y-30433809D01*
X156435809Y-30386190D01*
X156626285Y-30338571D01*
X156721523Y-30290952D01*
X156769142Y-30243333D01*
X156816761Y-30148095D01*
X156816761Y-30052857D01*
X156769142Y-29957619D01*
X156721523Y-29910000D01*
X156626285Y-29862380D01*
X156388190Y-29862380D01*
X156245333Y-29910000D01*
D11*
X299679285Y-30941071D02*
X298929285Y-30941071D01*
X299465000Y-31191071D01*
X298929285Y-31441071D01*
X299679285Y-31441071D01*
X299679285Y-31798214D02*
X299179285Y-31798214D01*
X298929285Y-31798214D02*
X298965000Y-31762500D01*
X299000714Y-31798214D01*
X298965000Y-31833928D01*
X298929285Y-31798214D01*
X299000714Y-31798214D01*
X299643571Y-32476785D02*
X299679285Y-32405357D01*
X299679285Y-32262500D01*
X299643571Y-32191071D01*
X299607857Y-32155357D01*
X299536428Y-32119642D01*
X299322142Y-32119642D01*
X299250714Y-32155357D01*
X299215000Y-32191071D01*
X299179285Y-32262500D01*
X299179285Y-32405357D01*
X299215000Y-32476785D01*
X299679285Y-32798214D02*
X299179285Y-32798214D01*
X299322142Y-32798214D02*
X299250714Y-32833928D01*
X299215000Y-32869642D01*
X299179285Y-32941071D01*
X299179285Y-33012500D01*
X299679285Y-33369642D02*
X299643571Y-33298214D01*
X299607857Y-33262500D01*
X299536428Y-33226785D01*
X299322142Y-33226785D01*
X299250714Y-33262500D01*
X299215000Y-33298214D01*
X299179285Y-33369642D01*
X299179285Y-33476785D01*
X299215000Y-33548214D01*
X299250714Y-33583928D01*
X299322142Y-33619642D01*
X299536428Y-33619642D01*
X299607857Y-33583928D01*
X299643571Y-33548214D01*
X299679285Y-33476785D01*
X299679285Y-33369642D01*
X298929285Y-33941071D02*
X299536428Y-33941071D01*
X299607857Y-33976785D01*
X299643571Y-34012500D01*
X299679285Y-34083928D01*
X299679285Y-34226785D01*
X299643571Y-34298214D01*
X299607857Y-34333928D01*
X299536428Y-34369642D01*
X298929285Y-34369642D01*
X299643571Y-34691071D02*
X299679285Y-34798214D01*
X299679285Y-34976785D01*
X299643571Y-35048214D01*
X299607857Y-35083928D01*
X299536428Y-35119642D01*
X299465000Y-35119642D01*
X299393571Y-35083928D01*
X299357857Y-35048214D01*
X299322142Y-34976785D01*
X299286428Y-34833928D01*
X299250714Y-34762500D01*
X299215000Y-34726785D01*
X299143571Y-34691071D01*
X299072142Y-34691071D01*
X299000714Y-34726785D01*
X298965000Y-34762500D01*
X298929285Y-34833928D01*
X298929285Y-35012500D01*
X298965000Y-35119642D01*
X299286428Y-35691071D02*
X299322142Y-35798214D01*
X299357857Y-35833928D01*
X299429285Y-35869642D01*
X299536428Y-35869642D01*
X299607857Y-35833928D01*
X299643571Y-35798214D01*
X299679285Y-35726785D01*
X299679285Y-35441071D01*
X298929285Y-35441071D01*
X298929285Y-35691071D01*
X298965000Y-35762500D01*
X299000714Y-35798214D01*
X299072142Y-35833928D01*
X299143571Y-35833928D01*
X299215000Y-35798214D01*
X299250714Y-35762500D01*
X299286428Y-35691071D01*
X299286428Y-35441071D01*
D12*
X269536428Y-27691309D02*
X269572142Y-27787023D01*
X269607857Y-27818928D01*
X269679285Y-27850833D01*
X269786428Y-27850833D01*
X269857857Y-27818928D01*
X269893571Y-27787023D01*
X269929285Y-27723214D01*
X269929285Y-27467976D01*
X269179285Y-27467976D01*
X269179285Y-27691309D01*
X269215000Y-27755119D01*
X269250714Y-27787023D01*
X269322142Y-27818928D01*
X269393571Y-27818928D01*
X269465000Y-27787023D01*
X269500714Y-27755119D01*
X269536428Y-27691309D01*
X269536428Y-27467976D01*
X269429285Y-28425119D02*
X269929285Y-28425119D01*
X269143571Y-28265595D02*
X269679285Y-28106071D01*
X269679285Y-28520833D01*
X269143571Y-29254642D02*
X270107857Y-28680357D01*
X269500714Y-29573690D02*
X269465000Y-29509880D01*
X269429285Y-29477976D01*
X269357857Y-29446071D01*
X269322142Y-29446071D01*
X269250714Y-29477976D01*
X269215000Y-29509880D01*
X269179285Y-29573690D01*
X269179285Y-29701309D01*
X269215000Y-29765119D01*
X269250714Y-29797023D01*
X269322142Y-29828928D01*
X269357857Y-29828928D01*
X269429285Y-29797023D01*
X269465000Y-29765119D01*
X269500714Y-29701309D01*
X269500714Y-29573690D01*
X269536428Y-29509880D01*
X269572142Y-29477976D01*
X269643571Y-29446071D01*
X269786428Y-29446071D01*
X269857857Y-29477976D01*
X269893571Y-29509880D01*
X269929285Y-29573690D01*
X269929285Y-29701309D01*
X269893571Y-29765119D01*
X269857857Y-29797023D01*
X269786428Y-29828928D01*
X269643571Y-29828928D01*
X269572142Y-29797023D01*
X269536428Y-29765119D01*
X269500714Y-29701309D01*
X292629285Y-27363928D02*
X291879285Y-27363928D01*
X291879285Y-27523452D01*
X291915000Y-27619166D01*
X291986428Y-27682976D01*
X292057857Y-27714880D01*
X292200714Y-27746785D01*
X292307857Y-27746785D01*
X292450714Y-27714880D01*
X292522142Y-27682976D01*
X292593571Y-27619166D01*
X292629285Y-27523452D01*
X292629285Y-27363928D01*
X291950714Y-28002023D02*
X291915000Y-28033928D01*
X291879285Y-28097738D01*
X291879285Y-28257261D01*
X291915000Y-28321071D01*
X291950714Y-28352976D01*
X292022142Y-28384880D01*
X292093571Y-28384880D01*
X292200714Y-28352976D01*
X292629285Y-27970119D01*
X292629285Y-28384880D01*
X291843571Y-29150595D02*
X292807857Y-28576309D01*
X292629285Y-29756785D02*
X292272142Y-29533452D01*
X292629285Y-29373928D02*
X291879285Y-29373928D01*
X291879285Y-29629166D01*
X291915000Y-29692976D01*
X291950714Y-29724880D01*
X292022142Y-29756785D01*
X292129285Y-29756785D01*
X292200714Y-29724880D01*
X292236428Y-29692976D01*
X292272142Y-29629166D01*
X292272142Y-29373928D01*
X291879285Y-29980119D02*
X292629285Y-30426785D01*
X291879285Y-30426785D02*
X292629285Y-29980119D01*
X292629285Y-31032976D02*
X292629285Y-30650119D01*
X292629285Y-30841547D02*
X291879285Y-30841547D01*
X291986428Y-30777738D01*
X292057857Y-30713928D01*
X292093571Y-30650119D01*
X267036428Y-27691309D02*
X267072142Y-27787023D01*
X267107857Y-27818928D01*
X267179285Y-27850833D01*
X267286428Y-27850833D01*
X267357857Y-27818928D01*
X267393571Y-27787023D01*
X267429285Y-27723214D01*
X267429285Y-27467976D01*
X266679285Y-27467976D01*
X266679285Y-27691309D01*
X266715000Y-27755119D01*
X266750714Y-27787023D01*
X266822142Y-27818928D01*
X266893571Y-27818928D01*
X266965000Y-27787023D01*
X267000714Y-27755119D01*
X267036428Y-27691309D01*
X267036428Y-27467976D01*
X266679285Y-28457023D02*
X266679285Y-28137976D01*
X267036428Y-28106071D01*
X267000714Y-28137976D01*
X266965000Y-28201785D01*
X266965000Y-28361309D01*
X267000714Y-28425119D01*
X267036428Y-28457023D01*
X267107857Y-28488928D01*
X267286428Y-28488928D01*
X267357857Y-28457023D01*
X267393571Y-28425119D01*
X267429285Y-28361309D01*
X267429285Y-28201785D01*
X267393571Y-28137976D01*
X267357857Y-28106071D01*
X266643571Y-29254642D02*
X267607857Y-28680357D01*
X267429285Y-29509880D02*
X267429285Y-29637500D01*
X267393571Y-29701309D01*
X267357857Y-29733214D01*
X267250714Y-29797023D01*
X267107857Y-29828928D01*
X266822142Y-29828928D01*
X266750714Y-29797023D01*
X266715000Y-29765119D01*
X266679285Y-29701309D01*
X266679285Y-29573690D01*
X266715000Y-29509880D01*
X266750714Y-29477976D01*
X266822142Y-29446071D01*
X267000714Y-29446071D01*
X267072142Y-29477976D01*
X267107857Y-29509880D01*
X267143571Y-29573690D01*
X267143571Y-29701309D01*
X267107857Y-29765119D01*
X267072142Y-29797023D01*
X267000714Y-29828928D01*
X277507857Y-27808690D02*
X277543571Y-27776785D01*
X277579285Y-27681071D01*
X277579285Y-27617261D01*
X277543571Y-27521547D01*
X277472142Y-27457737D01*
X277400714Y-27425833D01*
X277257857Y-27393928D01*
X277150714Y-27393928D01*
X277007857Y-27425833D01*
X276936428Y-27457737D01*
X276865000Y-27521547D01*
X276829285Y-27617261D01*
X276829285Y-27681071D01*
X276865000Y-27776785D01*
X276900714Y-27808690D01*
X276829285Y-28382976D02*
X276829285Y-28255357D01*
X276865000Y-28191547D01*
X276900714Y-28159642D01*
X277007857Y-28095833D01*
X277150714Y-28063928D01*
X277436428Y-28063928D01*
X277507857Y-28095833D01*
X277543571Y-28127737D01*
X277579285Y-28191547D01*
X277579285Y-28319166D01*
X277543571Y-28382976D01*
X277507857Y-28414880D01*
X277436428Y-28446785D01*
X277257857Y-28446785D01*
X277186428Y-28414880D01*
X277150714Y-28382976D01*
X277115000Y-28319166D01*
X277115000Y-28191547D01*
X277150714Y-28127737D01*
X277186428Y-28095833D01*
X277257857Y-28063928D01*
X276793571Y-29212499D02*
X277757857Y-28638214D01*
X276829285Y-29754880D02*
X276829285Y-29435833D01*
X277186428Y-29403928D01*
X277150714Y-29435833D01*
X277115000Y-29499642D01*
X277115000Y-29659166D01*
X277150714Y-29722976D01*
X277186428Y-29754880D01*
X277257857Y-29786785D01*
X277436428Y-29786785D01*
X277507857Y-29754880D01*
X277543571Y-29722976D01*
X277579285Y-29659166D01*
X277579285Y-29499642D01*
X277543571Y-29435833D01*
X277507857Y-29403928D01*
X282593571Y-30927380D02*
X282629285Y-31023095D01*
X282629285Y-31182619D01*
X282593571Y-31246428D01*
X282557857Y-31278333D01*
X282486428Y-31310238D01*
X282415000Y-31310238D01*
X282343571Y-31278333D01*
X282307857Y-31246428D01*
X282272142Y-31182619D01*
X282236428Y-31055000D01*
X282200714Y-30991190D01*
X282165000Y-30959285D01*
X282093571Y-30927380D01*
X282022142Y-30927380D01*
X281950714Y-30959285D01*
X281915000Y-30991190D01*
X281879285Y-31055000D01*
X281879285Y-31214523D01*
X281915000Y-31310238D01*
X282557857Y-31980238D02*
X282593571Y-31948333D01*
X282629285Y-31852619D01*
X282629285Y-31788809D01*
X282593571Y-31693095D01*
X282522142Y-31629285D01*
X282450714Y-31597380D01*
X282307857Y-31565476D01*
X282200714Y-31565476D01*
X282057857Y-31597380D01*
X281986428Y-31629285D01*
X281915000Y-31693095D01*
X281879285Y-31788809D01*
X281879285Y-31852619D01*
X281915000Y-31948333D01*
X281950714Y-31980238D01*
X282629285Y-32586428D02*
X282629285Y-32267380D01*
X281879285Y-32267380D01*
X281843571Y-33288333D02*
X282807857Y-32714047D01*
X282629285Y-33511666D02*
X281879285Y-33511666D01*
X281879285Y-33671190D01*
X281915000Y-33766904D01*
X281986428Y-33830714D01*
X282057857Y-33862619D01*
X282200714Y-33894523D01*
X282307857Y-33894523D01*
X282450714Y-33862619D01*
X282522142Y-33830714D01*
X282593571Y-33766904D01*
X282629285Y-33671190D01*
X282629285Y-33511666D01*
X281879285Y-34309285D02*
X281879285Y-34373095D01*
X281915000Y-34436904D01*
X281950714Y-34468809D01*
X282022142Y-34500714D01*
X282165000Y-34532619D01*
X282343571Y-34532619D01*
X282486428Y-34500714D01*
X282557857Y-34468809D01*
X282593571Y-34436904D01*
X282629285Y-34373095D01*
X282629285Y-34309285D01*
X282593571Y-34245476D01*
X282557857Y-34213571D01*
X282486428Y-34181666D01*
X282343571Y-34149761D01*
X282165000Y-34149761D01*
X282022142Y-34181666D01*
X281950714Y-34213571D01*
X281915000Y-34245476D01*
X281879285Y-34309285D01*
X281843571Y-35298333D02*
X282807857Y-34724047D01*
X281879285Y-35457857D02*
X281879285Y-35872619D01*
X282165000Y-35649285D01*
X282165000Y-35745000D01*
X282200714Y-35808809D01*
X282236428Y-35840714D01*
X282307857Y-35872619D01*
X282486428Y-35872619D01*
X282557857Y-35840714D01*
X282593571Y-35808809D01*
X282629285Y-35745000D01*
X282629285Y-35553571D01*
X282593571Y-35489761D01*
X282557857Y-35457857D01*
X284833571Y-30927381D02*
X284869285Y-31023095D01*
X284869285Y-31182619D01*
X284833571Y-31246429D01*
X284797857Y-31278333D01*
X284726428Y-31310238D01*
X284655000Y-31310238D01*
X284583571Y-31278333D01*
X284547857Y-31246429D01*
X284512142Y-31182619D01*
X284476428Y-31055000D01*
X284440714Y-30991191D01*
X284405000Y-30959286D01*
X284333571Y-30927381D01*
X284262142Y-30927381D01*
X284190714Y-30959286D01*
X284155000Y-30991191D01*
X284119285Y-31055000D01*
X284119285Y-31214524D01*
X284155000Y-31310238D01*
X284869285Y-31597381D02*
X284119285Y-31597381D01*
X284119285Y-31756905D01*
X284155000Y-31852619D01*
X284226428Y-31916429D01*
X284297857Y-31948333D01*
X284440714Y-31980238D01*
X284547857Y-31980238D01*
X284690714Y-31948333D01*
X284762142Y-31916429D01*
X284833571Y-31852619D01*
X284869285Y-31756905D01*
X284869285Y-31597381D01*
X284655000Y-32235476D02*
X284655000Y-32554524D01*
X284869285Y-32171667D02*
X284119285Y-32395000D01*
X284869285Y-32618333D01*
X284083571Y-33320238D02*
X285047857Y-32745953D01*
X284869285Y-33543572D02*
X284119285Y-33543572D01*
X284119285Y-33703095D01*
X284155000Y-33798810D01*
X284226428Y-33862619D01*
X284297857Y-33894524D01*
X284440714Y-33926429D01*
X284547857Y-33926429D01*
X284690714Y-33894524D01*
X284762142Y-33862619D01*
X284833571Y-33798810D01*
X284869285Y-33703095D01*
X284869285Y-33543572D01*
X284869285Y-34564524D02*
X284869285Y-34181667D01*
X284869285Y-34373095D02*
X284119285Y-34373095D01*
X284226428Y-34309286D01*
X284297857Y-34245476D01*
X284333571Y-34181667D01*
X284083571Y-35330238D02*
X285047857Y-34755953D01*
X284190714Y-35521667D02*
X284155000Y-35553572D01*
X284119285Y-35617381D01*
X284119285Y-35776905D01*
X284155000Y-35840714D01*
X284190714Y-35872619D01*
X284262142Y-35904524D01*
X284333571Y-35904524D01*
X284440714Y-35872619D01*
X284869285Y-35489762D01*
X284869285Y-35904524D01*
X280129285Y-27425833D02*
X279379285Y-27425833D01*
X279379285Y-27585357D01*
X279415000Y-27681071D01*
X279486428Y-27744880D01*
X279557857Y-27776785D01*
X279700714Y-27808690D01*
X279807857Y-27808690D01*
X279950714Y-27776785D01*
X280022142Y-27744880D01*
X280093571Y-27681071D01*
X280129285Y-27585357D01*
X280129285Y-27425833D01*
X279629285Y-28382976D02*
X280129285Y-28382976D01*
X279343571Y-28223452D02*
X279879285Y-28063928D01*
X279879285Y-28478690D01*
X279343571Y-29212499D02*
X280307857Y-28638214D01*
X279629285Y-29722976D02*
X280129285Y-29722976D01*
X279343571Y-29563452D02*
X279879285Y-29403928D01*
X279879285Y-29818690D01*
X295179285Y-27443690D02*
X294429285Y-27443690D01*
X294429285Y-27603214D01*
X294465000Y-27698928D01*
X294536428Y-27762738D01*
X294607857Y-27794642D01*
X294750714Y-27826547D01*
X294857857Y-27826547D01*
X295000714Y-27794642D01*
X295072142Y-27762738D01*
X295143571Y-27698928D01*
X295179285Y-27603214D01*
X295179285Y-27443690D01*
X294429285Y-28049880D02*
X294429285Y-28464642D01*
X294715000Y-28241309D01*
X294715000Y-28337023D01*
X294750714Y-28400833D01*
X294786428Y-28432738D01*
X294857857Y-28464642D01*
X295036428Y-28464642D01*
X295107857Y-28432738D01*
X295143571Y-28400833D01*
X295179285Y-28337023D01*
X295179285Y-28145595D01*
X295143571Y-28081785D01*
X295107857Y-28049880D01*
X294393571Y-29230357D02*
X295357857Y-28656071D01*
X294429285Y-29357976D02*
X294429285Y-29740833D01*
X295179285Y-29549404D02*
X294429285Y-29549404D01*
X294429285Y-29900357D02*
X295179285Y-30347023D01*
X294429285Y-30347023D02*
X295179285Y-29900357D01*
X294429285Y-30729880D02*
X294429285Y-30793690D01*
X294465000Y-30857500D01*
X294500714Y-30889404D01*
X294572142Y-30921309D01*
X294715000Y-30953214D01*
X294893571Y-30953214D01*
X295036428Y-30921309D01*
X295107857Y-30889404D01*
X295143571Y-30857500D01*
X295179285Y-30793690D01*
X295179285Y-30729880D01*
X295143571Y-30666071D01*
X295107857Y-30634166D01*
X295036428Y-30602261D01*
X294893571Y-30570357D01*
X294715000Y-30570357D01*
X294572142Y-30602261D01*
X294500714Y-30634166D01*
X294465000Y-30666071D01*
X294429285Y-30729880D01*
X286915000Y-31310238D02*
X286879285Y-31246429D01*
X286879285Y-31150715D01*
X286915000Y-31055000D01*
X286986428Y-30991191D01*
X287057857Y-30959286D01*
X287200714Y-30927381D01*
X287307857Y-30927381D01*
X287450714Y-30959286D01*
X287522142Y-30991191D01*
X287593571Y-31055000D01*
X287629285Y-31150715D01*
X287629285Y-31214524D01*
X287593571Y-31310238D01*
X287557857Y-31342143D01*
X287307857Y-31342143D01*
X287307857Y-31214524D01*
X287629285Y-31629286D02*
X286879285Y-31629286D01*
X287629285Y-32012143D01*
X286879285Y-32012143D01*
X287629285Y-32331191D02*
X286879285Y-32331191D01*
X286879285Y-32490715D01*
X286915000Y-32586429D01*
X286986428Y-32650238D01*
X287057857Y-32682143D01*
X287200714Y-32714048D01*
X287307857Y-32714048D01*
X287450714Y-32682143D01*
X287522142Y-32650238D01*
X287593571Y-32586429D01*
X287629285Y-32490715D01*
X287629285Y-32331191D01*
X289365000Y-31310238D02*
X289329285Y-31246429D01*
X289329285Y-31150715D01*
X289365000Y-31055000D01*
X289436428Y-30991191D01*
X289507857Y-30959286D01*
X289650714Y-30927381D01*
X289757857Y-30927381D01*
X289900714Y-30959286D01*
X289972142Y-30991191D01*
X290043571Y-31055000D01*
X290079285Y-31150715D01*
X290079285Y-31214524D01*
X290043571Y-31310238D01*
X290007857Y-31342143D01*
X289757857Y-31342143D01*
X289757857Y-31214524D01*
X290079285Y-31629286D02*
X289329285Y-31629286D01*
X290079285Y-32012143D01*
X289329285Y-32012143D01*
X290079285Y-32331191D02*
X289329285Y-32331191D01*
X289329285Y-32490715D01*
X289365000Y-32586429D01*
X289436428Y-32650238D01*
X289507857Y-32682143D01*
X289650714Y-32714048D01*
X289757857Y-32714048D01*
X289900714Y-32682143D01*
X289972142Y-32650238D01*
X290043571Y-32586429D01*
X290079285Y-32490715D01*
X290079285Y-32331191D01*
X275029285Y-27467976D02*
X274279285Y-27467976D01*
X274279285Y-27627500D01*
X274315000Y-27723214D01*
X274386428Y-27787023D01*
X274457857Y-27818928D01*
X274600714Y-27850833D01*
X274707857Y-27850833D01*
X274850714Y-27818928D01*
X274922142Y-27787023D01*
X274993571Y-27723214D01*
X275029285Y-27627500D01*
X275029285Y-27467976D01*
X274279285Y-28074166D02*
X274279285Y-28520833D01*
X275029285Y-28233690D01*
X274243571Y-29254642D02*
X275207857Y-28680357D01*
X274279285Y-29765119D02*
X274279285Y-29637500D01*
X274315000Y-29573690D01*
X274350714Y-29541785D01*
X274457857Y-29477976D01*
X274600714Y-29446071D01*
X274886428Y-29446071D01*
X274957857Y-29477976D01*
X274993571Y-29509880D01*
X275029285Y-29573690D01*
X275029285Y-29701309D01*
X274993571Y-29765119D01*
X274957857Y-29797023D01*
X274886428Y-29828928D01*
X274707857Y-29828928D01*
X274636428Y-29797023D01*
X274600714Y-29765119D01*
X274565000Y-29701309D01*
X274565000Y-29573690D01*
X274600714Y-29509880D01*
X274636428Y-29477976D01*
X274707857Y-29446071D01*
X272086428Y-27425832D02*
X272086428Y-27649166D01*
X272479285Y-27744880D02*
X272479285Y-27425832D01*
X271729285Y-27425832D01*
X271729285Y-27744880D01*
X271729285Y-28319166D02*
X271729285Y-28191547D01*
X271765000Y-28127737D01*
X271800714Y-28095832D01*
X271907857Y-28032023D01*
X272050714Y-28000118D01*
X272336428Y-28000118D01*
X272407857Y-28032023D01*
X272443571Y-28063928D01*
X272479285Y-28127737D01*
X272479285Y-28255356D01*
X272443571Y-28319166D01*
X272407857Y-28351071D01*
X272336428Y-28382975D01*
X272157857Y-28382975D01*
X272086428Y-28351071D01*
X272050714Y-28319166D01*
X272015000Y-28255356D01*
X272015000Y-28127737D01*
X272050714Y-28063928D01*
X272086428Y-28032023D01*
X272157857Y-28000118D01*
X271693571Y-29148690D02*
X272657857Y-28574404D01*
X271729285Y-29308213D02*
X271729285Y-29754880D01*
X272479285Y-29467737D01*
X269779285Y-36599880D02*
X269779285Y-36217023D01*
X269779285Y-36408452D02*
X269029285Y-36408452D01*
X269136428Y-36344642D01*
X269207857Y-36280833D01*
X269243571Y-36217023D01*
X269029285Y-37174166D02*
X269029285Y-37046547D01*
X269065000Y-36982738D01*
X269100714Y-36950833D01*
X269207857Y-36887023D01*
X269350714Y-36855119D01*
X269636428Y-36855119D01*
X269707857Y-36887023D01*
X269743571Y-36918928D01*
X269779285Y-36982738D01*
X269779285Y-37110357D01*
X269743571Y-37174166D01*
X269707857Y-37206071D01*
X269636428Y-37237976D01*
X269457857Y-37237976D01*
X269386428Y-37206071D01*
X269350714Y-37174166D01*
X269315000Y-37110357D01*
X269315000Y-36982738D01*
X269350714Y-36918928D01*
X269386428Y-36887023D01*
X269457857Y-36855119D01*
X268993571Y-38003690D02*
X269957857Y-37429404D01*
X269386428Y-38450357D02*
X269422142Y-38546071D01*
X269457857Y-38577976D01*
X269529285Y-38609880D01*
X269636428Y-38609880D01*
X269707857Y-38577976D01*
X269743571Y-38546071D01*
X269779285Y-38482261D01*
X269779285Y-38227023D01*
X269029285Y-38227023D01*
X269029285Y-38450357D01*
X269065000Y-38514166D01*
X269100714Y-38546071D01*
X269172142Y-38577976D01*
X269243571Y-38577976D01*
X269315000Y-38546071D01*
X269350714Y-38514166D01*
X269386428Y-38450357D01*
X269386428Y-38227023D01*
X269100714Y-38865119D02*
X269065000Y-38897023D01*
X269029285Y-38960833D01*
X269029285Y-39120357D01*
X269065000Y-39184166D01*
X269100714Y-39216071D01*
X269172142Y-39247976D01*
X269243571Y-39247976D01*
X269350714Y-39216071D01*
X269779285Y-38833214D01*
X269779285Y-39247976D01*
X267279285Y-36599880D02*
X267279285Y-36217023D01*
X267279285Y-36408452D02*
X266529285Y-36408452D01*
X266636428Y-36344642D01*
X266707857Y-36280833D01*
X266743571Y-36217023D01*
X266529285Y-37014642D02*
X266529285Y-37078452D01*
X266565000Y-37142261D01*
X266600714Y-37174166D01*
X266672142Y-37206071D01*
X266815000Y-37237976D01*
X266993571Y-37237976D01*
X267136428Y-37206071D01*
X267207857Y-37174166D01*
X267243571Y-37142261D01*
X267279285Y-37078452D01*
X267279285Y-37014642D01*
X267243571Y-36950833D01*
X267207857Y-36918928D01*
X267136428Y-36887023D01*
X266993571Y-36855119D01*
X266815000Y-36855119D01*
X266672142Y-36887023D01*
X266600714Y-36918928D01*
X266565000Y-36950833D01*
X266529285Y-37014642D01*
X266493571Y-38003690D02*
X267457857Y-37429404D01*
X266886428Y-38450357D02*
X266922142Y-38546071D01*
X266957857Y-38577976D01*
X267029285Y-38609880D01*
X267136428Y-38609880D01*
X267207857Y-38577976D01*
X267243571Y-38546071D01*
X267279285Y-38482261D01*
X267279285Y-38227023D01*
X266529285Y-38227023D01*
X266529285Y-38450357D01*
X266565000Y-38514166D01*
X266600714Y-38546071D01*
X266672142Y-38577976D01*
X266743571Y-38577976D01*
X266815000Y-38546071D01*
X266850714Y-38514166D01*
X266886428Y-38450357D01*
X266886428Y-38227023D01*
X266529285Y-39184166D02*
X266529285Y-39056547D01*
X266565000Y-38992738D01*
X266600714Y-38960833D01*
X266707857Y-38897023D01*
X266850714Y-38865119D01*
X267136428Y-38865119D01*
X267207857Y-38897023D01*
X267243571Y-38928928D01*
X267279285Y-38992738D01*
X267279285Y-39120357D01*
X267243571Y-39184166D01*
X267207857Y-39216071D01*
X267136428Y-39247976D01*
X266957857Y-39247976D01*
X266886428Y-39216071D01*
X266850714Y-39184166D01*
X266815000Y-39120357D01*
X266815000Y-38992738D01*
X266850714Y-38928928D01*
X266886428Y-38897023D01*
X266957857Y-38865119D01*
X272329285Y-36599880D02*
X272329285Y-36217023D01*
X272329285Y-36408452D02*
X271579285Y-36408452D01*
X271686428Y-36344642D01*
X271757857Y-36280833D01*
X271793571Y-36217023D01*
X271829285Y-37174166D02*
X272329285Y-37174166D01*
X271543571Y-37014642D02*
X272079285Y-36855119D01*
X272079285Y-37269880D01*
X271543571Y-38003690D02*
X272507857Y-37429404D01*
X271936428Y-38450357D02*
X271972142Y-38546071D01*
X272007857Y-38577976D01*
X272079285Y-38609880D01*
X272186428Y-38609880D01*
X272257857Y-38577976D01*
X272293571Y-38546071D01*
X272329285Y-38482261D01*
X272329285Y-38227023D01*
X271579285Y-38227023D01*
X271579285Y-38450357D01*
X271615000Y-38514166D01*
X271650714Y-38546071D01*
X271722142Y-38577976D01*
X271793571Y-38577976D01*
X271865000Y-38546071D01*
X271900714Y-38514166D01*
X271936428Y-38450357D01*
X271936428Y-38227023D01*
X271579285Y-38833214D02*
X271579285Y-39247976D01*
X271865000Y-39024642D01*
X271865000Y-39120357D01*
X271900714Y-39184166D01*
X271936428Y-39216071D01*
X272007857Y-39247976D01*
X272186428Y-39247976D01*
X272257857Y-39216071D01*
X272293571Y-39184166D01*
X272329285Y-39120357D01*
X272329285Y-38928928D01*
X272293571Y-38865119D01*
X272257857Y-38833214D01*
X274879285Y-36599880D02*
X274879285Y-36217023D01*
X274879285Y-36408452D02*
X274129285Y-36408452D01*
X274236428Y-36344642D01*
X274307857Y-36280833D01*
X274343571Y-36217023D01*
X274129285Y-37206071D02*
X274129285Y-36887023D01*
X274486428Y-36855119D01*
X274450714Y-36887023D01*
X274415000Y-36950833D01*
X274415000Y-37110357D01*
X274450714Y-37174166D01*
X274486428Y-37206071D01*
X274557857Y-37237976D01*
X274736428Y-37237976D01*
X274807857Y-37206071D01*
X274843571Y-37174166D01*
X274879285Y-37110357D01*
X274879285Y-36950833D01*
X274843571Y-36887023D01*
X274807857Y-36855119D01*
X274093571Y-38003690D02*
X275057857Y-37429404D01*
X274486428Y-38450357D02*
X274522142Y-38546071D01*
X274557857Y-38577976D01*
X274629285Y-38609880D01*
X274736428Y-38609880D01*
X274807857Y-38577976D01*
X274843571Y-38546071D01*
X274879285Y-38482261D01*
X274879285Y-38227023D01*
X274129285Y-38227023D01*
X274129285Y-38450357D01*
X274165000Y-38514166D01*
X274200714Y-38546071D01*
X274272142Y-38577976D01*
X274343571Y-38577976D01*
X274415000Y-38546071D01*
X274450714Y-38514166D01*
X274486428Y-38450357D01*
X274486428Y-38227023D01*
X274879285Y-39247976D02*
X274879285Y-38865119D01*
X274879285Y-39056547D02*
X274129285Y-39056547D01*
X274236428Y-38992738D01*
X274307857Y-38928928D01*
X274343571Y-38865119D01*
X277215000Y-36296785D02*
X277215000Y-36615833D01*
X277429285Y-36232976D02*
X276679285Y-36456309D01*
X277429285Y-36679642D01*
X276679285Y-37030595D02*
X276679285Y-37094404D01*
X276715000Y-37158214D01*
X276750714Y-37190119D01*
X276822142Y-37222023D01*
X276965000Y-37253928D01*
X277143571Y-37253928D01*
X277286428Y-37222023D01*
X277357857Y-37190119D01*
X277393571Y-37158214D01*
X277429285Y-37094404D01*
X277429285Y-37030595D01*
X277393571Y-36966785D01*
X277357857Y-36934880D01*
X277286428Y-36902976D01*
X277143571Y-36871071D01*
X276965000Y-36871071D01*
X276822142Y-36902976D01*
X276750714Y-36934880D01*
X276715000Y-36966785D01*
X276679285Y-37030595D01*
X276643571Y-38019642D02*
X277607857Y-37445357D01*
X277036428Y-38466309D02*
X277036428Y-38242976D01*
X277429285Y-38242976D02*
X276679285Y-38242976D01*
X276679285Y-38562023D01*
X276679285Y-38753452D02*
X276679285Y-39200119D01*
X277429285Y-38912976D01*
X279765000Y-36296785D02*
X279765000Y-36615833D01*
X279979285Y-36232976D02*
X279229285Y-36456309D01*
X279979285Y-36679642D01*
X279979285Y-37253928D02*
X279979285Y-36871071D01*
X279979285Y-37062500D02*
X279229285Y-37062500D01*
X279336428Y-36998690D01*
X279407857Y-36934880D01*
X279443571Y-36871071D01*
X279193571Y-38019642D02*
X280157857Y-37445357D01*
X279586428Y-38466309D02*
X279586428Y-38242976D01*
X279979285Y-38242976D02*
X279229285Y-38242976D01*
X279229285Y-38562023D01*
X279229285Y-39104404D02*
X279229285Y-38976785D01*
X279265000Y-38912976D01*
X279300714Y-38881071D01*
X279407857Y-38817261D01*
X279550714Y-38785357D01*
X279836428Y-38785357D01*
X279907857Y-38817261D01*
X279943571Y-38849166D01*
X279979285Y-38912976D01*
X279979285Y-39040595D01*
X279943571Y-39104404D01*
X279907857Y-39136309D01*
X279836428Y-39168214D01*
X279657857Y-39168214D01*
X279586428Y-39136309D01*
X279550714Y-39104404D01*
X279515000Y-39040595D01*
X279515000Y-38912976D01*
X279550714Y-38849166D01*
X279586428Y-38817261D01*
X279657857Y-38785357D01*
X282265000Y-36296785D02*
X282265000Y-36615833D01*
X282479285Y-36232976D02*
X281729285Y-36456309D01*
X282479285Y-36679642D01*
X281800714Y-36871071D02*
X281765000Y-36902976D01*
X281729285Y-36966785D01*
X281729285Y-37126309D01*
X281765000Y-37190119D01*
X281800714Y-37222023D01*
X281872142Y-37253928D01*
X281943571Y-37253928D01*
X282050714Y-37222023D01*
X282479285Y-36839166D01*
X282479285Y-37253928D01*
X281693571Y-38019642D02*
X282657857Y-37445357D01*
X282086428Y-38466309D02*
X282086428Y-38242976D01*
X282479285Y-38242976D02*
X281729285Y-38242976D01*
X281729285Y-38562023D01*
X281729285Y-39136309D02*
X281729285Y-38817261D01*
X282086428Y-38785357D01*
X282050714Y-38817261D01*
X282015000Y-38881071D01*
X282015000Y-39040595D01*
X282050714Y-39104404D01*
X282086428Y-39136309D01*
X282157857Y-39168214D01*
X282336428Y-39168214D01*
X282407857Y-39136309D01*
X282443571Y-39104404D01*
X282479285Y-39040595D01*
X282479285Y-38881071D01*
X282443571Y-38817261D01*
X282407857Y-38785357D01*
X284655000Y-36296785D02*
X284655000Y-36615833D01*
X284869285Y-36232976D02*
X284119285Y-36456309D01*
X284869285Y-36679642D01*
X284119285Y-36839166D02*
X284119285Y-37253928D01*
X284405000Y-37030595D01*
X284405000Y-37126309D01*
X284440714Y-37190119D01*
X284476428Y-37222023D01*
X284547857Y-37253928D01*
X284726428Y-37253928D01*
X284797857Y-37222023D01*
X284833571Y-37190119D01*
X284869285Y-37126309D01*
X284869285Y-36934880D01*
X284833571Y-36871071D01*
X284797857Y-36839166D01*
X284083571Y-38019642D02*
X285047857Y-37445357D01*
X284476428Y-38466309D02*
X284476428Y-38242976D01*
X284869285Y-38242976D02*
X284119285Y-38242976D01*
X284119285Y-38562023D01*
X284369285Y-39104404D02*
X284869285Y-39104404D01*
X284083571Y-38944880D02*
X284619285Y-38785357D01*
X284619285Y-39200119D01*
X286929285Y-37439166D02*
X287679285Y-37662500D01*
X286929285Y-37885833D01*
X287607857Y-38492023D02*
X287643571Y-38460119D01*
X287679285Y-38364404D01*
X287679285Y-38300595D01*
X287643571Y-38204880D01*
X287572142Y-38141071D01*
X287500714Y-38109166D01*
X287357857Y-38077261D01*
X287250714Y-38077261D01*
X287107857Y-38109166D01*
X287036428Y-38141071D01*
X286965000Y-38204880D01*
X286929285Y-38300595D01*
X286929285Y-38364404D01*
X286965000Y-38460119D01*
X287000714Y-38492023D01*
X287607857Y-39162023D02*
X287643571Y-39130119D01*
X287679285Y-39034404D01*
X287679285Y-38970595D01*
X287643571Y-38874880D01*
X287572142Y-38811071D01*
X287500714Y-38779166D01*
X287357857Y-38747261D01*
X287250714Y-38747261D01*
X287107857Y-38779166D01*
X287036428Y-38811071D01*
X286965000Y-38874880D01*
X286929285Y-38970595D01*
X286929285Y-39034404D01*
X286965000Y-39130119D01*
X287000714Y-39162023D01*
X290129285Y-37965595D02*
X289772142Y-37742261D01*
X290129285Y-37582738D02*
X289379285Y-37582738D01*
X289379285Y-37837976D01*
X289415000Y-37901785D01*
X289450714Y-37933690D01*
X289522142Y-37965595D01*
X289629285Y-37965595D01*
X289700714Y-37933690D01*
X289736428Y-37901785D01*
X289772142Y-37837976D01*
X289772142Y-37582738D01*
X290093571Y-38220833D02*
X290129285Y-38316547D01*
X290129285Y-38476071D01*
X290093571Y-38539880D01*
X290057857Y-38571785D01*
X289986428Y-38603690D01*
X289915000Y-38603690D01*
X289843571Y-38571785D01*
X289807857Y-38539880D01*
X289772142Y-38476071D01*
X289736428Y-38348452D01*
X289700714Y-38284642D01*
X289665000Y-38252738D01*
X289593571Y-38220833D01*
X289522142Y-38220833D01*
X289450714Y-38252738D01*
X289415000Y-38284642D01*
X289379285Y-38348452D01*
X289379285Y-38507976D01*
X289415000Y-38603690D01*
X289379285Y-38795119D02*
X289379285Y-39177976D01*
X290129285Y-38986547D02*
X289379285Y-38986547D01*
X291965000Y-37822023D02*
X291929285Y-37758214D01*
X291929285Y-37662500D01*
X291965000Y-37566785D01*
X292036428Y-37502976D01*
X292107857Y-37471071D01*
X292250714Y-37439166D01*
X292357857Y-37439166D01*
X292500714Y-37471071D01*
X292572142Y-37502976D01*
X292643571Y-37566785D01*
X292679285Y-37662500D01*
X292679285Y-37726309D01*
X292643571Y-37822023D01*
X292607857Y-37853928D01*
X292357857Y-37853928D01*
X292357857Y-37726309D01*
X292679285Y-38141071D02*
X291929285Y-38141071D01*
X292679285Y-38523928D01*
X291929285Y-38523928D01*
X292679285Y-38842976D02*
X291929285Y-38842976D01*
X291929285Y-39002500D01*
X291965000Y-39098214D01*
X292036428Y-39162023D01*
X292107857Y-39193928D01*
X292250714Y-39225833D01*
X292357857Y-39225833D01*
X292500714Y-39193928D01*
X292572142Y-39162023D01*
X292643571Y-39098214D01*
X292679285Y-39002500D01*
X292679285Y-38842976D01*
X295229285Y-37869880D02*
X294872142Y-37646547D01*
X295229285Y-37487023D02*
X294479285Y-37487023D01*
X294479285Y-37742261D01*
X294515000Y-37806071D01*
X294550714Y-37837976D01*
X294622142Y-37869880D01*
X294729285Y-37869880D01*
X294800714Y-37837976D01*
X294836428Y-37806071D01*
X294872142Y-37742261D01*
X294872142Y-37487023D01*
X295015000Y-38125119D02*
X295015000Y-38444166D01*
X295229285Y-38061309D02*
X294479285Y-38284642D01*
X295229285Y-38507976D01*
X294479285Y-38667500D02*
X295229285Y-38827023D01*
X294693571Y-38954642D01*
X295229285Y-39082261D01*
X294479285Y-39241785D01*
D10*
X298632380Y-50935119D02*
X298156190Y-50601785D01*
X298632380Y-50363690D02*
X297632380Y-50363690D01*
X297632380Y-50744642D01*
X297680000Y-50839880D01*
X297727619Y-50887500D01*
X297822857Y-50935119D01*
X297965714Y-50935119D01*
X298060952Y-50887500D01*
X298108571Y-50839880D01*
X298156190Y-50744642D01*
X298156190Y-50363690D01*
X298108571Y-51363690D02*
X298108571Y-51697023D01*
X298632380Y-51839880D02*
X298632380Y-51363690D01*
X297632380Y-51363690D01*
X297632380Y-51839880D01*
X298584761Y-52220833D02*
X298632380Y-52363690D01*
X298632380Y-52601785D01*
X298584761Y-52697023D01*
X298537142Y-52744642D01*
X298441904Y-52792261D01*
X298346666Y-52792261D01*
X298251428Y-52744642D01*
X298203809Y-52697023D01*
X298156190Y-52601785D01*
X298108571Y-52411309D01*
X298060952Y-52316071D01*
X298013333Y-52268452D01*
X297918095Y-52220833D01*
X297822857Y-52220833D01*
X297727619Y-52268452D01*
X297680000Y-52316071D01*
X297632380Y-52411309D01*
X297632380Y-52649404D01*
X297680000Y-52792261D01*
X298108571Y-53220833D02*
X298108571Y-53554166D01*
X298632380Y-53697023D02*
X298632380Y-53220833D01*
X297632380Y-53220833D01*
X297632380Y-53697023D01*
X297632380Y-53982738D02*
X297632380Y-54554166D01*
X298632380Y-54268452D02*
X297632380Y-54268452D01*
M02*
