M48
; DRILL file {KiCad (5.1.2-1)-1} date 2019 August 02, Friday 10:41:30
; FORMAT={-:-/ absolute / metric / decimal}
; #@! TF.CreationDate,2019-08-02T10:41:30+09:00
; #@! TF.GenerationSoftware,Kicad,Pcbnew,(5.1.2-1)-1
; #@! TF.FileFunction,Plated,1,2,PTH
FMAT,2
METRIC
T1C0.400
T2C0.813
T3C1.000
T4C1.300
T5C1.470
%
G90
G05
T1
X172.977Y-44.909
T2
X204.788Y-48.578
X204.788Y-56.197
X266.928Y-25.726
X266.928Y-40.946
X269.468Y-25.726
X269.468Y-40.946
X272.008Y-25.726
X272.008Y-40.946
X274.548Y-25.726
X274.548Y-40.946
X277.088Y-25.726
X277.088Y-40.946
X279.628Y-25.726
X279.628Y-40.946
X282.168Y-25.726
X282.168Y-40.946
X284.708Y-25.726
X284.708Y-40.946
X287.248Y-25.726
X287.248Y-40.946
X289.788Y-25.726
X289.788Y-40.946
X292.328Y-25.726
X292.328Y-40.946
X294.868Y-25.726
X294.868Y-40.946
X234.553Y-29.527
X234.553Y-37.148
X282.178Y-48.578
X282.178Y-56.197
X195.262Y-29.527
X195.262Y-37.148
X261.938Y-105.728
X261.938Y-113.348
X219.075Y-86.677
X219.075Y-94.297
X223.838Y-105.728
X223.838Y-113.348
X282.178Y-105.728
X282.178Y-113.348
X204.788Y-105.728
X204.788Y-113.348
X242.888Y-48.578
X242.888Y-56.197
X251.222Y-29.527
X251.222Y-37.148
X232.172Y-29.527
X232.172Y-37.148
X279.797Y-48.578
X279.797Y-56.197
X177.403Y-29.527
X177.403Y-37.148
X190.5Y-67.627
X190.5Y-75.248
X228.6Y-67.627
X228.6Y-75.248
X171.45Y-67.627
X171.45Y-75.248
X238.125Y-86.677
X238.125Y-94.297
X223.838Y-48.578
X223.838Y-56.197
X258.366Y-86.677
X258.366Y-94.297
X209.55Y-67.627
X209.55Y-75.248
X214.312Y-29.527
X214.312Y-37.148
X261.938Y-48.578
X261.938Y-56.197
X279.797Y-105.728
X279.797Y-113.348
X185.738Y-48.578
X185.738Y-56.197
X200.025Y-86.677
X200.025Y-94.297
X255.984Y-86.677
X255.984Y-94.297
X180.975Y-86.677
X180.975Y-94.297
X253.603Y-29.527
X253.603Y-37.148
X242.888Y-105.728
X242.888Y-113.348
X266.7Y-67.627
X266.7Y-75.248
X175.022Y-29.527
X175.022Y-37.148
X166.688Y-48.578
X166.688Y-56.197
X247.65Y-67.627
X247.65Y-75.248
T4
X298.18Y-49.137
X298.18Y-55.637
T5
X178.475Y-67.438
X183.475Y-66.938
X183.238Y-29.337
X188.238Y-28.837
X259.438Y-29.337
X264.438Y-28.837
X268.962Y-105.538
X273.962Y-105.038
X221.338Y-29.337
X226.338Y-28.837
X240.388Y-29.337
X245.388Y-28.837
X226.1Y-86.487
X231.1Y-85.987
X164.188Y-29.337
X169.188Y-28.837
X202.288Y-29.337
X207.288Y-28.837
X188.0Y-86.487
X193.0Y-85.987
X154.662Y-48.387
X159.662Y-47.887
X283.25Y-29.337
X288.25Y-28.837
X288.012Y-105.538
X293.012Y-105.038
X192.762Y-48.387
X197.762Y-47.887
X173.712Y-48.387
X178.712Y-47.887
X235.625Y-67.438
X240.625Y-66.938
X192.762Y-105.538
X197.762Y-105.038
X211.812Y-105.538
X216.812Y-105.038
X197.525Y-67.438
X202.525Y-66.938
X254.675Y-67.438
X259.675Y-66.938
X207.05Y-86.487
X212.05Y-85.987
X230.862Y-48.387
X235.862Y-47.887
X168.95Y-86.487
X173.95Y-85.987
X276.106Y-86.487
X281.106Y-85.987
X145.138Y-29.337
X150.138Y-28.837
X230.862Y-105.538
X235.862Y-105.038
X268.962Y-48.387
X273.962Y-47.887
X159.425Y-67.438
X164.425Y-66.938
X216.575Y-67.438
X221.575Y-66.938
X286.012Y-59.955
X286.512Y-64.955
X245.15Y-86.487
X250.15Y-85.987
X211.812Y-48.387
X216.812Y-47.887
X249.912Y-48.387
X254.912Y-47.887
X249.912Y-105.538
X254.912Y-105.038
T3
G00X155.062Y-27.51
M15
G01X155.062Y-27.01
M16
G05
G00X155.062Y-30.51
M15
G01X155.062Y-30.01
M16
G05
G00X155.062Y-34.51
M15
G01X155.062Y-34.01
M16
G05
G00X159.262Y-36.01
M15
G01X159.262Y-35.51
M16
G05
T0
M30
