G04 #@! TF.GenerationSoftware,KiCad,Pcbnew,(5.1.2-1)-1*
G04 #@! TF.CreationDate,2019-08-02T10:41:21+09:00*
G04 #@! TF.ProjectId,split-ask_right,73706c69-742d-4617-936b-5f7269676874,rev?*
G04 #@! TF.SameCoordinates,Original*
G04 #@! TF.FileFunction,Soldermask,Top*
G04 #@! TF.FilePolarity,Negative*
%FSLAX46Y46*%
G04 Gerber Fmt 4.6, Leading zero omitted, Abs format (unit mm)*
G04 Created by KiCad (PCBNEW (5.1.2-1)-1) date 2019-08-02 10:41:21*
%MOMM*%
%LPD*%
G04 APERTURE LIST*
%ADD10C,0.300000*%
%ADD11C,0.100000*%
G04 APERTURE END LIST*
D10*
X198607142Y-81607142D02*
X198821428Y-81678571D01*
X199178571Y-81678571D01*
X199321428Y-81607142D01*
X199392857Y-81535714D01*
X199464285Y-81392857D01*
X199464285Y-81250000D01*
X199392857Y-81107142D01*
X199321428Y-81035714D01*
X199178571Y-80964285D01*
X198892857Y-80892857D01*
X198750000Y-80821428D01*
X198678571Y-80750000D01*
X198607142Y-80607142D01*
X198607142Y-80464285D01*
X198678571Y-80321428D01*
X198750000Y-80250000D01*
X198892857Y-80178571D01*
X199250000Y-80178571D01*
X199464285Y-80250000D01*
X200107142Y-80678571D02*
X200107142Y-82178571D01*
X200107142Y-80750000D02*
X200250000Y-80678571D01*
X200535714Y-80678571D01*
X200678571Y-80750000D01*
X200750000Y-80821428D01*
X200821428Y-80964285D01*
X200821428Y-81392857D01*
X200750000Y-81535714D01*
X200678571Y-81607142D01*
X200535714Y-81678571D01*
X200250000Y-81678571D01*
X200107142Y-81607142D01*
X201678571Y-81678571D02*
X201535714Y-81607142D01*
X201464285Y-81464285D01*
X201464285Y-80178571D01*
X202250000Y-81678571D02*
X202250000Y-80678571D01*
X202250000Y-80178571D02*
X202178571Y-80250000D01*
X202250000Y-80321428D01*
X202321428Y-80250000D01*
X202250000Y-80178571D01*
X202250000Y-80321428D01*
X202750000Y-80678571D02*
X203321428Y-80678571D01*
X202964285Y-80178571D02*
X202964285Y-81464285D01*
X203035714Y-81607142D01*
X203178571Y-81678571D01*
X203321428Y-81678571D01*
X204892857Y-81250000D02*
X205607142Y-81250000D01*
X204750000Y-81678571D02*
X205250000Y-80178571D01*
X205750000Y-81678571D01*
X206178571Y-81607142D02*
X206392857Y-81678571D01*
X206750000Y-81678571D01*
X206892857Y-81607142D01*
X206964285Y-81535714D01*
X207035714Y-81392857D01*
X207035714Y-81250000D01*
X206964285Y-81107142D01*
X206892857Y-81035714D01*
X206750000Y-80964285D01*
X206464285Y-80892857D01*
X206321428Y-80821428D01*
X206250000Y-80750000D01*
X206178571Y-80607142D01*
X206178571Y-80464285D01*
X206250000Y-80321428D01*
X206321428Y-80250000D01*
X206464285Y-80178571D01*
X206821428Y-80178571D01*
X207035714Y-80250000D01*
X207678571Y-81678571D02*
X207678571Y-80178571D01*
X208535714Y-81678571D02*
X207892857Y-80821428D01*
X208535714Y-80178571D02*
X207678571Y-81035714D01*
X209178571Y-81535714D02*
X209250000Y-81607142D01*
X209178571Y-81678571D01*
X209107142Y-81607142D01*
X209178571Y-81535714D01*
X209178571Y-81678571D01*
X209178571Y-80750000D02*
X209250000Y-80821428D01*
X209178571Y-80892857D01*
X209107142Y-80821428D01*
X209178571Y-80750000D01*
X209178571Y-80892857D01*
X211892857Y-81678571D02*
X211392857Y-80964285D01*
X211035714Y-81678571D02*
X211035714Y-80178571D01*
X211607142Y-80178571D01*
X211750000Y-80250000D01*
X211821428Y-80321428D01*
X211892857Y-80464285D01*
X211892857Y-80678571D01*
X211821428Y-80821428D01*
X211750000Y-80892857D01*
X211607142Y-80964285D01*
X211035714Y-80964285D01*
X212535714Y-81678571D02*
X212535714Y-80678571D01*
X212535714Y-80178571D02*
X212464285Y-80250000D01*
X212535714Y-80321428D01*
X212607142Y-80250000D01*
X212535714Y-80178571D01*
X212535714Y-80321428D01*
X213892857Y-80678571D02*
X213892857Y-81892857D01*
X213821428Y-82035714D01*
X213750000Y-82107142D01*
X213607142Y-82178571D01*
X213392857Y-82178571D01*
X213250000Y-82107142D01*
X213892857Y-81607142D02*
X213750000Y-81678571D01*
X213464285Y-81678571D01*
X213321428Y-81607142D01*
X213250000Y-81535714D01*
X213178571Y-81392857D01*
X213178571Y-80964285D01*
X213250000Y-80821428D01*
X213321428Y-80750000D01*
X213464285Y-80678571D01*
X213750000Y-80678571D01*
X213892857Y-80750000D01*
X214607142Y-81678571D02*
X214607142Y-80178571D01*
X215250000Y-81678571D02*
X215250000Y-80892857D01*
X215178571Y-80750000D01*
X215035714Y-80678571D01*
X214821428Y-80678571D01*
X214678571Y-80750000D01*
X214607142Y-80821428D01*
X215750000Y-80678571D02*
X216321428Y-80678571D01*
X215964285Y-80178571D02*
X215964285Y-81464285D01*
X216035714Y-81607142D01*
X216178571Y-81678571D01*
X216321428Y-81678571D01*
X217892857Y-81607142D02*
X218107142Y-81678571D01*
X218464285Y-81678571D01*
X218607142Y-81607142D01*
X218678571Y-81535714D01*
X218750000Y-81392857D01*
X218750000Y-81250000D01*
X218678571Y-81107142D01*
X218607142Y-81035714D01*
X218464285Y-80964285D01*
X218178571Y-80892857D01*
X218035714Y-80821428D01*
X217964285Y-80750000D01*
X217892857Y-80607142D01*
X217892857Y-80464285D01*
X217964285Y-80321428D01*
X218035714Y-80250000D01*
X218178571Y-80178571D01*
X218535714Y-80178571D01*
X218750000Y-80250000D01*
X219392857Y-81678571D02*
X219392857Y-80678571D01*
X219392857Y-80178571D02*
X219321428Y-80250000D01*
X219392857Y-80321428D01*
X219464285Y-80250000D01*
X219392857Y-80178571D01*
X219392857Y-80321428D01*
X220750000Y-81678571D02*
X220750000Y-80178571D01*
X220750000Y-81607142D02*
X220607142Y-81678571D01*
X220321428Y-81678571D01*
X220178571Y-81607142D01*
X220107142Y-81535714D01*
X220035714Y-81392857D01*
X220035714Y-80964285D01*
X220107142Y-80821428D01*
X220178571Y-80750000D01*
X220321428Y-80678571D01*
X220607142Y-80678571D01*
X220750000Y-80750000D01*
X222035714Y-81607142D02*
X221892857Y-81678571D01*
X221607142Y-81678571D01*
X221464285Y-81607142D01*
X221392857Y-81464285D01*
X221392857Y-80892857D01*
X221464285Y-80750000D01*
X221607142Y-80678571D01*
X221892857Y-80678571D01*
X222035714Y-80750000D01*
X222107142Y-80892857D01*
X222107142Y-81035714D01*
X221392857Y-81178571D01*
X224964285Y-80107142D02*
X223678571Y-82035714D01*
X226607142Y-81678571D02*
X226607142Y-80178571D01*
X227178571Y-80178571D01*
X227321428Y-80250000D01*
X227392857Y-80321428D01*
X227464285Y-80464285D01*
X227464285Y-80678571D01*
X227392857Y-80821428D01*
X227321428Y-80892857D01*
X227178571Y-80964285D01*
X226607142Y-80964285D01*
X228964285Y-81535714D02*
X228892857Y-81607142D01*
X228678571Y-81678571D01*
X228535714Y-81678571D01*
X228321428Y-81607142D01*
X228178571Y-81464285D01*
X228107142Y-81321428D01*
X228035714Y-81035714D01*
X228035714Y-80821428D01*
X228107142Y-80535714D01*
X228178571Y-80392857D01*
X228321428Y-80250000D01*
X228535714Y-80178571D01*
X228678571Y-80178571D01*
X228892857Y-80250000D01*
X228964285Y-80321428D01*
X230107142Y-80892857D02*
X230321428Y-80964285D01*
X230392857Y-81035714D01*
X230464285Y-81178571D01*
X230464285Y-81392857D01*
X230392857Y-81535714D01*
X230321428Y-81607142D01*
X230178571Y-81678571D01*
X229607142Y-81678571D01*
X229607142Y-80178571D01*
X230107142Y-80178571D01*
X230250000Y-80250000D01*
X230321428Y-80321428D01*
X230392857Y-80464285D01*
X230392857Y-80607142D01*
X230321428Y-80750000D01*
X230250000Y-80821428D01*
X230107142Y-80892857D01*
X229607142Y-80892857D01*
X232250000Y-81678571D02*
X232250000Y-80178571D01*
X232607142Y-80178571D01*
X232821428Y-80250000D01*
X232964285Y-80392857D01*
X233035714Y-80535714D01*
X233107142Y-80821428D01*
X233107142Y-81035714D01*
X233035714Y-81321428D01*
X232964285Y-81464285D01*
X232821428Y-81607142D01*
X232607142Y-81678571D01*
X232250000Y-81678571D01*
X234321428Y-81607142D02*
X234178571Y-81678571D01*
X233892857Y-81678571D01*
X233750000Y-81607142D01*
X233678571Y-81464285D01*
X233678571Y-80892857D01*
X233750000Y-80750000D01*
X233892857Y-80678571D01*
X234178571Y-80678571D01*
X234321428Y-80750000D01*
X234392857Y-80892857D01*
X234392857Y-81035714D01*
X233678571Y-81178571D01*
X234964285Y-81607142D02*
X235107142Y-81678571D01*
X235392857Y-81678571D01*
X235535714Y-81607142D01*
X235607142Y-81464285D01*
X235607142Y-81392857D01*
X235535714Y-81250000D01*
X235392857Y-81178571D01*
X235178571Y-81178571D01*
X235035714Y-81107142D01*
X234964285Y-80964285D01*
X234964285Y-80892857D01*
X235035714Y-80750000D01*
X235178571Y-80678571D01*
X235392857Y-80678571D01*
X235535714Y-80750000D01*
X236250000Y-81678571D02*
X236250000Y-80678571D01*
X236250000Y-80178571D02*
X236178571Y-80250000D01*
X236250000Y-80321428D01*
X236321428Y-80250000D01*
X236250000Y-80178571D01*
X236250000Y-80321428D01*
X237607142Y-80678571D02*
X237607142Y-81892857D01*
X237535714Y-82035714D01*
X237464285Y-82107142D01*
X237321428Y-82178571D01*
X237107142Y-82178571D01*
X236964285Y-82107142D01*
X237607142Y-81607142D02*
X237464285Y-81678571D01*
X237178571Y-81678571D01*
X237035714Y-81607142D01*
X236964285Y-81535714D01*
X236892857Y-81392857D01*
X236892857Y-80964285D01*
X236964285Y-80821428D01*
X237035714Y-80750000D01*
X237178571Y-80678571D01*
X237464285Y-80678571D01*
X237607142Y-80750000D01*
X238321428Y-80678571D02*
X238321428Y-81678571D01*
X238321428Y-80821428D02*
X238392857Y-80750000D01*
X238535714Y-80678571D01*
X238750000Y-80678571D01*
X238892857Y-80750000D01*
X238964285Y-80892857D01*
X238964285Y-81678571D01*
X240250000Y-81607142D02*
X240107142Y-81678571D01*
X239821428Y-81678571D01*
X239678571Y-81607142D01*
X239607142Y-81464285D01*
X239607142Y-80892857D01*
X239678571Y-80750000D01*
X239821428Y-80678571D01*
X240107142Y-80678571D01*
X240250000Y-80750000D01*
X240321428Y-80892857D01*
X240321428Y-81035714D01*
X239607142Y-81178571D01*
X241607142Y-81678571D02*
X241607142Y-80178571D01*
X241607142Y-81607142D02*
X241464285Y-81678571D01*
X241178571Y-81678571D01*
X241035714Y-81607142D01*
X240964285Y-81535714D01*
X240892857Y-81392857D01*
X240892857Y-80964285D01*
X240964285Y-80821428D01*
X241035714Y-80750000D01*
X241178571Y-80678571D01*
X241464285Y-80678571D01*
X241607142Y-80750000D01*
X243464285Y-81678571D02*
X243464285Y-80178571D01*
X243464285Y-80750000D02*
X243607142Y-80678571D01*
X243892857Y-80678571D01*
X244035714Y-80750000D01*
X244107142Y-80821428D01*
X244178571Y-80964285D01*
X244178571Y-81392857D01*
X244107142Y-81535714D01*
X244035714Y-81607142D01*
X243892857Y-81678571D01*
X243607142Y-81678571D01*
X243464285Y-81607142D01*
X244678571Y-80678571D02*
X245035714Y-81678571D01*
X245392857Y-80678571D02*
X245035714Y-81678571D01*
X244892857Y-82035714D01*
X244821428Y-82107142D01*
X244678571Y-82178571D01*
X247964285Y-81678571D02*
X247464285Y-80964285D01*
X247107142Y-81678571D02*
X247107142Y-80178571D01*
X247678571Y-80178571D01*
X247821428Y-80250000D01*
X247892857Y-80321428D01*
X247964285Y-80464285D01*
X247964285Y-80678571D01*
X247892857Y-80821428D01*
X247821428Y-80892857D01*
X247678571Y-80964285D01*
X247107142Y-80964285D01*
X248464285Y-80678571D02*
X248821428Y-81678571D01*
X249178571Y-80678571D02*
X248821428Y-81678571D01*
X248678571Y-82035714D01*
X248607142Y-82107142D01*
X248464285Y-82178571D01*
X249964285Y-81678571D02*
X249821428Y-81607142D01*
X249750000Y-81535714D01*
X249678571Y-81392857D01*
X249678571Y-80964285D01*
X249750000Y-80821428D01*
X249821428Y-80750000D01*
X249964285Y-80678571D01*
X250178571Y-80678571D01*
X250321428Y-80750000D01*
X250392857Y-80821428D01*
X250464285Y-80964285D01*
X250464285Y-81392857D01*
X250392857Y-81535714D01*
X250321428Y-81607142D01*
X250178571Y-81678571D01*
X249964285Y-81678571D01*
X252250000Y-81678571D02*
X252250000Y-80178571D01*
X253107142Y-81678571D01*
X253107142Y-80178571D01*
X254464285Y-81678571D02*
X254464285Y-80892857D01*
X254392857Y-80750000D01*
X254250000Y-80678571D01*
X253964285Y-80678571D01*
X253821428Y-80750000D01*
X254464285Y-81607142D02*
X254321428Y-81678571D01*
X253964285Y-81678571D01*
X253821428Y-81607142D01*
X253750000Y-81464285D01*
X253750000Y-81321428D01*
X253821428Y-81178571D01*
X253964285Y-81107142D01*
X254321428Y-81107142D01*
X254464285Y-81035714D01*
X255178571Y-81678571D02*
X255178571Y-80178571D01*
X255321428Y-81107142D02*
X255750000Y-81678571D01*
X255750000Y-80678571D02*
X255178571Y-81250000D01*
X257035714Y-81678571D02*
X257035714Y-80892857D01*
X256964285Y-80750000D01*
X256821428Y-80678571D01*
X256535714Y-80678571D01*
X256392857Y-80750000D01*
X257035714Y-81607142D02*
X256892857Y-81678571D01*
X256535714Y-81678571D01*
X256392857Y-81607142D01*
X256321428Y-81464285D01*
X256321428Y-81321428D01*
X256392857Y-81178571D01*
X256535714Y-81107142D01*
X256892857Y-81107142D01*
X257035714Y-81035714D01*
X258321428Y-81607142D02*
X258178571Y-81678571D01*
X257892857Y-81678571D01*
X257750000Y-81607142D01*
X257678571Y-81464285D01*
X257678571Y-80892857D01*
X257750000Y-80750000D01*
X257892857Y-80678571D01*
X258178571Y-80678571D01*
X258321428Y-80750000D01*
X258392857Y-80892857D01*
X258392857Y-81035714D01*
X257678571Y-81178571D01*
D11*
G36*
X282927500Y-114097500D02*
G01*
X281428500Y-114097500D01*
X281428500Y-112598500D01*
X282927500Y-112598500D01*
X282927500Y-114097500D01*
X282927500Y-114097500D01*
G37*
G36*
X280546500Y-114097500D02*
G01*
X279047500Y-114097500D01*
X279047500Y-112598500D01*
X280546500Y-112598500D01*
X280546500Y-114097500D01*
X280546500Y-114097500D01*
G37*
G36*
X262687500Y-114097500D02*
G01*
X261188500Y-114097500D01*
X261188500Y-112598500D01*
X262687500Y-112598500D01*
X262687500Y-114097500D01*
X262687500Y-114097500D01*
G37*
G36*
X243637500Y-114097500D02*
G01*
X242138500Y-114097500D01*
X242138500Y-112598500D01*
X243637500Y-112598500D01*
X243637500Y-114097500D01*
X243637500Y-114097500D01*
G37*
G36*
X224587500Y-114097500D02*
G01*
X223088500Y-114097500D01*
X223088500Y-112598500D01*
X224587500Y-112598500D01*
X224587500Y-114097500D01*
X224587500Y-114097500D01*
G37*
G36*
X205537500Y-114097500D02*
G01*
X204038500Y-114097500D01*
X204038500Y-112598500D01*
X205537500Y-112598500D01*
X205537500Y-114097500D01*
X205537500Y-114097500D01*
G37*
G36*
X282704000Y-112014000D02*
G01*
X281652000Y-112014000D01*
X281652000Y-110612000D01*
X282704000Y-110612000D01*
X282704000Y-112014000D01*
X282704000Y-112014000D01*
G37*
G36*
X224364000Y-112014000D02*
G01*
X223312000Y-112014000D01*
X223312000Y-110612000D01*
X224364000Y-110612000D01*
X224364000Y-112014000D01*
X224364000Y-112014000D01*
G37*
G36*
X205314000Y-112014000D02*
G01*
X204262000Y-112014000D01*
X204262000Y-110612000D01*
X205314000Y-110612000D01*
X205314000Y-112014000D01*
X205314000Y-112014000D01*
G37*
G36*
X280323000Y-112014000D02*
G01*
X279271000Y-112014000D01*
X279271000Y-110612000D01*
X280323000Y-110612000D01*
X280323000Y-112014000D01*
X280323000Y-112014000D01*
G37*
G36*
X243414000Y-112014000D02*
G01*
X242362000Y-112014000D01*
X242362000Y-110612000D01*
X243414000Y-110612000D01*
X243414000Y-112014000D01*
X243414000Y-112014000D01*
G37*
G36*
X262464000Y-112014000D02*
G01*
X261412000Y-112014000D01*
X261412000Y-110612000D01*
X262464000Y-110612000D01*
X262464000Y-112014000D01*
X262464000Y-112014000D01*
G37*
G36*
X280323000Y-108464000D02*
G01*
X279271000Y-108464000D01*
X279271000Y-107062000D01*
X280323000Y-107062000D01*
X280323000Y-108464000D01*
X280323000Y-108464000D01*
G37*
G36*
X243414000Y-108464000D02*
G01*
X242362000Y-108464000D01*
X242362000Y-107062000D01*
X243414000Y-107062000D01*
X243414000Y-108464000D01*
X243414000Y-108464000D01*
G37*
G36*
X262464000Y-108464000D02*
G01*
X261412000Y-108464000D01*
X261412000Y-107062000D01*
X262464000Y-107062000D01*
X262464000Y-108464000D01*
X262464000Y-108464000D01*
G37*
G36*
X205314000Y-108464000D02*
G01*
X204262000Y-108464000D01*
X204262000Y-107062000D01*
X205314000Y-107062000D01*
X205314000Y-108464000D01*
X205314000Y-108464000D01*
G37*
G36*
X224364000Y-108464000D02*
G01*
X223312000Y-108464000D01*
X223312000Y-107062000D01*
X224364000Y-107062000D01*
X224364000Y-108464000D01*
X224364000Y-108464000D01*
G37*
G36*
X282704000Y-108464000D02*
G01*
X281652000Y-108464000D01*
X281652000Y-107062000D01*
X282704000Y-107062000D01*
X282704000Y-108464000D01*
X282704000Y-108464000D01*
G37*
G36*
X204882425Y-104982599D02*
G01*
X205006621Y-105007302D01*
X205143022Y-105063801D01*
X205265779Y-105145825D01*
X205370175Y-105250221D01*
X205452199Y-105372978D01*
X205508698Y-105509379D01*
X205537500Y-105654181D01*
X205537500Y-105801819D01*
X205508698Y-105946621D01*
X205452199Y-106083022D01*
X205370175Y-106205779D01*
X205265779Y-106310175D01*
X205143022Y-106392199D01*
X205006621Y-106448698D01*
X204882425Y-106473401D01*
X204861820Y-106477500D01*
X204714180Y-106477500D01*
X204693575Y-106473401D01*
X204569379Y-106448698D01*
X204432978Y-106392199D01*
X204310221Y-106310175D01*
X204205825Y-106205779D01*
X204123801Y-106083022D01*
X204067302Y-105946621D01*
X204038500Y-105801819D01*
X204038500Y-105654181D01*
X204067302Y-105509379D01*
X204123801Y-105372978D01*
X204205825Y-105250221D01*
X204310221Y-105145825D01*
X204432978Y-105063801D01*
X204569379Y-105007302D01*
X204693575Y-104982599D01*
X204714180Y-104978500D01*
X204861820Y-104978500D01*
X204882425Y-104982599D01*
X204882425Y-104982599D01*
G37*
G36*
X223932425Y-104982599D02*
G01*
X224056621Y-105007302D01*
X224193022Y-105063801D01*
X224315779Y-105145825D01*
X224420175Y-105250221D01*
X224502199Y-105372978D01*
X224558698Y-105509379D01*
X224587500Y-105654181D01*
X224587500Y-105801819D01*
X224558698Y-105946621D01*
X224502199Y-106083022D01*
X224420175Y-106205779D01*
X224315779Y-106310175D01*
X224193022Y-106392199D01*
X224056621Y-106448698D01*
X223932425Y-106473401D01*
X223911820Y-106477500D01*
X223764180Y-106477500D01*
X223743575Y-106473401D01*
X223619379Y-106448698D01*
X223482978Y-106392199D01*
X223360221Y-106310175D01*
X223255825Y-106205779D01*
X223173801Y-106083022D01*
X223117302Y-105946621D01*
X223088500Y-105801819D01*
X223088500Y-105654181D01*
X223117302Y-105509379D01*
X223173801Y-105372978D01*
X223255825Y-105250221D01*
X223360221Y-105145825D01*
X223482978Y-105063801D01*
X223619379Y-105007302D01*
X223743575Y-104982599D01*
X223764180Y-104978500D01*
X223911820Y-104978500D01*
X223932425Y-104982599D01*
X223932425Y-104982599D01*
G37*
G36*
X282272425Y-104982599D02*
G01*
X282396621Y-105007302D01*
X282533022Y-105063801D01*
X282655779Y-105145825D01*
X282760175Y-105250221D01*
X282842199Y-105372978D01*
X282898698Y-105509379D01*
X282927500Y-105654181D01*
X282927500Y-105801819D01*
X282898698Y-105946621D01*
X282842199Y-106083022D01*
X282760175Y-106205779D01*
X282655779Y-106310175D01*
X282533022Y-106392199D01*
X282396621Y-106448698D01*
X282272425Y-106473401D01*
X282251820Y-106477500D01*
X282104180Y-106477500D01*
X282083575Y-106473401D01*
X281959379Y-106448698D01*
X281822978Y-106392199D01*
X281700221Y-106310175D01*
X281595825Y-106205779D01*
X281513801Y-106083022D01*
X281457302Y-105946621D01*
X281428500Y-105801819D01*
X281428500Y-105654181D01*
X281457302Y-105509379D01*
X281513801Y-105372978D01*
X281595825Y-105250221D01*
X281700221Y-105145825D01*
X281822978Y-105063801D01*
X281959379Y-105007302D01*
X282083575Y-104982599D01*
X282104180Y-104978500D01*
X282251820Y-104978500D01*
X282272425Y-104982599D01*
X282272425Y-104982599D01*
G37*
G36*
X279891425Y-104982599D02*
G01*
X280015621Y-105007302D01*
X280152022Y-105063801D01*
X280274779Y-105145825D01*
X280379175Y-105250221D01*
X280461199Y-105372978D01*
X280517698Y-105509379D01*
X280546500Y-105654181D01*
X280546500Y-105801819D01*
X280517698Y-105946621D01*
X280461199Y-106083022D01*
X280379175Y-106205779D01*
X280274779Y-106310175D01*
X280152022Y-106392199D01*
X280015621Y-106448698D01*
X279891425Y-106473401D01*
X279870820Y-106477500D01*
X279723180Y-106477500D01*
X279702575Y-106473401D01*
X279578379Y-106448698D01*
X279441978Y-106392199D01*
X279319221Y-106310175D01*
X279214825Y-106205779D01*
X279132801Y-106083022D01*
X279076302Y-105946621D01*
X279047500Y-105801819D01*
X279047500Y-105654181D01*
X279076302Y-105509379D01*
X279132801Y-105372978D01*
X279214825Y-105250221D01*
X279319221Y-105145825D01*
X279441978Y-105063801D01*
X279578379Y-105007302D01*
X279702575Y-104982599D01*
X279723180Y-104978500D01*
X279870820Y-104978500D01*
X279891425Y-104982599D01*
X279891425Y-104982599D01*
G37*
G36*
X242982425Y-104982599D02*
G01*
X243106621Y-105007302D01*
X243243022Y-105063801D01*
X243365779Y-105145825D01*
X243470175Y-105250221D01*
X243552199Y-105372978D01*
X243608698Y-105509379D01*
X243637500Y-105654181D01*
X243637500Y-105801819D01*
X243608698Y-105946621D01*
X243552199Y-106083022D01*
X243470175Y-106205779D01*
X243365779Y-106310175D01*
X243243022Y-106392199D01*
X243106621Y-106448698D01*
X242982425Y-106473401D01*
X242961820Y-106477500D01*
X242814180Y-106477500D01*
X242793575Y-106473401D01*
X242669379Y-106448698D01*
X242532978Y-106392199D01*
X242410221Y-106310175D01*
X242305825Y-106205779D01*
X242223801Y-106083022D01*
X242167302Y-105946621D01*
X242138500Y-105801819D01*
X242138500Y-105654181D01*
X242167302Y-105509379D01*
X242223801Y-105372978D01*
X242305825Y-105250221D01*
X242410221Y-105145825D01*
X242532978Y-105063801D01*
X242669379Y-105007302D01*
X242793575Y-104982599D01*
X242814180Y-104978500D01*
X242961820Y-104978500D01*
X242982425Y-104982599D01*
X242982425Y-104982599D01*
G37*
G36*
X262032425Y-104982599D02*
G01*
X262156621Y-105007302D01*
X262293022Y-105063801D01*
X262415779Y-105145825D01*
X262520175Y-105250221D01*
X262602199Y-105372978D01*
X262658698Y-105509379D01*
X262687500Y-105654181D01*
X262687500Y-105801819D01*
X262658698Y-105946621D01*
X262602199Y-106083022D01*
X262520175Y-106205779D01*
X262415779Y-106310175D01*
X262293022Y-106392199D01*
X262156621Y-106448698D01*
X262032425Y-106473401D01*
X262011820Y-106477500D01*
X261864180Y-106477500D01*
X261843575Y-106473401D01*
X261719379Y-106448698D01*
X261582978Y-106392199D01*
X261460221Y-106310175D01*
X261355825Y-106205779D01*
X261273801Y-106083022D01*
X261217302Y-105946621D01*
X261188500Y-105801819D01*
X261188500Y-105654181D01*
X261217302Y-105509379D01*
X261273801Y-105372978D01*
X261355825Y-105250221D01*
X261460221Y-105145825D01*
X261582978Y-105063801D01*
X261719379Y-105007302D01*
X261843575Y-104982599D01*
X261864180Y-104978500D01*
X262011820Y-104978500D01*
X262032425Y-104982599D01*
X262032425Y-104982599D01*
G37*
G36*
X205532098Y-98353033D02*
G01*
X205996350Y-98545332D01*
X205996352Y-98545333D01*
X206414168Y-98824509D01*
X206769491Y-99179832D01*
X207048667Y-99597648D01*
X207048668Y-99597650D01*
X207240967Y-100061902D01*
X207339000Y-100554747D01*
X207339000Y-101057253D01*
X207240967Y-101550098D01*
X207048668Y-102014350D01*
X207048667Y-102014352D01*
X206769491Y-102432168D01*
X206414168Y-102787491D01*
X205996352Y-103066667D01*
X205996351Y-103066668D01*
X205996350Y-103066668D01*
X205532098Y-103258967D01*
X205039253Y-103357000D01*
X204536747Y-103357000D01*
X204043902Y-103258967D01*
X203579650Y-103066668D01*
X203579649Y-103066668D01*
X203579648Y-103066667D01*
X203161832Y-102787491D01*
X202806509Y-102432168D01*
X202527333Y-102014352D01*
X202527332Y-102014350D01*
X202335033Y-101550098D01*
X202237000Y-101057253D01*
X202237000Y-100554747D01*
X202335033Y-100061902D01*
X202527332Y-99597650D01*
X202527333Y-99597648D01*
X202806509Y-99179832D01*
X203161832Y-98824509D01*
X203579648Y-98545333D01*
X203579650Y-98545332D01*
X204043902Y-98353033D01*
X204536747Y-98255000D01*
X205039253Y-98255000D01*
X205532098Y-98353033D01*
X205532098Y-98353033D01*
G37*
G36*
X281732098Y-98353033D02*
G01*
X282196350Y-98545332D01*
X282196352Y-98545333D01*
X282614168Y-98824509D01*
X282969491Y-99179832D01*
X283248667Y-99597648D01*
X283248668Y-99597650D01*
X283440967Y-100061902D01*
X283539000Y-100554747D01*
X283539000Y-101057253D01*
X283440967Y-101550098D01*
X283248668Y-102014350D01*
X283248667Y-102014352D01*
X282969491Y-102432168D01*
X282614168Y-102787491D01*
X282196352Y-103066667D01*
X282196351Y-103066668D01*
X282196350Y-103066668D01*
X281732098Y-103258967D01*
X281239253Y-103357000D01*
X280736747Y-103357000D01*
X280243902Y-103258967D01*
X279779650Y-103066668D01*
X279779649Y-103066668D01*
X279779648Y-103066667D01*
X279361832Y-102787491D01*
X279006509Y-102432168D01*
X278727333Y-102014352D01*
X278727332Y-102014350D01*
X278535033Y-101550098D01*
X278437000Y-101057253D01*
X278437000Y-100554747D01*
X278535033Y-100061902D01*
X278727332Y-99597650D01*
X278727333Y-99597648D01*
X279006509Y-99179832D01*
X279361832Y-98824509D01*
X279779648Y-98545333D01*
X279779650Y-98545332D01*
X280243902Y-98353033D01*
X280736747Y-98255000D01*
X281239253Y-98255000D01*
X281732098Y-98353033D01*
X281732098Y-98353033D01*
G37*
G36*
X181724500Y-95047000D02*
G01*
X180225500Y-95047000D01*
X180225500Y-93548000D01*
X181724500Y-93548000D01*
X181724500Y-95047000D01*
X181724500Y-95047000D01*
G37*
G36*
X200774500Y-95047000D02*
G01*
X199275500Y-95047000D01*
X199275500Y-93548000D01*
X200774500Y-93548000D01*
X200774500Y-95047000D01*
X200774500Y-95047000D01*
G37*
G36*
X219824500Y-95047000D02*
G01*
X218325500Y-95047000D01*
X218325500Y-93548000D01*
X219824500Y-93548000D01*
X219824500Y-95047000D01*
X219824500Y-95047000D01*
G37*
G36*
X238874500Y-95047000D02*
G01*
X237375500Y-95047000D01*
X237375500Y-93548000D01*
X238874500Y-93548000D01*
X238874500Y-95047000D01*
X238874500Y-95047000D01*
G37*
G36*
X256733500Y-95047000D02*
G01*
X255234500Y-95047000D01*
X255234500Y-93548000D01*
X256733500Y-93548000D01*
X256733500Y-95047000D01*
X256733500Y-95047000D01*
G37*
G36*
X259115500Y-95047000D02*
G01*
X257616500Y-95047000D01*
X257616500Y-93548000D01*
X259115500Y-93548000D01*
X259115500Y-95047000D01*
X259115500Y-95047000D01*
G37*
G36*
X258892000Y-92963500D02*
G01*
X257840000Y-92963500D01*
X257840000Y-91561500D01*
X258892000Y-91561500D01*
X258892000Y-92963500D01*
X258892000Y-92963500D01*
G37*
G36*
X238651000Y-92963500D02*
G01*
X237599000Y-92963500D01*
X237599000Y-91561500D01*
X238651000Y-91561500D01*
X238651000Y-92963500D01*
X238651000Y-92963500D01*
G37*
G36*
X181501000Y-92963500D02*
G01*
X180449000Y-92963500D01*
X180449000Y-91561500D01*
X181501000Y-91561500D01*
X181501000Y-92963500D01*
X181501000Y-92963500D01*
G37*
G36*
X200551000Y-92963500D02*
G01*
X199499000Y-92963500D01*
X199499000Y-91561500D01*
X200551000Y-91561500D01*
X200551000Y-92963500D01*
X200551000Y-92963500D01*
G37*
G36*
X219601000Y-92963500D02*
G01*
X218549000Y-92963500D01*
X218549000Y-91561500D01*
X219601000Y-91561500D01*
X219601000Y-92963500D01*
X219601000Y-92963500D01*
G37*
G36*
X256510000Y-92963500D02*
G01*
X255458000Y-92963500D01*
X255458000Y-91561500D01*
X256510000Y-91561500D01*
X256510000Y-92963500D01*
X256510000Y-92963500D01*
G37*
G36*
X181501000Y-89413500D02*
G01*
X180449000Y-89413500D01*
X180449000Y-88011500D01*
X181501000Y-88011500D01*
X181501000Y-89413500D01*
X181501000Y-89413500D01*
G37*
G36*
X200551000Y-89413500D02*
G01*
X199499000Y-89413500D01*
X199499000Y-88011500D01*
X200551000Y-88011500D01*
X200551000Y-89413500D01*
X200551000Y-89413500D01*
G37*
G36*
X219601000Y-89413500D02*
G01*
X218549000Y-89413500D01*
X218549000Y-88011500D01*
X219601000Y-88011500D01*
X219601000Y-89413500D01*
X219601000Y-89413500D01*
G37*
G36*
X238651000Y-89413500D02*
G01*
X237599000Y-89413500D01*
X237599000Y-88011500D01*
X238651000Y-88011500D01*
X238651000Y-89413500D01*
X238651000Y-89413500D01*
G37*
G36*
X256510000Y-89413500D02*
G01*
X255458000Y-89413500D01*
X255458000Y-88011500D01*
X256510000Y-88011500D01*
X256510000Y-89413500D01*
X256510000Y-89413500D01*
G37*
G36*
X258892000Y-89413500D02*
G01*
X257840000Y-89413500D01*
X257840000Y-88011500D01*
X258892000Y-88011500D01*
X258892000Y-89413500D01*
X258892000Y-89413500D01*
G37*
G36*
X200119425Y-85932099D02*
G01*
X200243621Y-85956802D01*
X200380022Y-86013301D01*
X200502779Y-86095325D01*
X200607175Y-86199721D01*
X200689199Y-86322478D01*
X200745698Y-86458879D01*
X200774500Y-86603681D01*
X200774500Y-86751319D01*
X200745698Y-86896121D01*
X200689199Y-87032522D01*
X200607175Y-87155279D01*
X200502779Y-87259675D01*
X200380022Y-87341699D01*
X200243621Y-87398198D01*
X200119425Y-87422901D01*
X200098820Y-87427000D01*
X199951180Y-87427000D01*
X199930575Y-87422901D01*
X199806379Y-87398198D01*
X199669978Y-87341699D01*
X199547221Y-87259675D01*
X199442825Y-87155279D01*
X199360801Y-87032522D01*
X199304302Y-86896121D01*
X199275500Y-86751319D01*
X199275500Y-86603681D01*
X199304302Y-86458879D01*
X199360801Y-86322478D01*
X199442825Y-86199721D01*
X199547221Y-86095325D01*
X199669978Y-86013301D01*
X199806379Y-85956802D01*
X199930575Y-85932099D01*
X199951180Y-85928000D01*
X200098820Y-85928000D01*
X200119425Y-85932099D01*
X200119425Y-85932099D01*
G37*
G36*
X181069425Y-85932099D02*
G01*
X181193621Y-85956802D01*
X181330022Y-86013301D01*
X181452779Y-86095325D01*
X181557175Y-86199721D01*
X181639199Y-86322478D01*
X181695698Y-86458879D01*
X181724500Y-86603681D01*
X181724500Y-86751319D01*
X181695698Y-86896121D01*
X181639199Y-87032522D01*
X181557175Y-87155279D01*
X181452779Y-87259675D01*
X181330022Y-87341699D01*
X181193621Y-87398198D01*
X181069425Y-87422901D01*
X181048820Y-87427000D01*
X180901180Y-87427000D01*
X180880575Y-87422901D01*
X180756379Y-87398198D01*
X180619978Y-87341699D01*
X180497221Y-87259675D01*
X180392825Y-87155279D01*
X180310801Y-87032522D01*
X180254302Y-86896121D01*
X180225500Y-86751319D01*
X180225500Y-86603681D01*
X180254302Y-86458879D01*
X180310801Y-86322478D01*
X180392825Y-86199721D01*
X180497221Y-86095325D01*
X180619978Y-86013301D01*
X180756379Y-85956802D01*
X180880575Y-85932099D01*
X180901180Y-85928000D01*
X181048820Y-85928000D01*
X181069425Y-85932099D01*
X181069425Y-85932099D01*
G37*
G36*
X258460425Y-85932099D02*
G01*
X258584621Y-85956802D01*
X258721022Y-86013301D01*
X258843779Y-86095325D01*
X258948175Y-86199721D01*
X259030199Y-86322478D01*
X259086698Y-86458879D01*
X259115500Y-86603681D01*
X259115500Y-86751319D01*
X259086698Y-86896121D01*
X259030199Y-87032522D01*
X258948175Y-87155279D01*
X258843779Y-87259675D01*
X258721022Y-87341699D01*
X258584621Y-87398198D01*
X258460425Y-87422901D01*
X258439820Y-87427000D01*
X258292180Y-87427000D01*
X258271575Y-87422901D01*
X258147379Y-87398198D01*
X258010978Y-87341699D01*
X257888221Y-87259675D01*
X257783825Y-87155279D01*
X257701801Y-87032522D01*
X257645302Y-86896121D01*
X257616500Y-86751319D01*
X257616500Y-86603681D01*
X257645302Y-86458879D01*
X257701801Y-86322478D01*
X257783825Y-86199721D01*
X257888221Y-86095325D01*
X258010978Y-86013301D01*
X258147379Y-85956802D01*
X258271575Y-85932099D01*
X258292180Y-85928000D01*
X258439820Y-85928000D01*
X258460425Y-85932099D01*
X258460425Y-85932099D01*
G37*
G36*
X256078425Y-85932099D02*
G01*
X256202621Y-85956802D01*
X256339022Y-86013301D01*
X256461779Y-86095325D01*
X256566175Y-86199721D01*
X256648199Y-86322478D01*
X256704698Y-86458879D01*
X256733500Y-86603681D01*
X256733500Y-86751319D01*
X256704698Y-86896121D01*
X256648199Y-87032522D01*
X256566175Y-87155279D01*
X256461779Y-87259675D01*
X256339022Y-87341699D01*
X256202621Y-87398198D01*
X256078425Y-87422901D01*
X256057820Y-87427000D01*
X255910180Y-87427000D01*
X255889575Y-87422901D01*
X255765379Y-87398198D01*
X255628978Y-87341699D01*
X255506221Y-87259675D01*
X255401825Y-87155279D01*
X255319801Y-87032522D01*
X255263302Y-86896121D01*
X255234500Y-86751319D01*
X255234500Y-86603681D01*
X255263302Y-86458879D01*
X255319801Y-86322478D01*
X255401825Y-86199721D01*
X255506221Y-86095325D01*
X255628978Y-86013301D01*
X255765379Y-85956802D01*
X255889575Y-85932099D01*
X255910180Y-85928000D01*
X256057820Y-85928000D01*
X256078425Y-85932099D01*
X256078425Y-85932099D01*
G37*
G36*
X219169425Y-85932099D02*
G01*
X219293621Y-85956802D01*
X219430022Y-86013301D01*
X219552779Y-86095325D01*
X219657175Y-86199721D01*
X219739199Y-86322478D01*
X219795698Y-86458879D01*
X219824500Y-86603681D01*
X219824500Y-86751319D01*
X219795698Y-86896121D01*
X219739199Y-87032522D01*
X219657175Y-87155279D01*
X219552779Y-87259675D01*
X219430022Y-87341699D01*
X219293621Y-87398198D01*
X219169425Y-87422901D01*
X219148820Y-87427000D01*
X219001180Y-87427000D01*
X218980575Y-87422901D01*
X218856379Y-87398198D01*
X218719978Y-87341699D01*
X218597221Y-87259675D01*
X218492825Y-87155279D01*
X218410801Y-87032522D01*
X218354302Y-86896121D01*
X218325500Y-86751319D01*
X218325500Y-86603681D01*
X218354302Y-86458879D01*
X218410801Y-86322478D01*
X218492825Y-86199721D01*
X218597221Y-86095325D01*
X218719978Y-86013301D01*
X218856379Y-85956802D01*
X218980575Y-85932099D01*
X219001180Y-85928000D01*
X219148820Y-85928000D01*
X219169425Y-85932099D01*
X219169425Y-85932099D01*
G37*
G36*
X238219425Y-85932099D02*
G01*
X238343621Y-85956802D01*
X238480022Y-86013301D01*
X238602779Y-86095325D01*
X238707175Y-86199721D01*
X238789199Y-86322478D01*
X238845698Y-86458879D01*
X238874500Y-86603681D01*
X238874500Y-86751319D01*
X238845698Y-86896121D01*
X238789199Y-87032522D01*
X238707175Y-87155279D01*
X238602779Y-87259675D01*
X238480022Y-87341699D01*
X238343621Y-87398198D01*
X238219425Y-87422901D01*
X238198820Y-87427000D01*
X238051180Y-87427000D01*
X238030575Y-87422901D01*
X237906379Y-87398198D01*
X237769978Y-87341699D01*
X237647221Y-87259675D01*
X237542825Y-87155279D01*
X237460801Y-87032522D01*
X237404302Y-86896121D01*
X237375500Y-86751319D01*
X237375500Y-86603681D01*
X237404302Y-86458879D01*
X237460801Y-86322478D01*
X237542825Y-86199721D01*
X237647221Y-86095325D01*
X237769978Y-86013301D01*
X237906379Y-85956802D01*
X238030575Y-85932099D01*
X238051180Y-85928000D01*
X238198820Y-85928000D01*
X238219425Y-85932099D01*
X238219425Y-85932099D01*
G37*
G36*
X267449500Y-75997000D02*
G01*
X265950500Y-75997000D01*
X265950500Y-74498000D01*
X267449500Y-74498000D01*
X267449500Y-75997000D01*
X267449500Y-75997000D01*
G37*
G36*
X172199500Y-75997000D02*
G01*
X170700500Y-75997000D01*
X170700500Y-74498000D01*
X172199500Y-74498000D01*
X172199500Y-75997000D01*
X172199500Y-75997000D01*
G37*
G36*
X191249500Y-75997000D02*
G01*
X189750500Y-75997000D01*
X189750500Y-74498000D01*
X191249500Y-74498000D01*
X191249500Y-75997000D01*
X191249500Y-75997000D01*
G37*
G36*
X210299500Y-75997000D02*
G01*
X208800500Y-75997000D01*
X208800500Y-74498000D01*
X210299500Y-74498000D01*
X210299500Y-75997000D01*
X210299500Y-75997000D01*
G37*
G36*
X229349500Y-75997000D02*
G01*
X227850500Y-75997000D01*
X227850500Y-74498000D01*
X229349500Y-74498000D01*
X229349500Y-75997000D01*
X229349500Y-75997000D01*
G37*
G36*
X248399500Y-75997000D02*
G01*
X246900500Y-75997000D01*
X246900500Y-74498000D01*
X248399500Y-74498000D01*
X248399500Y-75997000D01*
X248399500Y-75997000D01*
G37*
G36*
X248176000Y-73913500D02*
G01*
X247124000Y-73913500D01*
X247124000Y-72511500D01*
X248176000Y-72511500D01*
X248176000Y-73913500D01*
X248176000Y-73913500D01*
G37*
G36*
X229126000Y-73913500D02*
G01*
X228074000Y-73913500D01*
X228074000Y-72511500D01*
X229126000Y-72511500D01*
X229126000Y-73913500D01*
X229126000Y-73913500D01*
G37*
G36*
X267226000Y-73913500D02*
G01*
X266174000Y-73913500D01*
X266174000Y-72511500D01*
X267226000Y-72511500D01*
X267226000Y-73913500D01*
X267226000Y-73913500D01*
G37*
G36*
X210076000Y-73913500D02*
G01*
X209024000Y-73913500D01*
X209024000Y-72511500D01*
X210076000Y-72511500D01*
X210076000Y-73913500D01*
X210076000Y-73913500D01*
G37*
G36*
X191026000Y-73913500D02*
G01*
X189974000Y-73913500D01*
X189974000Y-72511500D01*
X191026000Y-72511500D01*
X191026000Y-73913500D01*
X191026000Y-73913500D01*
G37*
G36*
X171976000Y-73913500D02*
G01*
X170924000Y-73913500D01*
X170924000Y-72511500D01*
X171976000Y-72511500D01*
X171976000Y-73913500D01*
X171976000Y-73913500D01*
G37*
G36*
X171976000Y-70363500D02*
G01*
X170924000Y-70363500D01*
X170924000Y-68961500D01*
X171976000Y-68961500D01*
X171976000Y-70363500D01*
X171976000Y-70363500D01*
G37*
G36*
X267226000Y-70363500D02*
G01*
X266174000Y-70363500D01*
X266174000Y-68961500D01*
X267226000Y-68961500D01*
X267226000Y-70363500D01*
X267226000Y-70363500D01*
G37*
G36*
X248176000Y-70363500D02*
G01*
X247124000Y-70363500D01*
X247124000Y-68961500D01*
X248176000Y-68961500D01*
X248176000Y-70363500D01*
X248176000Y-70363500D01*
G37*
G36*
X191026000Y-70363500D02*
G01*
X189974000Y-70363500D01*
X189974000Y-68961500D01*
X191026000Y-68961500D01*
X191026000Y-70363500D01*
X191026000Y-70363500D01*
G37*
G36*
X229126000Y-70363500D02*
G01*
X228074000Y-70363500D01*
X228074000Y-68961500D01*
X229126000Y-68961500D01*
X229126000Y-70363500D01*
X229126000Y-70363500D01*
G37*
G36*
X210076000Y-70363500D02*
G01*
X209024000Y-70363500D01*
X209024000Y-68961500D01*
X210076000Y-68961500D01*
X210076000Y-70363500D01*
X210076000Y-70363500D01*
G37*
G36*
X247744425Y-66882099D02*
G01*
X247868621Y-66906802D01*
X248005022Y-66963301D01*
X248127779Y-67045325D01*
X248232175Y-67149721D01*
X248314199Y-67272478D01*
X248370698Y-67408879D01*
X248399500Y-67553681D01*
X248399500Y-67701319D01*
X248370698Y-67846121D01*
X248314199Y-67982522D01*
X248232175Y-68105279D01*
X248127779Y-68209675D01*
X248005022Y-68291699D01*
X247868621Y-68348198D01*
X247744425Y-68372901D01*
X247723820Y-68377000D01*
X247576180Y-68377000D01*
X247555575Y-68372901D01*
X247431379Y-68348198D01*
X247294978Y-68291699D01*
X247172221Y-68209675D01*
X247067825Y-68105279D01*
X246985801Y-67982522D01*
X246929302Y-67846121D01*
X246900500Y-67701319D01*
X246900500Y-67553681D01*
X246929302Y-67408879D01*
X246985801Y-67272478D01*
X247067825Y-67149721D01*
X247172221Y-67045325D01*
X247294978Y-66963301D01*
X247431379Y-66906802D01*
X247555575Y-66882099D01*
X247576180Y-66878000D01*
X247723820Y-66878000D01*
X247744425Y-66882099D01*
X247744425Y-66882099D01*
G37*
G36*
X266794425Y-66882099D02*
G01*
X266918621Y-66906802D01*
X267055022Y-66963301D01*
X267177779Y-67045325D01*
X267282175Y-67149721D01*
X267364199Y-67272478D01*
X267420698Y-67408879D01*
X267449500Y-67553681D01*
X267449500Y-67701319D01*
X267420698Y-67846121D01*
X267364199Y-67982522D01*
X267282175Y-68105279D01*
X267177779Y-68209675D01*
X267055022Y-68291699D01*
X266918621Y-68348198D01*
X266794425Y-68372901D01*
X266773820Y-68377000D01*
X266626180Y-68377000D01*
X266605575Y-68372901D01*
X266481379Y-68348198D01*
X266344978Y-68291699D01*
X266222221Y-68209675D01*
X266117825Y-68105279D01*
X266035801Y-67982522D01*
X265979302Y-67846121D01*
X265950500Y-67701319D01*
X265950500Y-67553681D01*
X265979302Y-67408879D01*
X266035801Y-67272478D01*
X266117825Y-67149721D01*
X266222221Y-67045325D01*
X266344978Y-66963301D01*
X266481379Y-66906802D01*
X266605575Y-66882099D01*
X266626180Y-66878000D01*
X266773820Y-66878000D01*
X266794425Y-66882099D01*
X266794425Y-66882099D01*
G37*
G36*
X228694425Y-66882099D02*
G01*
X228818621Y-66906802D01*
X228955022Y-66963301D01*
X229077779Y-67045325D01*
X229182175Y-67149721D01*
X229264199Y-67272478D01*
X229320698Y-67408879D01*
X229349500Y-67553681D01*
X229349500Y-67701319D01*
X229320698Y-67846121D01*
X229264199Y-67982522D01*
X229182175Y-68105279D01*
X229077779Y-68209675D01*
X228955022Y-68291699D01*
X228818621Y-68348198D01*
X228694425Y-68372901D01*
X228673820Y-68377000D01*
X228526180Y-68377000D01*
X228505575Y-68372901D01*
X228381379Y-68348198D01*
X228244978Y-68291699D01*
X228122221Y-68209675D01*
X228017825Y-68105279D01*
X227935801Y-67982522D01*
X227879302Y-67846121D01*
X227850500Y-67701319D01*
X227850500Y-67553681D01*
X227879302Y-67408879D01*
X227935801Y-67272478D01*
X228017825Y-67149721D01*
X228122221Y-67045325D01*
X228244978Y-66963301D01*
X228381379Y-66906802D01*
X228505575Y-66882099D01*
X228526180Y-66878000D01*
X228673820Y-66878000D01*
X228694425Y-66882099D01*
X228694425Y-66882099D01*
G37*
G36*
X209644425Y-66882099D02*
G01*
X209768621Y-66906802D01*
X209905022Y-66963301D01*
X210027779Y-67045325D01*
X210132175Y-67149721D01*
X210214199Y-67272478D01*
X210270698Y-67408879D01*
X210299500Y-67553681D01*
X210299500Y-67701319D01*
X210270698Y-67846121D01*
X210214199Y-67982522D01*
X210132175Y-68105279D01*
X210027779Y-68209675D01*
X209905022Y-68291699D01*
X209768621Y-68348198D01*
X209644425Y-68372901D01*
X209623820Y-68377000D01*
X209476180Y-68377000D01*
X209455575Y-68372901D01*
X209331379Y-68348198D01*
X209194978Y-68291699D01*
X209072221Y-68209675D01*
X208967825Y-68105279D01*
X208885801Y-67982522D01*
X208829302Y-67846121D01*
X208800500Y-67701319D01*
X208800500Y-67553681D01*
X208829302Y-67408879D01*
X208885801Y-67272478D01*
X208967825Y-67149721D01*
X209072221Y-67045325D01*
X209194978Y-66963301D01*
X209331379Y-66906802D01*
X209455575Y-66882099D01*
X209476180Y-66878000D01*
X209623820Y-66878000D01*
X209644425Y-66882099D01*
X209644425Y-66882099D01*
G37*
G36*
X190594425Y-66882099D02*
G01*
X190718621Y-66906802D01*
X190855022Y-66963301D01*
X190977779Y-67045325D01*
X191082175Y-67149721D01*
X191164199Y-67272478D01*
X191220698Y-67408879D01*
X191249500Y-67553681D01*
X191249500Y-67701319D01*
X191220698Y-67846121D01*
X191164199Y-67982522D01*
X191082175Y-68105279D01*
X190977779Y-68209675D01*
X190855022Y-68291699D01*
X190718621Y-68348198D01*
X190594425Y-68372901D01*
X190573820Y-68377000D01*
X190426180Y-68377000D01*
X190405575Y-68372901D01*
X190281379Y-68348198D01*
X190144978Y-68291699D01*
X190022221Y-68209675D01*
X189917825Y-68105279D01*
X189835801Y-67982522D01*
X189779302Y-67846121D01*
X189750500Y-67701319D01*
X189750500Y-67553681D01*
X189779302Y-67408879D01*
X189835801Y-67272478D01*
X189917825Y-67149721D01*
X190022221Y-67045325D01*
X190144978Y-66963301D01*
X190281379Y-66906802D01*
X190405575Y-66882099D01*
X190426180Y-66878000D01*
X190573820Y-66878000D01*
X190594425Y-66882099D01*
X190594425Y-66882099D01*
G37*
G36*
X171544425Y-66882099D02*
G01*
X171668621Y-66906802D01*
X171805022Y-66963301D01*
X171927779Y-67045325D01*
X172032175Y-67149721D01*
X172114199Y-67272478D01*
X172170698Y-67408879D01*
X172199500Y-67553681D01*
X172199500Y-67701319D01*
X172170698Y-67846121D01*
X172114199Y-67982522D01*
X172032175Y-68105279D01*
X171927779Y-68209675D01*
X171805022Y-68291699D01*
X171668621Y-68348198D01*
X171544425Y-68372901D01*
X171523820Y-68377000D01*
X171376180Y-68377000D01*
X171355575Y-68372901D01*
X171231379Y-68348198D01*
X171094978Y-68291699D01*
X170972221Y-68209675D01*
X170867825Y-68105279D01*
X170785801Y-67982522D01*
X170729302Y-67846121D01*
X170700500Y-67701319D01*
X170700500Y-67553681D01*
X170729302Y-67408879D01*
X170785801Y-67272478D01*
X170867825Y-67149721D01*
X170972221Y-67045325D01*
X171094978Y-66963301D01*
X171231379Y-66906802D01*
X171355575Y-66882099D01*
X171376180Y-66878000D01*
X171523820Y-66878000D01*
X171544425Y-66882099D01*
X171544425Y-66882099D01*
G37*
G36*
X280144098Y-61047033D02*
G01*
X280608350Y-61239332D01*
X280608352Y-61239333D01*
X281026168Y-61518509D01*
X281381491Y-61873832D01*
X281660667Y-62291648D01*
X281660668Y-62291650D01*
X281852967Y-62755902D01*
X281951000Y-63248747D01*
X281951000Y-63751253D01*
X281852967Y-64244098D01*
X281660668Y-64708350D01*
X281660667Y-64708352D01*
X281381491Y-65126168D01*
X281026168Y-65481491D01*
X280608352Y-65760667D01*
X280608351Y-65760668D01*
X280608350Y-65760668D01*
X280144098Y-65952967D01*
X279651253Y-66051000D01*
X279148747Y-66051000D01*
X278655902Y-65952967D01*
X278191650Y-65760668D01*
X278191649Y-65760668D01*
X278191648Y-65760667D01*
X277773832Y-65481491D01*
X277418509Y-65126168D01*
X277139333Y-64708352D01*
X277139332Y-64708350D01*
X276947033Y-64244098D01*
X276849000Y-63751253D01*
X276849000Y-63248747D01*
X276947033Y-62755902D01*
X277139332Y-62291650D01*
X277139333Y-62291648D01*
X277418509Y-61873832D01*
X277773832Y-61518509D01*
X278191648Y-61239333D01*
X278191650Y-61239332D01*
X278655902Y-61047033D01*
X279148747Y-60949000D01*
X279651253Y-60949000D01*
X280144098Y-61047033D01*
X280144098Y-61047033D01*
G37*
G36*
X262687500Y-56947000D02*
G01*
X261188500Y-56947000D01*
X261188500Y-55448000D01*
X262687500Y-55448000D01*
X262687500Y-56947000D01*
X262687500Y-56947000D01*
G37*
G36*
X205537500Y-56947000D02*
G01*
X204038500Y-56947000D01*
X204038500Y-55448000D01*
X205537500Y-55448000D01*
X205537500Y-56947000D01*
X205537500Y-56947000D01*
G37*
G36*
X282927500Y-56947000D02*
G01*
X281428500Y-56947000D01*
X281428500Y-55448000D01*
X282927500Y-55448000D01*
X282927500Y-56947000D01*
X282927500Y-56947000D01*
G37*
G36*
X224587500Y-56947000D02*
G01*
X223088500Y-56947000D01*
X223088500Y-55448000D01*
X224587500Y-55448000D01*
X224587500Y-56947000D01*
X224587500Y-56947000D01*
G37*
G36*
X167437500Y-56947000D02*
G01*
X165938500Y-56947000D01*
X165938500Y-55448000D01*
X167437500Y-55448000D01*
X167437500Y-56947000D01*
X167437500Y-56947000D01*
G37*
G36*
X280546500Y-56947000D02*
G01*
X279047500Y-56947000D01*
X279047500Y-55448000D01*
X280546500Y-55448000D01*
X280546500Y-56947000D01*
X280546500Y-56947000D01*
G37*
G36*
X186487500Y-56947000D02*
G01*
X184988500Y-56947000D01*
X184988500Y-55448000D01*
X186487500Y-55448000D01*
X186487500Y-56947000D01*
X186487500Y-56947000D01*
G37*
G36*
X243637500Y-56947000D02*
G01*
X242138500Y-56947000D01*
X242138500Y-55448000D01*
X243637500Y-55448000D01*
X243637500Y-56947000D01*
X243637500Y-56947000D01*
G37*
G36*
X298486564Y-54626889D02*
G01*
X298677833Y-54706115D01*
X298677835Y-54706116D01*
X298849973Y-54821135D01*
X298996365Y-54967527D01*
X299111385Y-55139667D01*
X299190611Y-55330936D01*
X299231000Y-55533984D01*
X299231000Y-55741016D01*
X299190611Y-55944064D01*
X299111385Y-56135333D01*
X299111384Y-56135335D01*
X298996365Y-56307473D01*
X298849973Y-56453865D01*
X298677835Y-56568884D01*
X298677834Y-56568885D01*
X298677833Y-56568885D01*
X298486564Y-56648111D01*
X298283516Y-56688500D01*
X298076484Y-56688500D01*
X297873436Y-56648111D01*
X297682167Y-56568885D01*
X297682166Y-56568885D01*
X297682165Y-56568884D01*
X297510027Y-56453865D01*
X297363635Y-56307473D01*
X297248616Y-56135335D01*
X297248615Y-56135333D01*
X297169389Y-55944064D01*
X297129000Y-55741016D01*
X297129000Y-55533984D01*
X297169389Y-55330936D01*
X297248615Y-55139667D01*
X297363635Y-54967527D01*
X297510027Y-54821135D01*
X297682165Y-54706116D01*
X297682167Y-54706115D01*
X297873436Y-54626889D01*
X298076484Y-54586500D01*
X298283516Y-54586500D01*
X298486564Y-54626889D01*
X298486564Y-54626889D01*
G37*
G36*
X280323000Y-54863500D02*
G01*
X279271000Y-54863500D01*
X279271000Y-53461500D01*
X280323000Y-53461500D01*
X280323000Y-54863500D01*
X280323000Y-54863500D01*
G37*
G36*
X243414000Y-54863500D02*
G01*
X242362000Y-54863500D01*
X242362000Y-53461500D01*
X243414000Y-53461500D01*
X243414000Y-54863500D01*
X243414000Y-54863500D01*
G37*
G36*
X167214000Y-54863500D02*
G01*
X166162000Y-54863500D01*
X166162000Y-53461500D01*
X167214000Y-53461500D01*
X167214000Y-54863500D01*
X167214000Y-54863500D01*
G37*
G36*
X262464000Y-54863500D02*
G01*
X261412000Y-54863500D01*
X261412000Y-53461500D01*
X262464000Y-53461500D01*
X262464000Y-54863500D01*
X262464000Y-54863500D01*
G37*
G36*
X282704000Y-54863500D02*
G01*
X281652000Y-54863500D01*
X281652000Y-53461500D01*
X282704000Y-53461500D01*
X282704000Y-54863500D01*
X282704000Y-54863500D01*
G37*
G36*
X186264000Y-54863500D02*
G01*
X185212000Y-54863500D01*
X185212000Y-53461500D01*
X186264000Y-53461500D01*
X186264000Y-54863500D01*
X186264000Y-54863500D01*
G37*
G36*
X224364000Y-54863500D02*
G01*
X223312000Y-54863500D01*
X223312000Y-53461500D01*
X224364000Y-53461500D01*
X224364000Y-54863500D01*
X224364000Y-54863500D01*
G37*
G36*
X205314000Y-54863500D02*
G01*
X204262000Y-54863500D01*
X204262000Y-53461500D01*
X205314000Y-53461500D01*
X205314000Y-54863500D01*
X205314000Y-54863500D01*
G37*
G36*
X205314000Y-51313500D02*
G01*
X204262000Y-51313500D01*
X204262000Y-49911500D01*
X205314000Y-49911500D01*
X205314000Y-51313500D01*
X205314000Y-51313500D01*
G37*
G36*
X224364000Y-51313500D02*
G01*
X223312000Y-51313500D01*
X223312000Y-49911500D01*
X224364000Y-49911500D01*
X224364000Y-51313500D01*
X224364000Y-51313500D01*
G37*
G36*
X186264000Y-51313500D02*
G01*
X185212000Y-51313500D01*
X185212000Y-49911500D01*
X186264000Y-49911500D01*
X186264000Y-51313500D01*
X186264000Y-51313500D01*
G37*
G36*
X243414000Y-51313500D02*
G01*
X242362000Y-51313500D01*
X242362000Y-49911500D01*
X243414000Y-49911500D01*
X243414000Y-51313500D01*
X243414000Y-51313500D01*
G37*
G36*
X262464000Y-51313500D02*
G01*
X261412000Y-51313500D01*
X261412000Y-49911500D01*
X262464000Y-49911500D01*
X262464000Y-51313500D01*
X262464000Y-51313500D01*
G37*
G36*
X282704000Y-51313500D02*
G01*
X281652000Y-51313500D01*
X281652000Y-49911500D01*
X282704000Y-49911500D01*
X282704000Y-51313500D01*
X282704000Y-51313500D01*
G37*
G36*
X280323000Y-51313500D02*
G01*
X279271000Y-51313500D01*
X279271000Y-49911500D01*
X280323000Y-49911500D01*
X280323000Y-51313500D01*
X280323000Y-51313500D01*
G37*
G36*
X167214000Y-51313500D02*
G01*
X166162000Y-51313500D01*
X166162000Y-49911500D01*
X167214000Y-49911500D01*
X167214000Y-51313500D01*
X167214000Y-51313500D01*
G37*
G36*
X298486564Y-48126889D02*
G01*
X298677833Y-48206115D01*
X298677835Y-48206116D01*
X298702322Y-48222478D01*
X298849973Y-48321135D01*
X298996365Y-48467527D01*
X299111385Y-48639667D01*
X299190611Y-48830936D01*
X299231000Y-49033984D01*
X299231000Y-49241016D01*
X299190611Y-49444064D01*
X299111385Y-49635333D01*
X299111384Y-49635335D01*
X298996365Y-49807473D01*
X298849973Y-49953865D01*
X298677835Y-50068884D01*
X298677834Y-50068885D01*
X298677833Y-50068885D01*
X298486564Y-50148111D01*
X298283516Y-50188500D01*
X298076484Y-50188500D01*
X297873436Y-50148111D01*
X297682167Y-50068885D01*
X297682166Y-50068885D01*
X297682165Y-50068884D01*
X297510027Y-49953865D01*
X297363635Y-49807473D01*
X297248616Y-49635335D01*
X297248615Y-49635333D01*
X297169389Y-49444064D01*
X297129000Y-49241016D01*
X297129000Y-49033984D01*
X297169389Y-48830936D01*
X297248615Y-48639667D01*
X297363635Y-48467527D01*
X297510027Y-48321135D01*
X297657678Y-48222478D01*
X297682165Y-48206116D01*
X297682167Y-48206115D01*
X297873436Y-48126889D01*
X298076484Y-48086500D01*
X298283516Y-48086500D01*
X298486564Y-48126889D01*
X298486564Y-48126889D01*
G37*
G36*
X166782425Y-47832099D02*
G01*
X166906621Y-47856802D01*
X167043022Y-47913301D01*
X167165779Y-47995325D01*
X167270175Y-48099721D01*
X167352199Y-48222478D01*
X167408698Y-48358879D01*
X167437500Y-48503681D01*
X167437500Y-48651319D01*
X167408698Y-48796121D01*
X167352199Y-48932522D01*
X167270175Y-49055279D01*
X167165779Y-49159675D01*
X167043022Y-49241699D01*
X166906621Y-49298198D01*
X166782425Y-49322901D01*
X166761820Y-49327000D01*
X166614180Y-49327000D01*
X166593575Y-49322901D01*
X166469379Y-49298198D01*
X166332978Y-49241699D01*
X166210221Y-49159675D01*
X166105825Y-49055279D01*
X166023801Y-48932522D01*
X165967302Y-48796121D01*
X165938500Y-48651319D01*
X165938500Y-48503681D01*
X165967302Y-48358879D01*
X166023801Y-48222478D01*
X166105825Y-48099721D01*
X166210221Y-47995325D01*
X166332978Y-47913301D01*
X166469379Y-47856802D01*
X166593575Y-47832099D01*
X166614180Y-47828000D01*
X166761820Y-47828000D01*
X166782425Y-47832099D01*
X166782425Y-47832099D01*
G37*
G36*
X185832425Y-47832099D02*
G01*
X185956621Y-47856802D01*
X186093022Y-47913301D01*
X186215779Y-47995325D01*
X186320175Y-48099721D01*
X186402199Y-48222478D01*
X186458698Y-48358879D01*
X186487500Y-48503681D01*
X186487500Y-48651319D01*
X186458698Y-48796121D01*
X186402199Y-48932522D01*
X186320175Y-49055279D01*
X186215779Y-49159675D01*
X186093022Y-49241699D01*
X185956621Y-49298198D01*
X185832425Y-49322901D01*
X185811820Y-49327000D01*
X185664180Y-49327000D01*
X185643575Y-49322901D01*
X185519379Y-49298198D01*
X185382978Y-49241699D01*
X185260221Y-49159675D01*
X185155825Y-49055279D01*
X185073801Y-48932522D01*
X185017302Y-48796121D01*
X184988500Y-48651319D01*
X184988500Y-48503681D01*
X185017302Y-48358879D01*
X185073801Y-48222478D01*
X185155825Y-48099721D01*
X185260221Y-47995325D01*
X185382978Y-47913301D01*
X185519379Y-47856802D01*
X185643575Y-47832099D01*
X185664180Y-47828000D01*
X185811820Y-47828000D01*
X185832425Y-47832099D01*
X185832425Y-47832099D01*
G37*
G36*
X204882425Y-47832099D02*
G01*
X205006621Y-47856802D01*
X205143022Y-47913301D01*
X205265779Y-47995325D01*
X205370175Y-48099721D01*
X205452199Y-48222478D01*
X205508698Y-48358879D01*
X205537500Y-48503681D01*
X205537500Y-48651319D01*
X205508698Y-48796121D01*
X205452199Y-48932522D01*
X205370175Y-49055279D01*
X205265779Y-49159675D01*
X205143022Y-49241699D01*
X205006621Y-49298198D01*
X204882425Y-49322901D01*
X204861820Y-49327000D01*
X204714180Y-49327000D01*
X204693575Y-49322901D01*
X204569379Y-49298198D01*
X204432978Y-49241699D01*
X204310221Y-49159675D01*
X204205825Y-49055279D01*
X204123801Y-48932522D01*
X204067302Y-48796121D01*
X204038500Y-48651319D01*
X204038500Y-48503681D01*
X204067302Y-48358879D01*
X204123801Y-48222478D01*
X204205825Y-48099721D01*
X204310221Y-47995325D01*
X204432978Y-47913301D01*
X204569379Y-47856802D01*
X204693575Y-47832099D01*
X204714180Y-47828000D01*
X204861820Y-47828000D01*
X204882425Y-47832099D01*
X204882425Y-47832099D01*
G37*
G36*
X282272425Y-47832099D02*
G01*
X282396621Y-47856802D01*
X282533022Y-47913301D01*
X282655779Y-47995325D01*
X282760175Y-48099721D01*
X282842199Y-48222478D01*
X282898698Y-48358879D01*
X282927500Y-48503681D01*
X282927500Y-48651319D01*
X282898698Y-48796121D01*
X282842199Y-48932522D01*
X282760175Y-49055279D01*
X282655779Y-49159675D01*
X282533022Y-49241699D01*
X282396621Y-49298198D01*
X282272425Y-49322901D01*
X282251820Y-49327000D01*
X282104180Y-49327000D01*
X282083575Y-49322901D01*
X281959379Y-49298198D01*
X281822978Y-49241699D01*
X281700221Y-49159675D01*
X281595825Y-49055279D01*
X281513801Y-48932522D01*
X281457302Y-48796121D01*
X281428500Y-48651319D01*
X281428500Y-48503681D01*
X281457302Y-48358879D01*
X281513801Y-48222478D01*
X281595825Y-48099721D01*
X281700221Y-47995325D01*
X281822978Y-47913301D01*
X281959379Y-47856802D01*
X282083575Y-47832099D01*
X282104180Y-47828000D01*
X282251820Y-47828000D01*
X282272425Y-47832099D01*
X282272425Y-47832099D01*
G37*
G36*
X223932425Y-47832099D02*
G01*
X224056621Y-47856802D01*
X224193022Y-47913301D01*
X224315779Y-47995325D01*
X224420175Y-48099721D01*
X224502199Y-48222478D01*
X224558698Y-48358879D01*
X224587500Y-48503681D01*
X224587500Y-48651319D01*
X224558698Y-48796121D01*
X224502199Y-48932522D01*
X224420175Y-49055279D01*
X224315779Y-49159675D01*
X224193022Y-49241699D01*
X224056621Y-49298198D01*
X223932425Y-49322901D01*
X223911820Y-49327000D01*
X223764180Y-49327000D01*
X223743575Y-49322901D01*
X223619379Y-49298198D01*
X223482978Y-49241699D01*
X223360221Y-49159675D01*
X223255825Y-49055279D01*
X223173801Y-48932522D01*
X223117302Y-48796121D01*
X223088500Y-48651319D01*
X223088500Y-48503681D01*
X223117302Y-48358879D01*
X223173801Y-48222478D01*
X223255825Y-48099721D01*
X223360221Y-47995325D01*
X223482978Y-47913301D01*
X223619379Y-47856802D01*
X223743575Y-47832099D01*
X223764180Y-47828000D01*
X223911820Y-47828000D01*
X223932425Y-47832099D01*
X223932425Y-47832099D01*
G37*
G36*
X242982425Y-47832099D02*
G01*
X243106621Y-47856802D01*
X243243022Y-47913301D01*
X243365779Y-47995325D01*
X243470175Y-48099721D01*
X243552199Y-48222478D01*
X243608698Y-48358879D01*
X243637500Y-48503681D01*
X243637500Y-48651319D01*
X243608698Y-48796121D01*
X243552199Y-48932522D01*
X243470175Y-49055279D01*
X243365779Y-49159675D01*
X243243022Y-49241699D01*
X243106621Y-49298198D01*
X242982425Y-49322901D01*
X242961820Y-49327000D01*
X242814180Y-49327000D01*
X242793575Y-49322901D01*
X242669379Y-49298198D01*
X242532978Y-49241699D01*
X242410221Y-49159675D01*
X242305825Y-49055279D01*
X242223801Y-48932522D01*
X242167302Y-48796121D01*
X242138500Y-48651319D01*
X242138500Y-48503681D01*
X242167302Y-48358879D01*
X242223801Y-48222478D01*
X242305825Y-48099721D01*
X242410221Y-47995325D01*
X242532978Y-47913301D01*
X242669379Y-47856802D01*
X242793575Y-47832099D01*
X242814180Y-47828000D01*
X242961820Y-47828000D01*
X242982425Y-47832099D01*
X242982425Y-47832099D01*
G37*
G36*
X262032425Y-47832099D02*
G01*
X262156621Y-47856802D01*
X262293022Y-47913301D01*
X262415779Y-47995325D01*
X262520175Y-48099721D01*
X262602199Y-48222478D01*
X262658698Y-48358879D01*
X262687500Y-48503681D01*
X262687500Y-48651319D01*
X262658698Y-48796121D01*
X262602199Y-48932522D01*
X262520175Y-49055279D01*
X262415779Y-49159675D01*
X262293022Y-49241699D01*
X262156621Y-49298198D01*
X262032425Y-49322901D01*
X262011820Y-49327000D01*
X261864180Y-49327000D01*
X261843575Y-49322901D01*
X261719379Y-49298198D01*
X261582978Y-49241699D01*
X261460221Y-49159675D01*
X261355825Y-49055279D01*
X261273801Y-48932522D01*
X261217302Y-48796121D01*
X261188500Y-48651319D01*
X261188500Y-48503681D01*
X261217302Y-48358879D01*
X261273801Y-48222478D01*
X261355825Y-48099721D01*
X261460221Y-47995325D01*
X261582978Y-47913301D01*
X261719379Y-47856802D01*
X261843575Y-47832099D01*
X261864180Y-47828000D01*
X262011820Y-47828000D01*
X262032425Y-47832099D01*
X262032425Y-47832099D01*
G37*
G36*
X279891425Y-47832099D02*
G01*
X280015621Y-47856802D01*
X280152022Y-47913301D01*
X280274779Y-47995325D01*
X280379175Y-48099721D01*
X280461199Y-48222478D01*
X280517698Y-48358879D01*
X280546500Y-48503681D01*
X280546500Y-48651319D01*
X280517698Y-48796121D01*
X280461199Y-48932522D01*
X280379175Y-49055279D01*
X280274779Y-49159675D01*
X280152022Y-49241699D01*
X280015621Y-49298198D01*
X279891425Y-49322901D01*
X279870820Y-49327000D01*
X279723180Y-49327000D01*
X279702575Y-49322901D01*
X279578379Y-49298198D01*
X279441978Y-49241699D01*
X279319221Y-49159675D01*
X279214825Y-49055279D01*
X279132801Y-48932522D01*
X279076302Y-48796121D01*
X279047500Y-48651319D01*
X279047500Y-48503681D01*
X279076302Y-48358879D01*
X279132801Y-48222478D01*
X279214825Y-48099721D01*
X279319221Y-47995325D01*
X279441978Y-47913301D01*
X279578379Y-47856802D01*
X279702575Y-47832099D01*
X279723180Y-47828000D01*
X279870820Y-47828000D01*
X279891425Y-47832099D01*
X279891425Y-47832099D01*
G37*
G36*
X253156098Y-39615833D02*
G01*
X253620350Y-39808132D01*
X253620352Y-39808133D01*
X254038168Y-40087309D01*
X254393491Y-40442632D01*
X254672667Y-40860448D01*
X254672668Y-40860450D01*
X254864967Y-41324702D01*
X254963000Y-41817547D01*
X254963000Y-42320053D01*
X254864967Y-42812898D01*
X254672668Y-43277150D01*
X254672667Y-43277152D01*
X254393491Y-43694968D01*
X254038168Y-44050291D01*
X253620352Y-44329467D01*
X253620351Y-44329468D01*
X253620350Y-44329468D01*
X253156098Y-44521767D01*
X252663253Y-44619800D01*
X252160747Y-44619800D01*
X251667902Y-44521767D01*
X251203650Y-44329468D01*
X251203649Y-44329468D01*
X251203648Y-44329467D01*
X250785832Y-44050291D01*
X250430509Y-43694968D01*
X250151333Y-43277152D01*
X250151332Y-43277150D01*
X249959033Y-42812898D01*
X249861000Y-42320053D01*
X249861000Y-41817547D01*
X249959033Y-41324702D01*
X250151332Y-40860450D01*
X250151333Y-40860448D01*
X250430509Y-40442632D01*
X250785832Y-40087309D01*
X251203648Y-39808133D01*
X251203650Y-39808132D01*
X251667902Y-39615833D01*
X252160747Y-39517800D01*
X252663253Y-39517800D01*
X253156098Y-39615833D01*
X253156098Y-39615833D01*
G37*
G36*
X157906098Y-39615833D02*
G01*
X158370350Y-39808132D01*
X158370352Y-39808133D01*
X158788168Y-40087309D01*
X159143491Y-40442632D01*
X159422667Y-40860448D01*
X159422668Y-40860450D01*
X159614967Y-41324702D01*
X159713000Y-41817547D01*
X159713000Y-42320053D01*
X159614967Y-42812898D01*
X159422668Y-43277150D01*
X159422667Y-43277152D01*
X159143491Y-43694968D01*
X158788168Y-44050291D01*
X158370352Y-44329467D01*
X158370351Y-44329468D01*
X158370350Y-44329468D01*
X157906098Y-44521767D01*
X157413253Y-44619800D01*
X156910747Y-44619800D01*
X156417902Y-44521767D01*
X155953650Y-44329468D01*
X155953649Y-44329468D01*
X155953648Y-44329467D01*
X155535832Y-44050291D01*
X155180509Y-43694968D01*
X154901333Y-43277152D01*
X154901332Y-43277150D01*
X154709033Y-42812898D01*
X154611000Y-42320053D01*
X154611000Y-41817547D01*
X154709033Y-41324702D01*
X154901332Y-40860450D01*
X154901333Y-40860448D01*
X155180509Y-40442632D01*
X155535832Y-40087309D01*
X155953648Y-39808133D01*
X155953650Y-39808132D01*
X156417902Y-39615833D01*
X156910747Y-39517800D01*
X157413253Y-39517800D01*
X157906098Y-39615833D01*
X157906098Y-39615833D01*
G37*
G36*
X292565142Y-40164342D02*
G01*
X292713101Y-40225629D01*
X292846255Y-40314599D01*
X292959501Y-40427845D01*
X293048471Y-40560999D01*
X293109758Y-40708958D01*
X293141000Y-40866025D01*
X293141000Y-41026175D01*
X293109758Y-41183242D01*
X293048471Y-41331201D01*
X292959501Y-41464355D01*
X292846255Y-41577601D01*
X292713101Y-41666571D01*
X292565142Y-41727858D01*
X292408075Y-41759100D01*
X292247925Y-41759100D01*
X292090858Y-41727858D01*
X291942899Y-41666571D01*
X291809745Y-41577601D01*
X291696499Y-41464355D01*
X291607529Y-41331201D01*
X291546242Y-41183242D01*
X291515000Y-41026175D01*
X291515000Y-40866025D01*
X291546242Y-40708958D01*
X291607529Y-40560999D01*
X291696499Y-40427845D01*
X291809745Y-40314599D01*
X291942899Y-40225629D01*
X292090858Y-40164342D01*
X292247925Y-40133100D01*
X292408075Y-40133100D01*
X292565142Y-40164342D01*
X292565142Y-40164342D01*
G37*
G36*
X287485142Y-40164342D02*
G01*
X287633101Y-40225629D01*
X287766255Y-40314599D01*
X287879501Y-40427845D01*
X287968471Y-40560999D01*
X288029758Y-40708958D01*
X288061000Y-40866025D01*
X288061000Y-41026175D01*
X288029758Y-41183242D01*
X287968471Y-41331201D01*
X287879501Y-41464355D01*
X287766255Y-41577601D01*
X287633101Y-41666571D01*
X287485142Y-41727858D01*
X287328075Y-41759100D01*
X287167925Y-41759100D01*
X287010858Y-41727858D01*
X286862899Y-41666571D01*
X286729745Y-41577601D01*
X286616499Y-41464355D01*
X286527529Y-41331201D01*
X286466242Y-41183242D01*
X286435000Y-41026175D01*
X286435000Y-40866025D01*
X286466242Y-40708958D01*
X286527529Y-40560999D01*
X286616499Y-40427845D01*
X286729745Y-40314599D01*
X286862899Y-40225629D01*
X287010858Y-40164342D01*
X287167925Y-40133100D01*
X287328075Y-40133100D01*
X287485142Y-40164342D01*
X287485142Y-40164342D01*
G37*
G36*
X267165142Y-40164342D02*
G01*
X267313101Y-40225629D01*
X267446255Y-40314599D01*
X267559501Y-40427845D01*
X267648471Y-40560999D01*
X267709758Y-40708958D01*
X267741000Y-40866025D01*
X267741000Y-41026175D01*
X267709758Y-41183242D01*
X267648471Y-41331201D01*
X267559501Y-41464355D01*
X267446255Y-41577601D01*
X267313101Y-41666571D01*
X267165142Y-41727858D01*
X267008075Y-41759100D01*
X266847925Y-41759100D01*
X266690858Y-41727858D01*
X266542899Y-41666571D01*
X266409745Y-41577601D01*
X266296499Y-41464355D01*
X266207529Y-41331201D01*
X266146242Y-41183242D01*
X266115000Y-41026175D01*
X266115000Y-40866025D01*
X266146242Y-40708958D01*
X266207529Y-40560999D01*
X266296499Y-40427845D01*
X266409745Y-40314599D01*
X266542899Y-40225629D01*
X266690858Y-40164342D01*
X266847925Y-40133100D01*
X267008075Y-40133100D01*
X267165142Y-40164342D01*
X267165142Y-40164342D01*
G37*
G36*
X269705142Y-40164342D02*
G01*
X269853101Y-40225629D01*
X269986255Y-40314599D01*
X270099501Y-40427845D01*
X270188471Y-40560999D01*
X270249758Y-40708958D01*
X270281000Y-40866025D01*
X270281000Y-41026175D01*
X270249758Y-41183242D01*
X270188471Y-41331201D01*
X270099501Y-41464355D01*
X269986255Y-41577601D01*
X269853101Y-41666571D01*
X269705142Y-41727858D01*
X269548075Y-41759100D01*
X269387925Y-41759100D01*
X269230858Y-41727858D01*
X269082899Y-41666571D01*
X268949745Y-41577601D01*
X268836499Y-41464355D01*
X268747529Y-41331201D01*
X268686242Y-41183242D01*
X268655000Y-41026175D01*
X268655000Y-40866025D01*
X268686242Y-40708958D01*
X268747529Y-40560999D01*
X268836499Y-40427845D01*
X268949745Y-40314599D01*
X269082899Y-40225629D01*
X269230858Y-40164342D01*
X269387925Y-40133100D01*
X269548075Y-40133100D01*
X269705142Y-40164342D01*
X269705142Y-40164342D01*
G37*
G36*
X295105142Y-40164342D02*
G01*
X295253101Y-40225629D01*
X295386255Y-40314599D01*
X295499501Y-40427845D01*
X295588471Y-40560999D01*
X295649758Y-40708958D01*
X295681000Y-40866025D01*
X295681000Y-41026175D01*
X295649758Y-41183242D01*
X295588471Y-41331201D01*
X295499501Y-41464355D01*
X295386255Y-41577601D01*
X295253101Y-41666571D01*
X295105142Y-41727858D01*
X294948075Y-41759100D01*
X294787925Y-41759100D01*
X294630858Y-41727858D01*
X294482899Y-41666571D01*
X294349745Y-41577601D01*
X294236499Y-41464355D01*
X294147529Y-41331201D01*
X294086242Y-41183242D01*
X294055000Y-41026175D01*
X294055000Y-40866025D01*
X294086242Y-40708958D01*
X294147529Y-40560999D01*
X294236499Y-40427845D01*
X294349745Y-40314599D01*
X294482899Y-40225629D01*
X294630858Y-40164342D01*
X294787925Y-40133100D01*
X294948075Y-40133100D01*
X295105142Y-40164342D01*
X295105142Y-40164342D01*
G37*
G36*
X272245142Y-40164342D02*
G01*
X272393101Y-40225629D01*
X272526255Y-40314599D01*
X272639501Y-40427845D01*
X272728471Y-40560999D01*
X272789758Y-40708958D01*
X272821000Y-40866025D01*
X272821000Y-41026175D01*
X272789758Y-41183242D01*
X272728471Y-41331201D01*
X272639501Y-41464355D01*
X272526255Y-41577601D01*
X272393101Y-41666571D01*
X272245142Y-41727858D01*
X272088075Y-41759100D01*
X271927925Y-41759100D01*
X271770858Y-41727858D01*
X271622899Y-41666571D01*
X271489745Y-41577601D01*
X271376499Y-41464355D01*
X271287529Y-41331201D01*
X271226242Y-41183242D01*
X271195000Y-41026175D01*
X271195000Y-40866025D01*
X271226242Y-40708958D01*
X271287529Y-40560999D01*
X271376499Y-40427845D01*
X271489745Y-40314599D01*
X271622899Y-40225629D01*
X271770858Y-40164342D01*
X271927925Y-40133100D01*
X272088075Y-40133100D01*
X272245142Y-40164342D01*
X272245142Y-40164342D01*
G37*
G36*
X274785142Y-40164342D02*
G01*
X274933101Y-40225629D01*
X275066255Y-40314599D01*
X275179501Y-40427845D01*
X275268471Y-40560999D01*
X275329758Y-40708958D01*
X275361000Y-40866025D01*
X275361000Y-41026175D01*
X275329758Y-41183242D01*
X275268471Y-41331201D01*
X275179501Y-41464355D01*
X275066255Y-41577601D01*
X274933101Y-41666571D01*
X274785142Y-41727858D01*
X274628075Y-41759100D01*
X274467925Y-41759100D01*
X274310858Y-41727858D01*
X274162899Y-41666571D01*
X274029745Y-41577601D01*
X273916499Y-41464355D01*
X273827529Y-41331201D01*
X273766242Y-41183242D01*
X273735000Y-41026175D01*
X273735000Y-40866025D01*
X273766242Y-40708958D01*
X273827529Y-40560999D01*
X273916499Y-40427845D01*
X274029745Y-40314599D01*
X274162899Y-40225629D01*
X274310858Y-40164342D01*
X274467925Y-40133100D01*
X274628075Y-40133100D01*
X274785142Y-40164342D01*
X274785142Y-40164342D01*
G37*
G36*
X277325142Y-40164342D02*
G01*
X277473101Y-40225629D01*
X277606255Y-40314599D01*
X277719501Y-40427845D01*
X277808471Y-40560999D01*
X277869758Y-40708958D01*
X277901000Y-40866025D01*
X277901000Y-41026175D01*
X277869758Y-41183242D01*
X277808471Y-41331201D01*
X277719501Y-41464355D01*
X277606255Y-41577601D01*
X277473101Y-41666571D01*
X277325142Y-41727858D01*
X277168075Y-41759100D01*
X277007925Y-41759100D01*
X276850858Y-41727858D01*
X276702899Y-41666571D01*
X276569745Y-41577601D01*
X276456499Y-41464355D01*
X276367529Y-41331201D01*
X276306242Y-41183242D01*
X276275000Y-41026175D01*
X276275000Y-40866025D01*
X276306242Y-40708958D01*
X276367529Y-40560999D01*
X276456499Y-40427845D01*
X276569745Y-40314599D01*
X276702899Y-40225629D01*
X276850858Y-40164342D01*
X277007925Y-40133100D01*
X277168075Y-40133100D01*
X277325142Y-40164342D01*
X277325142Y-40164342D01*
G37*
G36*
X279865142Y-40164342D02*
G01*
X280013101Y-40225629D01*
X280146255Y-40314599D01*
X280259501Y-40427845D01*
X280348471Y-40560999D01*
X280409758Y-40708958D01*
X280441000Y-40866025D01*
X280441000Y-41026175D01*
X280409758Y-41183242D01*
X280348471Y-41331201D01*
X280259501Y-41464355D01*
X280146255Y-41577601D01*
X280013101Y-41666571D01*
X279865142Y-41727858D01*
X279708075Y-41759100D01*
X279547925Y-41759100D01*
X279390858Y-41727858D01*
X279242899Y-41666571D01*
X279109745Y-41577601D01*
X278996499Y-41464355D01*
X278907529Y-41331201D01*
X278846242Y-41183242D01*
X278815000Y-41026175D01*
X278815000Y-40866025D01*
X278846242Y-40708958D01*
X278907529Y-40560999D01*
X278996499Y-40427845D01*
X279109745Y-40314599D01*
X279242899Y-40225629D01*
X279390858Y-40164342D01*
X279547925Y-40133100D01*
X279708075Y-40133100D01*
X279865142Y-40164342D01*
X279865142Y-40164342D01*
G37*
G36*
X282405142Y-40164342D02*
G01*
X282553101Y-40225629D01*
X282686255Y-40314599D01*
X282799501Y-40427845D01*
X282888471Y-40560999D01*
X282949758Y-40708958D01*
X282981000Y-40866025D01*
X282981000Y-41026175D01*
X282949758Y-41183242D01*
X282888471Y-41331201D01*
X282799501Y-41464355D01*
X282686255Y-41577601D01*
X282553101Y-41666571D01*
X282405142Y-41727858D01*
X282248075Y-41759100D01*
X282087925Y-41759100D01*
X281930858Y-41727858D01*
X281782899Y-41666571D01*
X281649745Y-41577601D01*
X281536499Y-41464355D01*
X281447529Y-41331201D01*
X281386242Y-41183242D01*
X281355000Y-41026175D01*
X281355000Y-40866025D01*
X281386242Y-40708958D01*
X281447529Y-40560999D01*
X281536499Y-40427845D01*
X281649745Y-40314599D01*
X281782899Y-40225629D01*
X281930858Y-40164342D01*
X282087925Y-40133100D01*
X282248075Y-40133100D01*
X282405142Y-40164342D01*
X282405142Y-40164342D01*
G37*
G36*
X284945142Y-40164342D02*
G01*
X285093101Y-40225629D01*
X285226255Y-40314599D01*
X285339501Y-40427845D01*
X285428471Y-40560999D01*
X285489758Y-40708958D01*
X285521000Y-40866025D01*
X285521000Y-41026175D01*
X285489758Y-41183242D01*
X285428471Y-41331201D01*
X285339501Y-41464355D01*
X285226255Y-41577601D01*
X285093101Y-41666571D01*
X284945142Y-41727858D01*
X284788075Y-41759100D01*
X284627925Y-41759100D01*
X284470858Y-41727858D01*
X284322899Y-41666571D01*
X284189745Y-41577601D01*
X284076499Y-41464355D01*
X283987529Y-41331201D01*
X283926242Y-41183242D01*
X283895000Y-41026175D01*
X283895000Y-40866025D01*
X283926242Y-40708958D01*
X283987529Y-40560999D01*
X284076499Y-40427845D01*
X284189745Y-40314599D01*
X284322899Y-40225629D01*
X284470858Y-40164342D01*
X284627925Y-40133100D01*
X284788075Y-40133100D01*
X284945142Y-40164342D01*
X284945142Y-40164342D01*
G37*
G36*
X290025142Y-40164342D02*
G01*
X290173101Y-40225629D01*
X290306255Y-40314599D01*
X290419501Y-40427845D01*
X290508471Y-40560999D01*
X290569758Y-40708958D01*
X290601000Y-40866025D01*
X290601000Y-41026175D01*
X290569758Y-41183242D01*
X290508471Y-41331201D01*
X290419501Y-41464355D01*
X290306255Y-41577601D01*
X290173101Y-41666571D01*
X290025142Y-41727858D01*
X289868075Y-41759100D01*
X289707925Y-41759100D01*
X289550858Y-41727858D01*
X289402899Y-41666571D01*
X289269745Y-41577601D01*
X289156499Y-41464355D01*
X289067529Y-41331201D01*
X289006242Y-41183242D01*
X288975000Y-41026175D01*
X288975000Y-40866025D01*
X289006242Y-40708958D01*
X289067529Y-40560999D01*
X289156499Y-40427845D01*
X289269745Y-40314599D01*
X289402899Y-40225629D01*
X289550858Y-40164342D01*
X289707925Y-40133100D01*
X289868075Y-40133100D01*
X290025142Y-40164342D01*
X290025142Y-40164342D01*
G37*
G36*
X232921500Y-37897000D02*
G01*
X231422500Y-37897000D01*
X231422500Y-36398000D01*
X232921500Y-36398000D01*
X232921500Y-37897000D01*
X232921500Y-37897000D01*
G37*
G36*
X254352500Y-37897000D02*
G01*
X252853500Y-37897000D01*
X252853500Y-36398000D01*
X254352500Y-36398000D01*
X254352500Y-37897000D01*
X254352500Y-37897000D01*
G37*
G36*
X175771500Y-37897000D02*
G01*
X174272500Y-37897000D01*
X174272500Y-36398000D01*
X175771500Y-36398000D01*
X175771500Y-37897000D01*
X175771500Y-37897000D01*
G37*
G36*
X215061500Y-37897000D02*
G01*
X213562500Y-37897000D01*
X213562500Y-36398000D01*
X215061500Y-36398000D01*
X215061500Y-37897000D01*
X215061500Y-37897000D01*
G37*
G36*
X235302500Y-37897000D02*
G01*
X233803500Y-37897000D01*
X233803500Y-36398000D01*
X235302500Y-36398000D01*
X235302500Y-37897000D01*
X235302500Y-37897000D01*
G37*
G36*
X196011500Y-37897000D02*
G01*
X194512500Y-37897000D01*
X194512500Y-36398000D01*
X196011500Y-36398000D01*
X196011500Y-37897000D01*
X196011500Y-37897000D01*
G37*
G36*
X251971500Y-37897000D02*
G01*
X250472500Y-37897000D01*
X250472500Y-36398000D01*
X251971500Y-36398000D01*
X251971500Y-37897000D01*
X251971500Y-37897000D01*
G37*
G36*
X178152500Y-37897000D02*
G01*
X176653500Y-37897000D01*
X176653500Y-36398000D01*
X178152500Y-36398000D01*
X178152500Y-37897000D01*
X178152500Y-37897000D01*
G37*
G36*
X159438627Y-34472037D02*
G01*
X159608466Y-34523557D01*
X159764991Y-34607222D01*
X159800729Y-34636552D01*
X159902186Y-34719814D01*
X159985448Y-34821271D01*
X160014778Y-34857009D01*
X160098443Y-35013534D01*
X160149963Y-35183373D01*
X160163000Y-35315742D01*
X160163000Y-36204258D01*
X160149963Y-36336627D01*
X160098443Y-36506466D01*
X160014778Y-36662991D01*
X159985448Y-36698729D01*
X159902186Y-36800186D01*
X159764989Y-36912779D01*
X159608467Y-36996442D01*
X159608465Y-36996443D01*
X159438626Y-37047963D01*
X159262000Y-37065359D01*
X159085373Y-37047963D01*
X158915534Y-36996443D01*
X158759009Y-36912778D01*
X158723271Y-36883448D01*
X158621814Y-36800186D01*
X158509221Y-36662989D01*
X158425558Y-36506467D01*
X158392655Y-36398000D01*
X158374037Y-36336626D01*
X158361000Y-36204257D01*
X158361000Y-35315742D01*
X158374038Y-35183373D01*
X158425558Y-35013534D01*
X158509223Y-34857009D01*
X158538553Y-34821271D01*
X158621815Y-34719814D01*
X158723272Y-34636552D01*
X158759010Y-34607222D01*
X158915535Y-34523557D01*
X159085374Y-34472037D01*
X159262000Y-34454641D01*
X159438627Y-34472037D01*
X159438627Y-34472037D01*
G37*
G36*
X254129000Y-35813500D02*
G01*
X253077000Y-35813500D01*
X253077000Y-34411500D01*
X254129000Y-34411500D01*
X254129000Y-35813500D01*
X254129000Y-35813500D01*
G37*
G36*
X251748000Y-35813500D02*
G01*
X250696000Y-35813500D01*
X250696000Y-34411500D01*
X251748000Y-34411500D01*
X251748000Y-35813500D01*
X251748000Y-35813500D01*
G37*
G36*
X235079000Y-35813500D02*
G01*
X234027000Y-35813500D01*
X234027000Y-34411500D01*
X235079000Y-34411500D01*
X235079000Y-35813500D01*
X235079000Y-35813500D01*
G37*
G36*
X232698000Y-35813500D02*
G01*
X231646000Y-35813500D01*
X231646000Y-34411500D01*
X232698000Y-34411500D01*
X232698000Y-35813500D01*
X232698000Y-35813500D01*
G37*
G36*
X214838000Y-35813500D02*
G01*
X213786000Y-35813500D01*
X213786000Y-34411500D01*
X214838000Y-34411500D01*
X214838000Y-35813500D01*
X214838000Y-35813500D01*
G37*
G36*
X195788000Y-35813500D02*
G01*
X194736000Y-35813500D01*
X194736000Y-34411500D01*
X195788000Y-34411500D01*
X195788000Y-35813500D01*
X195788000Y-35813500D01*
G37*
G36*
X177929000Y-35813500D02*
G01*
X176877000Y-35813500D01*
X176877000Y-34411500D01*
X177929000Y-34411500D01*
X177929000Y-35813500D01*
X177929000Y-35813500D01*
G37*
G36*
X175548000Y-35813500D02*
G01*
X174496000Y-35813500D01*
X174496000Y-34411500D01*
X175548000Y-34411500D01*
X175548000Y-35813500D01*
X175548000Y-35813500D01*
G37*
G36*
X155238627Y-32972037D02*
G01*
X155408466Y-33023557D01*
X155564991Y-33107222D01*
X155569594Y-33111000D01*
X155702186Y-33219814D01*
X155785448Y-33321271D01*
X155814778Y-33357009D01*
X155898443Y-33513534D01*
X155949963Y-33683373D01*
X155963000Y-33815742D01*
X155963000Y-34704258D01*
X155949963Y-34836627D01*
X155898443Y-35006466D01*
X155814778Y-35162991D01*
X155798051Y-35183373D01*
X155702186Y-35300186D01*
X155564989Y-35412779D01*
X155408467Y-35496442D01*
X155408465Y-35496443D01*
X155238626Y-35547963D01*
X155062000Y-35565359D01*
X154885373Y-35547963D01*
X154715534Y-35496443D01*
X154559009Y-35412778D01*
X154523271Y-35383448D01*
X154421814Y-35300186D01*
X154309221Y-35162989D01*
X154225558Y-35006467D01*
X154180221Y-34857011D01*
X154174037Y-34836626D01*
X154161000Y-34704257D01*
X154161000Y-33815742D01*
X154174038Y-33683373D01*
X154225558Y-33513534D01*
X154309223Y-33357009D01*
X154338553Y-33321271D01*
X154421815Y-33219814D01*
X154554407Y-33111000D01*
X154559010Y-33107222D01*
X154715535Y-33023557D01*
X154885374Y-32972037D01*
X155062000Y-32954641D01*
X155238627Y-32972037D01*
X155238627Y-32972037D01*
G37*
G36*
X157351890Y-31834017D02*
G01*
X157470364Y-31883091D01*
X157576988Y-31954335D01*
X157667665Y-32045012D01*
X157738909Y-32151636D01*
X157787983Y-32270110D01*
X157813000Y-32395882D01*
X157813000Y-32524118D01*
X157787983Y-32649890D01*
X157738909Y-32768364D01*
X157667665Y-32874988D01*
X157576988Y-32965665D01*
X157470364Y-33036909D01*
X157470363Y-33036910D01*
X157470362Y-33036910D01*
X157351890Y-33085983D01*
X157226119Y-33111000D01*
X157097881Y-33111000D01*
X156972110Y-33085983D01*
X156853638Y-33036910D01*
X156853637Y-33036910D01*
X156853636Y-33036909D01*
X156747012Y-32965665D01*
X156656335Y-32874988D01*
X156585091Y-32768364D01*
X156536017Y-32649890D01*
X156511000Y-32524118D01*
X156511000Y-32395882D01*
X156536017Y-32270110D01*
X156585091Y-32151636D01*
X156656335Y-32045012D01*
X156747012Y-31954335D01*
X156853636Y-31883091D01*
X156972110Y-31834017D01*
X157097881Y-31809000D01*
X157226119Y-31809000D01*
X157351890Y-31834017D01*
X157351890Y-31834017D01*
G37*
G36*
X235079000Y-32263500D02*
G01*
X234027000Y-32263500D01*
X234027000Y-30861500D01*
X235079000Y-30861500D01*
X235079000Y-32263500D01*
X235079000Y-32263500D01*
G37*
G36*
X232698000Y-32263500D02*
G01*
X231646000Y-32263500D01*
X231646000Y-30861500D01*
X232698000Y-30861500D01*
X232698000Y-32263500D01*
X232698000Y-32263500D01*
G37*
G36*
X175548000Y-32263500D02*
G01*
X174496000Y-32263500D01*
X174496000Y-30861500D01*
X175548000Y-30861500D01*
X175548000Y-32263500D01*
X175548000Y-32263500D01*
G37*
G36*
X254129000Y-32263500D02*
G01*
X253077000Y-32263500D01*
X253077000Y-30861500D01*
X254129000Y-30861500D01*
X254129000Y-32263500D01*
X254129000Y-32263500D01*
G37*
G36*
X251748000Y-32263500D02*
G01*
X250696000Y-32263500D01*
X250696000Y-30861500D01*
X251748000Y-30861500D01*
X251748000Y-32263500D01*
X251748000Y-32263500D01*
G37*
G36*
X177929000Y-32263500D02*
G01*
X176877000Y-32263500D01*
X176877000Y-30861500D01*
X177929000Y-30861500D01*
X177929000Y-32263500D01*
X177929000Y-32263500D01*
G37*
G36*
X195788000Y-32263500D02*
G01*
X194736000Y-32263500D01*
X194736000Y-30861500D01*
X195788000Y-30861500D01*
X195788000Y-32263500D01*
X195788000Y-32263500D01*
G37*
G36*
X214838000Y-32263500D02*
G01*
X213786000Y-32263500D01*
X213786000Y-30861500D01*
X214838000Y-30861500D01*
X214838000Y-32263500D01*
X214838000Y-32263500D01*
G37*
G36*
X155238627Y-28972037D02*
G01*
X155408466Y-29023557D01*
X155564991Y-29107222D01*
X155600729Y-29136552D01*
X155702186Y-29219814D01*
X155775279Y-29308880D01*
X155814778Y-29357009D01*
X155898443Y-29513534D01*
X155949963Y-29683373D01*
X155963000Y-29815742D01*
X155963000Y-30704258D01*
X155949963Y-30836627D01*
X155898443Y-31006466D01*
X155814778Y-31162991D01*
X155785448Y-31198729D01*
X155702186Y-31300186D01*
X155564989Y-31412779D01*
X155408467Y-31496442D01*
X155408465Y-31496443D01*
X155238626Y-31547963D01*
X155062000Y-31565359D01*
X154885373Y-31547963D01*
X154715534Y-31496443D01*
X154559009Y-31412778D01*
X154523271Y-31383448D01*
X154421814Y-31300186D01*
X154309221Y-31162989D01*
X154225558Y-31006467D01*
X154225557Y-31006465D01*
X154174037Y-30836626D01*
X154161000Y-30704257D01*
X154161000Y-29815742D01*
X154174038Y-29683373D01*
X154225558Y-29513534D01*
X154309223Y-29357009D01*
X154348722Y-29308880D01*
X154421815Y-29219814D01*
X154523272Y-29136552D01*
X154559010Y-29107222D01*
X154715535Y-29023557D01*
X154885374Y-28972037D01*
X155062000Y-28954641D01*
X155238627Y-28972037D01*
X155238627Y-28972037D01*
G37*
G36*
X195356425Y-28782099D02*
G01*
X195480621Y-28806802D01*
X195617022Y-28863301D01*
X195739779Y-28945325D01*
X195844175Y-29049721D01*
X195926199Y-29172478D01*
X195982698Y-29308879D01*
X196011500Y-29453681D01*
X196011500Y-29601319D01*
X195982698Y-29746121D01*
X195926199Y-29882522D01*
X195844175Y-30005279D01*
X195739779Y-30109675D01*
X195617022Y-30191699D01*
X195480621Y-30248198D01*
X195356425Y-30272901D01*
X195335820Y-30277000D01*
X195188180Y-30277000D01*
X195167575Y-30272901D01*
X195043379Y-30248198D01*
X194906978Y-30191699D01*
X194784221Y-30109675D01*
X194679825Y-30005279D01*
X194597801Y-29882522D01*
X194541302Y-29746121D01*
X194512500Y-29601319D01*
X194512500Y-29453681D01*
X194541302Y-29308879D01*
X194597801Y-29172478D01*
X194679825Y-29049721D01*
X194784221Y-28945325D01*
X194906978Y-28863301D01*
X195043379Y-28806802D01*
X195167575Y-28782099D01*
X195188180Y-28778000D01*
X195335820Y-28778000D01*
X195356425Y-28782099D01*
X195356425Y-28782099D01*
G37*
G36*
X177497425Y-28782099D02*
G01*
X177621621Y-28806802D01*
X177758022Y-28863301D01*
X177880779Y-28945325D01*
X177985175Y-29049721D01*
X178067199Y-29172478D01*
X178123698Y-29308879D01*
X178152500Y-29453681D01*
X178152500Y-29601319D01*
X178123698Y-29746121D01*
X178067199Y-29882522D01*
X177985175Y-30005279D01*
X177880779Y-30109675D01*
X177758022Y-30191699D01*
X177621621Y-30248198D01*
X177497425Y-30272901D01*
X177476820Y-30277000D01*
X177329180Y-30277000D01*
X177308575Y-30272901D01*
X177184379Y-30248198D01*
X177047978Y-30191699D01*
X176925221Y-30109675D01*
X176820825Y-30005279D01*
X176738801Y-29882522D01*
X176682302Y-29746121D01*
X176653500Y-29601319D01*
X176653500Y-29453681D01*
X176682302Y-29308879D01*
X176738801Y-29172478D01*
X176820825Y-29049721D01*
X176925221Y-28945325D01*
X177047978Y-28863301D01*
X177184379Y-28806802D01*
X177308575Y-28782099D01*
X177329180Y-28778000D01*
X177476820Y-28778000D01*
X177497425Y-28782099D01*
X177497425Y-28782099D01*
G37*
G36*
X214406425Y-28782099D02*
G01*
X214530621Y-28806802D01*
X214667022Y-28863301D01*
X214789779Y-28945325D01*
X214894175Y-29049721D01*
X214976199Y-29172478D01*
X215032698Y-29308879D01*
X215061500Y-29453681D01*
X215061500Y-29601319D01*
X215032698Y-29746121D01*
X214976199Y-29882522D01*
X214894175Y-30005279D01*
X214789779Y-30109675D01*
X214667022Y-30191699D01*
X214530621Y-30248198D01*
X214406425Y-30272901D01*
X214385820Y-30277000D01*
X214238180Y-30277000D01*
X214217575Y-30272901D01*
X214093379Y-30248198D01*
X213956978Y-30191699D01*
X213834221Y-30109675D01*
X213729825Y-30005279D01*
X213647801Y-29882522D01*
X213591302Y-29746121D01*
X213562500Y-29601319D01*
X213562500Y-29453681D01*
X213591302Y-29308879D01*
X213647801Y-29172478D01*
X213729825Y-29049721D01*
X213834221Y-28945325D01*
X213956978Y-28863301D01*
X214093379Y-28806802D01*
X214217575Y-28782099D01*
X214238180Y-28778000D01*
X214385820Y-28778000D01*
X214406425Y-28782099D01*
X214406425Y-28782099D01*
G37*
G36*
X232266425Y-28782099D02*
G01*
X232390621Y-28806802D01*
X232527022Y-28863301D01*
X232649779Y-28945325D01*
X232754175Y-29049721D01*
X232836199Y-29172478D01*
X232892698Y-29308879D01*
X232921500Y-29453681D01*
X232921500Y-29601319D01*
X232892698Y-29746121D01*
X232836199Y-29882522D01*
X232754175Y-30005279D01*
X232649779Y-30109675D01*
X232527022Y-30191699D01*
X232390621Y-30248198D01*
X232266425Y-30272901D01*
X232245820Y-30277000D01*
X232098180Y-30277000D01*
X232077575Y-30272901D01*
X231953379Y-30248198D01*
X231816978Y-30191699D01*
X231694221Y-30109675D01*
X231589825Y-30005279D01*
X231507801Y-29882522D01*
X231451302Y-29746121D01*
X231422500Y-29601319D01*
X231422500Y-29453681D01*
X231451302Y-29308879D01*
X231507801Y-29172478D01*
X231589825Y-29049721D01*
X231694221Y-28945325D01*
X231816978Y-28863301D01*
X231953379Y-28806802D01*
X232077575Y-28782099D01*
X232098180Y-28778000D01*
X232245820Y-28778000D01*
X232266425Y-28782099D01*
X232266425Y-28782099D01*
G37*
G36*
X175116425Y-28782099D02*
G01*
X175240621Y-28806802D01*
X175377022Y-28863301D01*
X175499779Y-28945325D01*
X175604175Y-29049721D01*
X175686199Y-29172478D01*
X175742698Y-29308879D01*
X175771500Y-29453681D01*
X175771500Y-29601319D01*
X175742698Y-29746121D01*
X175686199Y-29882522D01*
X175604175Y-30005279D01*
X175499779Y-30109675D01*
X175377022Y-30191699D01*
X175240621Y-30248198D01*
X175116425Y-30272901D01*
X175095820Y-30277000D01*
X174948180Y-30277000D01*
X174927575Y-30272901D01*
X174803379Y-30248198D01*
X174666978Y-30191699D01*
X174544221Y-30109675D01*
X174439825Y-30005279D01*
X174357801Y-29882522D01*
X174301302Y-29746121D01*
X174272500Y-29601319D01*
X174272500Y-29453681D01*
X174301302Y-29308879D01*
X174357801Y-29172478D01*
X174439825Y-29049721D01*
X174544221Y-28945325D01*
X174666978Y-28863301D01*
X174803379Y-28806802D01*
X174927575Y-28782099D01*
X174948180Y-28778000D01*
X175095820Y-28778000D01*
X175116425Y-28782099D01*
X175116425Y-28782099D01*
G37*
G36*
X234647425Y-28782099D02*
G01*
X234771621Y-28806802D01*
X234908022Y-28863301D01*
X235030779Y-28945325D01*
X235135175Y-29049721D01*
X235217199Y-29172478D01*
X235273698Y-29308879D01*
X235302500Y-29453681D01*
X235302500Y-29601319D01*
X235273698Y-29746121D01*
X235217199Y-29882522D01*
X235135175Y-30005279D01*
X235030779Y-30109675D01*
X234908022Y-30191699D01*
X234771621Y-30248198D01*
X234647425Y-30272901D01*
X234626820Y-30277000D01*
X234479180Y-30277000D01*
X234458575Y-30272901D01*
X234334379Y-30248198D01*
X234197978Y-30191699D01*
X234075221Y-30109675D01*
X233970825Y-30005279D01*
X233888801Y-29882522D01*
X233832302Y-29746121D01*
X233803500Y-29601319D01*
X233803500Y-29453681D01*
X233832302Y-29308879D01*
X233888801Y-29172478D01*
X233970825Y-29049721D01*
X234075221Y-28945325D01*
X234197978Y-28863301D01*
X234334379Y-28806802D01*
X234458575Y-28782099D01*
X234479180Y-28778000D01*
X234626820Y-28778000D01*
X234647425Y-28782099D01*
X234647425Y-28782099D01*
G37*
G36*
X251316425Y-28782099D02*
G01*
X251440621Y-28806802D01*
X251577022Y-28863301D01*
X251699779Y-28945325D01*
X251804175Y-29049721D01*
X251886199Y-29172478D01*
X251942698Y-29308879D01*
X251971500Y-29453681D01*
X251971500Y-29601319D01*
X251942698Y-29746121D01*
X251886199Y-29882522D01*
X251804175Y-30005279D01*
X251699779Y-30109675D01*
X251577022Y-30191699D01*
X251440621Y-30248198D01*
X251316425Y-30272901D01*
X251295820Y-30277000D01*
X251148180Y-30277000D01*
X251127575Y-30272901D01*
X251003379Y-30248198D01*
X250866978Y-30191699D01*
X250744221Y-30109675D01*
X250639825Y-30005279D01*
X250557801Y-29882522D01*
X250501302Y-29746121D01*
X250472500Y-29601319D01*
X250472500Y-29453681D01*
X250501302Y-29308879D01*
X250557801Y-29172478D01*
X250639825Y-29049721D01*
X250744221Y-28945325D01*
X250866978Y-28863301D01*
X251003379Y-28806802D01*
X251127575Y-28782099D01*
X251148180Y-28778000D01*
X251295820Y-28778000D01*
X251316425Y-28782099D01*
X251316425Y-28782099D01*
G37*
G36*
X253697425Y-28782099D02*
G01*
X253821621Y-28806802D01*
X253958022Y-28863301D01*
X254080779Y-28945325D01*
X254185175Y-29049721D01*
X254267199Y-29172478D01*
X254323698Y-29308879D01*
X254352500Y-29453681D01*
X254352500Y-29601319D01*
X254323698Y-29746121D01*
X254267199Y-29882522D01*
X254185175Y-30005279D01*
X254080779Y-30109675D01*
X253958022Y-30191699D01*
X253821621Y-30248198D01*
X253697425Y-30272901D01*
X253676820Y-30277000D01*
X253529180Y-30277000D01*
X253508575Y-30272901D01*
X253384379Y-30248198D01*
X253247978Y-30191699D01*
X253125221Y-30109675D01*
X253020825Y-30005279D01*
X252938801Y-29882522D01*
X252882302Y-29746121D01*
X252853500Y-29601319D01*
X252853500Y-29453681D01*
X252882302Y-29308879D01*
X252938801Y-29172478D01*
X253020825Y-29049721D01*
X253125221Y-28945325D01*
X253247978Y-28863301D01*
X253384379Y-28806802D01*
X253508575Y-28782099D01*
X253529180Y-28778000D01*
X253676820Y-28778000D01*
X253697425Y-28782099D01*
X253697425Y-28782099D01*
G37*
G36*
X155238627Y-25972037D02*
G01*
X155408466Y-26023557D01*
X155564991Y-26107222D01*
X155569839Y-26111201D01*
X155702186Y-26219814D01*
X155785448Y-26321271D01*
X155814778Y-26357009D01*
X155898443Y-26513534D01*
X155949963Y-26683373D01*
X155963000Y-26815742D01*
X155963000Y-27704258D01*
X155949963Y-27836627D01*
X155898443Y-28006466D01*
X155814778Y-28162991D01*
X155785448Y-28198729D01*
X155702186Y-28300186D01*
X155564989Y-28412779D01*
X155408467Y-28496442D01*
X155408465Y-28496443D01*
X155238626Y-28547963D01*
X155062000Y-28565359D01*
X154885373Y-28547963D01*
X154715534Y-28496443D01*
X154559009Y-28412778D01*
X154523271Y-28383448D01*
X154421814Y-28300186D01*
X154309221Y-28162989D01*
X154225558Y-28006467D01*
X154225557Y-28006465D01*
X154174037Y-27836626D01*
X154161000Y-27704257D01*
X154161000Y-26815742D01*
X154174038Y-26683373D01*
X154225558Y-26513534D01*
X154309223Y-26357009D01*
X154338553Y-26321271D01*
X154421815Y-26219814D01*
X154554162Y-26111201D01*
X154559010Y-26107222D01*
X154715535Y-26023557D01*
X154885374Y-25972037D01*
X155062000Y-25954641D01*
X155238627Y-25972037D01*
X155238627Y-25972037D01*
G37*
G36*
X295105142Y-24944342D02*
G01*
X295253101Y-25005629D01*
X295386255Y-25094599D01*
X295499501Y-25207845D01*
X295588471Y-25340999D01*
X295649758Y-25488958D01*
X295681000Y-25646025D01*
X295681000Y-25806175D01*
X295649758Y-25963242D01*
X295588471Y-26111201D01*
X295499501Y-26244355D01*
X295386255Y-26357601D01*
X295253101Y-26446571D01*
X295105142Y-26507858D01*
X294948075Y-26539100D01*
X294787925Y-26539100D01*
X294630858Y-26507858D01*
X294482899Y-26446571D01*
X294349745Y-26357601D01*
X294236499Y-26244355D01*
X294147529Y-26111201D01*
X294086242Y-25963242D01*
X294055000Y-25806175D01*
X294055000Y-25646025D01*
X294086242Y-25488958D01*
X294147529Y-25340999D01*
X294236499Y-25207845D01*
X294349745Y-25094599D01*
X294482899Y-25005629D01*
X294630858Y-24944342D01*
X294787925Y-24913100D01*
X294948075Y-24913100D01*
X295105142Y-24944342D01*
X295105142Y-24944342D01*
G37*
G36*
X292565142Y-24944342D02*
G01*
X292713101Y-25005629D01*
X292846255Y-25094599D01*
X292959501Y-25207845D01*
X293048471Y-25340999D01*
X293109758Y-25488958D01*
X293141000Y-25646025D01*
X293141000Y-25806175D01*
X293109758Y-25963242D01*
X293048471Y-26111201D01*
X292959501Y-26244355D01*
X292846255Y-26357601D01*
X292713101Y-26446571D01*
X292565142Y-26507858D01*
X292408075Y-26539100D01*
X292247925Y-26539100D01*
X292090858Y-26507858D01*
X291942899Y-26446571D01*
X291809745Y-26357601D01*
X291696499Y-26244355D01*
X291607529Y-26111201D01*
X291546242Y-25963242D01*
X291515000Y-25806175D01*
X291515000Y-25646025D01*
X291546242Y-25488958D01*
X291607529Y-25340999D01*
X291696499Y-25207845D01*
X291809745Y-25094599D01*
X291942899Y-25005629D01*
X292090858Y-24944342D01*
X292247925Y-24913100D01*
X292408075Y-24913100D01*
X292565142Y-24944342D01*
X292565142Y-24944342D01*
G37*
G36*
X290025142Y-24944342D02*
G01*
X290173101Y-25005629D01*
X290306255Y-25094599D01*
X290419501Y-25207845D01*
X290508471Y-25340999D01*
X290569758Y-25488958D01*
X290601000Y-25646025D01*
X290601000Y-25806175D01*
X290569758Y-25963242D01*
X290508471Y-26111201D01*
X290419501Y-26244355D01*
X290306255Y-26357601D01*
X290173101Y-26446571D01*
X290025142Y-26507858D01*
X289868075Y-26539100D01*
X289707925Y-26539100D01*
X289550858Y-26507858D01*
X289402899Y-26446571D01*
X289269745Y-26357601D01*
X289156499Y-26244355D01*
X289067529Y-26111201D01*
X289006242Y-25963242D01*
X288975000Y-25806175D01*
X288975000Y-25646025D01*
X289006242Y-25488958D01*
X289067529Y-25340999D01*
X289156499Y-25207845D01*
X289269745Y-25094599D01*
X289402899Y-25005629D01*
X289550858Y-24944342D01*
X289707925Y-24913100D01*
X289868075Y-24913100D01*
X290025142Y-24944342D01*
X290025142Y-24944342D01*
G37*
G36*
X287485142Y-24944342D02*
G01*
X287633101Y-25005629D01*
X287766255Y-25094599D01*
X287879501Y-25207845D01*
X287968471Y-25340999D01*
X288029758Y-25488958D01*
X288061000Y-25646025D01*
X288061000Y-25806175D01*
X288029758Y-25963242D01*
X287968471Y-26111201D01*
X287879501Y-26244355D01*
X287766255Y-26357601D01*
X287633101Y-26446571D01*
X287485142Y-26507858D01*
X287328075Y-26539100D01*
X287167925Y-26539100D01*
X287010858Y-26507858D01*
X286862899Y-26446571D01*
X286729745Y-26357601D01*
X286616499Y-26244355D01*
X286527529Y-26111201D01*
X286466242Y-25963242D01*
X286435000Y-25806175D01*
X286435000Y-25646025D01*
X286466242Y-25488958D01*
X286527529Y-25340999D01*
X286616499Y-25207845D01*
X286729745Y-25094599D01*
X286862899Y-25005629D01*
X287010858Y-24944342D01*
X287167925Y-24913100D01*
X287328075Y-24913100D01*
X287485142Y-24944342D01*
X287485142Y-24944342D01*
G37*
G36*
X284945142Y-24944342D02*
G01*
X285093101Y-25005629D01*
X285226255Y-25094599D01*
X285339501Y-25207845D01*
X285428471Y-25340999D01*
X285489758Y-25488958D01*
X285521000Y-25646025D01*
X285521000Y-25806175D01*
X285489758Y-25963242D01*
X285428471Y-26111201D01*
X285339501Y-26244355D01*
X285226255Y-26357601D01*
X285093101Y-26446571D01*
X284945142Y-26507858D01*
X284788075Y-26539100D01*
X284627925Y-26539100D01*
X284470858Y-26507858D01*
X284322899Y-26446571D01*
X284189745Y-26357601D01*
X284076499Y-26244355D01*
X283987529Y-26111201D01*
X283926242Y-25963242D01*
X283895000Y-25806175D01*
X283895000Y-25646025D01*
X283926242Y-25488958D01*
X283987529Y-25340999D01*
X284076499Y-25207845D01*
X284189745Y-25094599D01*
X284322899Y-25005629D01*
X284470858Y-24944342D01*
X284627925Y-24913100D01*
X284788075Y-24913100D01*
X284945142Y-24944342D01*
X284945142Y-24944342D01*
G37*
G36*
X282405142Y-24944342D02*
G01*
X282553101Y-25005629D01*
X282686255Y-25094599D01*
X282799501Y-25207845D01*
X282888471Y-25340999D01*
X282949758Y-25488958D01*
X282981000Y-25646025D01*
X282981000Y-25806175D01*
X282949758Y-25963242D01*
X282888471Y-26111201D01*
X282799501Y-26244355D01*
X282686255Y-26357601D01*
X282553101Y-26446571D01*
X282405142Y-26507858D01*
X282248075Y-26539100D01*
X282087925Y-26539100D01*
X281930858Y-26507858D01*
X281782899Y-26446571D01*
X281649745Y-26357601D01*
X281536499Y-26244355D01*
X281447529Y-26111201D01*
X281386242Y-25963242D01*
X281355000Y-25806175D01*
X281355000Y-25646025D01*
X281386242Y-25488958D01*
X281447529Y-25340999D01*
X281536499Y-25207845D01*
X281649745Y-25094599D01*
X281782899Y-25005629D01*
X281930858Y-24944342D01*
X282087925Y-24913100D01*
X282248075Y-24913100D01*
X282405142Y-24944342D01*
X282405142Y-24944342D01*
G37*
G36*
X279865142Y-24944342D02*
G01*
X280013101Y-25005629D01*
X280146255Y-25094599D01*
X280259501Y-25207845D01*
X280348471Y-25340999D01*
X280409758Y-25488958D01*
X280441000Y-25646025D01*
X280441000Y-25806175D01*
X280409758Y-25963242D01*
X280348471Y-26111201D01*
X280259501Y-26244355D01*
X280146255Y-26357601D01*
X280013101Y-26446571D01*
X279865142Y-26507858D01*
X279708075Y-26539100D01*
X279547925Y-26539100D01*
X279390858Y-26507858D01*
X279242899Y-26446571D01*
X279109745Y-26357601D01*
X278996499Y-26244355D01*
X278907529Y-26111201D01*
X278846242Y-25963242D01*
X278815000Y-25806175D01*
X278815000Y-25646025D01*
X278846242Y-25488958D01*
X278907529Y-25340999D01*
X278996499Y-25207845D01*
X279109745Y-25094599D01*
X279242899Y-25005629D01*
X279390858Y-24944342D01*
X279547925Y-24913100D01*
X279708075Y-24913100D01*
X279865142Y-24944342D01*
X279865142Y-24944342D01*
G37*
G36*
X277325142Y-24944342D02*
G01*
X277473101Y-25005629D01*
X277606255Y-25094599D01*
X277719501Y-25207845D01*
X277808471Y-25340999D01*
X277869758Y-25488958D01*
X277901000Y-25646025D01*
X277901000Y-25806175D01*
X277869758Y-25963242D01*
X277808471Y-26111201D01*
X277719501Y-26244355D01*
X277606255Y-26357601D01*
X277473101Y-26446571D01*
X277325142Y-26507858D01*
X277168075Y-26539100D01*
X277007925Y-26539100D01*
X276850858Y-26507858D01*
X276702899Y-26446571D01*
X276569745Y-26357601D01*
X276456499Y-26244355D01*
X276367529Y-26111201D01*
X276306242Y-25963242D01*
X276275000Y-25806175D01*
X276275000Y-25646025D01*
X276306242Y-25488958D01*
X276367529Y-25340999D01*
X276456499Y-25207845D01*
X276569745Y-25094599D01*
X276702899Y-25005629D01*
X276850858Y-24944342D01*
X277007925Y-24913100D01*
X277168075Y-24913100D01*
X277325142Y-24944342D01*
X277325142Y-24944342D01*
G37*
G36*
X274785142Y-24944342D02*
G01*
X274933101Y-25005629D01*
X275066255Y-25094599D01*
X275179501Y-25207845D01*
X275268471Y-25340999D01*
X275329758Y-25488958D01*
X275361000Y-25646025D01*
X275361000Y-25806175D01*
X275329758Y-25963242D01*
X275268471Y-26111201D01*
X275179501Y-26244355D01*
X275066255Y-26357601D01*
X274933101Y-26446571D01*
X274785142Y-26507858D01*
X274628075Y-26539100D01*
X274467925Y-26539100D01*
X274310858Y-26507858D01*
X274162899Y-26446571D01*
X274029745Y-26357601D01*
X273916499Y-26244355D01*
X273827529Y-26111201D01*
X273766242Y-25963242D01*
X273735000Y-25806175D01*
X273735000Y-25646025D01*
X273766242Y-25488958D01*
X273827529Y-25340999D01*
X273916499Y-25207845D01*
X274029745Y-25094599D01*
X274162899Y-25005629D01*
X274310858Y-24944342D01*
X274467925Y-24913100D01*
X274628075Y-24913100D01*
X274785142Y-24944342D01*
X274785142Y-24944342D01*
G37*
G36*
X272245142Y-24944342D02*
G01*
X272393101Y-25005629D01*
X272526255Y-25094599D01*
X272639501Y-25207845D01*
X272728471Y-25340999D01*
X272789758Y-25488958D01*
X272821000Y-25646025D01*
X272821000Y-25806175D01*
X272789758Y-25963242D01*
X272728471Y-26111201D01*
X272639501Y-26244355D01*
X272526255Y-26357601D01*
X272393101Y-26446571D01*
X272245142Y-26507858D01*
X272088075Y-26539100D01*
X271927925Y-26539100D01*
X271770858Y-26507858D01*
X271622899Y-26446571D01*
X271489745Y-26357601D01*
X271376499Y-26244355D01*
X271287529Y-26111201D01*
X271226242Y-25963242D01*
X271195000Y-25806175D01*
X271195000Y-25646025D01*
X271226242Y-25488958D01*
X271287529Y-25340999D01*
X271376499Y-25207845D01*
X271489745Y-25094599D01*
X271622899Y-25005629D01*
X271770858Y-24944342D01*
X271927925Y-24913100D01*
X272088075Y-24913100D01*
X272245142Y-24944342D01*
X272245142Y-24944342D01*
G37*
G36*
X269705142Y-24944342D02*
G01*
X269853101Y-25005629D01*
X269986255Y-25094599D01*
X270099501Y-25207845D01*
X270188471Y-25340999D01*
X270249758Y-25488958D01*
X270281000Y-25646025D01*
X270281000Y-25806175D01*
X270249758Y-25963242D01*
X270188471Y-26111201D01*
X270099501Y-26244355D01*
X269986255Y-26357601D01*
X269853101Y-26446571D01*
X269705142Y-26507858D01*
X269548075Y-26539100D01*
X269387925Y-26539100D01*
X269230858Y-26507858D01*
X269082899Y-26446571D01*
X268949745Y-26357601D01*
X268836499Y-26244355D01*
X268747529Y-26111201D01*
X268686242Y-25963242D01*
X268655000Y-25806175D01*
X268655000Y-25646025D01*
X268686242Y-25488958D01*
X268747529Y-25340999D01*
X268836499Y-25207845D01*
X268949745Y-25094599D01*
X269082899Y-25005629D01*
X269230858Y-24944342D01*
X269387925Y-24913100D01*
X269548075Y-24913100D01*
X269705142Y-24944342D01*
X269705142Y-24944342D01*
G37*
G36*
X267165142Y-24944342D02*
G01*
X267313101Y-25005629D01*
X267446255Y-25094599D01*
X267559501Y-25207845D01*
X267648471Y-25340999D01*
X267709758Y-25488958D01*
X267741000Y-25646025D01*
X267741000Y-25806175D01*
X267709758Y-25963242D01*
X267648471Y-26111201D01*
X267559501Y-26244355D01*
X267446255Y-26357601D01*
X267313101Y-26446571D01*
X267165142Y-26507858D01*
X267008075Y-26539100D01*
X266847925Y-26539100D01*
X266690858Y-26507858D01*
X266542899Y-26446571D01*
X266409745Y-26357601D01*
X266296499Y-26244355D01*
X266207529Y-26111201D01*
X266146242Y-25963242D01*
X266115000Y-25806175D01*
X266115000Y-25646025D01*
X266146242Y-25488958D01*
X266207529Y-25340999D01*
X266296499Y-25207845D01*
X266409745Y-25094599D01*
X266542899Y-25005629D01*
X266690858Y-24944342D01*
X266847925Y-24913100D01*
X267008075Y-24913100D01*
X267165142Y-24944342D01*
X267165142Y-24944342D01*
G37*
G36*
X157351890Y-24834017D02*
G01*
X157470364Y-24883091D01*
X157576988Y-24954335D01*
X157667665Y-25045012D01*
X157738909Y-25151636D01*
X157787983Y-25270110D01*
X157813000Y-25395882D01*
X157813000Y-25524118D01*
X157787983Y-25649890D01*
X157738909Y-25768364D01*
X157667665Y-25874988D01*
X157576988Y-25965665D01*
X157470364Y-26036909D01*
X157470363Y-26036910D01*
X157470362Y-26036910D01*
X157351890Y-26085983D01*
X157226119Y-26111000D01*
X157097881Y-26111000D01*
X156972110Y-26085983D01*
X156853638Y-26036910D01*
X156853637Y-26036910D01*
X156853636Y-26036909D01*
X156747012Y-25965665D01*
X156656335Y-25874988D01*
X156585091Y-25768364D01*
X156536017Y-25649890D01*
X156511000Y-25524118D01*
X156511000Y-25395882D01*
X156536017Y-25270110D01*
X156585091Y-25151636D01*
X156656335Y-25045012D01*
X156747012Y-24954335D01*
X156853636Y-24883091D01*
X156972110Y-24834017D01*
X157097881Y-24809000D01*
X157226119Y-24809000D01*
X157351890Y-24834017D01*
X157351890Y-24834017D01*
G37*
M02*
