M48
; DRILL file {KiCad (5.1.2-1)-1} date 2019 August 02, Friday 10:30:47
; FORMAT={-:-/ absolute / metric / decimal}
; #@! TF.CreationDate,2019-08-02T10:30:47+09:00
; #@! TF.GenerationSoftware,Kicad,Pcbnew,(5.1.2-1)-1
; #@! TF.FileFunction,Plated,1,2,PTH
FMAT,2
METRIC
T1C0.813
T2C1.000
T3C1.300
T4C1.470
%
G90
G05
T1
X42.862Y-29.527
X42.862Y-37.148
X66.675Y-86.677
X66.675Y-94.297
X77.391Y-67.627
X77.391Y-75.248
X156.47Y-105.728
X156.47Y-113.348
X104.775Y-86.677
X104.775Y-94.297
X101.203Y-29.527
X101.203Y-37.148
X90.487Y-48.578
X90.487Y-56.197
X141.684Y-86.677
X141.684Y-94.297
X114.3Y-67.627
X114.3Y-75.248
X127.397Y-48.578
X127.397Y-56.197
X42.862Y-105.728
X42.862Y-113.348
X79.772Y-29.527
X79.772Y-37.148
X75.009Y-67.627
X75.009Y-75.248
X95.25Y-105.728
X95.25Y-113.348
X29.042Y-63.829
X29.042Y-79.049
X31.582Y-63.829
X31.582Y-79.049
X34.122Y-63.829
X34.122Y-79.049
X36.662Y-63.829
X36.662Y-79.049
X39.202Y-63.829
X39.202Y-79.049
X41.742Y-63.829
X41.742Y-79.049
X44.282Y-63.829
X44.282Y-79.049
X46.822Y-63.829
X46.822Y-79.049
X49.362Y-63.829
X49.362Y-79.049
X51.902Y-63.829
X51.902Y-79.049
X54.442Y-63.829
X54.442Y-79.049
X56.982Y-63.829
X56.982Y-79.049
X134.541Y-67.627
X134.541Y-75.248
X150.019Y-105.728
X150.019Y-113.348
X98.822Y-29.527
X98.822Y-37.148
X71.438Y-48.578
X71.438Y-56.197
X85.725Y-86.677
X85.725Y-94.297
X123.825Y-86.677
X123.825Y-94.297
X95.25Y-67.627
X95.25Y-75.248
X109.538Y-48.578
X109.538Y-56.197
X144.066Y-86.677
X144.066Y-94.297
X61.912Y-29.527
X61.912Y-37.148
X52.387Y-48.578
X52.387Y-56.197
X129.778Y-48.578
X129.778Y-56.197
X61.912Y-105.728
X61.912Y-113.348
X82.153Y-29.527
X82.153Y-37.148
X132.159Y-67.627
X132.159Y-75.248
T3
X25.69Y-49.137
X25.69Y-55.637
T4
X59.412Y-48.387
X64.412Y-47.887
X111.8Y-86.487
X116.8Y-85.987
X37.981Y-67.438
X42.981Y-66.938
X140.375Y-67.438
X145.375Y-66.938
X87.987Y-29.337
X92.987Y-28.837
X30.837Y-105.538
X35.837Y-105.038
X78.462Y-48.387
X83.462Y-47.887
X64.175Y-67.438
X69.175Y-66.938
X137.994Y-105.538
X142.994Y-105.038
X130.85Y-86.487
X135.85Y-85.987
X49.887Y-105.538
X54.887Y-105.038
X97.512Y-48.387
X102.512Y-47.887
X42.744Y-86.487
X47.744Y-85.987
X107.038Y-29.337
X112.038Y-28.837
X30.837Y-29.337
X35.837Y-28.837
X83.225Y-67.438
X88.225Y-66.938
X73.7Y-86.487
X78.7Y-85.987
X126.088Y-29.337
X131.088Y-28.837
X116.562Y-48.387
X121.562Y-47.887
X49.887Y-29.337
X54.887Y-28.837
X102.275Y-67.438
X107.275Y-66.938
X76.081Y-105.538
X81.081Y-105.038
X35.6Y-48.387
X40.6Y-47.887
X135.612Y-48.387
X140.612Y-47.887
X163.479Y-105.613
X168.479Y-105.113
X92.75Y-86.487
X97.75Y-85.987
X121.325Y-67.438
X126.325Y-66.938
X68.938Y-29.337
X73.938Y-28.837
X149.9Y-86.487
X154.9Y-85.987
T2
G00X116.962Y-27.51
M15
G01X116.962Y-27.01
M16
G05
G00X116.962Y-30.51
M15
G01X116.962Y-30.01
M16
G05
G00X116.962Y-34.51
M15
G01X116.962Y-34.01
M16
G05
G00X121.162Y-36.01
M15
G01X121.162Y-35.51
M16
G05
T0
M30
